%TF.GenerationSoftware,KiCad,Pcbnew,8.0.4*%
%TF.CreationDate,2024-08-30T15:48:32+02:00*%
%TF.ProjectId,sram,7372616d-2e6b-4696-9361-645f70636258,rev?*%
%TF.SameCoordinates,Original*%
%TF.FileFunction,Soldermask,Top*%
%TF.FilePolarity,Negative*%
%FSLAX46Y46*%
G04 Gerber Fmt 4.6, Leading zero omitted, Abs format (unit mm)*
G04 Created by KiCad (PCBNEW 8.0.4) date 2024-08-30 15:48:32*
%MOMM*%
%LPD*%
G01*
G04 APERTURE LIST*
G04 Aperture macros list*
%AMRoundRect*
0 Rectangle with rounded corners*
0 $1 Rounding radius*
0 $2 $3 $4 $5 $6 $7 $8 $9 X,Y pos of 4 corners*
0 Add a 4 corners polygon primitive as box body*
4,1,4,$2,$3,$4,$5,$6,$7,$8,$9,$2,$3,0*
0 Add four circle primitives for the rounded corners*
1,1,$1+$1,$2,$3*
1,1,$1+$1,$4,$5*
1,1,$1+$1,$6,$7*
1,1,$1+$1,$8,$9*
0 Add four rect primitives between the rounded corners*
20,1,$1+$1,$2,$3,$4,$5,0*
20,1,$1+$1,$4,$5,$6,$7,0*
20,1,$1+$1,$6,$7,$8,$9,0*
20,1,$1+$1,$8,$9,$2,$3,0*%
G04 Aperture macros list end*
%ADD10C,0.100000*%
%ADD11RoundRect,0.250000X0.250000X0.475000X-0.250000X0.475000X-0.250000X-0.475000X0.250000X-0.475000X0*%
%ADD12R,1.520000X0.600000*%
%ADD13RoundRect,0.250000X-0.250000X-0.475000X0.250000X-0.475000X0.250000X0.475000X-0.250000X0.475000X0*%
%ADD14RoundRect,0.250000X0.412500X0.650000X-0.412500X0.650000X-0.412500X-0.650000X0.412500X-0.650000X0*%
%ADD15O,0.450000X1.550000*%
%ADD16RoundRect,0.150000X-0.875000X-0.150000X0.875000X-0.150000X0.875000X0.150000X-0.875000X0.150000X0*%
%ADD17RoundRect,0.250000X-0.262500X-0.450000X0.262500X-0.450000X0.262500X0.450000X-0.262500X0.450000X0*%
%ADD18C,4.000000*%
G04 APERTURE END LIST*
D10*
X223974066Y-100905195D02*
X229618859Y-100905195D01*
X229618859Y-103084717D01*
X223974066Y-103084717D01*
X223974066Y-100905195D01*
G36*
X223974066Y-100905195D02*
G01*
X229618859Y-100905195D01*
X229618859Y-103084717D01*
X223974066Y-103084717D01*
X223974066Y-100905195D01*
G37*
%TO.C,J1*%
X147236262Y-105030444D02*
X208200000Y-105030444D01*
X208200000Y-112040812D01*
X147236262Y-112040812D01*
X147236262Y-105030444D01*
G36*
X147236262Y-105030444D02*
G01*
X208200000Y-105030444D01*
X208200000Y-112040812D01*
X147236262Y-112040812D01*
X147236262Y-105030444D01*
G37*
%TD*%
D11*
%TO.C,C3*%
X226300000Y-71950000D03*
X224400000Y-71950000D03*
%TD*%
D12*
%TO.C,U3*%
X193473332Y-75047500D03*
X193473332Y-76317500D03*
X193473332Y-77587500D03*
X193473332Y-78857500D03*
X193473332Y-80127500D03*
X193473332Y-81397500D03*
X193473332Y-82667500D03*
X193473332Y-83937500D03*
X193473332Y-85207500D03*
X193473332Y-86477500D03*
X193473332Y-87747500D03*
X193473332Y-89017500D03*
X193473332Y-90287500D03*
X193473332Y-91557500D03*
X200233332Y-91557500D03*
X200233332Y-90287500D03*
X200233332Y-89017500D03*
X200233332Y-87747500D03*
X200233332Y-86477500D03*
X200233332Y-85207500D03*
X200233332Y-83937500D03*
X200233332Y-82667500D03*
X200233332Y-81397500D03*
X200233332Y-80127500D03*
X200233332Y-78857500D03*
X200233332Y-77587500D03*
X200233332Y-76317500D03*
X200233332Y-75047500D03*
%TD*%
%TO.C,U1*%
X219540000Y-75047500D03*
X219540000Y-76317500D03*
X219540000Y-77587500D03*
X219540000Y-78857500D03*
X219540000Y-80127500D03*
X219540000Y-81397500D03*
X219540000Y-82667500D03*
X219540000Y-83937500D03*
X219540000Y-85207500D03*
X219540000Y-86477500D03*
X219540000Y-87747500D03*
X219540000Y-89017500D03*
X219540000Y-90287500D03*
X219540000Y-91557500D03*
X226300000Y-91557500D03*
X226300000Y-90287500D03*
X226300000Y-89017500D03*
X226300000Y-87747500D03*
X226300000Y-86477500D03*
X226300000Y-85207500D03*
X226300000Y-83937500D03*
X226300000Y-82667500D03*
X226300000Y-81397500D03*
X226300000Y-80127500D03*
X226300000Y-78857500D03*
X226300000Y-77587500D03*
X226300000Y-76317500D03*
X226300000Y-75047500D03*
%TD*%
D13*
%TO.C,C11*%
X153650000Y-60325000D03*
X155550000Y-60325000D03*
%TD*%
D11*
%TO.C,C5*%
X187175000Y-71950000D03*
X185275000Y-71950000D03*
%TD*%
%TO.C,C4*%
X200225000Y-71950000D03*
X198325000Y-71950000D03*
%TD*%
D14*
%TO.C,C1*%
X217463500Y-66600000D03*
X214338500Y-66600000D03*
%TD*%
D15*
%TO.C,U9*%
X172900000Y-85180000D03*
X172100000Y-85180000D03*
X171300000Y-85180000D03*
X170500000Y-85180000D03*
X169700000Y-85180000D03*
X168900000Y-85180000D03*
X168100000Y-85180000D03*
X167300000Y-85180000D03*
X166500000Y-85180000D03*
X165700000Y-85180000D03*
X164900000Y-85180000D03*
X164100000Y-85180000D03*
X163300000Y-85180000D03*
X162500000Y-85180000D03*
X161700000Y-85180000D03*
X160900000Y-85180000D03*
X160100000Y-85180000D03*
X159300000Y-85180000D03*
X158500000Y-85180000D03*
X157700000Y-85180000D03*
X156900000Y-85180000D03*
X156100000Y-85180000D03*
X156100000Y-96500000D03*
X156900000Y-96500000D03*
X157700000Y-96500000D03*
X158500000Y-96500000D03*
X159300000Y-96500000D03*
X160100000Y-96500000D03*
X160900000Y-96500000D03*
X161700000Y-96500000D03*
X162500000Y-96500000D03*
X163300000Y-96500000D03*
X164100000Y-96500000D03*
X164900000Y-96500000D03*
X165700000Y-96500000D03*
X166500000Y-96500000D03*
X167300000Y-96500000D03*
X168100000Y-96500000D03*
X168900000Y-96500000D03*
X169700000Y-96500000D03*
X170500000Y-96500000D03*
X171300000Y-96500000D03*
X172100000Y-96500000D03*
X172900000Y-96500000D03*
%TD*%
D16*
%TO.C,U11*%
X141625000Y-60410000D03*
X141625000Y-61680000D03*
X141625000Y-62950000D03*
X141625000Y-64220000D03*
X141625000Y-65490000D03*
X141625000Y-66760000D03*
X141625000Y-68030000D03*
X141625000Y-69300000D03*
X141625000Y-70570000D03*
X141625000Y-71840000D03*
X150925000Y-71840000D03*
X150925000Y-70570000D03*
X150925000Y-69300000D03*
X150925000Y-68030000D03*
X150925000Y-66760000D03*
X150925000Y-65490000D03*
X150925000Y-64220000D03*
X150925000Y-62950000D03*
X150925000Y-61680000D03*
X150925000Y-60410000D03*
%TD*%
D14*
%TO.C,C2*%
X192361793Y-66599293D03*
X189236793Y-66599293D03*
%TD*%
D12*
%TO.C,U4*%
X180426666Y-75047500D03*
X180426666Y-76317500D03*
X180426666Y-77587500D03*
X180426666Y-78857500D03*
X180426666Y-80127500D03*
X180426666Y-81397500D03*
X180426666Y-82667500D03*
X180426666Y-83937500D03*
X180426666Y-85207500D03*
X180426666Y-86477500D03*
X180426666Y-87747500D03*
X180426666Y-89017500D03*
X180426666Y-90287500D03*
X180426666Y-91557500D03*
X187186666Y-91557500D03*
X187186666Y-90287500D03*
X187186666Y-89017500D03*
X187186666Y-87747500D03*
X187186666Y-86477500D03*
X187186666Y-85207500D03*
X187186666Y-83937500D03*
X187186666Y-82667500D03*
X187186666Y-81397500D03*
X187186666Y-80127500D03*
X187186666Y-78857500D03*
X187186666Y-77587500D03*
X187186666Y-76317500D03*
X187186666Y-75047500D03*
%TD*%
D17*
%TO.C,R1*%
X162640000Y-99695000D03*
X164465000Y-99695000D03*
%TD*%
D18*
%TO.C,H1*%
X203500000Y-64500000D03*
%TD*%
D16*
%TO.C,U10*%
X141625000Y-75260000D03*
X141625000Y-76530000D03*
X141625000Y-77800000D03*
X141625000Y-79070000D03*
X141625000Y-80340000D03*
X141625000Y-81610000D03*
X141625000Y-82880000D03*
X141625000Y-84150000D03*
X141625000Y-85420000D03*
X141625000Y-86690000D03*
X150925000Y-86690000D03*
X150925000Y-85420000D03*
X150925000Y-84150000D03*
X150925000Y-82880000D03*
X150925000Y-81610000D03*
X150925000Y-80340000D03*
X150925000Y-79070000D03*
X150925000Y-77800000D03*
X150925000Y-76530000D03*
X150925000Y-75260000D03*
%TD*%
D12*
%TO.C,U2*%
X206496666Y-75047500D03*
X206496666Y-76317500D03*
X206496666Y-77587500D03*
X206496666Y-78857500D03*
X206496666Y-80127500D03*
X206496666Y-81397500D03*
X206496666Y-82667500D03*
X206496666Y-83937500D03*
X206496666Y-85207500D03*
X206496666Y-86477500D03*
X206496666Y-87747500D03*
X206496666Y-89017500D03*
X206496666Y-90287500D03*
X206496666Y-91557500D03*
X213256666Y-91557500D03*
X213256666Y-90287500D03*
X213256666Y-89017500D03*
X213256666Y-87747500D03*
X213256666Y-86477500D03*
X213256666Y-85207500D03*
X213256666Y-83937500D03*
X213256666Y-82667500D03*
X213256666Y-81397500D03*
X213256666Y-80127500D03*
X213256666Y-78857500D03*
X213256666Y-77587500D03*
X213256666Y-76317500D03*
X213256666Y-75047500D03*
%TD*%
D11*
%TO.C,C6*%
X213250000Y-71950000D03*
X211350000Y-71950000D03*
%TD*%
D13*
%TO.C,C12*%
X154050000Y-74930000D03*
X155950000Y-74930000D03*
%TD*%
M02*
