M48
; DRILL file {KiCad 8.0.4} date 2024-08-30T15:48:50+0200
; FORMAT={-:-/ absolute / inch / decimal}
; #@! TF.CreationDate,2024-08-30T15:48:50+02:00
; #@! TF.GenerationSoftware,Kicad,Pcbnew,8.0.4
; #@! TF.FileFunction,Plated,1,4,PTH
FMAT,2
INCH
; #@! TA.AperFunction,Plated,PTH,ViaDrill
T1C0.0118
%
G90
G05
T1
X5.575Y-2.9
X5.5757Y-3.4493
X5.623Y-3.1181
X5.624Y-3.313
X5.626Y-3.2126
X5.6319Y-2.35
X5.6319Y-2.7303
X5.6437Y-3.0266
X5.675Y-2.4232
X5.675Y-2.55
X5.75Y-2.65
X5.7706Y-3.1491
X5.8165Y-2.8248
X5.825Y-3.2527
X5.85Y-2.4
X5.85Y-2.65
X5.8789Y-2.7397
X5.8862Y-3.4231
X5.9348Y-3.5402
X5.9518Y-4.1043
X6.0231Y-3.013
X6.0241Y-2.5398
X6.0492Y-2.325
X6.065Y-2.925
X6.0896Y-4.0437
X6.1161Y-4.0886
X6.1376Y-3.5709
X6.15Y-3.4055
X6.1501Y-3.6422
X6.1654Y-2.375
X6.175Y-2.95
X6.175Y-3.5
X6.2717Y-4.1043
X6.2753Y-3.6733
X6.2844Y-3.475
X6.3Y-3.6
X6.3031Y-3.162
X6.3031Y-3.2913
X6.3051Y-3.4085
X6.3819Y-4.1083
X6.3921Y-3.6822
X6.4213Y-4.1102
X6.437Y-3.2904
X6.4606Y-3.8366
X6.475Y-3.7177
X6.5078Y-3.2884
X6.5103Y-3.8469
X6.5709Y-4.1083
X6.5802Y-3.2879
X6.625Y-3.6806
X6.6505Y-3.4092
X6.6811Y-3.825
X6.6856Y-3.2644
X6.6909Y-4.1024
X6.7224Y-4.0827
X6.725Y-3.697
X6.7671Y-3.2608
X6.7756Y-3.8413
X6.7959Y-3.4041
X6.7995Y-3.7263
X6.846Y-3.7971
X6.8701Y-4.1004
X6.9803Y-4.1161
X6.9978Y-3.1272
X7.0Y-3.05
X7.0118Y-4.1161
X7.025Y-3.2795
X7.05Y-3.1821
X7.0699Y-2.8307
X7.1456Y-3.6468
X7.175Y-3.0305
X7.175Y-3.1046
X7.175Y-3.2046
X7.1844Y-3.5442
X7.1874Y-3.4745
X7.2Y-2.95
X7.2Y-3.3046
X7.2Y-3.6134
X7.2126Y-2.8307
X7.2165Y-4.1063
X7.2234Y-3.1546
X7.225Y-3.4046
X7.25Y-3.675
X7.2558Y-2.9
X7.26Y-3.5233
X7.2619Y-2.981
X7.2638Y-2.8346
X7.2717Y-4.1142
X7.2727Y-3.6008
X7.275Y-3.0546
X7.2815Y-3.4546
X7.3Y-3.2546
X7.3Y-3.3546
X7.3428Y-3.6428
X7.4016Y-2.8346
X7.4183Y-2.622
X7.4193Y-4.1161
X7.4529Y-3.7683
X7.475Y-2.8
X7.4764Y-4.1063
X7.5Y-2.95
X7.5827Y-2.8317
X7.6Y-2.622
X7.625Y-3.65
X7.6693Y-3.7382
X7.6811Y-4.1063
X7.693Y-3.4191
X7.7Y-3.5
X7.7195Y-3.6
X7.7224Y-2.8297
X7.7224Y-4.1024
X7.725Y-3.675
X7.775Y-3.55
X7.7756Y-2.8346
X7.7777Y-3.4654
X7.8132Y-2.9972
X7.8701Y-4.1043
X7.875Y-3.65
X7.9134Y-2.8346
X7.939Y-2.7451
X7.9764Y-4.1063
X8.0165Y-2.9424
X8.025Y-3.775
X8.0689Y-4.1063
X8.0984Y-2.8317
X8.125Y-3.6551
X8.1653Y-3.7343
X8.1991Y-3.4045
X8.2015Y-3.4979
X8.2213Y-3.6735
X8.2362Y-2.8297
X8.253Y-3.6094
X8.2811Y-3.536
X8.2874Y-2.8346
X8.3Y-3.4546
X8.3317Y-3.0046
X8.3807Y-3.6523
X8.4016Y-2.622
X8.4252Y-2.8346
X8.4934Y-3.7684
X8.5886Y-2.622
X8.6063Y-2.8524
X8.65Y-3.65
X8.7Y-3.725
X8.7071Y-3.4121
X8.7402Y-3.4774
X8.749Y-2.8317
X8.7583Y-3.5554
X8.7617Y-3.6242
X8.7992Y-2.8346
X8.7997Y-3.4376
X8.825Y-3.5046
X8.8895Y-3.6543
X8.925Y-2.775
X8.9587Y-3.425
X8.9616Y-3.0039
X8.9823Y-3.3323
X9.0367Y-3.2795
M30
