M48
; DRILL file {KiCad 8.0.4} date 2024-08-28T15:47:30+0200
; FORMAT={-:-/ absolute / inch / decimal}
; #@! TF.CreationDate,2024-08-28T15:47:30+02:00
; #@! TF.GenerationSoftware,Kicad,Pcbnew,8.0.4
; #@! TF.FileFunction,Plated,1,4,PTH
FMAT,2
INCH
; #@! TA.AperFunction,Plated,PTH,ViaDrill
T1C0.0118
%
G90
G05
T1
X5.623Y-3.1181
X5.626Y-3.2126
X5.626Y-3.315
X5.626Y-3.4173
X5.627Y-2.5276
X5.6299Y-2.8307
X5.6319Y-2.3789
X5.6319Y-2.7303
X5.6339Y-2.9764
X5.6348Y-2.4272
X5.6437Y-3.0266
X5.7165Y-3.3219
X5.7187Y-3.113
X5.7323Y-3.2146
X5.7992Y-2.6309
X5.8307Y-2.8238
X5.8553Y-2.625
X5.8789Y-2.7274
X5.8829Y-2.4281
X5.8858Y-3.3937
X5.9518Y-4.1043
X6.0039Y-2.5236
X6.0118Y-3.0079
X6.0492Y-2.4449
X6.065Y-3.0413
X6.0748Y-4.1043
X6.1161Y-4.0886
X6.126Y-3.6024
X6.1501Y-3.6422
X6.1654Y-2.3957
X6.1732Y-2.9882
X6.1772Y-3.4055
X6.2087Y-3.4843
X6.2402Y-3.6535
X6.2717Y-3.685
X6.2717Y-4.1043
X6.2844Y-3.4518
X6.3031Y-3.2913
X6.3041Y-3.2047
X6.3051Y-3.4085
X6.378Y-3.9665
X6.3819Y-4.1083
X6.4134Y-3.3012
X6.4213Y-4.1102
X6.4528Y-3.8445
X6.4606Y-3.4055
X6.4921Y-3.8425
X6.5217Y-3.3031
X6.565Y-3.9665
X6.5709Y-4.1083
X6.6496Y-3.4055
X6.6496Y-3.8465
X6.6811Y-3.4409
X6.6831Y-3.8484
X6.6909Y-4.1024
X6.7126Y-3.4094
X6.7126Y-3.8484
X6.7224Y-4.0827
X6.7441Y-3.439
X6.7441Y-3.7264
X6.7756Y-3.4016
X6.7756Y-3.748
X6.8091Y-3.7047
X6.8465Y-3.7008
X6.8469Y-3.8071
X6.8622Y-3.7677
X6.8701Y-3.7283
X6.8701Y-4.1004
X6.9803Y-4.1161
X7.0118Y-4.1161
X7.0699Y-2.8307
X7.1457Y-3.6299
X7.1644Y-3.1299
X7.1644Y-3.1821
X7.1654Y-3.0787
X7.1654Y-3.2785
X7.1772Y-3.0295
X7.2126Y-2.8307
X7.2165Y-4.1063
X7.2205Y-3.0546
X7.2205Y-3.1046
X7.2224Y-3.2046
X7.2234Y-3.1546
X7.2234Y-3.3546
X7.2244Y-3.2546
X7.2244Y-3.3061
X7.2333Y-3.4793
X7.2333Y-3.5246
X7.2333Y-3.5797
X7.2638Y-2.8346
X7.2717Y-4.1142
X7.2736Y-3.0305
X7.2776Y-3.6063
X7.2795Y-3.5551
X7.2815Y-3.4546
X7.2815Y-3.5046
X7.2825Y-3.4046
X7.3022Y-2.999
X7.3051Y-2.9537
X7.3307Y-3.6299
X7.4016Y-2.8346
X7.4094Y-2.5915
X7.4094Y-2.6309
X7.4094Y-2.6703
X7.4193Y-4.1161
X7.4764Y-4.1063
X7.5827Y-2.8317
X7.6063Y-2.5719
X7.6063Y-2.6112
X7.6063Y-2.6506
X7.6575Y-3.6299
X7.6811Y-4.1063
X7.7028Y-3.4046
X7.7185Y-3.5817
X7.7195Y-3.5266
X7.7215Y-3.4783
X7.7224Y-2.8297
X7.7224Y-4.1024
X7.7421Y-2.7648
X7.7421Y-2.9587
X7.7589Y-3.6083
X7.7598Y-3.5546
X7.7608Y-3.5046
X7.7618Y-3.4528
X7.7756Y-2.8346
X7.8061Y-3.0046
X7.8425Y-3.6299
X7.8701Y-4.1043
X7.9134Y-2.8346
X7.939Y-2.7451
X7.9764Y-4.1063
X8.0689Y-4.1063
X8.0984Y-2.8317
X8.1693Y-3.6299
X8.2028Y-3.4046
X8.2254Y-3.4803
X8.2254Y-3.5787
X8.2264Y-3.5276
X8.2362Y-2.8297
X8.253Y-3.6043
X8.2539Y-3.4557
X8.2539Y-3.5039
X8.2549Y-3.5551
X8.2874Y-2.8346
X8.3317Y-3.0046
X8.3543Y-3.6299
X8.3967Y-2.5778
X8.3967Y-2.6171
X8.3967Y-2.6565
X8.4252Y-2.8346
X8.5935Y-2.5778
X8.5935Y-2.6171
X8.5935Y-2.6565
X8.6063Y-2.8524
X8.685Y-3.6299
X8.7087Y-3.4046
X8.7402Y-3.4774
X8.7402Y-3.5787
X8.7431Y-3.5315
X8.749Y-2.8317
X8.7648Y-3.5571
X8.7657Y-3.4537
X8.7657Y-3.5039
X8.7657Y-3.6053
X8.7992Y-2.8346
X8.81Y-3.0046
X8.8661Y-3.626
X8.937Y-2.8346
X8.9606Y-3.4035
X9.0Y-3.3843
X9.0157Y-3.2756
M30
