%TF.GenerationSoftware,KiCad,Pcbnew,8.0.4*%
%TF.CreationDate,2024-08-31T23:01:07+02:00*%
%TF.ProjectId,sram,7372616d-2e6b-4696-9361-645f70636258,rev?*%
%TF.SameCoordinates,Original*%
%TF.FileFunction,Soldermask,Bot*%
%TF.FilePolarity,Negative*%
%FSLAX46Y46*%
G04 Gerber Fmt 4.6, Leading zero omitted, Abs format (unit mm)*
G04 Created by KiCad (PCBNEW 8.0.4) date 2024-08-31 23:01:07*
%MOMM*%
%LPD*%
G01*
G04 APERTURE LIST*
G04 Aperture macros list*
%AMRoundRect*
0 Rectangle with rounded corners*
0 $1 Rounding radius*
0 $2 $3 $4 $5 $6 $7 $8 $9 X,Y pos of 4 corners*
0 Add a 4 corners polygon primitive as box body*
4,1,4,$2,$3,$4,$5,$6,$7,$8,$9,$2,$3,0*
0 Add four circle primitives for the rounded corners*
1,1,$1+$1,$2,$3*
1,1,$1+$1,$4,$5*
1,1,$1+$1,$6,$7*
1,1,$1+$1,$8,$9*
0 Add four rect primitives between the rounded corners*
20,1,$1+$1,$2,$3,$4,$5,0*
20,1,$1+$1,$4,$5,$6,$7,0*
20,1,$1+$1,$6,$7,$8,$9,0*
20,1,$1+$1,$8,$9,$2,$3,0*%
G04 Aperture macros list end*
%ADD10C,0.100000*%
%ADD11RoundRect,0.250000X-0.250000X-0.475000X0.250000X-0.475000X0.250000X0.475000X-0.250000X0.475000X0*%
%ADD12C,4.000000*%
%ADD13R,1.900000X0.700000*%
%ADD14RoundRect,0.250000X0.250000X0.475000X-0.250000X0.475000X-0.250000X-0.475000X0.250000X-0.475000X0*%
G04 APERTURE END LIST*
D10*
X222084803Y-100900000D02*
X228015197Y-100900000D01*
X228015197Y-103079522D01*
X222084803Y-103079522D01*
X222084803Y-100900000D01*
G36*
X222084803Y-100900000D02*
G01*
X228015197Y-100900000D01*
X228015197Y-103079522D01*
X222084803Y-103079522D01*
X222084803Y-100900000D01*
G37*
%TO.C,J1*%
X147236262Y-105030444D02*
X208200000Y-105030444D01*
X208200000Y-112040812D01*
X147236262Y-112040812D01*
X147236262Y-105030444D01*
G36*
X147236262Y-105030444D02*
G01*
X208200000Y-105030444D01*
X208200000Y-112040812D01*
X147236262Y-112040812D01*
X147236262Y-105030444D01*
G37*
%TD*%
D11*
%TO.C,C11*%
X156450000Y-60580000D03*
X154550000Y-60580000D03*
%TD*%
D12*
%TO.C,H1*%
X203500000Y-64500000D03*
%TD*%
D11*
%TO.C,C12*%
X142690000Y-61590000D03*
X140790000Y-61590000D03*
%TD*%
%TO.C,C8*%
X207980000Y-70400000D03*
X206080000Y-70400000D03*
%TD*%
%TO.C,C14*%
X159670000Y-88790000D03*
X157770000Y-88790000D03*
%TD*%
D13*
%TO.C,U5*%
X219120000Y-72517500D03*
X219120000Y-73787500D03*
X219120000Y-75057500D03*
X219120000Y-76317500D03*
X219120000Y-77597500D03*
X219120000Y-78867500D03*
X219120000Y-80127500D03*
X219120000Y-81397500D03*
X219120000Y-82677500D03*
X219120000Y-83947500D03*
X219120000Y-85207500D03*
X219120000Y-86487500D03*
X219120000Y-87757500D03*
X219120000Y-89017500D03*
X219120000Y-90287500D03*
X219120000Y-91567500D03*
X226720000Y-91567500D03*
X226720000Y-90287500D03*
X226720000Y-89017500D03*
X226720000Y-87757500D03*
X226720000Y-86487500D03*
X226720000Y-85207500D03*
X226720000Y-83947500D03*
X226720000Y-82677500D03*
X226720000Y-81397500D03*
X226720000Y-80127500D03*
X226720000Y-78867500D03*
X226720000Y-77597500D03*
X226720000Y-76317500D03*
X226720000Y-75057500D03*
X226720000Y-73787500D03*
X226720000Y-72517500D03*
%TD*%
%TO.C,U6*%
X206070000Y-72517500D03*
X206070000Y-73787500D03*
X206070000Y-75057500D03*
X206070000Y-76317500D03*
X206070000Y-77597500D03*
X206070000Y-78867500D03*
X206070000Y-80127500D03*
X206070000Y-81397500D03*
X206070000Y-82677500D03*
X206070000Y-83947500D03*
X206070000Y-85207500D03*
X206070000Y-86487500D03*
X206070000Y-87757500D03*
X206070000Y-89017500D03*
X206070000Y-90287500D03*
X206070000Y-91567500D03*
X213670000Y-91567500D03*
X213670000Y-90287500D03*
X213670000Y-89017500D03*
X213670000Y-87757500D03*
X213670000Y-86487500D03*
X213670000Y-85207500D03*
X213670000Y-83947500D03*
X213670000Y-82677500D03*
X213670000Y-81397500D03*
X213670000Y-80127500D03*
X213670000Y-78867500D03*
X213670000Y-77597500D03*
X213670000Y-76317500D03*
X213670000Y-75057500D03*
X213670000Y-73787500D03*
X213670000Y-72517500D03*
%TD*%
D11*
%TO.C,C7*%
X221000000Y-70400000D03*
X219100000Y-70400000D03*
%TD*%
%TO.C,C9*%
X181920000Y-70400000D03*
X180020000Y-70400000D03*
%TD*%
%TO.C,C10*%
X194970000Y-70400000D03*
X193070000Y-70400000D03*
%TD*%
D14*
%TO.C,C13*%
X156160000Y-76810000D03*
X158060000Y-76810000D03*
%TD*%
D13*
%TO.C,U7*%
X193040000Y-72517500D03*
X193040000Y-73787500D03*
X193040000Y-75057500D03*
X193040000Y-76317500D03*
X193040000Y-77597500D03*
X193040000Y-78867500D03*
X193040000Y-80127500D03*
X193040000Y-81397500D03*
X193040000Y-82677500D03*
X193040000Y-83947500D03*
X193040000Y-85207500D03*
X193040000Y-86487500D03*
X193040000Y-87757500D03*
X193040000Y-89017500D03*
X193040000Y-90287500D03*
X193040000Y-91567500D03*
X200640000Y-91567500D03*
X200640000Y-90287500D03*
X200640000Y-89017500D03*
X200640000Y-87757500D03*
X200640000Y-86487500D03*
X200640000Y-85207500D03*
X200640000Y-83947500D03*
X200640000Y-82677500D03*
X200640000Y-81397500D03*
X200640000Y-80127500D03*
X200640000Y-78867500D03*
X200640000Y-77597500D03*
X200640000Y-76317500D03*
X200640000Y-75057500D03*
X200640000Y-73787500D03*
X200640000Y-72517500D03*
%TD*%
%TO.C,U8*%
X180016666Y-72517500D03*
X180016666Y-73787500D03*
X180016666Y-75057500D03*
X180016666Y-76317500D03*
X180016666Y-77597500D03*
X180016666Y-78867500D03*
X180016666Y-80127500D03*
X180016666Y-81397500D03*
X180016666Y-82677500D03*
X180016666Y-83947500D03*
X180016666Y-85207500D03*
X180016666Y-86487500D03*
X180016666Y-87757500D03*
X180016666Y-89017500D03*
X180016666Y-90287500D03*
X180016666Y-91567500D03*
X187616666Y-91567500D03*
X187616666Y-90287500D03*
X187616666Y-89017500D03*
X187616666Y-87757500D03*
X187616666Y-86487500D03*
X187616666Y-85207500D03*
X187616666Y-83947500D03*
X187616666Y-82677500D03*
X187616666Y-81397500D03*
X187616666Y-80127500D03*
X187616666Y-78867500D03*
X187616666Y-77597500D03*
X187616666Y-76317500D03*
X187616666Y-75057500D03*
X187616666Y-73787500D03*
X187616666Y-72517500D03*
%TD*%
M02*
