M48
; DRILL file {KiCad 8.0.4} date 2024-09-02T10:10:03+0200
; FORMAT={-:-/ absolute / inch / decimal}
; #@! TF.CreationDate,2024-09-02T10:10:03+02:00
; #@! TF.GenerationSoftware,Kicad,Pcbnew,8.0.4
; #@! TF.FileFunction,Plated,1,4,PTH
FMAT,2
INCH
; #@! TA.AperFunction,Plated,PTH,ViaDrill
T1C0.0118
%
G90
G05
T1
X5.5399Y-3.891
X5.55Y-2.4898
X5.5531Y-2.8654
X5.6039Y-2.4917
X5.6718Y-3.8903
X5.7528Y-2.55
X5.7622Y-3.0799
X5.7622Y-3.5472
X5.8524Y-2.7291
X5.8614Y-3.5516
X5.8622Y-2.9677
X5.9094Y-2.6354
X5.911Y-3.098
X5.9681Y-4.1059
X5.9937Y-2.6941
X6.0012Y-2.8583
X6.0689Y-2.3783
X6.0756Y-2.8472
X6.078Y-4.1177
X6.1161Y-4.0886
X6.1319Y-2.4709
X6.1378Y-2.5413
X6.161Y-3.55
X6.1626Y-3.0772
X6.1957Y-2.602
X6.211Y-3.5575
X6.2114Y-3.4469
X6.2169Y-2.9673
X6.2531Y-3.1181
X6.2591Y-2.7193
X6.2614Y-3.5516
X6.2717Y-4.1043
X6.2913Y-3.3996
X6.2941Y-3.2
X6.2957Y-2.6201
X6.315Y-3.5539
X6.3697Y-3.4205
X6.3803Y-2.861
X6.3807Y-3.1736
X6.3819Y-4.1083
X6.398Y-2.7071
X6.4213Y-4.1102
X6.4957Y-3.2488
X6.4961Y-2.4957
X6.5071Y-2.7087
X6.5366Y-2.8531
X6.5382Y-3.7909
X6.5409Y-2.9354
X6.5579Y-2.6272
X6.5709Y-4.1083
X6.5764Y-2.5413
X6.5783Y-3.589
X6.5898Y-2.6972
X6.6059Y-2.9843
X6.6079Y-2.9098
X6.611Y-2.3811
X6.6402Y-3.8189
X6.6404Y-2.7841
X6.6685Y-2.865
X6.6748Y-4.1091
X6.678Y-3.1713
X6.6898Y-3.7571
X6.7102Y-4.0614
X6.7126Y-2.9421
X6.7313Y-3.7002
X6.8701Y-4.1004
X6.9697Y-2.9047
X6.9803Y-4.1161
X6.9862Y-3.1299
X6.9941Y-3.0587
X7.0106Y-3.1799
X7.0118Y-4.1161
X7.0173Y-2.8547
X7.025Y-3.2795
X7.0539Y-2.7709
X7.1456Y-3.6468
X7.1657Y-2.9709
X7.1748Y-4.0823
X7.175Y-3.1046
X7.175Y-3.2046
X7.1844Y-3.5442
X7.1874Y-3.4745
X7.1941Y-2.7717
X7.2Y-3.3046
X7.2Y-3.6134
X7.2028Y-3.0299
X7.2234Y-3.1546
X7.225Y-3.4046
X7.2272Y-4.1189
X7.2339Y-2.9406
X7.25Y-3.675
X7.26Y-3.5233
X7.2727Y-3.6008
X7.2768Y-2.7776
X7.2811Y-2.8799
X7.2814Y-3.0611
X7.2815Y-3.4546
X7.2852Y-2.9921
X7.3Y-3.2546
X7.3Y-3.3546
X7.3428Y-3.6428
X7.4193Y-4.1161
X7.4219Y-2.5087
X7.424Y-2.776
X7.4382Y-2.9835
X7.4764Y-4.1063
X7.5409Y-3.7681
X7.5669Y-2.7732
X7.6036Y-2.5087
X7.625Y-3.65
X7.6693Y-3.7382
X7.6811Y-4.1063
X7.693Y-3.4191
X7.7Y-3.5
X7.7114Y-2.7724
X7.7195Y-3.6
X7.7224Y-4.1024
X7.725Y-3.675
X7.7512Y-2.9531
X7.775Y-3.55
X7.7777Y-3.4654
X7.7866Y-2.7776
X7.8177Y-3.0063
X7.8701Y-4.1043
X7.875Y-3.65
X7.9311Y-2.7748
X7.9764Y-4.1063
X8.025Y-3.775
X8.0689Y-4.1063
X8.0783Y-2.7709
X8.125Y-3.6551
X8.1653Y-3.7343
X8.1991Y-3.4045
X8.2015Y-3.4979
X8.2193Y-2.7717
X8.2213Y-3.6735
X8.2496Y-2.955
X8.253Y-3.6094
X8.2811Y-3.536
X8.2972Y-2.7776
X8.3Y-3.4546
X8.3317Y-3.0046
X8.3807Y-3.6523
X8.4015Y-2.5035
X8.4528Y-2.7748
X8.4934Y-3.7684
X8.5885Y-2.5035
X8.5913Y-2.7724
X8.65Y-3.65
X8.7Y-3.725
X8.7071Y-3.4121
X8.7358Y-2.7717
X8.7402Y-3.4774
X8.7583Y-3.5554
X8.7617Y-3.6242
X8.7925Y-2.9524
X8.7997Y-3.4376
X8.8189Y-2.776
X8.825Y-3.5046
X8.9209Y-3.637
X8.9591Y-2.7988
X8.9823Y-3.3323
X8.9854Y-3.4268
X8.9945Y-3.0011
X9.0224Y-2.9287
X9.0367Y-3.2795
M30
