%TF.GenerationSoftware,KiCad,Pcbnew,8.0.4*%
%TF.CreationDate,2024-09-02T10:09:59+02:00*%
%TF.ProjectId,sram,7372616d-2e6b-4696-9361-645f70636258,rev?*%
%TF.SameCoordinates,Original*%
%TF.FileFunction,Soldermask,Top*%
%TF.FilePolarity,Negative*%
%FSLAX46Y46*%
G04 Gerber Fmt 4.6, Leading zero omitted, Abs format (unit mm)*
G04 Created by KiCad (PCBNEW 8.0.4) date 2024-09-02 10:09:59*
%MOMM*%
%LPD*%
G01*
G04 APERTURE LIST*
G04 Aperture macros list*
%AMRoundRect*
0 Rectangle with rounded corners*
0 $1 Rounding radius*
0 $2 $3 $4 $5 $6 $7 $8 $9 X,Y pos of 4 corners*
0 Add a 4 corners polygon primitive as box body*
4,1,4,$2,$3,$4,$5,$6,$7,$8,$9,$2,$3,0*
0 Add four circle primitives for the rounded corners*
1,1,$1+$1,$2,$3*
1,1,$1+$1,$4,$5*
1,1,$1+$1,$6,$7*
1,1,$1+$1,$8,$9*
0 Add four rect primitives between the rounded corners*
20,1,$1+$1,$2,$3,$4,$5,0*
20,1,$1+$1,$4,$5,$6,$7,0*
20,1,$1+$1,$6,$7,$8,$9,0*
20,1,$1+$1,$8,$9,$2,$3,0*%
G04 Aperture macros list end*
%ADD10C,0.100000*%
%ADD11RoundRect,0.250000X0.250000X0.475000X-0.250000X0.475000X-0.250000X-0.475000X0.250000X-0.475000X0*%
%ADD12R,1.900000X0.700000*%
%ADD13RoundRect,0.200000X0.275000X-0.200000X0.275000X0.200000X-0.275000X0.200000X-0.275000X-0.200000X0*%
%ADD14RoundRect,0.250000X0.412500X0.650000X-0.412500X0.650000X-0.412500X-0.650000X0.412500X-0.650000X0*%
%ADD15R,0.700000X1.900000*%
%ADD16O,0.600000X2.300000*%
%ADD17RoundRect,0.200000X-0.200000X-0.275000X0.200000X-0.275000X0.200000X0.275000X-0.200000X0.275000X0*%
%ADD18C,4.000000*%
G04 APERTURE END LIST*
D10*
X223974066Y-100905195D02*
X229618859Y-100905195D01*
X229618859Y-103084717D01*
X223974066Y-103084717D01*
X223974066Y-100905195D01*
G36*
X223974066Y-100905195D02*
G01*
X229618859Y-100905195D01*
X229618859Y-103084717D01*
X223974066Y-103084717D01*
X223974066Y-100905195D01*
G37*
%TO.C,J1*%
X147236262Y-105030444D02*
X208200000Y-105030444D01*
X208200000Y-112040812D01*
X147236262Y-112040812D01*
X147236262Y-105030444D01*
G36*
X147236262Y-105030444D02*
G01*
X208200000Y-105030444D01*
X208200000Y-112040812D01*
X147236262Y-112040812D01*
X147236262Y-105030444D01*
G37*
%TD*%
D11*
%TO.C,C3*%
X226750000Y-70530000D03*
X224850000Y-70530000D03*
%TD*%
D12*
%TO.C,U3*%
X193053332Y-72517500D03*
X193053332Y-73787500D03*
X193053332Y-75057500D03*
X193053332Y-76317500D03*
X193053332Y-77597500D03*
X193053332Y-78867500D03*
X193053332Y-80127500D03*
X193053332Y-81397500D03*
X193053332Y-82677500D03*
X193053332Y-83947500D03*
X193053332Y-85207500D03*
X193053332Y-86487500D03*
X193053332Y-87757500D03*
X193053332Y-89017500D03*
X193053332Y-90287500D03*
X193053332Y-91567500D03*
X200653332Y-91567500D03*
X200653332Y-90287500D03*
X200653332Y-89017500D03*
X200653332Y-87757500D03*
X200653332Y-86487500D03*
X200653332Y-85207500D03*
X200653332Y-83947500D03*
X200653332Y-82677500D03*
X200653332Y-81397500D03*
X200653332Y-80127500D03*
X200653332Y-78867500D03*
X200653332Y-77597500D03*
X200653332Y-76317500D03*
X200653332Y-75057500D03*
X200653332Y-73787500D03*
X200653332Y-72517500D03*
%TD*%
%TO.C,U1*%
X219120000Y-72517500D03*
X219120000Y-73787500D03*
X219120000Y-75057500D03*
X219120000Y-76317500D03*
X219120000Y-77597500D03*
X219120000Y-78867500D03*
X219120000Y-80127500D03*
X219120000Y-81397500D03*
X219120000Y-82677500D03*
X219120000Y-83947500D03*
X219120000Y-85207500D03*
X219120000Y-86487500D03*
X219120000Y-87757500D03*
X219120000Y-89017500D03*
X219120000Y-90287500D03*
X219120000Y-91567500D03*
X226720000Y-91567500D03*
X226720000Y-90287500D03*
X226720000Y-89017500D03*
X226720000Y-87757500D03*
X226720000Y-86487500D03*
X226720000Y-85207500D03*
X226720000Y-83947500D03*
X226720000Y-82677500D03*
X226720000Y-81397500D03*
X226720000Y-80127500D03*
X226720000Y-78867500D03*
X226720000Y-77597500D03*
X226720000Y-76317500D03*
X226720000Y-75057500D03*
X226720000Y-73787500D03*
X226720000Y-72517500D03*
%TD*%
D13*
%TO.C,R2*%
X143340000Y-102130000D03*
X143340000Y-100480000D03*
%TD*%
%TO.C,R5*%
X141470000Y-100480000D03*
X141470000Y-98830000D03*
%TD*%
%TO.C,R3*%
X141470000Y-102130000D03*
X141470000Y-100480000D03*
%TD*%
D11*
%TO.C,C5*%
X187630000Y-70530000D03*
X185730000Y-70530000D03*
%TD*%
%TO.C,C4*%
X200680000Y-70530000D03*
X198780000Y-70530000D03*
%TD*%
D14*
%TO.C,C1*%
X217462500Y-63590000D03*
X214337500Y-63590000D03*
%TD*%
D15*
%TO.C,U9*%
X146340000Y-96290000D03*
X147610000Y-96290000D03*
X148880000Y-96290000D03*
X150140000Y-96290000D03*
X151420000Y-96290000D03*
X152690000Y-96290000D03*
X153950000Y-96290000D03*
X155220000Y-96290000D03*
X156500000Y-96290000D03*
X157770000Y-96290000D03*
X159030000Y-96290000D03*
X160310000Y-96290000D03*
X161580000Y-96290000D03*
X162840000Y-96290000D03*
X164110000Y-96290000D03*
X165390000Y-96290000D03*
X165390000Y-88690000D03*
X164110000Y-88690000D03*
X162840000Y-88690000D03*
X161580000Y-88690000D03*
X160310000Y-88690000D03*
X159030000Y-88690000D03*
X157770000Y-88690000D03*
X156500000Y-88690000D03*
X155220000Y-88690000D03*
X153950000Y-88690000D03*
X152690000Y-88690000D03*
X151420000Y-88690000D03*
X150140000Y-88690000D03*
X148880000Y-88690000D03*
X147610000Y-88690000D03*
X146340000Y-88690000D03*
%TD*%
D16*
%TO.C,U12*%
X154830343Y-61600721D03*
X156100343Y-61600721D03*
X157370343Y-61600721D03*
X158640343Y-61600721D03*
X159910343Y-61600721D03*
X161170343Y-61600721D03*
X162450343Y-61600721D03*
X163720343Y-61600721D03*
X164990343Y-61600721D03*
X166260343Y-61600721D03*
X166260343Y-71000721D03*
X164990343Y-71000721D03*
X163720343Y-71000721D03*
X162450343Y-71000721D03*
X161170343Y-71000721D03*
X159910343Y-71000721D03*
X158640343Y-71000721D03*
X157370343Y-71000721D03*
X156100343Y-71000721D03*
X154830343Y-71000721D03*
%TD*%
%TO.C,U11*%
X141020343Y-71000721D03*
X142290343Y-71000721D03*
X143560343Y-71000721D03*
X144830343Y-71000721D03*
X146100343Y-71000721D03*
X147360343Y-71000721D03*
X148640343Y-71000721D03*
X149910343Y-71000721D03*
X151180343Y-71000721D03*
X152450343Y-71000721D03*
X152450343Y-61600721D03*
X151180343Y-61600721D03*
X149910343Y-61600721D03*
X148640343Y-61600721D03*
X147360343Y-61600721D03*
X146100343Y-61600721D03*
X144830343Y-61600721D03*
X143560343Y-61600721D03*
X142290343Y-61600721D03*
X141020343Y-61600721D03*
%TD*%
D13*
%TO.C,R4*%
X143340000Y-100480000D03*
X143340000Y-98830000D03*
%TD*%
D14*
%TO.C,C2*%
X192452500Y-63720000D03*
X189327500Y-63720000D03*
%TD*%
D12*
%TO.C,U4*%
X180006666Y-72517500D03*
X180006666Y-73787500D03*
X180006666Y-75057500D03*
X180006666Y-76317500D03*
X180006666Y-77597500D03*
X180006666Y-78867500D03*
X180006666Y-80127500D03*
X180006666Y-81397500D03*
X180006666Y-82677500D03*
X180006666Y-83947500D03*
X180006666Y-85207500D03*
X180006666Y-86487500D03*
X180006666Y-87757500D03*
X180006666Y-89017500D03*
X180006666Y-90287500D03*
X180006666Y-91567500D03*
X187606666Y-91567500D03*
X187606666Y-90287500D03*
X187606666Y-89017500D03*
X187606666Y-87757500D03*
X187606666Y-86487500D03*
X187606666Y-85207500D03*
X187606666Y-83947500D03*
X187606666Y-82677500D03*
X187606666Y-81397500D03*
X187606666Y-80127500D03*
X187606666Y-78867500D03*
X187606666Y-77597500D03*
X187606666Y-76317500D03*
X187606666Y-75057500D03*
X187606666Y-73787500D03*
X187606666Y-72517500D03*
%TD*%
D17*
%TO.C,R1*%
X163755000Y-98790000D03*
X165405000Y-98790000D03*
%TD*%
D18*
%TO.C,H1*%
X203500000Y-64500000D03*
%TD*%
D15*
%TO.C,U10*%
X146370000Y-84360000D03*
X147640000Y-84360000D03*
X148910000Y-84360000D03*
X150170000Y-84360000D03*
X151450000Y-84360000D03*
X152720000Y-84360000D03*
X153980000Y-84360000D03*
X155250000Y-84360000D03*
X156530000Y-84360000D03*
X157800000Y-84360000D03*
X159060000Y-84360000D03*
X160340000Y-84360000D03*
X161610000Y-84360000D03*
X162870000Y-84360000D03*
X164140000Y-84360000D03*
X165420000Y-84360000D03*
X165420000Y-76760000D03*
X164140000Y-76760000D03*
X162870000Y-76760000D03*
X161610000Y-76760000D03*
X160340000Y-76760000D03*
X159060000Y-76760000D03*
X157800000Y-76760000D03*
X156530000Y-76760000D03*
X155250000Y-76760000D03*
X153980000Y-76760000D03*
X152720000Y-76760000D03*
X151450000Y-76760000D03*
X150170000Y-76760000D03*
X148910000Y-76760000D03*
X147640000Y-76760000D03*
X146370000Y-76760000D03*
%TD*%
D12*
%TO.C,U2*%
X206076666Y-72517500D03*
X206076666Y-73787500D03*
X206076666Y-75057500D03*
X206076666Y-76317500D03*
X206076666Y-77597500D03*
X206076666Y-78867500D03*
X206076666Y-80127500D03*
X206076666Y-81397500D03*
X206076666Y-82677500D03*
X206076666Y-83947500D03*
X206076666Y-85207500D03*
X206076666Y-86487500D03*
X206076666Y-87757500D03*
X206076666Y-89017500D03*
X206076666Y-90287500D03*
X206076666Y-91567500D03*
X213676666Y-91567500D03*
X213676666Y-90287500D03*
X213676666Y-89017500D03*
X213676666Y-87757500D03*
X213676666Y-86487500D03*
X213676666Y-85207500D03*
X213676666Y-83947500D03*
X213676666Y-82677500D03*
X213676666Y-81397500D03*
X213676666Y-80127500D03*
X213676666Y-78867500D03*
X213676666Y-77597500D03*
X213676666Y-76317500D03*
X213676666Y-75057500D03*
X213676666Y-73787500D03*
X213676666Y-72517500D03*
%TD*%
D11*
%TO.C,C6*%
X213670000Y-70530000D03*
X211770000Y-70530000D03*
%TD*%
M02*
