%TF.GenerationSoftware,KiCad,Pcbnew,8.0.4*%
%TF.CreationDate,2024-08-30T15:48:32+02:00*%
%TF.ProjectId,sram,7372616d-2e6b-4696-9361-645f70636258,rev?*%
%TF.SameCoordinates,Original*%
%TF.FileFunction,Legend,Bot*%
%TF.FilePolarity,Positive*%
%FSLAX46Y46*%
G04 Gerber Fmt 4.6, Leading zero omitted, Abs format (unit mm)*
G04 Created by KiCad (PCBNEW 8.0.4) date 2024-08-30 15:48:32*
%MOMM*%
%LPD*%
G01*
G04 APERTURE LIST*
%ADD10C,0.200000*%
%ADD11C,0.125000*%
%ADD12C,0.150000*%
%ADD13C,0.120000*%
%ADD14C,0.250000*%
%ADD15C,0.600000*%
G04 APERTURE END LIST*
D10*
X141494702Y-100600000D02*
X144034702Y-100600000D01*
X144034702Y-103140000D01*
X141494702Y-103140000D01*
X141494702Y-100600000D01*
G36*
X141494702Y-100600000D02*
G01*
X144034702Y-100600000D01*
X144034702Y-103140000D01*
X141494702Y-103140000D01*
X141494702Y-100600000D01*
G37*
D11*
X142873049Y-99967952D02*
X144073049Y-99967952D01*
X144073049Y-99967952D02*
X143215906Y-99567952D01*
X143215906Y-99567952D02*
X144073049Y-99167952D01*
X144073049Y-99167952D02*
X142873049Y-99167952D01*
X144073049Y-98367952D02*
X144073049Y-98139380D01*
X144073049Y-98139380D02*
X144015906Y-98025095D01*
X144015906Y-98025095D02*
X143901620Y-97910809D01*
X143901620Y-97910809D02*
X143673049Y-97853666D01*
X143673049Y-97853666D02*
X143273049Y-97853666D01*
X143273049Y-97853666D02*
X143044477Y-97910809D01*
X143044477Y-97910809D02*
X142930192Y-98025095D01*
X142930192Y-98025095D02*
X142873049Y-98139380D01*
X142873049Y-98139380D02*
X142873049Y-98367952D01*
X142873049Y-98367952D02*
X142930192Y-98482238D01*
X142930192Y-98482238D02*
X143044477Y-98596523D01*
X143044477Y-98596523D02*
X143273049Y-98653666D01*
X143273049Y-98653666D02*
X143673049Y-98653666D01*
X143673049Y-98653666D02*
X143901620Y-98596523D01*
X143901620Y-98596523D02*
X144015906Y-98482238D01*
X144015906Y-98482238D02*
X144073049Y-98367952D01*
X142873049Y-97339380D02*
X144073049Y-97339380D01*
X144073049Y-97339380D02*
X144073049Y-97053666D01*
X144073049Y-97053666D02*
X144015906Y-96882237D01*
X144015906Y-96882237D02*
X143901620Y-96767952D01*
X143901620Y-96767952D02*
X143787334Y-96710809D01*
X143787334Y-96710809D02*
X143558763Y-96653666D01*
X143558763Y-96653666D02*
X143387334Y-96653666D01*
X143387334Y-96653666D02*
X143158763Y-96710809D01*
X143158763Y-96710809D02*
X143044477Y-96767952D01*
X143044477Y-96767952D02*
X142930192Y-96882237D01*
X142930192Y-96882237D02*
X142873049Y-97053666D01*
X142873049Y-97053666D02*
X142873049Y-97339380D01*
X143501620Y-96139380D02*
X143501620Y-95739380D01*
X142873049Y-95567952D02*
X142873049Y-96139380D01*
X142873049Y-96139380D02*
X144073049Y-96139380D01*
X144073049Y-96139380D02*
X144073049Y-95567952D01*
X142873049Y-94482238D02*
X142873049Y-95053666D01*
X142873049Y-95053666D02*
X144073049Y-95053666D01*
X142987334Y-94082237D02*
X142930192Y-94025094D01*
X142930192Y-94025094D02*
X142873049Y-94082237D01*
X142873049Y-94082237D02*
X142930192Y-94139380D01*
X142930192Y-94139380D02*
X142987334Y-94082237D01*
X142987334Y-94082237D02*
X142873049Y-94082237D01*
X143615906Y-94082237D02*
X143558763Y-94025094D01*
X143558763Y-94025094D02*
X143501620Y-94082237D01*
X143501620Y-94082237D02*
X143558763Y-94139380D01*
X143558763Y-94139380D02*
X143615906Y-94082237D01*
X143615906Y-94082237D02*
X143501620Y-94082237D01*
X142987334Y-91910808D02*
X142930192Y-91967951D01*
X142930192Y-91967951D02*
X142873049Y-92139379D01*
X142873049Y-92139379D02*
X142873049Y-92253665D01*
X142873049Y-92253665D02*
X142930192Y-92425094D01*
X142930192Y-92425094D02*
X143044477Y-92539379D01*
X143044477Y-92539379D02*
X143158763Y-92596522D01*
X143158763Y-92596522D02*
X143387334Y-92653665D01*
X143387334Y-92653665D02*
X143558763Y-92653665D01*
X143558763Y-92653665D02*
X143787334Y-92596522D01*
X143787334Y-92596522D02*
X143901620Y-92539379D01*
X143901620Y-92539379D02*
X144015906Y-92425094D01*
X144015906Y-92425094D02*
X144073049Y-92253665D01*
X144073049Y-92253665D02*
X144073049Y-92139379D01*
X144073049Y-92139379D02*
X144015906Y-91967951D01*
X144015906Y-91967951D02*
X143958763Y-91910808D01*
X144073049Y-91167951D02*
X144073049Y-90939379D01*
X144073049Y-90939379D02*
X144015906Y-90825094D01*
X144015906Y-90825094D02*
X143901620Y-90710808D01*
X143901620Y-90710808D02*
X143673049Y-90653665D01*
X143673049Y-90653665D02*
X143273049Y-90653665D01*
X143273049Y-90653665D02*
X143044477Y-90710808D01*
X143044477Y-90710808D02*
X142930192Y-90825094D01*
X142930192Y-90825094D02*
X142873049Y-90939379D01*
X142873049Y-90939379D02*
X142873049Y-91167951D01*
X142873049Y-91167951D02*
X142930192Y-91282237D01*
X142930192Y-91282237D02*
X143044477Y-91396522D01*
X143044477Y-91396522D02*
X143273049Y-91453665D01*
X143273049Y-91453665D02*
X143673049Y-91453665D01*
X143673049Y-91453665D02*
X143901620Y-91396522D01*
X143901620Y-91396522D02*
X144015906Y-91282237D01*
X144015906Y-91282237D02*
X144073049Y-91167951D01*
X142873049Y-90139379D02*
X144073049Y-90139379D01*
X144073049Y-90139379D02*
X143215906Y-89739379D01*
X143215906Y-89739379D02*
X144073049Y-89339379D01*
X144073049Y-89339379D02*
X142873049Y-89339379D01*
X142873049Y-88767950D02*
X144073049Y-88767950D01*
X144073049Y-88767950D02*
X144073049Y-88310807D01*
X144073049Y-88310807D02*
X144015906Y-88196522D01*
X144015906Y-88196522D02*
X143958763Y-88139379D01*
X143958763Y-88139379D02*
X143844477Y-88082236D01*
X143844477Y-88082236D02*
X143673049Y-88082236D01*
X143673049Y-88082236D02*
X143558763Y-88139379D01*
X143558763Y-88139379D02*
X143501620Y-88196522D01*
X143501620Y-88196522D02*
X143444477Y-88310807D01*
X143444477Y-88310807D02*
X143444477Y-88767950D01*
X143215906Y-87625093D02*
X143215906Y-87053665D01*
X142873049Y-87739379D02*
X144073049Y-87339379D01*
X144073049Y-87339379D02*
X142873049Y-86939379D01*
X142758763Y-85739379D02*
X142815906Y-85853665D01*
X142815906Y-85853665D02*
X142930192Y-85967951D01*
X142930192Y-85967951D02*
X143101620Y-86139379D01*
X143101620Y-86139379D02*
X143158763Y-86253665D01*
X143158763Y-86253665D02*
X143158763Y-86367951D01*
X142873049Y-86310808D02*
X142930192Y-86425094D01*
X142930192Y-86425094D02*
X143044477Y-86539379D01*
X143044477Y-86539379D02*
X143273049Y-86596522D01*
X143273049Y-86596522D02*
X143673049Y-86596522D01*
X143673049Y-86596522D02*
X143901620Y-86539379D01*
X143901620Y-86539379D02*
X144015906Y-86425094D01*
X144015906Y-86425094D02*
X144073049Y-86310808D01*
X144073049Y-86310808D02*
X144073049Y-86082236D01*
X144073049Y-86082236D02*
X144015906Y-85967951D01*
X144015906Y-85967951D02*
X143901620Y-85853665D01*
X143901620Y-85853665D02*
X143673049Y-85796522D01*
X143673049Y-85796522D02*
X143273049Y-85796522D01*
X143273049Y-85796522D02*
X143044477Y-85853665D01*
X143044477Y-85853665D02*
X142930192Y-85967951D01*
X142930192Y-85967951D02*
X142873049Y-86082236D01*
X142873049Y-86082236D02*
X142873049Y-86310808D01*
X143958763Y-84425093D02*
X144015906Y-84367950D01*
X144015906Y-84367950D02*
X144073049Y-84253665D01*
X144073049Y-84253665D02*
X144073049Y-83967950D01*
X144073049Y-83967950D02*
X144015906Y-83853665D01*
X144015906Y-83853665D02*
X143958763Y-83796522D01*
X143958763Y-83796522D02*
X143844477Y-83739379D01*
X143844477Y-83739379D02*
X143730192Y-83739379D01*
X143730192Y-83739379D02*
X143558763Y-83796522D01*
X143558763Y-83796522D02*
X142873049Y-84482236D01*
X142873049Y-84482236D02*
X142873049Y-83739379D01*
X144073049Y-82653665D02*
X144073049Y-83225093D01*
X144073049Y-83225093D02*
X143501620Y-83282236D01*
X143501620Y-83282236D02*
X143558763Y-83225093D01*
X143558763Y-83225093D02*
X143615906Y-83110808D01*
X143615906Y-83110808D02*
X143615906Y-82825093D01*
X143615906Y-82825093D02*
X143558763Y-82710808D01*
X143558763Y-82710808D02*
X143501620Y-82653665D01*
X143501620Y-82653665D02*
X143387334Y-82596522D01*
X143387334Y-82596522D02*
X143101620Y-82596522D01*
X143101620Y-82596522D02*
X142987334Y-82653665D01*
X142987334Y-82653665D02*
X142930192Y-82710808D01*
X142930192Y-82710808D02*
X142873049Y-82825093D01*
X142873049Y-82825093D02*
X142873049Y-83110808D01*
X142873049Y-83110808D02*
X142930192Y-83225093D01*
X142930192Y-83225093D02*
X142987334Y-83282236D01*
X144073049Y-81567951D02*
X144073049Y-81796522D01*
X144073049Y-81796522D02*
X144015906Y-81910808D01*
X144015906Y-81910808D02*
X143958763Y-81967951D01*
X143958763Y-81967951D02*
X143787334Y-82082236D01*
X143787334Y-82082236D02*
X143558763Y-82139379D01*
X143558763Y-82139379D02*
X143101620Y-82139379D01*
X143101620Y-82139379D02*
X142987334Y-82082236D01*
X142987334Y-82082236D02*
X142930192Y-82025093D01*
X142930192Y-82025093D02*
X142873049Y-81910808D01*
X142873049Y-81910808D02*
X142873049Y-81682236D01*
X142873049Y-81682236D02*
X142930192Y-81567951D01*
X142930192Y-81567951D02*
X142987334Y-81510808D01*
X142987334Y-81510808D02*
X143101620Y-81453665D01*
X143101620Y-81453665D02*
X143387334Y-81453665D01*
X143387334Y-81453665D02*
X143501620Y-81510808D01*
X143501620Y-81510808D02*
X143558763Y-81567951D01*
X143558763Y-81567951D02*
X143615906Y-81682236D01*
X143615906Y-81682236D02*
X143615906Y-81910808D01*
X143615906Y-81910808D02*
X143558763Y-82025093D01*
X143558763Y-82025093D02*
X143501620Y-82082236D01*
X143501620Y-82082236D02*
X143387334Y-82139379D01*
X142873049Y-80939379D02*
X144073049Y-80939379D01*
X142873049Y-80253665D02*
X143558763Y-80767951D01*
X144073049Y-80253665D02*
X143387334Y-80939379D01*
X143501620Y-79339379D02*
X143444477Y-79167951D01*
X143444477Y-79167951D02*
X143387334Y-79110808D01*
X143387334Y-79110808D02*
X143273049Y-79053665D01*
X143273049Y-79053665D02*
X143101620Y-79053665D01*
X143101620Y-79053665D02*
X142987334Y-79110808D01*
X142987334Y-79110808D02*
X142930192Y-79167951D01*
X142930192Y-79167951D02*
X142873049Y-79282236D01*
X142873049Y-79282236D02*
X142873049Y-79739379D01*
X142873049Y-79739379D02*
X144073049Y-79739379D01*
X144073049Y-79739379D02*
X144073049Y-79339379D01*
X144073049Y-79339379D02*
X144015906Y-79225094D01*
X144015906Y-79225094D02*
X143958763Y-79167951D01*
X143958763Y-79167951D02*
X143844477Y-79110808D01*
X143844477Y-79110808D02*
X143730192Y-79110808D01*
X143730192Y-79110808D02*
X143615906Y-79167951D01*
X143615906Y-79167951D02*
X143558763Y-79225094D01*
X143558763Y-79225094D02*
X143501620Y-79339379D01*
X143501620Y-79339379D02*
X143501620Y-79739379D01*
X142987334Y-76939379D02*
X142930192Y-76996522D01*
X142930192Y-76996522D02*
X142873049Y-77167950D01*
X142873049Y-77167950D02*
X142873049Y-77282236D01*
X142873049Y-77282236D02*
X142930192Y-77453665D01*
X142930192Y-77453665D02*
X143044477Y-77567950D01*
X143044477Y-77567950D02*
X143158763Y-77625093D01*
X143158763Y-77625093D02*
X143387334Y-77682236D01*
X143387334Y-77682236D02*
X143558763Y-77682236D01*
X143558763Y-77682236D02*
X143787334Y-77625093D01*
X143787334Y-77625093D02*
X143901620Y-77567950D01*
X143901620Y-77567950D02*
X144015906Y-77453665D01*
X144015906Y-77453665D02*
X144073049Y-77282236D01*
X144073049Y-77282236D02*
X144073049Y-77167950D01*
X144073049Y-77167950D02*
X144015906Y-76996522D01*
X144015906Y-76996522D02*
X143958763Y-76939379D01*
X143215906Y-76482236D02*
X143215906Y-75910808D01*
X142873049Y-76596522D02*
X144073049Y-76196522D01*
X144073049Y-76196522D02*
X142873049Y-75796522D01*
X142987334Y-74710808D02*
X142930192Y-74767951D01*
X142930192Y-74767951D02*
X142873049Y-74939379D01*
X142873049Y-74939379D02*
X142873049Y-75053665D01*
X142873049Y-75053665D02*
X142930192Y-75225094D01*
X142930192Y-75225094D02*
X143044477Y-75339379D01*
X143044477Y-75339379D02*
X143158763Y-75396522D01*
X143158763Y-75396522D02*
X143387334Y-75453665D01*
X143387334Y-75453665D02*
X143558763Y-75453665D01*
X143558763Y-75453665D02*
X143787334Y-75396522D01*
X143787334Y-75396522D02*
X143901620Y-75339379D01*
X143901620Y-75339379D02*
X144015906Y-75225094D01*
X144015906Y-75225094D02*
X144073049Y-75053665D01*
X144073049Y-75053665D02*
X144073049Y-74939379D01*
X144073049Y-74939379D02*
X144015906Y-74767951D01*
X144015906Y-74767951D02*
X143958763Y-74710808D01*
X142873049Y-74196522D02*
X144073049Y-74196522D01*
X143501620Y-74196522D02*
X143501620Y-73510808D01*
X142873049Y-73510808D02*
X144073049Y-73510808D01*
X143501620Y-72939379D02*
X143501620Y-72539379D01*
X142873049Y-72367951D02*
X142873049Y-72939379D01*
X142873049Y-72939379D02*
X144073049Y-72939379D01*
X144073049Y-72939379D02*
X144073049Y-72367951D01*
X142873049Y-70939379D02*
X144073049Y-70939379D01*
X144073049Y-70939379D02*
X143215906Y-70539379D01*
X143215906Y-70539379D02*
X144073049Y-70139379D01*
X144073049Y-70139379D02*
X142873049Y-70139379D01*
X144073049Y-69339379D02*
X144073049Y-69110807D01*
X144073049Y-69110807D02*
X144015906Y-68996522D01*
X144015906Y-68996522D02*
X143901620Y-68882236D01*
X143901620Y-68882236D02*
X143673049Y-68825093D01*
X143673049Y-68825093D02*
X143273049Y-68825093D01*
X143273049Y-68825093D02*
X143044477Y-68882236D01*
X143044477Y-68882236D02*
X142930192Y-68996522D01*
X142930192Y-68996522D02*
X142873049Y-69110807D01*
X142873049Y-69110807D02*
X142873049Y-69339379D01*
X142873049Y-69339379D02*
X142930192Y-69453665D01*
X142930192Y-69453665D02*
X143044477Y-69567950D01*
X143044477Y-69567950D02*
X143273049Y-69625093D01*
X143273049Y-69625093D02*
X143673049Y-69625093D01*
X143673049Y-69625093D02*
X143901620Y-69567950D01*
X143901620Y-69567950D02*
X144015906Y-69453665D01*
X144015906Y-69453665D02*
X144073049Y-69339379D01*
X142873049Y-68310807D02*
X144073049Y-68310807D01*
X144073049Y-68310807D02*
X144073049Y-68025093D01*
X144073049Y-68025093D02*
X144015906Y-67853664D01*
X144015906Y-67853664D02*
X143901620Y-67739379D01*
X143901620Y-67739379D02*
X143787334Y-67682236D01*
X143787334Y-67682236D02*
X143558763Y-67625093D01*
X143558763Y-67625093D02*
X143387334Y-67625093D01*
X143387334Y-67625093D02*
X143158763Y-67682236D01*
X143158763Y-67682236D02*
X143044477Y-67739379D01*
X143044477Y-67739379D02*
X142930192Y-67853664D01*
X142930192Y-67853664D02*
X142873049Y-68025093D01*
X142873049Y-68025093D02*
X142873049Y-68310807D01*
X144073049Y-67110807D02*
X143101620Y-67110807D01*
X143101620Y-67110807D02*
X142987334Y-67053664D01*
X142987334Y-67053664D02*
X142930192Y-66996522D01*
X142930192Y-66996522D02*
X142873049Y-66882236D01*
X142873049Y-66882236D02*
X142873049Y-66653664D01*
X142873049Y-66653664D02*
X142930192Y-66539379D01*
X142930192Y-66539379D02*
X142987334Y-66482236D01*
X142987334Y-66482236D02*
X143101620Y-66425093D01*
X143101620Y-66425093D02*
X144073049Y-66425093D01*
X142873049Y-65282236D02*
X142873049Y-65853664D01*
X142873049Y-65853664D02*
X144073049Y-65853664D01*
X143501620Y-64882235D02*
X143501620Y-64482235D01*
X142873049Y-64310807D02*
X142873049Y-64882235D01*
X142873049Y-64882235D02*
X144073049Y-64882235D01*
X144073049Y-64882235D02*
X144073049Y-64310807D01*
X142141116Y-81453663D02*
X142141116Y-80767949D01*
X140941116Y-81110806D02*
X142141116Y-81110806D01*
X141512544Y-80139377D02*
X140941116Y-80139377D01*
X142141116Y-80539377D02*
X141512544Y-80139377D01*
X141512544Y-80139377D02*
X142141116Y-79739377D01*
X140941116Y-79339377D02*
X142141116Y-79339377D01*
X142141116Y-79339377D02*
X142141116Y-78882234D01*
X142141116Y-78882234D02*
X142083973Y-78767949D01*
X142083973Y-78767949D02*
X142026830Y-78710806D01*
X142026830Y-78710806D02*
X141912544Y-78653663D01*
X141912544Y-78653663D02*
X141741116Y-78653663D01*
X141741116Y-78653663D02*
X141626830Y-78710806D01*
X141626830Y-78710806D02*
X141569687Y-78767949D01*
X141569687Y-78767949D02*
X141512544Y-78882234D01*
X141512544Y-78882234D02*
X141512544Y-79339377D01*
X141569687Y-78139377D02*
X141569687Y-77739377D01*
X140941116Y-77567949D02*
X140941116Y-78139377D01*
X140941116Y-78139377D02*
X142141116Y-78139377D01*
X142141116Y-78139377D02*
X142141116Y-77567949D01*
X141055401Y-77053663D02*
X140998259Y-76996520D01*
X140998259Y-76996520D02*
X140941116Y-77053663D01*
X140941116Y-77053663D02*
X140998259Y-77110806D01*
X140998259Y-77110806D02*
X141055401Y-77053663D01*
X141055401Y-77053663D02*
X140941116Y-77053663D01*
X141683973Y-77053663D02*
X141626830Y-76996520D01*
X141626830Y-76996520D02*
X141569687Y-77053663D01*
X141569687Y-77053663D02*
X141626830Y-77110806D01*
X141626830Y-77110806D02*
X141683973Y-77053663D01*
X141683973Y-77053663D02*
X141569687Y-77053663D01*
X140941116Y-74939377D02*
X140941116Y-75625091D01*
X140941116Y-75282234D02*
X142141116Y-75282234D01*
X142141116Y-75282234D02*
X141969687Y-75396520D01*
X141969687Y-75396520D02*
X141855401Y-75510805D01*
X141855401Y-75510805D02*
X141798259Y-75625091D01*
X140941116Y-74367948D02*
X140941116Y-74139377D01*
X140941116Y-74139377D02*
X140998259Y-74025091D01*
X140998259Y-74025091D02*
X141055401Y-73967948D01*
X141055401Y-73967948D02*
X141226830Y-73853663D01*
X141226830Y-73853663D02*
X141455401Y-73796520D01*
X141455401Y-73796520D02*
X141912544Y-73796520D01*
X141912544Y-73796520D02*
X142026830Y-73853663D01*
X142026830Y-73853663D02*
X142083973Y-73910806D01*
X142083973Y-73910806D02*
X142141116Y-74025091D01*
X142141116Y-74025091D02*
X142141116Y-74253663D01*
X142141116Y-74253663D02*
X142083973Y-74367948D01*
X142083973Y-74367948D02*
X142026830Y-74425091D01*
X142026830Y-74425091D02*
X141912544Y-74482234D01*
X141912544Y-74482234D02*
X141626830Y-74482234D01*
X141626830Y-74482234D02*
X141512544Y-74425091D01*
X141512544Y-74425091D02*
X141455401Y-74367948D01*
X141455401Y-74367948D02*
X141398259Y-74253663D01*
X141398259Y-74253663D02*
X141398259Y-74025091D01*
X141398259Y-74025091D02*
X141455401Y-73910806D01*
X141455401Y-73910806D02*
X141512544Y-73853663D01*
X141512544Y-73853663D02*
X141626830Y-73796520D01*
X142141116Y-73396520D02*
X142141116Y-72596520D01*
X142141116Y-72596520D02*
X140941116Y-73110806D01*
X142141116Y-71910806D02*
X142141116Y-71796520D01*
X142141116Y-71796520D02*
X142083973Y-71682234D01*
X142083973Y-71682234D02*
X142026830Y-71625092D01*
X142026830Y-71625092D02*
X141912544Y-71567949D01*
X141912544Y-71567949D02*
X141683973Y-71510806D01*
X141683973Y-71510806D02*
X141398259Y-71510806D01*
X141398259Y-71510806D02*
X141169687Y-71567949D01*
X141169687Y-71567949D02*
X141055401Y-71625092D01*
X141055401Y-71625092D02*
X140998259Y-71682234D01*
X140998259Y-71682234D02*
X140941116Y-71796520D01*
X140941116Y-71796520D02*
X140941116Y-71910806D01*
X140941116Y-71910806D02*
X140998259Y-72025092D01*
X140998259Y-72025092D02*
X141055401Y-72082234D01*
X141055401Y-72082234D02*
X141169687Y-72139377D01*
X141169687Y-72139377D02*
X141398259Y-72196520D01*
X141398259Y-72196520D02*
X141683973Y-72196520D01*
X141683973Y-72196520D02*
X141912544Y-72139377D01*
X141912544Y-72139377D02*
X142026830Y-72082234D01*
X142026830Y-72082234D02*
X142083973Y-72025092D01*
X142083973Y-72025092D02*
X142141116Y-71910806D01*
X142141116Y-70767949D02*
X142141116Y-70653663D01*
X142141116Y-70653663D02*
X142083973Y-70539377D01*
X142083973Y-70539377D02*
X142026830Y-70482235D01*
X142026830Y-70482235D02*
X141912544Y-70425092D01*
X141912544Y-70425092D02*
X141683973Y-70367949D01*
X141683973Y-70367949D02*
X141398259Y-70367949D01*
X141398259Y-70367949D02*
X141169687Y-70425092D01*
X141169687Y-70425092D02*
X141055401Y-70482235D01*
X141055401Y-70482235D02*
X140998259Y-70539377D01*
X140998259Y-70539377D02*
X140941116Y-70653663D01*
X140941116Y-70653663D02*
X140941116Y-70767949D01*
X140941116Y-70767949D02*
X140998259Y-70882235D01*
X140998259Y-70882235D02*
X141055401Y-70939377D01*
X141055401Y-70939377D02*
X141169687Y-70996520D01*
X141169687Y-70996520D02*
X141398259Y-71053663D01*
X141398259Y-71053663D02*
X141683973Y-71053663D01*
X141683973Y-71053663D02*
X141912544Y-70996520D01*
X141912544Y-70996520D02*
X142026830Y-70939377D01*
X142026830Y-70939377D02*
X142083973Y-70882235D01*
X142083973Y-70882235D02*
X142141116Y-70767949D01*
X142141116Y-69282235D02*
X142141116Y-69853663D01*
X142141116Y-69853663D02*
X141569687Y-69910806D01*
X141569687Y-69910806D02*
X141626830Y-69853663D01*
X141626830Y-69853663D02*
X141683973Y-69739378D01*
X141683973Y-69739378D02*
X141683973Y-69453663D01*
X141683973Y-69453663D02*
X141626830Y-69339378D01*
X141626830Y-69339378D02*
X141569687Y-69282235D01*
X141569687Y-69282235D02*
X141455401Y-69225092D01*
X141455401Y-69225092D02*
X141169687Y-69225092D01*
X141169687Y-69225092D02*
X141055401Y-69282235D01*
X141055401Y-69282235D02*
X140998259Y-69339378D01*
X140998259Y-69339378D02*
X140941116Y-69453663D01*
X140941116Y-69453663D02*
X140941116Y-69739378D01*
X140941116Y-69739378D02*
X140998259Y-69853663D01*
X140998259Y-69853663D02*
X141055401Y-69910806D01*
X141398259Y-68710806D02*
X141398259Y-67796521D01*
X142141116Y-66996521D02*
X142141116Y-66882235D01*
X142141116Y-66882235D02*
X142083973Y-66767949D01*
X142083973Y-66767949D02*
X142026830Y-66710807D01*
X142026830Y-66710807D02*
X141912544Y-66653664D01*
X141912544Y-66653664D02*
X141683973Y-66596521D01*
X141683973Y-66596521D02*
X141398259Y-66596521D01*
X141398259Y-66596521D02*
X141169687Y-66653664D01*
X141169687Y-66653664D02*
X141055401Y-66710807D01*
X141055401Y-66710807D02*
X140998259Y-66767949D01*
X140998259Y-66767949D02*
X140941116Y-66882235D01*
X140941116Y-66882235D02*
X140941116Y-66996521D01*
X140941116Y-66996521D02*
X140998259Y-67110807D01*
X140998259Y-67110807D02*
X141055401Y-67167949D01*
X141055401Y-67167949D02*
X141169687Y-67225092D01*
X141169687Y-67225092D02*
X141398259Y-67282235D01*
X141398259Y-67282235D02*
X141683973Y-67282235D01*
X141683973Y-67282235D02*
X141912544Y-67225092D01*
X141912544Y-67225092D02*
X142026830Y-67167949D01*
X142026830Y-67167949D02*
X142083973Y-67110807D01*
X142083973Y-67110807D02*
X142141116Y-66996521D01*
X142141116Y-65853664D02*
X142141116Y-65739378D01*
X142141116Y-65739378D02*
X142083973Y-65625092D01*
X142083973Y-65625092D02*
X142026830Y-65567950D01*
X142026830Y-65567950D02*
X141912544Y-65510807D01*
X141912544Y-65510807D02*
X141683973Y-65453664D01*
X141683973Y-65453664D02*
X141398259Y-65453664D01*
X141398259Y-65453664D02*
X141169687Y-65510807D01*
X141169687Y-65510807D02*
X141055401Y-65567950D01*
X141055401Y-65567950D02*
X140998259Y-65625092D01*
X140998259Y-65625092D02*
X140941116Y-65739378D01*
X140941116Y-65739378D02*
X140941116Y-65853664D01*
X140941116Y-65853664D02*
X140998259Y-65967950D01*
X140998259Y-65967950D02*
X141055401Y-66025092D01*
X141055401Y-66025092D02*
X141169687Y-66082235D01*
X141169687Y-66082235D02*
X141398259Y-66139378D01*
X141398259Y-66139378D02*
X141683973Y-66139378D01*
X141683973Y-66139378D02*
X141912544Y-66082235D01*
X141912544Y-66082235D02*
X142026830Y-66025092D01*
X142026830Y-66025092D02*
X142083973Y-65967950D01*
X142083973Y-65967950D02*
X142141116Y-65853664D01*
X140941116Y-64310807D02*
X140941116Y-64996521D01*
X140941116Y-64653664D02*
X142141116Y-64653664D01*
X142141116Y-64653664D02*
X141969687Y-64767950D01*
X141969687Y-64767950D02*
X141855401Y-64882235D01*
X141855401Y-64882235D02*
X141798259Y-64996521D01*
D12*
X207516666Y-70459580D02*
X207564285Y-70507200D01*
X207564285Y-70507200D02*
X207707142Y-70554819D01*
X207707142Y-70554819D02*
X207802380Y-70554819D01*
X207802380Y-70554819D02*
X207945237Y-70507200D01*
X207945237Y-70507200D02*
X208040475Y-70411961D01*
X208040475Y-70411961D02*
X208088094Y-70316723D01*
X208088094Y-70316723D02*
X208135713Y-70126247D01*
X208135713Y-70126247D02*
X208135713Y-69983390D01*
X208135713Y-69983390D02*
X208088094Y-69792914D01*
X208088094Y-69792914D02*
X208040475Y-69697676D01*
X208040475Y-69697676D02*
X207945237Y-69602438D01*
X207945237Y-69602438D02*
X207802380Y-69554819D01*
X207802380Y-69554819D02*
X207707142Y-69554819D01*
X207707142Y-69554819D02*
X207564285Y-69602438D01*
X207564285Y-69602438D02*
X207516666Y-69650057D01*
X206945237Y-69983390D02*
X207040475Y-69935771D01*
X207040475Y-69935771D02*
X207088094Y-69888152D01*
X207088094Y-69888152D02*
X207135713Y-69792914D01*
X207135713Y-69792914D02*
X207135713Y-69745295D01*
X207135713Y-69745295D02*
X207088094Y-69650057D01*
X207088094Y-69650057D02*
X207040475Y-69602438D01*
X207040475Y-69602438D02*
X206945237Y-69554819D01*
X206945237Y-69554819D02*
X206754761Y-69554819D01*
X206754761Y-69554819D02*
X206659523Y-69602438D01*
X206659523Y-69602438D02*
X206611904Y-69650057D01*
X206611904Y-69650057D02*
X206564285Y-69745295D01*
X206564285Y-69745295D02*
X206564285Y-69792914D01*
X206564285Y-69792914D02*
X206611904Y-69888152D01*
X206611904Y-69888152D02*
X206659523Y-69935771D01*
X206659523Y-69935771D02*
X206754761Y-69983390D01*
X206754761Y-69983390D02*
X206945237Y-69983390D01*
X206945237Y-69983390D02*
X207040475Y-70031009D01*
X207040475Y-70031009D02*
X207088094Y-70078628D01*
X207088094Y-70078628D02*
X207135713Y-70173866D01*
X207135713Y-70173866D02*
X207135713Y-70364342D01*
X207135713Y-70364342D02*
X207088094Y-70459580D01*
X207088094Y-70459580D02*
X207040475Y-70507200D01*
X207040475Y-70507200D02*
X206945237Y-70554819D01*
X206945237Y-70554819D02*
X206754761Y-70554819D01*
X206754761Y-70554819D02*
X206659523Y-70507200D01*
X206659523Y-70507200D02*
X206611904Y-70459580D01*
X206611904Y-70459580D02*
X206564285Y-70364342D01*
X206564285Y-70364342D02*
X206564285Y-70173866D01*
X206564285Y-70173866D02*
X206611904Y-70078628D01*
X206611904Y-70078628D02*
X206659523Y-70031009D01*
X206659523Y-70031009D02*
X206754761Y-69983390D01*
X165142857Y-98589580D02*
X165190476Y-98637200D01*
X165190476Y-98637200D02*
X165333333Y-98684819D01*
X165333333Y-98684819D02*
X165428571Y-98684819D01*
X165428571Y-98684819D02*
X165571428Y-98637200D01*
X165571428Y-98637200D02*
X165666666Y-98541961D01*
X165666666Y-98541961D02*
X165714285Y-98446723D01*
X165714285Y-98446723D02*
X165761904Y-98256247D01*
X165761904Y-98256247D02*
X165761904Y-98113390D01*
X165761904Y-98113390D02*
X165714285Y-97922914D01*
X165714285Y-97922914D02*
X165666666Y-97827676D01*
X165666666Y-97827676D02*
X165571428Y-97732438D01*
X165571428Y-97732438D02*
X165428571Y-97684819D01*
X165428571Y-97684819D02*
X165333333Y-97684819D01*
X165333333Y-97684819D02*
X165190476Y-97732438D01*
X165190476Y-97732438D02*
X165142857Y-97780057D01*
X164190476Y-98684819D02*
X164761904Y-98684819D01*
X164476190Y-98684819D02*
X164476190Y-97684819D01*
X164476190Y-97684819D02*
X164571428Y-97827676D01*
X164571428Y-97827676D02*
X164666666Y-97922914D01*
X164666666Y-97922914D02*
X164761904Y-97970533D01*
X163333333Y-98018152D02*
X163333333Y-98684819D01*
X163571428Y-97637200D02*
X163809523Y-98351485D01*
X163809523Y-98351485D02*
X163190476Y-98351485D01*
X223661904Y-92754819D02*
X223661904Y-93564342D01*
X223661904Y-93564342D02*
X223614285Y-93659580D01*
X223614285Y-93659580D02*
X223566666Y-93707200D01*
X223566666Y-93707200D02*
X223471428Y-93754819D01*
X223471428Y-93754819D02*
X223280952Y-93754819D01*
X223280952Y-93754819D02*
X223185714Y-93707200D01*
X223185714Y-93707200D02*
X223138095Y-93659580D01*
X223138095Y-93659580D02*
X223090476Y-93564342D01*
X223090476Y-93564342D02*
X223090476Y-92754819D01*
X222138095Y-92754819D02*
X222614285Y-92754819D01*
X222614285Y-92754819D02*
X222661904Y-93231009D01*
X222661904Y-93231009D02*
X222614285Y-93183390D01*
X222614285Y-93183390D02*
X222519047Y-93135771D01*
X222519047Y-93135771D02*
X222280952Y-93135771D01*
X222280952Y-93135771D02*
X222185714Y-93183390D01*
X222185714Y-93183390D02*
X222138095Y-93231009D01*
X222138095Y-93231009D02*
X222090476Y-93326247D01*
X222090476Y-93326247D02*
X222090476Y-93564342D01*
X222090476Y-93564342D02*
X222138095Y-93659580D01*
X222138095Y-93659580D02*
X222185714Y-93707200D01*
X222185714Y-93707200D02*
X222280952Y-93754819D01*
X222280952Y-93754819D02*
X222519047Y-93754819D01*
X222519047Y-93754819D02*
X222614285Y-93707200D01*
X222614285Y-93707200D02*
X222661904Y-93659580D01*
X210661904Y-92854819D02*
X210661904Y-93664342D01*
X210661904Y-93664342D02*
X210614285Y-93759580D01*
X210614285Y-93759580D02*
X210566666Y-93807200D01*
X210566666Y-93807200D02*
X210471428Y-93854819D01*
X210471428Y-93854819D02*
X210280952Y-93854819D01*
X210280952Y-93854819D02*
X210185714Y-93807200D01*
X210185714Y-93807200D02*
X210138095Y-93759580D01*
X210138095Y-93759580D02*
X210090476Y-93664342D01*
X210090476Y-93664342D02*
X210090476Y-92854819D01*
X209185714Y-92854819D02*
X209376190Y-92854819D01*
X209376190Y-92854819D02*
X209471428Y-92902438D01*
X209471428Y-92902438D02*
X209519047Y-92950057D01*
X209519047Y-92950057D02*
X209614285Y-93092914D01*
X209614285Y-93092914D02*
X209661904Y-93283390D01*
X209661904Y-93283390D02*
X209661904Y-93664342D01*
X209661904Y-93664342D02*
X209614285Y-93759580D01*
X209614285Y-93759580D02*
X209566666Y-93807200D01*
X209566666Y-93807200D02*
X209471428Y-93854819D01*
X209471428Y-93854819D02*
X209280952Y-93854819D01*
X209280952Y-93854819D02*
X209185714Y-93807200D01*
X209185714Y-93807200D02*
X209138095Y-93759580D01*
X209138095Y-93759580D02*
X209090476Y-93664342D01*
X209090476Y-93664342D02*
X209090476Y-93426247D01*
X209090476Y-93426247D02*
X209138095Y-93331009D01*
X209138095Y-93331009D02*
X209185714Y-93283390D01*
X209185714Y-93283390D02*
X209280952Y-93235771D01*
X209280952Y-93235771D02*
X209471428Y-93235771D01*
X209471428Y-93235771D02*
X209566666Y-93283390D01*
X209566666Y-93283390D02*
X209614285Y-93331009D01*
X209614285Y-93331009D02*
X209661904Y-93426247D01*
X220541666Y-70459580D02*
X220589285Y-70507200D01*
X220589285Y-70507200D02*
X220732142Y-70554819D01*
X220732142Y-70554819D02*
X220827380Y-70554819D01*
X220827380Y-70554819D02*
X220970237Y-70507200D01*
X220970237Y-70507200D02*
X221065475Y-70411961D01*
X221065475Y-70411961D02*
X221113094Y-70316723D01*
X221113094Y-70316723D02*
X221160713Y-70126247D01*
X221160713Y-70126247D02*
X221160713Y-69983390D01*
X221160713Y-69983390D02*
X221113094Y-69792914D01*
X221113094Y-69792914D02*
X221065475Y-69697676D01*
X221065475Y-69697676D02*
X220970237Y-69602438D01*
X220970237Y-69602438D02*
X220827380Y-69554819D01*
X220827380Y-69554819D02*
X220732142Y-69554819D01*
X220732142Y-69554819D02*
X220589285Y-69602438D01*
X220589285Y-69602438D02*
X220541666Y-69650057D01*
X220208332Y-69554819D02*
X219541666Y-69554819D01*
X219541666Y-69554819D02*
X219970237Y-70554819D01*
X181441666Y-70459580D02*
X181489285Y-70507200D01*
X181489285Y-70507200D02*
X181632142Y-70554819D01*
X181632142Y-70554819D02*
X181727380Y-70554819D01*
X181727380Y-70554819D02*
X181870237Y-70507200D01*
X181870237Y-70507200D02*
X181965475Y-70411961D01*
X181965475Y-70411961D02*
X182013094Y-70316723D01*
X182013094Y-70316723D02*
X182060713Y-70126247D01*
X182060713Y-70126247D02*
X182060713Y-69983390D01*
X182060713Y-69983390D02*
X182013094Y-69792914D01*
X182013094Y-69792914D02*
X181965475Y-69697676D01*
X181965475Y-69697676D02*
X181870237Y-69602438D01*
X181870237Y-69602438D02*
X181727380Y-69554819D01*
X181727380Y-69554819D02*
X181632142Y-69554819D01*
X181632142Y-69554819D02*
X181489285Y-69602438D01*
X181489285Y-69602438D02*
X181441666Y-69650057D01*
X180965475Y-70554819D02*
X180774999Y-70554819D01*
X180774999Y-70554819D02*
X180679761Y-70507200D01*
X180679761Y-70507200D02*
X180632142Y-70459580D01*
X180632142Y-70459580D02*
X180536904Y-70316723D01*
X180536904Y-70316723D02*
X180489285Y-70126247D01*
X180489285Y-70126247D02*
X180489285Y-69745295D01*
X180489285Y-69745295D02*
X180536904Y-69650057D01*
X180536904Y-69650057D02*
X180584523Y-69602438D01*
X180584523Y-69602438D02*
X180679761Y-69554819D01*
X180679761Y-69554819D02*
X180870237Y-69554819D01*
X180870237Y-69554819D02*
X180965475Y-69602438D01*
X180965475Y-69602438D02*
X181013094Y-69650057D01*
X181013094Y-69650057D02*
X181060713Y-69745295D01*
X181060713Y-69745295D02*
X181060713Y-69983390D01*
X181060713Y-69983390D02*
X181013094Y-70078628D01*
X181013094Y-70078628D02*
X180965475Y-70126247D01*
X180965475Y-70126247D02*
X180870237Y-70173866D01*
X180870237Y-70173866D02*
X180679761Y-70173866D01*
X180679761Y-70173866D02*
X180584523Y-70126247D01*
X180584523Y-70126247D02*
X180536904Y-70078628D01*
X180536904Y-70078628D02*
X180489285Y-69983390D01*
X194967857Y-70459580D02*
X195015476Y-70507200D01*
X195015476Y-70507200D02*
X195158333Y-70554819D01*
X195158333Y-70554819D02*
X195253571Y-70554819D01*
X195253571Y-70554819D02*
X195396428Y-70507200D01*
X195396428Y-70507200D02*
X195491666Y-70411961D01*
X195491666Y-70411961D02*
X195539285Y-70316723D01*
X195539285Y-70316723D02*
X195586904Y-70126247D01*
X195586904Y-70126247D02*
X195586904Y-69983390D01*
X195586904Y-69983390D02*
X195539285Y-69792914D01*
X195539285Y-69792914D02*
X195491666Y-69697676D01*
X195491666Y-69697676D02*
X195396428Y-69602438D01*
X195396428Y-69602438D02*
X195253571Y-69554819D01*
X195253571Y-69554819D02*
X195158333Y-69554819D01*
X195158333Y-69554819D02*
X195015476Y-69602438D01*
X195015476Y-69602438D02*
X194967857Y-69650057D01*
X194015476Y-70554819D02*
X194586904Y-70554819D01*
X194301190Y-70554819D02*
X194301190Y-69554819D01*
X194301190Y-69554819D02*
X194396428Y-69697676D01*
X194396428Y-69697676D02*
X194491666Y-69792914D01*
X194491666Y-69792914D02*
X194586904Y-69840533D01*
X193396428Y-69554819D02*
X193301190Y-69554819D01*
X193301190Y-69554819D02*
X193205952Y-69602438D01*
X193205952Y-69602438D02*
X193158333Y-69650057D01*
X193158333Y-69650057D02*
X193110714Y-69745295D01*
X193110714Y-69745295D02*
X193063095Y-69935771D01*
X193063095Y-69935771D02*
X193063095Y-70173866D01*
X193063095Y-70173866D02*
X193110714Y-70364342D01*
X193110714Y-70364342D02*
X193158333Y-70459580D01*
X193158333Y-70459580D02*
X193205952Y-70507200D01*
X193205952Y-70507200D02*
X193301190Y-70554819D01*
X193301190Y-70554819D02*
X193396428Y-70554819D01*
X193396428Y-70554819D02*
X193491666Y-70507200D01*
X193491666Y-70507200D02*
X193539285Y-70459580D01*
X193539285Y-70459580D02*
X193586904Y-70364342D01*
X193586904Y-70364342D02*
X193634523Y-70173866D01*
X193634523Y-70173866D02*
X193634523Y-69935771D01*
X193634523Y-69935771D02*
X193586904Y-69745295D01*
X193586904Y-69745295D02*
X193539285Y-69650057D01*
X193539285Y-69650057D02*
X193491666Y-69602438D01*
X193491666Y-69602438D02*
X193396428Y-69554819D01*
X165092857Y-83579580D02*
X165140476Y-83627200D01*
X165140476Y-83627200D02*
X165283333Y-83674819D01*
X165283333Y-83674819D02*
X165378571Y-83674819D01*
X165378571Y-83674819D02*
X165521428Y-83627200D01*
X165521428Y-83627200D02*
X165616666Y-83531961D01*
X165616666Y-83531961D02*
X165664285Y-83436723D01*
X165664285Y-83436723D02*
X165711904Y-83246247D01*
X165711904Y-83246247D02*
X165711904Y-83103390D01*
X165711904Y-83103390D02*
X165664285Y-82912914D01*
X165664285Y-82912914D02*
X165616666Y-82817676D01*
X165616666Y-82817676D02*
X165521428Y-82722438D01*
X165521428Y-82722438D02*
X165378571Y-82674819D01*
X165378571Y-82674819D02*
X165283333Y-82674819D01*
X165283333Y-82674819D02*
X165140476Y-82722438D01*
X165140476Y-82722438D02*
X165092857Y-82770057D01*
X164140476Y-83674819D02*
X164711904Y-83674819D01*
X164426190Y-83674819D02*
X164426190Y-82674819D01*
X164426190Y-82674819D02*
X164521428Y-82817676D01*
X164521428Y-82817676D02*
X164616666Y-82912914D01*
X164616666Y-82912914D02*
X164711904Y-82960533D01*
X163807142Y-82674819D02*
X163188095Y-82674819D01*
X163188095Y-82674819D02*
X163521428Y-83055771D01*
X163521428Y-83055771D02*
X163378571Y-83055771D01*
X163378571Y-83055771D02*
X163283333Y-83103390D01*
X163283333Y-83103390D02*
X163235714Y-83151009D01*
X163235714Y-83151009D02*
X163188095Y-83246247D01*
X163188095Y-83246247D02*
X163188095Y-83484342D01*
X163188095Y-83484342D02*
X163235714Y-83579580D01*
X163235714Y-83579580D02*
X163283333Y-83627200D01*
X163283333Y-83627200D02*
X163378571Y-83674819D01*
X163378571Y-83674819D02*
X163664285Y-83674819D01*
X163664285Y-83674819D02*
X163759523Y-83627200D01*
X163759523Y-83627200D02*
X163807142Y-83579580D01*
X197561904Y-92854819D02*
X197561904Y-93664342D01*
X197561904Y-93664342D02*
X197514285Y-93759580D01*
X197514285Y-93759580D02*
X197466666Y-93807200D01*
X197466666Y-93807200D02*
X197371428Y-93854819D01*
X197371428Y-93854819D02*
X197180952Y-93854819D01*
X197180952Y-93854819D02*
X197085714Y-93807200D01*
X197085714Y-93807200D02*
X197038095Y-93759580D01*
X197038095Y-93759580D02*
X196990476Y-93664342D01*
X196990476Y-93664342D02*
X196990476Y-92854819D01*
X196609523Y-92854819D02*
X195942857Y-92854819D01*
X195942857Y-92854819D02*
X196371428Y-93854819D01*
X184561904Y-92854819D02*
X184561904Y-93664342D01*
X184561904Y-93664342D02*
X184514285Y-93759580D01*
X184514285Y-93759580D02*
X184466666Y-93807200D01*
X184466666Y-93807200D02*
X184371428Y-93854819D01*
X184371428Y-93854819D02*
X184180952Y-93854819D01*
X184180952Y-93854819D02*
X184085714Y-93807200D01*
X184085714Y-93807200D02*
X184038095Y-93759580D01*
X184038095Y-93759580D02*
X183990476Y-93664342D01*
X183990476Y-93664342D02*
X183990476Y-92854819D01*
X183371428Y-93283390D02*
X183466666Y-93235771D01*
X183466666Y-93235771D02*
X183514285Y-93188152D01*
X183514285Y-93188152D02*
X183561904Y-93092914D01*
X183561904Y-93092914D02*
X183561904Y-93045295D01*
X183561904Y-93045295D02*
X183514285Y-92950057D01*
X183514285Y-92950057D02*
X183466666Y-92902438D01*
X183466666Y-92902438D02*
X183371428Y-92854819D01*
X183371428Y-92854819D02*
X183180952Y-92854819D01*
X183180952Y-92854819D02*
X183085714Y-92902438D01*
X183085714Y-92902438D02*
X183038095Y-92950057D01*
X183038095Y-92950057D02*
X182990476Y-93045295D01*
X182990476Y-93045295D02*
X182990476Y-93092914D01*
X182990476Y-93092914D02*
X183038095Y-93188152D01*
X183038095Y-93188152D02*
X183085714Y-93235771D01*
X183085714Y-93235771D02*
X183180952Y-93283390D01*
X183180952Y-93283390D02*
X183371428Y-93283390D01*
X183371428Y-93283390D02*
X183466666Y-93331009D01*
X183466666Y-93331009D02*
X183514285Y-93378628D01*
X183514285Y-93378628D02*
X183561904Y-93473866D01*
X183561904Y-93473866D02*
X183561904Y-93664342D01*
X183561904Y-93664342D02*
X183514285Y-93759580D01*
X183514285Y-93759580D02*
X183466666Y-93807200D01*
X183466666Y-93807200D02*
X183371428Y-93854819D01*
X183371428Y-93854819D02*
X183180952Y-93854819D01*
X183180952Y-93854819D02*
X183085714Y-93807200D01*
X183085714Y-93807200D02*
X183038095Y-93759580D01*
X183038095Y-93759580D02*
X182990476Y-93664342D01*
X182990476Y-93664342D02*
X182990476Y-93473866D01*
X182990476Y-93473866D02*
X183038095Y-93378628D01*
X183038095Y-93378628D02*
X183085714Y-93331009D01*
X183085714Y-93331009D02*
X183180952Y-93283390D01*
D13*
%TO.C,C8*%
X207711252Y-71165000D02*
X207188748Y-71165000D01*
X207711252Y-72635000D02*
X207188748Y-72635000D01*
%TO.C,C14*%
X164761252Y-95815000D02*
X164238748Y-95815000D01*
X164761252Y-97285000D02*
X164238748Y-97285000D01*
D14*
%TO.C,U5*%
X219110000Y-74287500D02*
X221400000Y-74287500D01*
X219110000Y-74527500D02*
X219110000Y-74287500D01*
X219110000Y-75787500D02*
X219110000Y-75587500D01*
X219110000Y-77057500D02*
X219110000Y-76857500D01*
X219110000Y-78327500D02*
X219110000Y-78127500D01*
X219110000Y-79597500D02*
X219110000Y-79397500D01*
X219110000Y-80867500D02*
X219110000Y-80667500D01*
X219110000Y-82147500D02*
X219110000Y-81937500D01*
X219110000Y-83407500D02*
X219110000Y-83207500D01*
X219110000Y-84677500D02*
X219110000Y-84477500D01*
X219110000Y-85947500D02*
X219110000Y-85747500D01*
X219110000Y-87217500D02*
X219110000Y-87017500D01*
X219110000Y-88487500D02*
X219110000Y-88287500D01*
X219110000Y-89767500D02*
X219110000Y-89557500D01*
X219110000Y-91027500D02*
X219110000Y-90827500D01*
X219110000Y-92457500D02*
X219110000Y-92097500D01*
X224450000Y-74207500D02*
X226730000Y-74207500D01*
X226730000Y-74207500D02*
X226730000Y-74287500D01*
X226730000Y-74287500D02*
X226730000Y-74527500D01*
X226730000Y-75587500D02*
X226730000Y-75787500D01*
X226730000Y-76857500D02*
X226730000Y-77057500D01*
X226730000Y-78127500D02*
X226730000Y-78327500D01*
X226730000Y-79397500D02*
X226730000Y-79597500D01*
X226730000Y-80667500D02*
X226730000Y-80867500D01*
X226730000Y-81937500D02*
X226730000Y-82147500D01*
X226730000Y-83207500D02*
X226730000Y-83407500D01*
X226730000Y-84477500D02*
X226730000Y-84677500D01*
X226730000Y-85747500D02*
X226730000Y-85947500D01*
X226730000Y-87017500D02*
X226730000Y-87217500D01*
X226730000Y-88287500D02*
X226730000Y-88487500D01*
X226730000Y-89557500D02*
X226730000Y-89767500D01*
X226730000Y-90827500D02*
X226730000Y-91027500D01*
X226730000Y-92097500D02*
X226730000Y-92457500D01*
X226730000Y-92457500D02*
X219110000Y-92457500D01*
X224451108Y-74207292D02*
G75*
G02*
X221420000Y-74287500I-1521108J169792D01*
G01*
D15*
X227920000Y-73777500D02*
G75*
G02*
X227320000Y-73777500I-300000J0D01*
G01*
X227320000Y-73777500D02*
G75*
G02*
X227920000Y-73777500I300000J0D01*
G01*
D14*
%TO.C,U6*%
X206060000Y-74287500D02*
X208350000Y-74287500D01*
X206060000Y-74527500D02*
X206060000Y-74287500D01*
X206060000Y-75787500D02*
X206060000Y-75587500D01*
X206060000Y-77057500D02*
X206060000Y-76857500D01*
X206060000Y-78327500D02*
X206060000Y-78127500D01*
X206060000Y-79597500D02*
X206060000Y-79397500D01*
X206060000Y-80867500D02*
X206060000Y-80667500D01*
X206060000Y-82147500D02*
X206060000Y-81937500D01*
X206060000Y-83407500D02*
X206060000Y-83207500D01*
X206060000Y-84677500D02*
X206060000Y-84477500D01*
X206060000Y-85947500D02*
X206060000Y-85747500D01*
X206060000Y-87217500D02*
X206060000Y-87017500D01*
X206060000Y-88487500D02*
X206060000Y-88287500D01*
X206060000Y-89767500D02*
X206060000Y-89557500D01*
X206060000Y-91027500D02*
X206060000Y-90827500D01*
X206060000Y-92457500D02*
X206060000Y-92097500D01*
X211400000Y-74207500D02*
X213680000Y-74207500D01*
X213680000Y-74207500D02*
X213680000Y-74287500D01*
X213680000Y-74287500D02*
X213680000Y-74527500D01*
X213680000Y-75587500D02*
X213680000Y-75787500D01*
X213680000Y-76857500D02*
X213680000Y-77057500D01*
X213680000Y-78127500D02*
X213680000Y-78327500D01*
X213680000Y-79397500D02*
X213680000Y-79597500D01*
X213680000Y-80667500D02*
X213680000Y-80867500D01*
X213680000Y-81937500D02*
X213680000Y-82147500D01*
X213680000Y-83207500D02*
X213680000Y-83407500D01*
X213680000Y-84477500D02*
X213680000Y-84677500D01*
X213680000Y-85747500D02*
X213680000Y-85947500D01*
X213680000Y-87017500D02*
X213680000Y-87217500D01*
X213680000Y-88287500D02*
X213680000Y-88487500D01*
X213680000Y-89557500D02*
X213680000Y-89767500D01*
X213680000Y-90827500D02*
X213680000Y-91027500D01*
X213680000Y-92097500D02*
X213680000Y-92457500D01*
X213680000Y-92457500D02*
X206060000Y-92457500D01*
X211401108Y-74207292D02*
G75*
G02*
X208370000Y-74287500I-1521108J169792D01*
G01*
D15*
X214870000Y-73777500D02*
G75*
G02*
X214270000Y-73777500I-300000J0D01*
G01*
X214270000Y-73777500D02*
G75*
G02*
X214870000Y-73777500I300000J0D01*
G01*
D13*
%TO.C,C7*%
X220736252Y-71165000D02*
X220213748Y-71165000D01*
X220736252Y-72635000D02*
X220213748Y-72635000D01*
%TO.C,C9*%
X181636252Y-71165000D02*
X181113748Y-71165000D01*
X181636252Y-72635000D02*
X181113748Y-72635000D01*
%TO.C,C10*%
X194686252Y-71165000D02*
X194163748Y-71165000D01*
X194686252Y-72635000D02*
X194163748Y-72635000D01*
%TO.C,C13*%
X164188748Y-84165000D02*
X164711252Y-84165000D01*
X164188748Y-85635000D02*
X164711252Y-85635000D01*
D14*
%TO.C,U7*%
X193030000Y-74287500D02*
X195320000Y-74287500D01*
X193030000Y-74527500D02*
X193030000Y-74287500D01*
X193030000Y-75787500D02*
X193030000Y-75587500D01*
X193030000Y-77057500D02*
X193030000Y-76857500D01*
X193030000Y-78327500D02*
X193030000Y-78127500D01*
X193030000Y-79597500D02*
X193030000Y-79397500D01*
X193030000Y-80867500D02*
X193030000Y-80667500D01*
X193030000Y-82147500D02*
X193030000Y-81937500D01*
X193030000Y-83407500D02*
X193030000Y-83207500D01*
X193030000Y-84677500D02*
X193030000Y-84477500D01*
X193030000Y-85947500D02*
X193030000Y-85747500D01*
X193030000Y-87217500D02*
X193030000Y-87017500D01*
X193030000Y-88487500D02*
X193030000Y-88287500D01*
X193030000Y-89767500D02*
X193030000Y-89557500D01*
X193030000Y-91027500D02*
X193030000Y-90827500D01*
X193030000Y-92457500D02*
X193030000Y-92097500D01*
X198370000Y-74207500D02*
X200650000Y-74207500D01*
X200650000Y-74207500D02*
X200650000Y-74287500D01*
X200650000Y-74287500D02*
X200650000Y-74527500D01*
X200650000Y-75587500D02*
X200650000Y-75787500D01*
X200650000Y-76857500D02*
X200650000Y-77057500D01*
X200650000Y-78127500D02*
X200650000Y-78327500D01*
X200650000Y-79397500D02*
X200650000Y-79597500D01*
X200650000Y-80667500D02*
X200650000Y-80867500D01*
X200650000Y-81937500D02*
X200650000Y-82147500D01*
X200650000Y-83207500D02*
X200650000Y-83407500D01*
X200650000Y-84477500D02*
X200650000Y-84677500D01*
X200650000Y-85747500D02*
X200650000Y-85947500D01*
X200650000Y-87017500D02*
X200650000Y-87217500D01*
X200650000Y-88287500D02*
X200650000Y-88487500D01*
X200650000Y-89557500D02*
X200650000Y-89767500D01*
X200650000Y-90827500D02*
X200650000Y-91027500D01*
X200650000Y-92097500D02*
X200650000Y-92457500D01*
X200650000Y-92457500D02*
X193030000Y-92457500D01*
X198371108Y-74207292D02*
G75*
G02*
X195340000Y-74287500I-1521108J169792D01*
G01*
D15*
X201840000Y-73777500D02*
G75*
G02*
X201240000Y-73777500I-300000J0D01*
G01*
X201240000Y-73777500D02*
G75*
G02*
X201840000Y-73777500I300000J0D01*
G01*
D14*
%TO.C,U8*%
X180006666Y-74287500D02*
X182296666Y-74287500D01*
X180006666Y-74527500D02*
X180006666Y-74287500D01*
X180006666Y-75787500D02*
X180006666Y-75587500D01*
X180006666Y-77057500D02*
X180006666Y-76857500D01*
X180006666Y-78327500D02*
X180006666Y-78127500D01*
X180006666Y-79597500D02*
X180006666Y-79397500D01*
X180006666Y-80867500D02*
X180006666Y-80667500D01*
X180006666Y-82147500D02*
X180006666Y-81937500D01*
X180006666Y-83407500D02*
X180006666Y-83207500D01*
X180006666Y-84677500D02*
X180006666Y-84477500D01*
X180006666Y-85947500D02*
X180006666Y-85747500D01*
X180006666Y-87217500D02*
X180006666Y-87017500D01*
X180006666Y-88487500D02*
X180006666Y-88287500D01*
X180006666Y-89767500D02*
X180006666Y-89557500D01*
X180006666Y-91027500D02*
X180006666Y-90827500D01*
X180006666Y-92457500D02*
X180006666Y-92097500D01*
X185346666Y-74207500D02*
X187626666Y-74207500D01*
X187626666Y-74207500D02*
X187626666Y-74287500D01*
X187626666Y-74287500D02*
X187626666Y-74527500D01*
X187626666Y-75587500D02*
X187626666Y-75787500D01*
X187626666Y-76857500D02*
X187626666Y-77057500D01*
X187626666Y-78127500D02*
X187626666Y-78327500D01*
X187626666Y-79397500D02*
X187626666Y-79597500D01*
X187626666Y-80667500D02*
X187626666Y-80867500D01*
X187626666Y-81937500D02*
X187626666Y-82147500D01*
X187626666Y-83207500D02*
X187626666Y-83407500D01*
X187626666Y-84477500D02*
X187626666Y-84677500D01*
X187626666Y-85747500D02*
X187626666Y-85947500D01*
X187626666Y-87017500D02*
X187626666Y-87217500D01*
X187626666Y-88287500D02*
X187626666Y-88487500D01*
X187626666Y-89557500D02*
X187626666Y-89767500D01*
X187626666Y-90827500D02*
X187626666Y-91027500D01*
X187626666Y-92097500D02*
X187626666Y-92457500D01*
X187626666Y-92457500D02*
X180006666Y-92457500D01*
X185347774Y-74207292D02*
G75*
G02*
X182316666Y-74287500I-1521108J169792D01*
G01*
D15*
X188816666Y-73777500D02*
G75*
G02*
X188216666Y-73777500I-300000J0D01*
G01*
X188216666Y-73777500D02*
G75*
G02*
X188816666Y-73777500I300000J0D01*
G01*
%TD*%
M02*
