%TF.GenerationSoftware,KiCad,Pcbnew,8.0.4*%
%TF.CreationDate,2024-09-02T10:09:59+02:00*%
%TF.ProjectId,sram,7372616d-2e6b-4696-9361-645f70636258,rev?*%
%TF.SameCoordinates,Original*%
%TF.FileFunction,Legend,Top*%
%TF.FilePolarity,Positive*%
%FSLAX46Y46*%
G04 Gerber Fmt 4.6, Leading zero omitted, Abs format (unit mm)*
G04 Created by KiCad (PCBNEW 8.0.4) date 2024-09-02 10:09:59*
%MOMM*%
%LPD*%
G01*
G04 APERTURE LIST*
%ADD10C,0.000000*%
%ADD11C,0.187500*%
%ADD12C,0.100000*%
%ADD13C,0.150000*%
%ADD14C,0.120000*%
%ADD15C,0.250000*%
G04 APERTURE END LIST*
D10*
G36*
X175695630Y-67755161D02*
G01*
X175736828Y-67758061D01*
X175776057Y-67763030D01*
X175794893Y-67766326D01*
X175813188Y-67770182D01*
X175830926Y-67774612D01*
X175848091Y-67779630D01*
X175864667Y-67785249D01*
X175880638Y-67791485D01*
X175895987Y-67798350D01*
X175910699Y-67805859D01*
X175924756Y-67814027D01*
X175938144Y-67822866D01*
X175950845Y-67832392D01*
X175962845Y-67842618D01*
X175974125Y-67853558D01*
X175984671Y-67865226D01*
X175994466Y-67877637D01*
X176003495Y-67890804D01*
X176011740Y-67904742D01*
X176019186Y-67919464D01*
X176025816Y-67934985D01*
X176031615Y-67951318D01*
X176036566Y-67968478D01*
X176040653Y-67986479D01*
X176043860Y-68005334D01*
X176046171Y-68025058D01*
X176047569Y-68045665D01*
X176048039Y-68067169D01*
X176048039Y-68715610D01*
X175856798Y-68715610D01*
X175856798Y-68631261D01*
X175853094Y-68631261D01*
X175845395Y-68643157D01*
X175837024Y-68654224D01*
X175827928Y-68664471D01*
X175818052Y-68673906D01*
X175807341Y-68682538D01*
X175795740Y-68690375D01*
X175783195Y-68697425D01*
X175769651Y-68703698D01*
X175755053Y-68709200D01*
X175739347Y-68713942D01*
X175722478Y-68717931D01*
X175704392Y-68721176D01*
X175685034Y-68723685D01*
X175664348Y-68725466D01*
X175642282Y-68726529D01*
X175618779Y-68726881D01*
X175599184Y-68726516D01*
X175580112Y-68725431D01*
X175561569Y-68723641D01*
X175543561Y-68721164D01*
X175526095Y-68718013D01*
X175509178Y-68714206D01*
X175492817Y-68709757D01*
X175477016Y-68704684D01*
X175461784Y-68699001D01*
X175447127Y-68692724D01*
X175433051Y-68685869D01*
X175419563Y-68678452D01*
X175406669Y-68670489D01*
X175394376Y-68661995D01*
X175382690Y-68652986D01*
X175371618Y-68643478D01*
X175361166Y-68633487D01*
X175351342Y-68623029D01*
X175342151Y-68612119D01*
X175333600Y-68600773D01*
X175325695Y-68589007D01*
X175318444Y-68576837D01*
X175311852Y-68564278D01*
X175305927Y-68551346D01*
X175300674Y-68538058D01*
X175296100Y-68524428D01*
X175292212Y-68510473D01*
X175289016Y-68496208D01*
X175286519Y-68481650D01*
X175284728Y-68466813D01*
X175283648Y-68451715D01*
X175283287Y-68436369D01*
X175283490Y-68427002D01*
X175463309Y-68427002D01*
X175463909Y-68438839D01*
X175465738Y-68450431D01*
X175468835Y-68461707D01*
X175473242Y-68472594D01*
X175475949Y-68477869D01*
X175479000Y-68483021D01*
X175482398Y-68488040D01*
X175486150Y-68492917D01*
X175490259Y-68497644D01*
X175494732Y-68502210D01*
X175499574Y-68506608D01*
X175504789Y-68510829D01*
X175510383Y-68514863D01*
X175516361Y-68518701D01*
X175522728Y-68522336D01*
X175529489Y-68525756D01*
X175536649Y-68528955D01*
X175544213Y-68531922D01*
X175552187Y-68534650D01*
X175560576Y-68537128D01*
X175578617Y-68541301D01*
X175598379Y-68544370D01*
X175619901Y-68546264D01*
X175643226Y-68546912D01*
X175671873Y-68546686D01*
X175698136Y-68545899D01*
X175722087Y-68544382D01*
X175743801Y-68541968D01*
X175753842Y-68540372D01*
X175763352Y-68538488D01*
X175772339Y-68536297D01*
X175780814Y-68533776D01*
X175788785Y-68530906D01*
X175796261Y-68527664D01*
X175803253Y-68524030D01*
X175809768Y-68519983D01*
X175815817Y-68515503D01*
X175821408Y-68510567D01*
X175826552Y-68505156D01*
X175831256Y-68499247D01*
X175835531Y-68492821D01*
X175839385Y-68485857D01*
X175842829Y-68478332D01*
X175845871Y-68470227D01*
X175848520Y-68461521D01*
X175850786Y-68452191D01*
X175852677Y-68442219D01*
X175854205Y-68431582D01*
X175855376Y-68420259D01*
X175856202Y-68408230D01*
X175856690Y-68395474D01*
X175856851Y-68381969D01*
X175856850Y-68381969D01*
X175856850Y-68312596D01*
X175628250Y-68312596D01*
X175617884Y-68312727D01*
X175607867Y-68313119D01*
X175598199Y-68313766D01*
X175588878Y-68314667D01*
X175579903Y-68315815D01*
X175571272Y-68317209D01*
X175562985Y-68318844D01*
X175555039Y-68320716D01*
X175547434Y-68322822D01*
X175540168Y-68325158D01*
X175533239Y-68327719D01*
X175526646Y-68330503D01*
X175520389Y-68333505D01*
X175514465Y-68336722D01*
X175508873Y-68340149D01*
X175503612Y-68343784D01*
X175498680Y-68347621D01*
X175494077Y-68351659D01*
X175489800Y-68355892D01*
X175485848Y-68360317D01*
X175482221Y-68364929D01*
X175478916Y-68369727D01*
X175475932Y-68374704D01*
X175473268Y-68379859D01*
X175470923Y-68385186D01*
X175468895Y-68390683D01*
X175467182Y-68396345D01*
X175465784Y-68402168D01*
X175464699Y-68408149D01*
X175463926Y-68414285D01*
X175463463Y-68420570D01*
X175463309Y-68427002D01*
X175283490Y-68427002D01*
X175283594Y-68422210D01*
X175284516Y-68408202D01*
X175286051Y-68394364D01*
X175288199Y-68380715D01*
X175290958Y-68367277D01*
X175294326Y-68354067D01*
X175298304Y-68341106D01*
X175302890Y-68328414D01*
X175308082Y-68316009D01*
X175313881Y-68303912D01*
X175320284Y-68292142D01*
X175327291Y-68280719D01*
X175334900Y-68269662D01*
X175343111Y-68258990D01*
X175351922Y-68248725D01*
X175361332Y-68238884D01*
X175371341Y-68229488D01*
X175381947Y-68220556D01*
X175393149Y-68212107D01*
X175404946Y-68204163D01*
X175417337Y-68196741D01*
X175430321Y-68189862D01*
X175443897Y-68183545D01*
X175458063Y-68177809D01*
X175472819Y-68172676D01*
X175488164Y-68168163D01*
X175504096Y-68164290D01*
X175520615Y-68161078D01*
X175537718Y-68158546D01*
X175555407Y-68156712D01*
X175573678Y-68155598D01*
X175592532Y-68155222D01*
X175856798Y-68155222D01*
X175856798Y-68055898D01*
X175856112Y-68039714D01*
X175855249Y-68032119D01*
X175854034Y-68024849D01*
X175852464Y-68017900D01*
X175850534Y-68011267D01*
X175848241Y-68004944D01*
X175845581Y-67998928D01*
X175842551Y-67993213D01*
X175839146Y-67987795D01*
X175835363Y-67982669D01*
X175831198Y-67977830D01*
X175826647Y-67973273D01*
X175821706Y-67968994D01*
X175816372Y-67964988D01*
X175810641Y-67961250D01*
X175804509Y-67957776D01*
X175797973Y-67954560D01*
X175783671Y-67948885D01*
X175767704Y-67944188D01*
X175750044Y-67940430D01*
X175730658Y-67937573D01*
X175709518Y-67935580D01*
X175686593Y-67934412D01*
X175661853Y-67934031D01*
X175643836Y-67934256D01*
X175626992Y-67934946D01*
X175611265Y-67936128D01*
X175596595Y-67937824D01*
X175589639Y-67938872D01*
X175582926Y-67940059D01*
X175576448Y-67941386D01*
X175570199Y-67942857D01*
X175564171Y-67944476D01*
X175558357Y-67946244D01*
X175552749Y-67948166D01*
X175547341Y-67950243D01*
X175542125Y-67952480D01*
X175537095Y-67954879D01*
X175532242Y-67957444D01*
X175527559Y-67960177D01*
X175523040Y-67963081D01*
X175518677Y-67966160D01*
X175514463Y-67969416D01*
X175510390Y-67972853D01*
X175506452Y-67976473D01*
X175502641Y-67980281D01*
X175498950Y-67984278D01*
X175495372Y-67988467D01*
X175491899Y-67992853D01*
X175488525Y-67997437D01*
X175485242Y-68002224D01*
X175482042Y-68007215D01*
X175332076Y-67892915D01*
X175346154Y-67874666D01*
X175360989Y-67857876D01*
X175376589Y-67842505D01*
X175392962Y-67828515D01*
X175410115Y-67815867D01*
X175428057Y-67804522D01*
X175446796Y-67794441D01*
X175466339Y-67785586D01*
X175486694Y-67777918D01*
X175507870Y-67771398D01*
X175529874Y-67765988D01*
X175552714Y-67761648D01*
X175576397Y-67758340D01*
X175600933Y-67756025D01*
X175626329Y-67754665D01*
X175652592Y-67754220D01*
X175695630Y-67755161D01*
G37*
G36*
X172873385Y-67754546D02*
G01*
X172887350Y-67755515D01*
X172901027Y-67757109D01*
X172914427Y-67759313D01*
X172927563Y-67762109D01*
X172940444Y-67765482D01*
X172953083Y-67769415D01*
X172965491Y-67773891D01*
X172977679Y-67778895D01*
X172989657Y-67784409D01*
X173001438Y-67790417D01*
X173013032Y-67796904D01*
X173024452Y-67803851D01*
X173035707Y-67811244D01*
X173046810Y-67819065D01*
X173057771Y-67827298D01*
X172919130Y-67992239D01*
X172910842Y-67986140D01*
X172902819Y-67980514D01*
X172895015Y-67975352D01*
X172887387Y-67970640D01*
X172879891Y-67966370D01*
X172872482Y-67962529D01*
X172865117Y-67959106D01*
X172857753Y-67956091D01*
X172850344Y-67953472D01*
X172842847Y-67951238D01*
X172835219Y-67949378D01*
X172827414Y-67947881D01*
X172819390Y-67946736D01*
X172811102Y-67945932D01*
X172802506Y-67945458D01*
X172793558Y-67945303D01*
X172776030Y-67946011D01*
X172758677Y-67948154D01*
X172741632Y-67951759D01*
X172725025Y-67956852D01*
X172716928Y-67959966D01*
X172708989Y-67963462D01*
X172701227Y-67967344D01*
X172693656Y-67971614D01*
X172686294Y-67976278D01*
X172679158Y-67981337D01*
X172672263Y-67986795D01*
X172665626Y-67992656D01*
X172659263Y-67998923D01*
X172653192Y-68005600D01*
X172647428Y-68012689D01*
X172641988Y-68020194D01*
X172636888Y-68028119D01*
X172632146Y-68036467D01*
X172627777Y-68045241D01*
X172623797Y-68054445D01*
X172620225Y-68064082D01*
X172617075Y-68074156D01*
X172614364Y-68084669D01*
X172612110Y-68095626D01*
X172610327Y-68107029D01*
X172609034Y-68118882D01*
X172608246Y-68131188D01*
X172607979Y-68143951D01*
X172607979Y-68715610D01*
X172416844Y-68715610D01*
X172416844Y-67765491D01*
X172607979Y-67765491D01*
X172607979Y-67866668D01*
X172611736Y-67866668D01*
X172623283Y-67853057D01*
X172635430Y-67840323D01*
X172648160Y-67828466D01*
X172661456Y-67817487D01*
X172675302Y-67807385D01*
X172689680Y-67798160D01*
X172704576Y-67789814D01*
X172719971Y-67782345D01*
X172735849Y-67775755D01*
X172752193Y-67770042D01*
X172768988Y-67765208D01*
X172786215Y-67761253D01*
X172803859Y-67758176D01*
X172821902Y-67755978D01*
X172840329Y-67754659D01*
X172859122Y-67754220D01*
X172873385Y-67754546D01*
G37*
G36*
X171854471Y-67755161D02*
G01*
X171895675Y-67758061D01*
X171934909Y-67763030D01*
X171953746Y-67766326D01*
X171972042Y-67770182D01*
X171989781Y-67774612D01*
X172006947Y-67779630D01*
X172023523Y-67785249D01*
X172039494Y-67791485D01*
X172054842Y-67798350D01*
X172069553Y-67805859D01*
X172083610Y-67814027D01*
X172096996Y-67822866D01*
X172109696Y-67832392D01*
X172121694Y-67842618D01*
X172132973Y-67853558D01*
X172143518Y-67865226D01*
X172153311Y-67877637D01*
X172162338Y-67890804D01*
X172170581Y-67904742D01*
X172178026Y-67919464D01*
X172184654Y-67934985D01*
X172190452Y-67951318D01*
X172195402Y-67968478D01*
X172199487Y-67986479D01*
X172202694Y-68005334D01*
X172205004Y-68025058D01*
X172206401Y-68045665D01*
X172206871Y-68067169D01*
X172206871Y-68715610D01*
X172015683Y-68715610D01*
X172015683Y-68631261D01*
X172011926Y-68631261D01*
X172004237Y-68643157D01*
X171995876Y-68654224D01*
X171986790Y-68664471D01*
X171976923Y-68673906D01*
X171966220Y-68682538D01*
X171954626Y-68690375D01*
X171942088Y-68697425D01*
X171928549Y-68703698D01*
X171913956Y-68709200D01*
X171898253Y-68713942D01*
X171881386Y-68717931D01*
X171863299Y-68721176D01*
X171843938Y-68723685D01*
X171823249Y-68725466D01*
X171801176Y-68726529D01*
X171777664Y-68726881D01*
X171758070Y-68726516D01*
X171738998Y-68725431D01*
X171720455Y-68723641D01*
X171702449Y-68721164D01*
X171684984Y-68718013D01*
X171668069Y-68714206D01*
X171651709Y-68709757D01*
X171635910Y-68704684D01*
X171620680Y-68699001D01*
X171606025Y-68692724D01*
X171591951Y-68685869D01*
X171578465Y-68678452D01*
X171565573Y-68670489D01*
X171553283Y-68661995D01*
X171541599Y-68652986D01*
X171530530Y-68643478D01*
X171520081Y-68633487D01*
X171510259Y-68623029D01*
X171501070Y-68612119D01*
X171492522Y-68600773D01*
X171484620Y-68589007D01*
X171477370Y-68576837D01*
X171470781Y-68564278D01*
X171464857Y-68551346D01*
X171459606Y-68538058D01*
X171455034Y-68524428D01*
X171451147Y-68510473D01*
X171447953Y-68496208D01*
X171445457Y-68481650D01*
X171443666Y-68466813D01*
X171442587Y-68451715D01*
X171442225Y-68436369D01*
X171442429Y-68427002D01*
X171622089Y-68427002D01*
X171622689Y-68438839D01*
X171624518Y-68450431D01*
X171627615Y-68461707D01*
X171632023Y-68472594D01*
X171634730Y-68477869D01*
X171637781Y-68483021D01*
X171641180Y-68488040D01*
X171644932Y-68492917D01*
X171649043Y-68497644D01*
X171653517Y-68502210D01*
X171658359Y-68506608D01*
X171663576Y-68510829D01*
X171669171Y-68514863D01*
X171675150Y-68518701D01*
X171681519Y-68522336D01*
X171688281Y-68525756D01*
X171695444Y-68528955D01*
X171703010Y-68531922D01*
X171710987Y-68534650D01*
X171719378Y-68537128D01*
X171737426Y-68541301D01*
X171757194Y-68544370D01*
X171778725Y-68546264D01*
X171802059Y-68546912D01*
X171830706Y-68546686D01*
X171856968Y-68545899D01*
X171880919Y-68544382D01*
X171902633Y-68541968D01*
X171912675Y-68540372D01*
X171922184Y-68538488D01*
X171931172Y-68536297D01*
X171939646Y-68533776D01*
X171947617Y-68530906D01*
X171955094Y-68527664D01*
X171962085Y-68524030D01*
X171968601Y-68519983D01*
X171974649Y-68515503D01*
X171980241Y-68510567D01*
X171985384Y-68505156D01*
X171990088Y-68499247D01*
X171994363Y-68492821D01*
X171998218Y-68485857D01*
X172001661Y-68478332D01*
X172004703Y-68470227D01*
X172007352Y-68461521D01*
X172009618Y-68452191D01*
X172011510Y-68442219D01*
X172013037Y-68431582D01*
X172014209Y-68420259D01*
X172015034Y-68408230D01*
X172015522Y-68395474D01*
X172015683Y-68381969D01*
X172015683Y-68312596D01*
X171787083Y-68312596D01*
X171776712Y-68312727D01*
X171766691Y-68313119D01*
X171757018Y-68313766D01*
X171747693Y-68314667D01*
X171738715Y-68315815D01*
X171730081Y-68317209D01*
X171721790Y-68318844D01*
X171713842Y-68320716D01*
X171706233Y-68322822D01*
X171698965Y-68325158D01*
X171692034Y-68327719D01*
X171685439Y-68330503D01*
X171679180Y-68333505D01*
X171673254Y-68336722D01*
X171667661Y-68340149D01*
X171662398Y-68343784D01*
X171657466Y-68347621D01*
X171652861Y-68351659D01*
X171648583Y-68355892D01*
X171644631Y-68360317D01*
X171641003Y-68364929D01*
X171637697Y-68369727D01*
X171634713Y-68374704D01*
X171632049Y-68379859D01*
X171629703Y-68385186D01*
X171627675Y-68390683D01*
X171625962Y-68396345D01*
X171624564Y-68402168D01*
X171623479Y-68408149D01*
X171622706Y-68414285D01*
X171622243Y-68420570D01*
X171622089Y-68427002D01*
X171442429Y-68427002D01*
X171442533Y-68422210D01*
X171443454Y-68408202D01*
X171444988Y-68394364D01*
X171447133Y-68380715D01*
X171449889Y-68367277D01*
X171453256Y-68354067D01*
X171457230Y-68341106D01*
X171461813Y-68328414D01*
X171467002Y-68316009D01*
X171472796Y-68303912D01*
X171479196Y-68292142D01*
X171486198Y-68280719D01*
X171493804Y-68269662D01*
X171502011Y-68258990D01*
X171510818Y-68248725D01*
X171520224Y-68238884D01*
X171530230Y-68229488D01*
X171540832Y-68220556D01*
X171552031Y-68212107D01*
X171563825Y-68204163D01*
X171576214Y-68196741D01*
X171589195Y-68189862D01*
X171602769Y-68183545D01*
X171616935Y-68177809D01*
X171631690Y-68172676D01*
X171647035Y-68168163D01*
X171662967Y-68164290D01*
X171679487Y-68161078D01*
X171696593Y-68158546D01*
X171714284Y-68156712D01*
X171732559Y-68155598D01*
X171751417Y-68155222D01*
X172015683Y-68155222D01*
X172015683Y-68055898D01*
X172014997Y-68039714D01*
X172014134Y-68032119D01*
X172012919Y-68024849D01*
X172011349Y-68017900D01*
X172009420Y-68011267D01*
X172007127Y-68004944D01*
X172004467Y-67998928D01*
X172001437Y-67993213D01*
X171998033Y-67987795D01*
X171994250Y-67982669D01*
X171990086Y-67977830D01*
X171985536Y-67973273D01*
X171980596Y-67968994D01*
X171975263Y-67964988D01*
X171969533Y-67961250D01*
X171963403Y-67957776D01*
X171956868Y-67954560D01*
X171942569Y-67948885D01*
X171926607Y-67944188D01*
X171908951Y-67940430D01*
X171889572Y-67937573D01*
X171868439Y-67935580D01*
X171845522Y-67934412D01*
X171820791Y-67934031D01*
X171802773Y-67934256D01*
X171785926Y-67934946D01*
X171770193Y-67936128D01*
X171755517Y-67937824D01*
X171748557Y-67938872D01*
X171741839Y-67940059D01*
X171735357Y-67941386D01*
X171729104Y-67942857D01*
X171723071Y-67944476D01*
X171717252Y-67946244D01*
X171711639Y-67948166D01*
X171706226Y-67950243D01*
X171701006Y-67952480D01*
X171695970Y-67954879D01*
X171691112Y-67957444D01*
X171686425Y-67960177D01*
X171681901Y-67963081D01*
X171677534Y-67966160D01*
X171673316Y-67969416D01*
X171669239Y-67972853D01*
X171665298Y-67976473D01*
X171661484Y-67980281D01*
X171657790Y-67984278D01*
X171654209Y-67988467D01*
X171650734Y-67992853D01*
X171647359Y-67997437D01*
X171644074Y-68002224D01*
X171640874Y-68007215D01*
X171490962Y-67892915D01*
X171505038Y-67874666D01*
X171519870Y-67857876D01*
X171535465Y-67842505D01*
X171551831Y-67828515D01*
X171568978Y-67815867D01*
X171586912Y-67804522D01*
X171605643Y-67794441D01*
X171625178Y-67785586D01*
X171645526Y-67777918D01*
X171666696Y-67771398D01*
X171688695Y-67765988D01*
X171711532Y-67761648D01*
X171735215Y-67758340D01*
X171759753Y-67756025D01*
X171785153Y-67754665D01*
X171811425Y-67754220D01*
X171854471Y-67755161D01*
G37*
G36*
X177557481Y-66253598D02*
G01*
X177570742Y-66254198D01*
X177583827Y-66255189D01*
X177596736Y-66256562D01*
X177622025Y-66260424D01*
X177646604Y-66265722D01*
X177670471Y-66272392D01*
X177693623Y-66280373D01*
X177716056Y-66289599D01*
X177737767Y-66300009D01*
X177758753Y-66311540D01*
X177779012Y-66324129D01*
X177798539Y-66337711D01*
X177817331Y-66352226D01*
X177835386Y-66367609D01*
X177852701Y-66383797D01*
X177869271Y-66400728D01*
X177885094Y-66418338D01*
X177744547Y-66543909D01*
X177735535Y-66533219D01*
X177726051Y-66522960D01*
X177716110Y-66513168D01*
X177705724Y-66503878D01*
X177694909Y-66495127D01*
X177683678Y-66486949D01*
X177672045Y-66479381D01*
X177660026Y-66472459D01*
X177647633Y-66466217D01*
X177634880Y-66460692D01*
X177621783Y-66455919D01*
X177608354Y-66451933D01*
X177594609Y-66448772D01*
X177580561Y-66446469D01*
X177566224Y-66445062D01*
X177551613Y-66444585D01*
X177523196Y-66445624D01*
X177496314Y-66448774D01*
X177483461Y-66451155D01*
X177471007Y-66454081D01*
X177458957Y-66457559D01*
X177447317Y-66461592D01*
X177436092Y-66466189D01*
X177425286Y-66471354D01*
X177414905Y-66477093D01*
X177404954Y-66483412D01*
X177395438Y-66490317D01*
X177386362Y-66497814D01*
X177377732Y-66505909D01*
X177369553Y-66514607D01*
X177361829Y-66523914D01*
X177354567Y-66533836D01*
X177347770Y-66544380D01*
X177341445Y-66555550D01*
X177335596Y-66567352D01*
X177330229Y-66579793D01*
X177325348Y-66592879D01*
X177320959Y-66606614D01*
X177317067Y-66621005D01*
X177313678Y-66636058D01*
X177310796Y-66651779D01*
X177308426Y-66668173D01*
X177305244Y-66703005D01*
X177304175Y-66740601D01*
X177304443Y-66759588D01*
X177305245Y-66777890D01*
X177306575Y-66795511D01*
X177308428Y-66812456D01*
X177310799Y-66828732D01*
X177313682Y-66844343D01*
X177317073Y-66859295D01*
X177320967Y-66873594D01*
X177325357Y-66887245D01*
X177330239Y-66900254D01*
X177335608Y-66912625D01*
X177341459Y-66924365D01*
X177347786Y-66935479D01*
X177354584Y-66945973D01*
X177361848Y-66955851D01*
X177369573Y-66965119D01*
X177377754Y-66973784D01*
X177386385Y-66981850D01*
X177395461Y-66989322D01*
X177404977Y-66996207D01*
X177414929Y-67002510D01*
X177425309Y-67008236D01*
X177436115Y-67013390D01*
X177447340Y-67017979D01*
X177458979Y-67022008D01*
X177471027Y-67025481D01*
X177483479Y-67028405D01*
X177496329Y-67030785D01*
X177509573Y-67032627D01*
X177523205Y-67033936D01*
X177537220Y-67034717D01*
X177551613Y-67034976D01*
X177558952Y-67034856D01*
X177566224Y-67034499D01*
X177573426Y-67033909D01*
X177580559Y-67033091D01*
X177594604Y-67030789D01*
X177608347Y-67027627D01*
X177621772Y-67023642D01*
X177634866Y-67018869D01*
X177647615Y-67013344D01*
X177660006Y-67007102D01*
X177672024Y-67000180D01*
X177683655Y-66992612D01*
X177694885Y-66984434D01*
X177705702Y-66975683D01*
X177716090Y-66966393D01*
X177726036Y-66956601D01*
X177735526Y-66946342D01*
X177744547Y-66935651D01*
X177885094Y-67061222D01*
X177869280Y-67078805D01*
X177852718Y-67095713D01*
X177835410Y-67111882D01*
X177817361Y-67127250D01*
X177798572Y-67141753D01*
X177779048Y-67155328D01*
X177758792Y-67167910D01*
X177737806Y-67179438D01*
X177716094Y-67189846D01*
X177693659Y-67199073D01*
X177670505Y-67207054D01*
X177646633Y-67213726D01*
X177622049Y-67219026D01*
X177596754Y-67222890D01*
X177570751Y-67225255D01*
X177544045Y-67226057D01*
X177503076Y-67224416D01*
X177462581Y-67219425D01*
X177422860Y-67210981D01*
X177384211Y-67198983D01*
X177365383Y-67191619D01*
X177346935Y-67183328D01*
X177328904Y-67174098D01*
X177311329Y-67163915D01*
X177294247Y-67152767D01*
X177277694Y-67140641D01*
X177261709Y-67127525D01*
X177246329Y-67113404D01*
X177231592Y-67098268D01*
X177217534Y-67082103D01*
X177204193Y-67064896D01*
X177191606Y-67046634D01*
X177179812Y-67027306D01*
X177168846Y-67006897D01*
X177158748Y-66985395D01*
X177149554Y-66962788D01*
X177141301Y-66939063D01*
X177134027Y-66914206D01*
X177127770Y-66888206D01*
X177122566Y-66861049D01*
X177118454Y-66832723D01*
X177115471Y-66803215D01*
X177113653Y-66772511D01*
X177113039Y-66740601D01*
X177113653Y-66708540D01*
X177115471Y-66677696D01*
X177118454Y-66648056D01*
X177122566Y-66619606D01*
X177127770Y-66592333D01*
X177134027Y-66566224D01*
X177141301Y-66541267D01*
X177149554Y-66517448D01*
X177158748Y-66494754D01*
X177168846Y-66473172D01*
X177179812Y-66452689D01*
X177191606Y-66433293D01*
X177204193Y-66414969D01*
X177217534Y-66397706D01*
X177231592Y-66381490D01*
X177246329Y-66366308D01*
X177261709Y-66352146D01*
X177277694Y-66338993D01*
X177294247Y-66326835D01*
X177311329Y-66315659D01*
X177328904Y-66305452D01*
X177346935Y-66296200D01*
X177365383Y-66287892D01*
X177384211Y-66280513D01*
X177403383Y-66274051D01*
X177422860Y-66268493D01*
X177442605Y-66263826D01*
X177462581Y-66260037D01*
X177482751Y-66257112D01*
X177503076Y-66255039D01*
X177544045Y-66253397D01*
X177557481Y-66253598D01*
G37*
G36*
X174307134Y-68430759D02*
G01*
X174310891Y-68430759D01*
X174526367Y-67765491D01*
X174665062Y-67765491D01*
X174880538Y-68430759D01*
X174884401Y-68430759D01*
X175066064Y-67765491D01*
X175268523Y-67765491D01*
X174964993Y-68715610D01*
X174796242Y-68715610D01*
X174597593Y-68050288D01*
X174593836Y-68050288D01*
X174395187Y-68715610D01*
X174226541Y-68715610D01*
X173922958Y-67765491D01*
X174125312Y-67765491D01*
X174307134Y-68430759D01*
G37*
G36*
X171007437Y-66254057D02*
G01*
X171028103Y-66255845D01*
X171048029Y-66258764D01*
X171067218Y-66262765D01*
X171085673Y-66267799D01*
X171103396Y-66273815D01*
X171120391Y-66280765D01*
X171136658Y-66288600D01*
X171152201Y-66297269D01*
X171167022Y-66306723D01*
X171181124Y-66316913D01*
X171194509Y-66327790D01*
X171207180Y-66339303D01*
X171219138Y-66351403D01*
X171230388Y-66364042D01*
X171240930Y-66377169D01*
X171250329Y-66389796D01*
X171258883Y-66402552D01*
X171266625Y-66415697D01*
X171273587Y-66429492D01*
X171276786Y-66436716D01*
X171279803Y-66444199D01*
X171282642Y-66451976D01*
X171285306Y-66460078D01*
X171287800Y-66468539D01*
X171290128Y-66477390D01*
X171294303Y-66496396D01*
X171297863Y-66517358D01*
X171300842Y-66540536D01*
X171303272Y-66566191D01*
X171305187Y-66594584D01*
X171306618Y-66625977D01*
X171307600Y-66660629D01*
X171308165Y-66698803D01*
X171308346Y-66740759D01*
X171307600Y-66820247D01*
X171305187Y-66885817D01*
X171303272Y-66914027D01*
X171300842Y-66939531D01*
X171297863Y-66962585D01*
X171294303Y-66983449D01*
X171290128Y-67002379D01*
X171285306Y-67019633D01*
X171279803Y-67035468D01*
X171273587Y-67050144D01*
X171266625Y-67063916D01*
X171258883Y-67077043D01*
X171250329Y-67089782D01*
X171240930Y-67102392D01*
X171230388Y-67115519D01*
X171219138Y-67128157D01*
X171207180Y-67140258D01*
X171194509Y-67151771D01*
X171181124Y-67162648D01*
X171167022Y-67172838D01*
X171152201Y-67182292D01*
X171136658Y-67190961D01*
X171120390Y-67198795D01*
X171111984Y-67202384D01*
X171103396Y-67205746D01*
X171094626Y-67208874D01*
X171085673Y-67211762D01*
X171076537Y-67214405D01*
X171067218Y-67216796D01*
X171057715Y-67218929D01*
X171048029Y-67220797D01*
X171038158Y-67222395D01*
X171028102Y-67223716D01*
X171017862Y-67224754D01*
X171007437Y-67225504D01*
X170996827Y-67225958D01*
X170986030Y-67226111D01*
X170967993Y-67225589D01*
X170950416Y-67224046D01*
X170933280Y-67221515D01*
X170916561Y-67218029D01*
X170900238Y-67213620D01*
X170884288Y-67208321D01*
X170868690Y-67202166D01*
X170853421Y-67195188D01*
X170838460Y-67187418D01*
X170823785Y-67178891D01*
X170809373Y-67169640D01*
X170795203Y-67159696D01*
X170781252Y-67149094D01*
X170767499Y-67137865D01*
X170753921Y-67126044D01*
X170740497Y-67113663D01*
X170739809Y-67866667D01*
X170752017Y-67853056D01*
X170764741Y-67840322D01*
X170777969Y-67828465D01*
X170791692Y-67817486D01*
X170805898Y-67807384D01*
X170820576Y-67798159D01*
X170835716Y-67789813D01*
X170851305Y-67782344D01*
X170867333Y-67775754D01*
X170883789Y-67770041D01*
X170900662Y-67765207D01*
X170917942Y-67761252D01*
X170935616Y-67758175D01*
X170953674Y-67755977D01*
X170972105Y-67754659D01*
X170990899Y-67754219D01*
X171004834Y-67754553D01*
X171018855Y-67755555D01*
X171032928Y-67757222D01*
X171047017Y-67759551D01*
X171061088Y-67762541D01*
X171075107Y-67766188D01*
X171089038Y-67770490D01*
X171102847Y-67775445D01*
X171116500Y-67781051D01*
X171129962Y-67787305D01*
X171143197Y-67794205D01*
X171156172Y-67801747D01*
X171168852Y-67809931D01*
X171181202Y-67818753D01*
X171193188Y-67828212D01*
X171204775Y-67838304D01*
X171215927Y-67849027D01*
X171226612Y-67860379D01*
X171236793Y-67872358D01*
X171246437Y-67884961D01*
X171255508Y-67898185D01*
X171263972Y-67912029D01*
X171271795Y-67926489D01*
X171278941Y-67941564D01*
X171285376Y-67957251D01*
X171291066Y-67973548D01*
X171295975Y-67990452D01*
X171300069Y-68007960D01*
X171303314Y-68026072D01*
X171305675Y-68044783D01*
X171307117Y-68064092D01*
X171307605Y-68083996D01*
X171307605Y-68715609D01*
X171116470Y-68715609D01*
X171116470Y-68149666D01*
X171116236Y-68137696D01*
X171115539Y-68126050D01*
X171114390Y-68114730D01*
X171112798Y-68103740D01*
X171110775Y-68093084D01*
X171108328Y-68082767D01*
X171105470Y-68072790D01*
X171102208Y-68063159D01*
X171098554Y-68053877D01*
X171094518Y-68044948D01*
X171090108Y-68036376D01*
X171085336Y-68028163D01*
X171080211Y-68020315D01*
X171074743Y-68012835D01*
X171068943Y-68005726D01*
X171062819Y-67998992D01*
X171056383Y-67992638D01*
X171049643Y-67986666D01*
X171042610Y-67981081D01*
X171035294Y-67975886D01*
X171027705Y-67971085D01*
X171019853Y-67966682D01*
X171011747Y-67962681D01*
X171003398Y-67959084D01*
X170994815Y-67955897D01*
X170986010Y-67953123D01*
X170976990Y-67950765D01*
X170967767Y-67948827D01*
X170958351Y-67947314D01*
X170948751Y-67946228D01*
X170938977Y-67945574D01*
X170929039Y-67945355D01*
X170918934Y-67945574D01*
X170909002Y-67946228D01*
X170899255Y-67947314D01*
X170889702Y-67948827D01*
X170880352Y-67950765D01*
X170871215Y-67953123D01*
X170862301Y-67955897D01*
X170853618Y-67959085D01*
X170845177Y-67962681D01*
X170836988Y-67966682D01*
X170829059Y-67971085D01*
X170821401Y-67975886D01*
X170814023Y-67981081D01*
X170806935Y-67986666D01*
X170800146Y-67992638D01*
X170793665Y-67998993D01*
X170787503Y-68005726D01*
X170781669Y-68012835D01*
X170776173Y-68020316D01*
X170771024Y-68028164D01*
X170766232Y-68036376D01*
X170761806Y-68044949D01*
X170757756Y-68053878D01*
X170754092Y-68063160D01*
X170750823Y-68072791D01*
X170747958Y-68082767D01*
X170745508Y-68093085D01*
X170743482Y-68103740D01*
X170741890Y-68114730D01*
X170740740Y-68126050D01*
X170740044Y-68137696D01*
X170739809Y-68149666D01*
X170739809Y-68715610D01*
X170548622Y-68715610D01*
X170548622Y-66740706D01*
X170740497Y-66740706D01*
X170741248Y-66792639D01*
X170742535Y-66818678D01*
X170744743Y-66844417D01*
X170748104Y-66869595D01*
X170752851Y-66893951D01*
X170759218Y-66917226D01*
X170763082Y-66928376D01*
X170767439Y-66939157D01*
X170772317Y-66949538D01*
X170777746Y-66959485D01*
X170783755Y-66968967D01*
X170790373Y-66977949D01*
X170797629Y-66986400D01*
X170805554Y-66994287D01*
X170814174Y-67001578D01*
X170823521Y-67008240D01*
X170833623Y-67014240D01*
X170844509Y-67019546D01*
X170856208Y-67024125D01*
X170868751Y-67027944D01*
X170882164Y-67030972D01*
X170896479Y-67033175D01*
X170911724Y-67034520D01*
X170927928Y-67034976D01*
X170944301Y-67034547D01*
X170959703Y-67033277D01*
X170974166Y-67031194D01*
X170987717Y-67028326D01*
X171000388Y-67024700D01*
X171012206Y-67020344D01*
X171023202Y-67015285D01*
X171033406Y-67009550D01*
X171042846Y-67003167D01*
X171051553Y-66996163D01*
X171059556Y-66988567D01*
X171066883Y-66980404D01*
X171073566Y-66971704D01*
X171079633Y-66962493D01*
X171085114Y-66952799D01*
X171090038Y-66942650D01*
X171094436Y-66932072D01*
X171098335Y-66921093D01*
X171101767Y-66909741D01*
X171104760Y-66898044D01*
X171107344Y-66886028D01*
X171109548Y-66873721D01*
X171112936Y-66848345D01*
X171115161Y-66822136D01*
X171116457Y-66795313D01*
X171117062Y-66768096D01*
X171117211Y-66740706D01*
X171116457Y-66685457D01*
X171115161Y-66658378D01*
X171112936Y-66631952D01*
X171109548Y-66606394D01*
X171104760Y-66581922D01*
X171098335Y-66558753D01*
X171094436Y-66547724D01*
X171090038Y-66537103D01*
X171085114Y-66526915D01*
X171079633Y-66517188D01*
X171073566Y-66507949D01*
X171066883Y-66499226D01*
X171059556Y-66491045D01*
X171051553Y-66483433D01*
X171042846Y-66476417D01*
X171033406Y-66470025D01*
X171023202Y-66464284D01*
X171012206Y-66459220D01*
X171000388Y-66454861D01*
X170987717Y-66451234D01*
X170974166Y-66448365D01*
X170959703Y-66446283D01*
X170944301Y-66445014D01*
X170927928Y-66444585D01*
X170911729Y-66445040D01*
X170896488Y-66446386D01*
X170882177Y-66448590D01*
X170868766Y-66451620D01*
X170856226Y-66455443D01*
X170844529Y-66460027D01*
X170833644Y-66465340D01*
X170823543Y-66471350D01*
X170814197Y-66478024D01*
X170805577Y-66485330D01*
X170797653Y-66493236D01*
X170790396Y-66501710D01*
X170783777Y-66510719D01*
X170777768Y-66520231D01*
X170772338Y-66530214D01*
X170767458Y-66540635D01*
X170763101Y-66551463D01*
X170759235Y-66562665D01*
X170755833Y-66574209D01*
X170752865Y-66586062D01*
X170750302Y-66598193D01*
X170748114Y-66610568D01*
X170744751Y-66635926D01*
X170742540Y-66661876D01*
X170741250Y-66688162D01*
X170740647Y-66714524D01*
X170740497Y-66740706D01*
X170548622Y-66740706D01*
X170548622Y-66264721D01*
X170740497Y-66264721D01*
X170740497Y-66364046D01*
X170752073Y-66351990D01*
X170764278Y-66340454D01*
X170777087Y-66329473D01*
X170790470Y-66319083D01*
X170804402Y-66309319D01*
X170818855Y-66300217D01*
X170833802Y-66291812D01*
X170849215Y-66284141D01*
X170865066Y-66277239D01*
X170881330Y-66271142D01*
X170897978Y-66265884D01*
X170914983Y-66261503D01*
X170932319Y-66258033D01*
X170949956Y-66255511D01*
X170967869Y-66253971D01*
X170986031Y-66253450D01*
X171007437Y-66254057D01*
G37*
G36*
X174985107Y-66253582D02*
G01*
X174998470Y-66254128D01*
X175011490Y-66255021D01*
X175024172Y-66256251D01*
X175036519Y-66257803D01*
X175048537Y-66259665D01*
X175060231Y-66261824D01*
X175071603Y-66264268D01*
X175082660Y-66266984D01*
X175093405Y-66269959D01*
X175103843Y-66273181D01*
X175113979Y-66276637D01*
X175123816Y-66280313D01*
X175133360Y-66284198D01*
X175142614Y-66288279D01*
X175151584Y-66292542D01*
X175168689Y-66301567D01*
X175184708Y-66311171D01*
X175199679Y-66321253D01*
X175213637Y-66331710D01*
X175226618Y-66342442D01*
X175238657Y-66353346D01*
X175249792Y-66364320D01*
X175260057Y-66375264D01*
X175273257Y-66390384D01*
X175285465Y-66405646D01*
X175296702Y-66421237D01*
X175306985Y-66437344D01*
X175316335Y-66454153D01*
X175324770Y-66471852D01*
X175332311Y-66490627D01*
X175338975Y-66510664D01*
X175344784Y-66532152D01*
X175349755Y-66555277D01*
X175353909Y-66580225D01*
X175357264Y-66607183D01*
X175359840Y-66636338D01*
X175361656Y-66667877D01*
X175362731Y-66701987D01*
X175363086Y-66738855D01*
X175362731Y-66776031D01*
X175361656Y-66810413D01*
X175359840Y-66842191D01*
X175357264Y-66871553D01*
X175353909Y-66898688D01*
X175349755Y-66923786D01*
X175344784Y-66947036D01*
X175338975Y-66968626D01*
X175332311Y-66988746D01*
X175324770Y-67007585D01*
X175316335Y-67025331D01*
X175306985Y-67042174D01*
X175296702Y-67058304D01*
X175285465Y-67073908D01*
X175273257Y-67089176D01*
X175260057Y-67104298D01*
X175249792Y-67115240D01*
X175238657Y-67126211D01*
X175226618Y-67137110D01*
X175213637Y-67147834D01*
X175199679Y-67158284D01*
X175184708Y-67168356D01*
X175168689Y-67177951D01*
X175151584Y-67186966D01*
X175133360Y-67195300D01*
X175113978Y-67202852D01*
X175093405Y-67209520D01*
X175071603Y-67215204D01*
X175048537Y-67219800D01*
X175024172Y-67223209D01*
X174998470Y-67225329D01*
X174971396Y-67226058D01*
X174957695Y-67225874D01*
X174944341Y-67225329D01*
X174931330Y-67224437D01*
X174918656Y-67223209D01*
X174906316Y-67221660D01*
X174894304Y-67219800D01*
X174882617Y-67217644D01*
X174871251Y-67215204D01*
X174860199Y-67212492D01*
X174849459Y-67209521D01*
X174839026Y-67206303D01*
X174828894Y-67202852D01*
X174819061Y-67199180D01*
X174809520Y-67195300D01*
X174800268Y-67191225D01*
X174791301Y-67186966D01*
X174774201Y-67177951D01*
X174758185Y-67168357D01*
X174743216Y-67158284D01*
X174729260Y-67147835D01*
X174716280Y-67137110D01*
X174704241Y-67126211D01*
X174693107Y-67115240D01*
X174682842Y-67104298D01*
X174669641Y-67089177D01*
X174657429Y-67073910D01*
X174646187Y-67058308D01*
X174635897Y-67042182D01*
X174626540Y-67025341D01*
X174618095Y-67007598D01*
X174610545Y-66988763D01*
X174603870Y-66968645D01*
X174598052Y-66947057D01*
X174593071Y-66923809D01*
X174588909Y-66898711D01*
X174585546Y-66871575D01*
X174582963Y-66842210D01*
X174581142Y-66810428D01*
X174580063Y-66776040D01*
X174579707Y-66738855D01*
X174770895Y-66738855D01*
X174771030Y-66763701D01*
X174771449Y-66786341D01*
X174772170Y-66806943D01*
X174773213Y-66825675D01*
X174774597Y-66842703D01*
X174776342Y-66858196D01*
X174778466Y-66872322D01*
X174780989Y-66885249D01*
X174783929Y-66897143D01*
X174787307Y-66908174D01*
X174791141Y-66918508D01*
X174795451Y-66928313D01*
X174800256Y-66937757D01*
X174805575Y-66947009D01*
X174811427Y-66956235D01*
X174817832Y-66965603D01*
X174823450Y-66972879D01*
X174829780Y-66979903D01*
X174836785Y-66986644D01*
X174844423Y-66993074D01*
X174852658Y-66999162D01*
X174861449Y-67004878D01*
X174870757Y-67010192D01*
X174880545Y-67015074D01*
X174890772Y-67019493D01*
X174901399Y-67023421D01*
X174912389Y-67026827D01*
X174923701Y-67029681D01*
X174935297Y-67031953D01*
X174947137Y-67033613D01*
X174959183Y-67034631D01*
X174971396Y-67034977D01*
X174983626Y-67034630D01*
X174995686Y-67033611D01*
X175007535Y-67031948D01*
X175019138Y-67029674D01*
X175030453Y-67026816D01*
X175041445Y-67023407D01*
X175052073Y-67019476D01*
X175062300Y-67015054D01*
X175072088Y-67010170D01*
X175081397Y-67004854D01*
X175090190Y-66999138D01*
X175098428Y-66993052D01*
X175106073Y-66986625D01*
X175113087Y-66979887D01*
X175119431Y-66972870D01*
X175122339Y-66969266D01*
X175125066Y-66965603D01*
X175131470Y-66956235D01*
X175137318Y-66947012D01*
X175142632Y-66937770D01*
X175147430Y-66928342D01*
X175151732Y-66918564D01*
X175155557Y-66908271D01*
X175158926Y-66897298D01*
X175161857Y-66885480D01*
X175164369Y-66872652D01*
X175166484Y-66858649D01*
X175168219Y-66843305D01*
X175169596Y-66826456D01*
X175170632Y-66807937D01*
X175171348Y-66787582D01*
X175171898Y-66740707D01*
X175171763Y-66715860D01*
X175171348Y-66693216D01*
X175170632Y-66672610D01*
X175169596Y-66653873D01*
X175168219Y-66636838D01*
X175166484Y-66621338D01*
X175164369Y-66607205D01*
X175161857Y-66594273D01*
X175158926Y-66582374D01*
X175155557Y-66571341D01*
X175151732Y-66561007D01*
X175147430Y-66551204D01*
X175142632Y-66541765D01*
X175137318Y-66532522D01*
X175131470Y-66523309D01*
X175125066Y-66513959D01*
X175119431Y-66506683D01*
X175113087Y-66499659D01*
X175106073Y-66492917D01*
X175098428Y-66486487D01*
X175090190Y-66480399D01*
X175081397Y-66474684D01*
X175072088Y-66469370D01*
X175062300Y-66464488D01*
X175052073Y-66460068D01*
X175041445Y-66456140D01*
X175030453Y-66452734D01*
X175019138Y-66449880D01*
X175007535Y-66447608D01*
X174995686Y-66445949D01*
X174983626Y-66444931D01*
X174971396Y-66444585D01*
X174959183Y-66444931D01*
X174947137Y-66445951D01*
X174935297Y-66447613D01*
X174923701Y-66449888D01*
X174912389Y-66452745D01*
X174901399Y-66456154D01*
X174890772Y-66460085D01*
X174880545Y-66464508D01*
X174870757Y-66469392D01*
X174861449Y-66474707D01*
X174852658Y-66480423D01*
X174844423Y-66486510D01*
X174836785Y-66492937D01*
X174829780Y-66499674D01*
X174823450Y-66506692D01*
X174820549Y-66510296D01*
X174817832Y-66513959D01*
X174811427Y-66523309D01*
X174805575Y-66532519D01*
X174800256Y-66541753D01*
X174795451Y-66551175D01*
X174791141Y-66560951D01*
X174787307Y-66571244D01*
X174783929Y-66582219D01*
X174780989Y-66594042D01*
X174778466Y-66606876D01*
X174776342Y-66620885D01*
X174774597Y-66636236D01*
X174773213Y-66653091D01*
X174772170Y-66671616D01*
X174771449Y-66691975D01*
X174770895Y-66738855D01*
X174579707Y-66738855D01*
X174580063Y-66701988D01*
X174581142Y-66667880D01*
X174582963Y-66636343D01*
X174585546Y-66607190D01*
X174588909Y-66580235D01*
X174593071Y-66555291D01*
X174598052Y-66532169D01*
X174603870Y-66510684D01*
X174610545Y-66490648D01*
X174618095Y-66471875D01*
X174626540Y-66454176D01*
X174635897Y-66437366D01*
X174646187Y-66421256D01*
X174657429Y-66405661D01*
X174669641Y-66390392D01*
X174682842Y-66375264D01*
X174693107Y-66364320D01*
X174704241Y-66353346D01*
X174716280Y-66342442D01*
X174729260Y-66331711D01*
X174743217Y-66321253D01*
X174758185Y-66311172D01*
X174774201Y-66301567D01*
X174791301Y-66292542D01*
X174809520Y-66284198D01*
X174828894Y-66276637D01*
X174849459Y-66269960D01*
X174871251Y-66264268D01*
X174894305Y-66259665D01*
X174918656Y-66256251D01*
X174944342Y-66254128D01*
X174971396Y-66253397D01*
X174985107Y-66253582D01*
G37*
G36*
X174609722Y-59149332D02*
G01*
X174611736Y-59149482D01*
X174613741Y-59149729D01*
X174615732Y-59150069D01*
X174617708Y-59150502D01*
X174619664Y-59151024D01*
X174621599Y-59151632D01*
X174623509Y-59152326D01*
X174625391Y-59153101D01*
X174627242Y-59153955D01*
X174629059Y-59154887D01*
X174630839Y-59155893D01*
X174632580Y-59156971D01*
X174634277Y-59158119D01*
X174635929Y-59159333D01*
X174637532Y-59160613D01*
X174639083Y-59161954D01*
X174640580Y-59163356D01*
X174642018Y-59164814D01*
X174643396Y-59166327D01*
X174644710Y-59167893D01*
X174645958Y-59169508D01*
X174647136Y-59171171D01*
X174648241Y-59172879D01*
X174649270Y-59174629D01*
X174650221Y-59176419D01*
X174651091Y-59178246D01*
X174651875Y-59180108D01*
X174652572Y-59182003D01*
X174653179Y-59183928D01*
X174653692Y-59185881D01*
X174654108Y-59187858D01*
X174821590Y-60087600D01*
X174822013Y-60089594D01*
X174822527Y-60091594D01*
X174823814Y-60095602D01*
X174825430Y-60099597D01*
X174827352Y-60103554D01*
X174829556Y-60107446D01*
X174832022Y-60111246D01*
X174834725Y-60114930D01*
X174837643Y-60118471D01*
X174840755Y-60121842D01*
X174844036Y-60125018D01*
X174847466Y-60127972D01*
X174851020Y-60130679D01*
X174854678Y-60133111D01*
X174858415Y-60135244D01*
X174860307Y-60136190D01*
X174862210Y-60137051D01*
X174864122Y-60137824D01*
X174866040Y-60138506D01*
X175469078Y-60385362D01*
X175472824Y-60387012D01*
X175476797Y-60388389D01*
X175480962Y-60389498D01*
X175485284Y-60390339D01*
X175489728Y-60390916D01*
X175494258Y-60391231D01*
X175498841Y-60391286D01*
X175503440Y-60391084D01*
X175508022Y-60390627D01*
X175512550Y-60389918D01*
X175516991Y-60388958D01*
X175521309Y-60387751D01*
X175525469Y-60386299D01*
X175529436Y-60384603D01*
X175533175Y-60382668D01*
X175536652Y-60380494D01*
X176288333Y-59864662D01*
X176290026Y-59863559D01*
X176291770Y-59862542D01*
X176293559Y-59861611D01*
X176295392Y-59860764D01*
X176297262Y-59860003D01*
X176299168Y-59859325D01*
X176301104Y-59858732D01*
X176303068Y-59858223D01*
X176305055Y-59857797D01*
X176307062Y-59857454D01*
X176311118Y-59857016D01*
X176315206Y-59856906D01*
X176319296Y-59857122D01*
X176323357Y-59857660D01*
X176327358Y-59858517D01*
X176331269Y-59859691D01*
X176333180Y-59860396D01*
X176335058Y-59861180D01*
X176336898Y-59862041D01*
X176338696Y-59862980D01*
X176340449Y-59863995D01*
X176342152Y-59865088D01*
X176343802Y-59866257D01*
X176345395Y-59867502D01*
X176346927Y-59868822D01*
X176348394Y-59870219D01*
X176981436Y-60503261D01*
X176982832Y-60504728D01*
X176984152Y-60506261D01*
X176985396Y-60507854D01*
X176986563Y-60509505D01*
X176987653Y-60511209D01*
X176988666Y-60512963D01*
X176990460Y-60516605D01*
X176991942Y-60520398D01*
X176993110Y-60524313D01*
X176993961Y-60528319D01*
X176994493Y-60532385D01*
X176994704Y-60536479D01*
X176994592Y-60540573D01*
X176994154Y-60544633D01*
X176993387Y-60548631D01*
X176992290Y-60552535D01*
X176991617Y-60554441D01*
X176990860Y-60556313D01*
X176990019Y-60558146D01*
X176989095Y-60559937D01*
X176988086Y-60561681D01*
X176986992Y-60563374D01*
X176480156Y-61302091D01*
X176477976Y-61305582D01*
X176476041Y-61309328D01*
X176474354Y-61313293D01*
X176472916Y-61317444D01*
X176471730Y-61321746D01*
X176470798Y-61326166D01*
X176470122Y-61330670D01*
X176469705Y-61335223D01*
X176469548Y-61339792D01*
X176469653Y-61344342D01*
X176470023Y-61348839D01*
X176470660Y-61353250D01*
X176471567Y-61357541D01*
X176472744Y-61361676D01*
X176474196Y-61365623D01*
X176475922Y-61369348D01*
X176742570Y-61991436D01*
X176744093Y-61995256D01*
X176745965Y-61999041D01*
X176748161Y-62002768D01*
X176750652Y-62006416D01*
X176753414Y-62009960D01*
X176756420Y-62013380D01*
X176759642Y-62016652D01*
X176763056Y-62019753D01*
X176766634Y-62022662D01*
X176770349Y-62025355D01*
X176774176Y-62027810D01*
X176778088Y-62030005D01*
X176782059Y-62031916D01*
X176786062Y-62033522D01*
X176790070Y-62034800D01*
X176794058Y-62035727D01*
X177663955Y-62197493D01*
X177665928Y-62197919D01*
X177667876Y-62198441D01*
X177669796Y-62199055D01*
X177671687Y-62199759D01*
X177673546Y-62200550D01*
X177675370Y-62201425D01*
X177677156Y-62202381D01*
X177678903Y-62203414D01*
X177682267Y-62205704D01*
X177685443Y-62208271D01*
X177688409Y-62211092D01*
X177691147Y-62214142D01*
X177693637Y-62217399D01*
X177695857Y-62220839D01*
X177697789Y-62224439D01*
X177698641Y-62226291D01*
X177699413Y-62228174D01*
X177700103Y-62230086D01*
X177700709Y-62232022D01*
X177701227Y-62233981D01*
X177701656Y-62235959D01*
X177701992Y-62237954D01*
X177702235Y-62239962D01*
X177702380Y-62241981D01*
X177702425Y-62244007D01*
X177702319Y-63139304D01*
X177702269Y-63141326D01*
X177702119Y-63143341D01*
X177701872Y-63145347D01*
X177701530Y-63147341D01*
X177701096Y-63149318D01*
X177700573Y-63151278D01*
X177699963Y-63153215D01*
X177699268Y-63155128D01*
X177698492Y-63157014D01*
X177697636Y-63158869D01*
X177696702Y-63160689D01*
X177695695Y-63162474D01*
X177694615Y-63164218D01*
X177693466Y-63165920D01*
X177692250Y-63167575D01*
X177690969Y-63169182D01*
X177689626Y-63170737D01*
X177688224Y-63172237D01*
X177686765Y-63173679D01*
X177685251Y-63175059D01*
X177683685Y-63176376D01*
X177682070Y-63177626D01*
X177680407Y-63178805D01*
X177678701Y-63179912D01*
X177676952Y-63180942D01*
X177675163Y-63181893D01*
X177673338Y-63182761D01*
X177671478Y-63183545D01*
X177669586Y-63184240D01*
X177667665Y-63184843D01*
X177665717Y-63185353D01*
X177663744Y-63185765D01*
X176815225Y-63343668D01*
X176813227Y-63344077D01*
X176811225Y-63344579D01*
X176809222Y-63345171D01*
X176807221Y-63345850D01*
X176803239Y-63347455D01*
X176799302Y-63349373D01*
X176795437Y-63351580D01*
X176791669Y-63354053D01*
X176788024Y-63356768D01*
X176784526Y-63359702D01*
X176781201Y-63362832D01*
X176778074Y-63366135D01*
X176775171Y-63369588D01*
X176772518Y-63373166D01*
X176770138Y-63376848D01*
X176768059Y-63380609D01*
X176766304Y-63384426D01*
X176765557Y-63386349D01*
X176764900Y-63388277D01*
X176500000Y-64050000D01*
X176498361Y-64053763D01*
X176496995Y-64057750D01*
X176495899Y-64061924D01*
X176495069Y-64066251D01*
X176494505Y-64070697D01*
X176494202Y-64075227D01*
X176494158Y-64079807D01*
X176494371Y-64084402D01*
X176494837Y-64088978D01*
X176495554Y-64093500D01*
X176496519Y-64097934D01*
X176497730Y-64102246D01*
X176499184Y-64106400D01*
X176500877Y-64110362D01*
X176502808Y-64114099D01*
X176504974Y-64117574D01*
X176986991Y-64819937D01*
X176988094Y-64821631D01*
X176989111Y-64823375D01*
X176990043Y-64825166D01*
X176990889Y-64827000D01*
X176991651Y-64828873D01*
X176992328Y-64830782D01*
X176992921Y-64832721D01*
X176993430Y-64834689D01*
X176993856Y-64836680D01*
X176994199Y-64838690D01*
X176994637Y-64842755D01*
X176994747Y-64846853D01*
X176994532Y-64850953D01*
X176993994Y-64855024D01*
X176993137Y-64859034D01*
X176991962Y-64862954D01*
X176991257Y-64864870D01*
X176990474Y-64866751D01*
X176989613Y-64868595D01*
X176988674Y-64870396D01*
X176987659Y-64872151D01*
X176986566Y-64873857D01*
X176985397Y-64875509D01*
X176984152Y-64877103D01*
X176982832Y-64878636D01*
X176981435Y-64880104D01*
X176348287Y-65513145D01*
X176346829Y-65514532D01*
X176345305Y-65515844D01*
X176343719Y-65517080D01*
X176342075Y-65518242D01*
X176340377Y-65519327D01*
X176338629Y-65520336D01*
X176334996Y-65522125D01*
X176331209Y-65523605D01*
X176327298Y-65524773D01*
X176323294Y-65525627D01*
X176319229Y-65526163D01*
X176315134Y-65526380D01*
X176311039Y-65526273D01*
X176306977Y-65525842D01*
X176302977Y-65525082D01*
X176299071Y-65523990D01*
X176297163Y-65523320D01*
X176295290Y-65522565D01*
X176293456Y-65521726D01*
X176291665Y-65520803D01*
X176289921Y-65519795D01*
X176288227Y-65518702D01*
X175598246Y-65045151D01*
X175594778Y-65042992D01*
X175591063Y-65041098D01*
X175587136Y-65039472D01*
X175583030Y-65038113D01*
X175578778Y-65037021D01*
X175574415Y-65036199D01*
X175569975Y-65035645D01*
X175565491Y-65035361D01*
X175560997Y-65035348D01*
X175556527Y-65035605D01*
X175552115Y-65036134D01*
X175547794Y-65036936D01*
X175543598Y-65038010D01*
X175539561Y-65039357D01*
X175535718Y-65040979D01*
X175532101Y-65042876D01*
X175227830Y-65205329D01*
X175226010Y-65206195D01*
X175224176Y-65206955D01*
X175222330Y-65207612D01*
X175220474Y-65208167D01*
X175218613Y-65208621D01*
X175216750Y-65208975D01*
X175214888Y-65209230D01*
X175213029Y-65209388D01*
X175211177Y-65209449D01*
X175209336Y-65209415D01*
X175207508Y-65209286D01*
X175205696Y-65209065D01*
X175203905Y-65208752D01*
X175202136Y-65208349D01*
X175200393Y-65207856D01*
X175198679Y-65207274D01*
X175196998Y-65206606D01*
X175195353Y-65205851D01*
X175193746Y-65205012D01*
X175192181Y-65204089D01*
X175190661Y-65203084D01*
X175189189Y-65201997D01*
X175187769Y-65200831D01*
X175186404Y-65199585D01*
X175185096Y-65198261D01*
X175183849Y-65196861D01*
X175182666Y-65195385D01*
X175181550Y-65193835D01*
X175180505Y-65192212D01*
X175179533Y-65190517D01*
X175178639Y-65188751D01*
X175177824Y-65186915D01*
X174550496Y-63670958D01*
X174549771Y-63669072D01*
X174549142Y-63667158D01*
X174548607Y-63665218D01*
X174548167Y-63663257D01*
X174547818Y-63661279D01*
X174547561Y-63659286D01*
X174547394Y-63657282D01*
X174547316Y-63655271D01*
X174547326Y-63653257D01*
X174547422Y-63651244D01*
X174547603Y-63649234D01*
X174547868Y-63647231D01*
X174548215Y-63645239D01*
X174548644Y-63643262D01*
X174549154Y-63641304D01*
X174549742Y-63639367D01*
X174550408Y-63637455D01*
X174551151Y-63635573D01*
X174551970Y-63633723D01*
X174552862Y-63631909D01*
X174553827Y-63630135D01*
X174554864Y-63628405D01*
X174555972Y-63626722D01*
X174557149Y-63625089D01*
X174558394Y-63623511D01*
X174559706Y-63621990D01*
X174561083Y-63620531D01*
X174562525Y-63619137D01*
X174564030Y-63617812D01*
X174565597Y-63616559D01*
X174567224Y-63615382D01*
X174568911Y-63614284D01*
X174645058Y-63567665D01*
X174650539Y-63564174D01*
X174656391Y-63560190D01*
X174662503Y-63555800D01*
X174668765Y-63551089D01*
X174675067Y-63546145D01*
X174681298Y-63541054D01*
X174687348Y-63535904D01*
X174693107Y-63530782D01*
X174743515Y-63496279D01*
X174791622Y-63458816D01*
X174837298Y-63418526D01*
X174880410Y-63375537D01*
X174920829Y-63329982D01*
X174958421Y-63281990D01*
X174993056Y-63231691D01*
X175024603Y-63179217D01*
X175052931Y-63124697D01*
X175077907Y-63068263D01*
X175099401Y-63010045D01*
X175117282Y-62950174D01*
X175131418Y-62888779D01*
X175141677Y-62825992D01*
X175147929Y-62761943D01*
X175150042Y-62696762D01*
X175148754Y-62645810D01*
X175144931Y-62595526D01*
X175138634Y-62545974D01*
X175129927Y-62497215D01*
X175118872Y-62449311D01*
X175105530Y-62402326D01*
X175089964Y-62356320D01*
X175072236Y-62311357D01*
X175052408Y-62267498D01*
X175030544Y-62224806D01*
X175006703Y-62183343D01*
X174980950Y-62143170D01*
X174953346Y-62104351D01*
X174923954Y-62066947D01*
X174892835Y-62031021D01*
X174860052Y-61996635D01*
X174825668Y-61963851D01*
X174789743Y-61932731D01*
X174752341Y-61903338D01*
X174713524Y-61875733D01*
X174673353Y-61849980D01*
X174631892Y-61826139D01*
X174589202Y-61804274D01*
X174545346Y-61784446D01*
X174500386Y-61766718D01*
X174454383Y-61751152D01*
X174407401Y-61737810D01*
X174359502Y-61726754D01*
X174310747Y-61718047D01*
X174261198Y-61711750D01*
X174210919Y-61707927D01*
X174159972Y-61706639D01*
X174109024Y-61707927D01*
X174058744Y-61711750D01*
X174009195Y-61718047D01*
X173960439Y-61726754D01*
X173912538Y-61737810D01*
X173865555Y-61751152D01*
X173819551Y-61766718D01*
X173774589Y-61784446D01*
X173730730Y-61804274D01*
X173688039Y-61826139D01*
X173646575Y-61849980D01*
X173606403Y-61875733D01*
X173567583Y-61903338D01*
X173530179Y-61932731D01*
X173494252Y-61963851D01*
X173459864Y-61996635D01*
X173427079Y-62031021D01*
X173395958Y-62066947D01*
X173366563Y-62104351D01*
X173338957Y-62143170D01*
X173313201Y-62183343D01*
X173289359Y-62224806D01*
X173267492Y-62267498D01*
X173247663Y-62311357D01*
X173229933Y-62356320D01*
X173214366Y-62402326D01*
X173201022Y-62449311D01*
X173189965Y-62497215D01*
X173181257Y-62545974D01*
X173174960Y-62595526D01*
X173171136Y-62645810D01*
X173169848Y-62696762D01*
X173170379Y-62729486D01*
X173171962Y-62761943D01*
X173174579Y-62794117D01*
X173178215Y-62825992D01*
X173182853Y-62857551D01*
X173188477Y-62888779D01*
X173195070Y-62919659D01*
X173202616Y-62950174D01*
X173211098Y-62980308D01*
X173220500Y-63010045D01*
X173230805Y-63039369D01*
X173241997Y-63068263D01*
X173254060Y-63096712D01*
X173266977Y-63124697D01*
X173295307Y-63179217D01*
X173326856Y-63231691D01*
X173361493Y-63281990D01*
X173399085Y-63329982D01*
X173439502Y-63375538D01*
X173482612Y-63418526D01*
X173528283Y-63458816D01*
X173576384Y-63496279D01*
X173626783Y-63530782D01*
X173632575Y-63535904D01*
X173638646Y-63541054D01*
X173644890Y-63546145D01*
X173651198Y-63551088D01*
X173657465Y-63555799D01*
X173663581Y-63560190D01*
X173669442Y-63564174D01*
X173674938Y-63567665D01*
X173751085Y-63614284D01*
X173752782Y-63615382D01*
X173754418Y-63616559D01*
X173755992Y-63617812D01*
X173757504Y-63619137D01*
X173758952Y-63620531D01*
X173760335Y-63621990D01*
X173762899Y-63625089D01*
X173765189Y-63628405D01*
X173767195Y-63631909D01*
X173768906Y-63635573D01*
X173770314Y-63639367D01*
X173771408Y-63643262D01*
X173772180Y-63647231D01*
X173772619Y-63651244D01*
X173772717Y-63655271D01*
X173772464Y-63659286D01*
X173772202Y-63661279D01*
X173771849Y-63663257D01*
X173771404Y-63665218D01*
X173770865Y-63667158D01*
X173770230Y-63669072D01*
X173769500Y-63670958D01*
X173142120Y-65186862D01*
X173141305Y-65188698D01*
X173140410Y-65190465D01*
X173139438Y-65192161D01*
X173138392Y-65193785D01*
X173137275Y-65195336D01*
X173136091Y-65196813D01*
X173134842Y-65198215D01*
X173133533Y-65199540D01*
X173132166Y-65200787D01*
X173130744Y-65201956D01*
X173129271Y-65203044D01*
X173127749Y-65204051D01*
X173126183Y-65204975D01*
X173124574Y-65205816D01*
X173122927Y-65206572D01*
X173121245Y-65207242D01*
X173119530Y-65207824D01*
X173117786Y-65208318D01*
X173116017Y-65208722D01*
X173114224Y-65209036D01*
X173112412Y-65209257D01*
X173110585Y-65209386D01*
X173108743Y-65209419D01*
X173106893Y-65209357D01*
X173105035Y-65209199D01*
X173103174Y-65208942D01*
X173101313Y-65208586D01*
X173099454Y-65208130D01*
X173097602Y-65207572D01*
X173095759Y-65206912D01*
X173093929Y-65206147D01*
X173092114Y-65205277D01*
X172787843Y-65042823D01*
X172784235Y-65040927D01*
X172780398Y-65039307D01*
X172776365Y-65037962D01*
X172772172Y-65036890D01*
X172767853Y-65036092D01*
X172763440Y-65035567D01*
X172758969Y-65035312D01*
X172754473Y-65035329D01*
X172749986Y-65035615D01*
X172745542Y-65036170D01*
X172741176Y-65036992D01*
X172736922Y-65038083D01*
X172732812Y-65039439D01*
X172728883Y-65041061D01*
X172725166Y-65042948D01*
X172721697Y-65045098D01*
X172031770Y-65518650D01*
X172030072Y-65519743D01*
X172028323Y-65520751D01*
X172026529Y-65521674D01*
X172024692Y-65522513D01*
X172022816Y-65523267D01*
X172020906Y-65523938D01*
X172018965Y-65524525D01*
X172016997Y-65525029D01*
X172015006Y-65525450D01*
X172012995Y-65525789D01*
X172008931Y-65526221D01*
X172004836Y-65526327D01*
X172000741Y-65526111D01*
X171996676Y-65525574D01*
X171992672Y-65524720D01*
X171988760Y-65523552D01*
X171986848Y-65522851D01*
X171984971Y-65522072D01*
X171983132Y-65521217D01*
X171981335Y-65520284D01*
X171979584Y-65519275D01*
X171977884Y-65518189D01*
X171976237Y-65517028D01*
X171974647Y-65515791D01*
X171973119Y-65514480D01*
X171971656Y-65513093D01*
X171338508Y-64880051D01*
X171337117Y-64878583D01*
X171335801Y-64877050D01*
X171334560Y-64875456D01*
X171333395Y-64873804D01*
X171332306Y-64872099D01*
X171331294Y-64870343D01*
X171329499Y-64866699D01*
X171328015Y-64862901D01*
X171326844Y-64858982D01*
X171325989Y-64854971D01*
X171325451Y-64850901D01*
X171325235Y-64846801D01*
X171325344Y-64842703D01*
X171325778Y-64838638D01*
X171326543Y-64834636D01*
X171327640Y-64830729D01*
X171328314Y-64828821D01*
X171329072Y-64826948D01*
X171329914Y-64825114D01*
X171330842Y-64823323D01*
X171331854Y-64821578D01*
X171332952Y-64819885D01*
X171814917Y-64117522D01*
X171817101Y-64114046D01*
X171819046Y-64110310D01*
X171820752Y-64106347D01*
X171822214Y-64102193D01*
X171823431Y-64097882D01*
X171824400Y-64093448D01*
X171825120Y-64088926D01*
X171825587Y-64084350D01*
X171825799Y-64079754D01*
X171825753Y-64075174D01*
X171825448Y-64070644D01*
X171824881Y-64066198D01*
X171824050Y-64061871D01*
X171822951Y-64057697D01*
X171821584Y-64053711D01*
X171819944Y-64049947D01*
X171555043Y-63388224D01*
X171554391Y-63386296D01*
X171553647Y-63384374D01*
X171551896Y-63380556D01*
X171549816Y-63376795D01*
X171547433Y-63373113D01*
X171544773Y-63369535D01*
X171541862Y-63366082D01*
X171538726Y-63362780D01*
X171535392Y-63359649D01*
X171531884Y-63356715D01*
X171528229Y-63354000D01*
X171524453Y-63351528D01*
X171520582Y-63349321D01*
X171516642Y-63347403D01*
X171512659Y-63345797D01*
X171508658Y-63344527D01*
X171506660Y-63344025D01*
X171504667Y-63343616D01*
X170656148Y-63185712D01*
X170654170Y-63185300D01*
X170652218Y-63184791D01*
X170650293Y-63184187D01*
X170648398Y-63183492D01*
X170646536Y-63182709D01*
X170644708Y-63181840D01*
X170642919Y-63180889D01*
X170641169Y-63179859D01*
X170639461Y-63178753D01*
X170637798Y-63177573D01*
X170634617Y-63175007D01*
X170631646Y-63172184D01*
X170628903Y-63169129D01*
X170626408Y-63165867D01*
X170624183Y-63162421D01*
X170622245Y-63158816D01*
X170620615Y-63155076D01*
X170619922Y-63153163D01*
X170619314Y-63151225D01*
X170618792Y-63149266D01*
X170618359Y-63147288D01*
X170618018Y-63145294D01*
X170617772Y-63143289D01*
X170617622Y-63141273D01*
X170617572Y-63139251D01*
X170617519Y-62243954D01*
X170617569Y-62241933D01*
X170617718Y-62239919D01*
X170617964Y-62237915D01*
X170618304Y-62235924D01*
X170618735Y-62233950D01*
X170619256Y-62231994D01*
X170619863Y-62230061D01*
X170620555Y-62228152D01*
X170621329Y-62226271D01*
X170622181Y-62224422D01*
X170623111Y-62222606D01*
X170624116Y-62220826D01*
X170625192Y-62219087D01*
X170626338Y-62217390D01*
X170627552Y-62215739D01*
X170628830Y-62214136D01*
X170630170Y-62212584D01*
X170631571Y-62211087D01*
X170633028Y-62209648D01*
X170634541Y-62208269D01*
X170636107Y-62206953D01*
X170637722Y-62205703D01*
X170639385Y-62204522D01*
X170641093Y-62203414D01*
X170642844Y-62202380D01*
X170644636Y-62201424D01*
X170646465Y-62200550D01*
X170648330Y-62199759D01*
X170650228Y-62199055D01*
X170652156Y-62198441D01*
X170654113Y-62197919D01*
X170656095Y-62197493D01*
X171525939Y-62035727D01*
X171527939Y-62035309D01*
X171529945Y-62034800D01*
X171533968Y-62033522D01*
X171537983Y-62031916D01*
X171541962Y-62030005D01*
X171545879Y-62027810D01*
X171549709Y-62025355D01*
X171553425Y-62022662D01*
X171557001Y-62019753D01*
X171560411Y-62016652D01*
X171563629Y-62013380D01*
X171566628Y-62009960D01*
X171569382Y-62006416D01*
X171571865Y-62002768D01*
X171574051Y-61999041D01*
X171575914Y-61995256D01*
X171576716Y-61993349D01*
X171577427Y-61991436D01*
X171844127Y-61369348D01*
X171845845Y-61365623D01*
X171847288Y-61361676D01*
X171848459Y-61357541D01*
X171849360Y-61353250D01*
X171849994Y-61348839D01*
X171850362Y-61344342D01*
X171850468Y-61339792D01*
X171850312Y-61335223D01*
X171849898Y-61330670D01*
X171849227Y-61326166D01*
X171848303Y-61321746D01*
X171847126Y-61317444D01*
X171845700Y-61313293D01*
X171844027Y-61309328D01*
X171842108Y-61305582D01*
X171839947Y-61302091D01*
X171333058Y-60563374D01*
X171331955Y-60561681D01*
X171330939Y-60559937D01*
X171330008Y-60558146D01*
X171329162Y-60556313D01*
X171328402Y-60554441D01*
X171327726Y-60552535D01*
X171327134Y-60550596D01*
X171326626Y-60548631D01*
X171326202Y-60546642D01*
X171325861Y-60544633D01*
X171325426Y-60540573D01*
X171325319Y-60536479D01*
X171325537Y-60532385D01*
X171326077Y-60528319D01*
X171326936Y-60524313D01*
X171328111Y-60520398D01*
X171328815Y-60518484D01*
X171329598Y-60516605D01*
X171330458Y-60514763D01*
X171331395Y-60512963D01*
X171332409Y-60511209D01*
X171333499Y-60509505D01*
X171334665Y-60507854D01*
X171335906Y-60506261D01*
X171337223Y-60504728D01*
X171338614Y-60503261D01*
X171971710Y-59870219D01*
X171973172Y-59868823D01*
X171974700Y-59867502D01*
X171976290Y-59866257D01*
X171977937Y-59865088D01*
X171979638Y-59863995D01*
X171981388Y-59862980D01*
X171985024Y-59861180D01*
X171988813Y-59859691D01*
X171992725Y-59858517D01*
X171996729Y-59857660D01*
X172000794Y-59857122D01*
X172004889Y-59856907D01*
X172008984Y-59857016D01*
X172013048Y-59857454D01*
X172017050Y-59858223D01*
X172020959Y-59859326D01*
X172022870Y-59860003D01*
X172024745Y-59860764D01*
X172026582Y-59861611D01*
X172028377Y-59862542D01*
X172030125Y-59863560D01*
X172031823Y-59864662D01*
X172783451Y-60380494D01*
X172786919Y-60382668D01*
X172790650Y-60384604D01*
X172794611Y-60386299D01*
X172798765Y-60387751D01*
X172803078Y-60388958D01*
X172807516Y-60389918D01*
X172812043Y-60390627D01*
X172816623Y-60391084D01*
X172821223Y-60391286D01*
X172825808Y-60391231D01*
X172830341Y-60390916D01*
X172834789Y-60390339D01*
X172839117Y-60389498D01*
X172843289Y-60388389D01*
X172847270Y-60387012D01*
X172851026Y-60385362D01*
X173454117Y-60138506D01*
X173457956Y-60137051D01*
X173461757Y-60135244D01*
X173465499Y-60133111D01*
X173469159Y-60130679D01*
X173472714Y-60127972D01*
X173476143Y-60125018D01*
X173479424Y-60121842D01*
X173482533Y-60118471D01*
X173485449Y-60114930D01*
X173488149Y-60111246D01*
X173490611Y-60107446D01*
X173492812Y-60103554D01*
X173494731Y-60099597D01*
X173496344Y-60095602D01*
X173497631Y-60091594D01*
X173498567Y-60087600D01*
X173665995Y-59187858D01*
X173666412Y-59185881D01*
X173666925Y-59183928D01*
X173667531Y-59182003D01*
X173668228Y-59180108D01*
X173669013Y-59178246D01*
X173669882Y-59176419D01*
X173670832Y-59174629D01*
X173671862Y-59172879D01*
X173672966Y-59171171D01*
X173674144Y-59169508D01*
X173676704Y-59166327D01*
X173679519Y-59163356D01*
X173682565Y-59160613D01*
X173685817Y-59158119D01*
X173689251Y-59155893D01*
X173692844Y-59153955D01*
X173694693Y-59153101D01*
X173696572Y-59152326D01*
X173698479Y-59151632D01*
X173700410Y-59151024D01*
X173702364Y-59150502D01*
X173704336Y-59150069D01*
X173706323Y-59149729D01*
X173708323Y-59149482D01*
X173710333Y-59149332D01*
X173712350Y-59149282D01*
X174607700Y-59149282D01*
X174609722Y-59149332D01*
G37*
G36*
X174106181Y-66254091D02*
G01*
X174135620Y-66255833D01*
X174163886Y-66258696D01*
X174191032Y-66262646D01*
X174217111Y-66267652D01*
X174242174Y-66273679D01*
X174266275Y-66280695D01*
X174289466Y-66288666D01*
X174311800Y-66297561D01*
X174333328Y-66307345D01*
X174354103Y-66317986D01*
X174374178Y-66329450D01*
X174393606Y-66341706D01*
X174412438Y-66354718D01*
X174430728Y-66368456D01*
X174448527Y-66382885D01*
X174330523Y-66521474D01*
X174316444Y-66511851D01*
X174302285Y-66502649D01*
X174288008Y-66493894D01*
X174273579Y-66485614D01*
X174258961Y-66477837D01*
X174244120Y-66470591D01*
X174229019Y-66463903D01*
X174213623Y-66457802D01*
X174197897Y-66452314D01*
X174181805Y-66447468D01*
X174165311Y-66443291D01*
X174148379Y-66439812D01*
X174130975Y-66437057D01*
X174113063Y-66435055D01*
X174094606Y-66433834D01*
X174075570Y-66433420D01*
X174064390Y-66433562D01*
X174053674Y-66433984D01*
X174043416Y-66434681D01*
X174033608Y-66435645D01*
X174024243Y-66436872D01*
X174015315Y-66438355D01*
X174006815Y-66440089D01*
X173998736Y-66442067D01*
X173991072Y-66444285D01*
X173983814Y-66446736D01*
X173976957Y-66449413D01*
X173970493Y-66452312D01*
X173964414Y-66455427D01*
X173958713Y-66458751D01*
X173953383Y-66462278D01*
X173948418Y-66466004D01*
X173943809Y-66469921D01*
X173939550Y-66474025D01*
X173935633Y-66478308D01*
X173932051Y-66482766D01*
X173928797Y-66487393D01*
X173925863Y-66492182D01*
X173923244Y-66497127D01*
X173920930Y-66502224D01*
X173918916Y-66507465D01*
X173917193Y-66512846D01*
X173915756Y-66518359D01*
X173914596Y-66524000D01*
X173913706Y-66529763D01*
X173913079Y-66535641D01*
X173912709Y-66541629D01*
X173912587Y-66547720D01*
X173912946Y-66555441D01*
X173914060Y-66563113D01*
X173915981Y-66570686D01*
X173918760Y-66578111D01*
X173922450Y-66585339D01*
X173927103Y-66592320D01*
X173932772Y-66599006D01*
X173936003Y-66602223D01*
X173939508Y-66605347D01*
X173943293Y-66608372D01*
X173947364Y-66611293D01*
X173951729Y-66614103D01*
X173956393Y-66616795D01*
X173961363Y-66619365D01*
X173966646Y-66621805D01*
X173978175Y-66626272D01*
X173991034Y-66630147D01*
X174005273Y-66633382D01*
X174020946Y-66635927D01*
X174038105Y-66637732D01*
X174195532Y-66648897D01*
X174213642Y-66650439D01*
X174231066Y-66652592D01*
X174247812Y-66655345D01*
X174263887Y-66658682D01*
X174279298Y-66662591D01*
X174294053Y-66667057D01*
X174308159Y-66672067D01*
X174321623Y-66677607D01*
X174334452Y-66683663D01*
X174346653Y-66690222D01*
X174358235Y-66697269D01*
X174369203Y-66704791D01*
X174379566Y-66712774D01*
X174389331Y-66721204D01*
X174398504Y-66730068D01*
X174407093Y-66739352D01*
X174415106Y-66749041D01*
X174422549Y-66759123D01*
X174429429Y-66769584D01*
X174435755Y-66780409D01*
X174441533Y-66791585D01*
X174446771Y-66803098D01*
X174451476Y-66814935D01*
X174455654Y-66827082D01*
X174459314Y-66839524D01*
X174462462Y-66852248D01*
X174467253Y-66878488D01*
X174470085Y-66905691D01*
X174471016Y-66933748D01*
X174470515Y-66950914D01*
X174469026Y-66967614D01*
X174466572Y-66983841D01*
X174463177Y-66999592D01*
X174458861Y-67014860D01*
X174453648Y-67029641D01*
X174447562Y-67043929D01*
X174440623Y-67057720D01*
X174432856Y-67071009D01*
X174424282Y-67083789D01*
X174414924Y-67096057D01*
X174404806Y-67107806D01*
X174393948Y-67119033D01*
X174382376Y-67129731D01*
X174370110Y-67139895D01*
X174357173Y-67149521D01*
X174343588Y-67158604D01*
X174329379Y-67167137D01*
X174299174Y-67182538D01*
X174266741Y-67195681D01*
X174232259Y-67206527D01*
X174195911Y-67215034D01*
X174157876Y-67221161D01*
X174118338Y-67224867D01*
X174077475Y-67226112D01*
X174048796Y-67225452D01*
X174020393Y-67223471D01*
X173992281Y-67220167D01*
X173964473Y-67215536D01*
X173936984Y-67209577D01*
X173909826Y-67202286D01*
X173883014Y-67193661D01*
X173856562Y-67183699D01*
X173830482Y-67172397D01*
X173804790Y-67159754D01*
X173779499Y-67145765D01*
X173754623Y-67130430D01*
X173730175Y-67113744D01*
X173706169Y-67095706D01*
X173682619Y-67076312D01*
X173659539Y-67055561D01*
X173792572Y-66924434D01*
X173808126Y-66939091D01*
X173823900Y-66952820D01*
X173839937Y-66965617D01*
X173856282Y-66977481D01*
X173872979Y-66988409D01*
X173890072Y-66998399D01*
X173907603Y-67007449D01*
X173925618Y-67015556D01*
X173944160Y-67022718D01*
X173963273Y-67028932D01*
X173983001Y-67034197D01*
X174003387Y-67038510D01*
X174024477Y-67041868D01*
X174046312Y-67044270D01*
X174068938Y-67045713D01*
X174092398Y-67046194D01*
X174102494Y-67046074D01*
X174112406Y-67045712D01*
X174122125Y-67045110D01*
X174131643Y-67044268D01*
X174140950Y-67043186D01*
X174150037Y-67041864D01*
X174158895Y-67040303D01*
X174167516Y-67038502D01*
X174175890Y-67036464D01*
X174184009Y-67034186D01*
X174191863Y-67031671D01*
X174199444Y-67028918D01*
X174206742Y-67025928D01*
X174213749Y-67022701D01*
X174220456Y-67019237D01*
X174226853Y-67015536D01*
X174232932Y-67011599D01*
X174238684Y-67007427D01*
X174244099Y-67003019D01*
X174249170Y-66998376D01*
X174253886Y-66993498D01*
X174258239Y-66988386D01*
X174262220Y-66983039D01*
X174265820Y-66977458D01*
X174269030Y-66971644D01*
X174271842Y-66965597D01*
X174274245Y-66959317D01*
X174276231Y-66952804D01*
X174277792Y-66946059D01*
X174278918Y-66939082D01*
X174279600Y-66931874D01*
X174279829Y-66924434D01*
X174279682Y-66918245D01*
X174279246Y-66912324D01*
X174278526Y-66906666D01*
X174277529Y-66901264D01*
X174276263Y-66896113D01*
X174274733Y-66891208D01*
X174272945Y-66886542D01*
X174270907Y-66882109D01*
X174268624Y-66877904D01*
X174266104Y-66873921D01*
X174263353Y-66870154D01*
X174260376Y-66866598D01*
X174257182Y-66863246D01*
X174253775Y-66860092D01*
X174250163Y-66857132D01*
X174246353Y-66854359D01*
X174242349Y-66851767D01*
X174238160Y-66849351D01*
X174229251Y-66845023D01*
X174219675Y-66841327D01*
X174209485Y-66838218D01*
X174198733Y-66835648D01*
X174187471Y-66833573D01*
X174175751Y-66831945D01*
X174163624Y-66830718D01*
X173994925Y-66815742D01*
X173965919Y-66812340D01*
X173937987Y-66807063D01*
X173924458Y-66803728D01*
X173911239Y-66799930D01*
X173898344Y-66795673D01*
X173885787Y-66790958D01*
X173873580Y-66785786D01*
X173861738Y-66780162D01*
X173850275Y-66774085D01*
X173839205Y-66767559D01*
X173828540Y-66760586D01*
X173818296Y-66753167D01*
X173808484Y-66745305D01*
X173799121Y-66737002D01*
X173790218Y-66728260D01*
X173781790Y-66719081D01*
X173773851Y-66709467D01*
X173766413Y-66699421D01*
X173759492Y-66688943D01*
X173753101Y-66678038D01*
X173747253Y-66666705D01*
X173741962Y-66654948D01*
X173737243Y-66642769D01*
X173733108Y-66630170D01*
X173729571Y-66617153D01*
X173726647Y-66603719D01*
X173724349Y-66589872D01*
X173722690Y-66575613D01*
X173721684Y-66560944D01*
X173721346Y-66545867D01*
X173721793Y-66528044D01*
X173723121Y-66510772D01*
X173725310Y-66494050D01*
X173728341Y-66477881D01*
X173732194Y-66462265D01*
X173736849Y-66447203D01*
X173742288Y-66432697D01*
X173748490Y-66418747D01*
X173755436Y-66405354D01*
X173763106Y-66392519D01*
X173771482Y-66380244D01*
X173780542Y-66368529D01*
X173790268Y-66357376D01*
X173800640Y-66346785D01*
X173811638Y-66336758D01*
X173823244Y-66327295D01*
X173835437Y-66318398D01*
X173848198Y-66310067D01*
X173861507Y-66302304D01*
X173875345Y-66295110D01*
X173889692Y-66288485D01*
X173904528Y-66282431D01*
X173935592Y-66272039D01*
X173968379Y-66263942D01*
X174002734Y-66258148D01*
X174038499Y-66254666D01*
X174075518Y-66253503D01*
X174106181Y-66254091D01*
G37*
G36*
X177313761Y-67754620D02*
G01*
X177333156Y-67755973D01*
X177352330Y-67758213D01*
X177371254Y-67761328D01*
X177389901Y-67765307D01*
X177408242Y-67770137D01*
X177426250Y-67775806D01*
X177443896Y-67782302D01*
X177461152Y-67789614D01*
X177477990Y-67797729D01*
X177494382Y-67806635D01*
X177510300Y-67816320D01*
X177525715Y-67826772D01*
X177540600Y-67837980D01*
X177554926Y-67849931D01*
X177568665Y-67862612D01*
X177581790Y-67876014D01*
X177594271Y-67890122D01*
X177606082Y-67904925D01*
X177617193Y-67920412D01*
X177627577Y-67936570D01*
X177637206Y-67953387D01*
X177646051Y-67970851D01*
X177654084Y-67988950D01*
X177661278Y-68007673D01*
X177667604Y-68027006D01*
X177673033Y-68046939D01*
X177677539Y-68067459D01*
X177681092Y-68088553D01*
X177683665Y-68110211D01*
X177685229Y-68132421D01*
X177685757Y-68155169D01*
X177685757Y-68312702D01*
X177093672Y-68312702D01*
X177093950Y-68327052D01*
X177094777Y-68340953D01*
X177096141Y-68354403D01*
X177098033Y-68367402D01*
X177100440Y-68379951D01*
X177103352Y-68392048D01*
X177106758Y-68403693D01*
X177110647Y-68414886D01*
X177115008Y-68425626D01*
X177119830Y-68435914D01*
X177125103Y-68445748D01*
X177130814Y-68455129D01*
X177136954Y-68464055D01*
X177143511Y-68472528D01*
X177150475Y-68480545D01*
X177157834Y-68488108D01*
X177165577Y-68495215D01*
X177173694Y-68501866D01*
X177182174Y-68508061D01*
X177191005Y-68513799D01*
X177200177Y-68519080D01*
X177209679Y-68523904D01*
X177219499Y-68528271D01*
X177229627Y-68532179D01*
X177240052Y-68535629D01*
X177250763Y-68538620D01*
X177261749Y-68541152D01*
X177272999Y-68543225D01*
X177284502Y-68544837D01*
X177296247Y-68545989D01*
X177308224Y-68546681D01*
X177320420Y-68546912D01*
X177334163Y-68546519D01*
X177348000Y-68545352D01*
X177361889Y-68543422D01*
X177375789Y-68540743D01*
X177389659Y-68537329D01*
X177403457Y-68533193D01*
X177417142Y-68528348D01*
X177430672Y-68522808D01*
X177444006Y-68516586D01*
X177457103Y-68509694D01*
X177469921Y-68502148D01*
X177482419Y-68493959D01*
X177494556Y-68485141D01*
X177506289Y-68475708D01*
X177517579Y-68465672D01*
X177528382Y-68455048D01*
X177667077Y-68573158D01*
X177649182Y-68592796D01*
X177630663Y-68610967D01*
X177611552Y-68627701D01*
X177591882Y-68643023D01*
X177571686Y-68656962D01*
X177550996Y-68669545D01*
X177529846Y-68680799D01*
X177508268Y-68690752D01*
X177486295Y-68699432D01*
X177463960Y-68706865D01*
X177441295Y-68713079D01*
X177418334Y-68718102D01*
X177395108Y-68721961D01*
X177371652Y-68724684D01*
X177347998Y-68726297D01*
X177324178Y-68726829D01*
X177287316Y-68725680D01*
X177250088Y-68722038D01*
X177212871Y-68715605D01*
X177176046Y-68706086D01*
X177139990Y-68693184D01*
X177122369Y-68685371D01*
X177105082Y-68676602D01*
X177088177Y-68666838D01*
X177071702Y-68656044D01*
X177055702Y-68644182D01*
X177040227Y-68631215D01*
X177025323Y-68617105D01*
X177011037Y-68601817D01*
X176997417Y-68585312D01*
X176984510Y-68567554D01*
X176972363Y-68548505D01*
X176961025Y-68528130D01*
X176950541Y-68506390D01*
X176940960Y-68483249D01*
X176932329Y-68458669D01*
X176924695Y-68432614D01*
X176918106Y-68405046D01*
X176912609Y-68375929D01*
X176908251Y-68345225D01*
X176905079Y-68312897D01*
X176903141Y-68278909D01*
X176902485Y-68243223D01*
X176903087Y-68209341D01*
X176904866Y-68176897D01*
X176906900Y-68155221D01*
X177093672Y-68155221D01*
X177494675Y-68155221D01*
X177493930Y-68141891D01*
X177492743Y-68128957D01*
X177491122Y-68116422D01*
X177489076Y-68104286D01*
X177486614Y-68092553D01*
X177483744Y-68081224D01*
X177480475Y-68070299D01*
X177476816Y-68059782D01*
X177472774Y-68049674D01*
X177468359Y-68039977D01*
X177463579Y-68030692D01*
X177458443Y-68021821D01*
X177452959Y-68013365D01*
X177447137Y-68005328D01*
X177440984Y-67997709D01*
X177434509Y-67990512D01*
X177427721Y-67983738D01*
X177420628Y-67977387D01*
X177413240Y-67971464D01*
X177405564Y-67965968D01*
X177397610Y-67960902D01*
X177389385Y-67956267D01*
X177380899Y-67952065D01*
X177372160Y-67948299D01*
X177363176Y-67944969D01*
X177353957Y-67942077D01*
X177344511Y-67939625D01*
X177334846Y-67937616D01*
X177324971Y-67936050D01*
X177314895Y-67934929D01*
X177304626Y-67934255D01*
X177294173Y-67934030D01*
X177283715Y-67934255D01*
X177273432Y-67934929D01*
X177263332Y-67936050D01*
X177253425Y-67937616D01*
X177243722Y-67939625D01*
X177234231Y-67942077D01*
X177224963Y-67944969D01*
X177215927Y-67948298D01*
X177207133Y-67952065D01*
X177198589Y-67956267D01*
X177190307Y-67960901D01*
X177182295Y-67965968D01*
X177174563Y-67971463D01*
X177167121Y-67977387D01*
X177159978Y-67983737D01*
X177153144Y-67990512D01*
X177146629Y-67997709D01*
X177140442Y-68005327D01*
X177134593Y-68013365D01*
X177129091Y-68021820D01*
X177123946Y-68030691D01*
X177119168Y-68039977D01*
X177114766Y-68049674D01*
X177110751Y-68059782D01*
X177107130Y-68070299D01*
X177103915Y-68081223D01*
X177101115Y-68092553D01*
X177098739Y-68104286D01*
X177096797Y-68116421D01*
X177095299Y-68128957D01*
X177094254Y-68141891D01*
X177093672Y-68155221D01*
X176906900Y-68155221D01*
X176907778Y-68145865D01*
X176911782Y-68116223D01*
X176916834Y-68087947D01*
X176922892Y-68061012D01*
X176929914Y-68035396D01*
X176937857Y-68011074D01*
X176946679Y-67988023D01*
X176956336Y-67966220D01*
X176966787Y-67945640D01*
X176977988Y-67926260D01*
X176989898Y-67908056D01*
X177002474Y-67891004D01*
X177015672Y-67875082D01*
X177029452Y-67860265D01*
X177043769Y-67846529D01*
X177058582Y-67833851D01*
X177073849Y-67822207D01*
X177089525Y-67811573D01*
X177105570Y-67801927D01*
X177121939Y-67793243D01*
X177138592Y-67785499D01*
X177155485Y-67778670D01*
X177172576Y-67772734D01*
X177189822Y-67767666D01*
X177207180Y-67763442D01*
X177224609Y-67760040D01*
X177259506Y-67755603D01*
X177294173Y-67754166D01*
X177313761Y-67754620D01*
G37*
G36*
X178344992Y-66253850D02*
G01*
X178364380Y-66255203D01*
X178383548Y-66257443D01*
X178402469Y-66260559D01*
X178421113Y-66264538D01*
X178439453Y-66269368D01*
X178457461Y-66275037D01*
X178475108Y-66281534D01*
X178492367Y-66288846D01*
X178509208Y-66296962D01*
X178525604Y-66305869D01*
X178541527Y-66315556D01*
X178556948Y-66326009D01*
X178571839Y-66337219D01*
X178586172Y-66349172D01*
X178599919Y-66361856D01*
X178613051Y-66375260D01*
X178625540Y-66389371D01*
X178637359Y-66404178D01*
X178648478Y-66419668D01*
X178658870Y-66435830D01*
X178668506Y-66452651D01*
X178677359Y-66470120D01*
X178685399Y-66488225D01*
X178692599Y-66506953D01*
X178698931Y-66526293D01*
X178704366Y-66546233D01*
X178708876Y-66566760D01*
X178712433Y-66587863D01*
X178715009Y-66609529D01*
X178716575Y-66631747D01*
X178717103Y-66654505D01*
X178717103Y-66811932D01*
X178124912Y-66811932D01*
X178125190Y-66826291D01*
X178126017Y-66840201D01*
X178127382Y-66853659D01*
X178129273Y-66866667D01*
X178131680Y-66879222D01*
X178134592Y-66891326D01*
X178137998Y-66902977D01*
X178141887Y-66914176D01*
X178146248Y-66924922D01*
X178151070Y-66935214D01*
X178156343Y-66945053D01*
X178162054Y-66954438D01*
X178168194Y-66963368D01*
X178174752Y-66971844D01*
X178181715Y-66979864D01*
X178189074Y-66987429D01*
X178196818Y-66994538D01*
X178204935Y-67001192D01*
X178213414Y-67007388D01*
X178222245Y-67013128D01*
X178231417Y-67018411D01*
X178240919Y-67023236D01*
X178250739Y-67027603D01*
X178260867Y-67031512D01*
X178271293Y-67034963D01*
X178282004Y-67037954D01*
X178292990Y-67040486D01*
X178304240Y-67042559D01*
X178315743Y-67044172D01*
X178327488Y-67045324D01*
X178339464Y-67046016D01*
X178351661Y-67046246D01*
X178365421Y-67045853D01*
X178379271Y-67044682D01*
X178393169Y-67042748D01*
X178407074Y-67040063D01*
X178420946Y-67036643D01*
X178434744Y-67032500D01*
X178448426Y-67027649D01*
X178461952Y-67022103D01*
X178475281Y-67015877D01*
X178488371Y-67008983D01*
X178501183Y-67001436D01*
X178513675Y-66993249D01*
X178525805Y-66984437D01*
X178537534Y-66975012D01*
X178548821Y-66964990D01*
X178559623Y-66954383D01*
X178698318Y-67072388D01*
X178680440Y-67092025D01*
X178661934Y-67110197D01*
X178642832Y-67126930D01*
X178623167Y-67142252D01*
X178602973Y-67156191D01*
X178582283Y-67168774D01*
X178561130Y-67180028D01*
X178539548Y-67189981D01*
X178517570Y-67198661D01*
X178495228Y-67206094D01*
X178472557Y-67212308D01*
X178449589Y-67217331D01*
X178426358Y-67221190D01*
X178402897Y-67223912D01*
X178379239Y-67225526D01*
X178355418Y-67226057D01*
X178318556Y-67224909D01*
X178281328Y-67221267D01*
X178244111Y-67214835D01*
X178207286Y-67205317D01*
X178171230Y-67192416D01*
X178153609Y-67184604D01*
X178136322Y-67175836D01*
X178119418Y-67166075D01*
X178102942Y-67155282D01*
X178086943Y-67143422D01*
X178071467Y-67130457D01*
X178056563Y-67116350D01*
X178042277Y-67101065D01*
X178028657Y-67084563D01*
X178015750Y-67066809D01*
X178003603Y-67047765D01*
X177992265Y-67027394D01*
X177981781Y-67005659D01*
X177972200Y-66982523D01*
X177963569Y-66957949D01*
X177955936Y-66931900D01*
X177949346Y-66904339D01*
X177943849Y-66875229D01*
X177939491Y-66844533D01*
X177936319Y-66812214D01*
X177934381Y-66778235D01*
X177933725Y-66742558D01*
X177934327Y-66708677D01*
X177936105Y-66676231D01*
X177938138Y-66654558D01*
X178124912Y-66654558D01*
X178525915Y-66654558D01*
X178525161Y-66641219D01*
X178523965Y-66628277D01*
X178522338Y-66615734D01*
X178520286Y-66603593D01*
X178517819Y-66591855D01*
X178514945Y-66580521D01*
X178511673Y-66569594D01*
X178508011Y-66559075D01*
X178503967Y-66548965D01*
X178499551Y-66539267D01*
X178494771Y-66529982D01*
X178489636Y-66521111D01*
X178484153Y-66512657D01*
X178478332Y-66504621D01*
X178472181Y-66497004D01*
X178465708Y-66489809D01*
X178458923Y-66483037D01*
X178451833Y-66476690D01*
X178444448Y-66470769D01*
X178436776Y-66465277D01*
X178428824Y-66460214D01*
X178420603Y-66455582D01*
X178412120Y-66451384D01*
X178403384Y-66447621D01*
X178394404Y-66444294D01*
X178385187Y-66441405D01*
X178375743Y-66438956D01*
X178366081Y-66436948D01*
X178356208Y-66435384D01*
X178346133Y-66434265D01*
X178335865Y-66433592D01*
X178325413Y-66433367D01*
X178314955Y-66433592D01*
X178304671Y-66434265D01*
X178294571Y-66435384D01*
X178284665Y-66436948D01*
X178274962Y-66438956D01*
X178265471Y-66441405D01*
X178256203Y-66444294D01*
X178247167Y-66447621D01*
X178238372Y-66451384D01*
X178229829Y-66455582D01*
X178221546Y-66460214D01*
X178213534Y-66465277D01*
X178205803Y-66470769D01*
X178198360Y-66476690D01*
X178191218Y-66483037D01*
X178184384Y-66489809D01*
X178177868Y-66497004D01*
X178171681Y-66504620D01*
X178165832Y-66512657D01*
X178160330Y-66521111D01*
X178155186Y-66529981D01*
X178150407Y-66539267D01*
X178146006Y-66548965D01*
X178141990Y-66559074D01*
X178138370Y-66569594D01*
X178135155Y-66580521D01*
X178132354Y-66591855D01*
X178129978Y-66603593D01*
X178128037Y-66615734D01*
X178126538Y-66628276D01*
X178125494Y-66641218D01*
X178124912Y-66654558D01*
X177938138Y-66654558D01*
X177939016Y-66645198D01*
X177943018Y-66615554D01*
X177948068Y-66587275D01*
X177954123Y-66560338D01*
X177961142Y-66534718D01*
X177969082Y-66510393D01*
X177977901Y-66487339D01*
X177987555Y-66465531D01*
X177998002Y-66444947D01*
X178009200Y-66425562D01*
X178021107Y-66407353D01*
X178033679Y-66390297D01*
X178046875Y-66374370D01*
X178060652Y-66359548D01*
X178074967Y-66345807D01*
X178089778Y-66333124D01*
X178105043Y-66321475D01*
X178120718Y-66310837D01*
X178136762Y-66301186D01*
X178153132Y-66292498D01*
X178169786Y-66284749D01*
X178186680Y-66277917D01*
X178203773Y-66271977D01*
X178221022Y-66266906D01*
X178238385Y-66262679D01*
X178255818Y-66259274D01*
X178290729Y-66254834D01*
X178325414Y-66253397D01*
X178344992Y-66253850D01*
G37*
G36*
X171848528Y-66253850D02*
G01*
X171867924Y-66255203D01*
X171887098Y-66257443D01*
X171906023Y-66260559D01*
X171924671Y-66264538D01*
X171943014Y-66269368D01*
X171961024Y-66275037D01*
X171978671Y-66281534D01*
X171995929Y-66288846D01*
X172012769Y-66296962D01*
X172029163Y-66305869D01*
X172045083Y-66315556D01*
X172060501Y-66326009D01*
X172075388Y-66337219D01*
X172089717Y-66349172D01*
X172103459Y-66361856D01*
X172116586Y-66375260D01*
X172129070Y-66389371D01*
X172140883Y-66404178D01*
X172151997Y-66419668D01*
X172162383Y-66435830D01*
X172172014Y-66452651D01*
X172180861Y-66470120D01*
X172188896Y-66488225D01*
X172196091Y-66506953D01*
X172202419Y-66526293D01*
X172207850Y-66546233D01*
X172212356Y-66566760D01*
X172215910Y-66587863D01*
X172218484Y-66609529D01*
X172220049Y-66631747D01*
X172220577Y-66654505D01*
X172220577Y-66811932D01*
X171628386Y-66811932D01*
X171628664Y-66826291D01*
X171629491Y-66840201D01*
X171630856Y-66853659D01*
X171632749Y-66866667D01*
X171635157Y-66879222D01*
X171638071Y-66891326D01*
X171641478Y-66902977D01*
X171645369Y-66914176D01*
X171649732Y-66924922D01*
X171654556Y-66935214D01*
X171659831Y-66945053D01*
X171665545Y-66954438D01*
X171671687Y-66963368D01*
X171678246Y-66971844D01*
X171685212Y-66979864D01*
X171692574Y-66987429D01*
X171700320Y-66994538D01*
X171708439Y-67001192D01*
X171716921Y-67007388D01*
X171725755Y-67013128D01*
X171734929Y-67018411D01*
X171744433Y-67023236D01*
X171754255Y-67027603D01*
X171764385Y-67031512D01*
X171774812Y-67034963D01*
X171785525Y-67037954D01*
X171796512Y-67040486D01*
X171807763Y-67042559D01*
X171819267Y-67044172D01*
X171831013Y-67045324D01*
X171842990Y-67046016D01*
X171855187Y-67046246D01*
X171868948Y-67045853D01*
X171882799Y-67044682D01*
X171896700Y-67042748D01*
X171910608Y-67040063D01*
X171924483Y-67036643D01*
X171938284Y-67032500D01*
X171951970Y-67027649D01*
X171965498Y-67022103D01*
X171978829Y-67015877D01*
X171991921Y-67008983D01*
X172004733Y-67001436D01*
X172017223Y-66993249D01*
X172029351Y-66984437D01*
X172041076Y-66975012D01*
X172052356Y-66964990D01*
X172063149Y-66954383D01*
X172201844Y-67072388D01*
X172183949Y-67092025D01*
X172165430Y-67110197D01*
X172146318Y-67126930D01*
X172126648Y-67142252D01*
X172106451Y-67156191D01*
X172085760Y-67168774D01*
X172064608Y-67180028D01*
X172043028Y-67189981D01*
X172021052Y-67198661D01*
X171998713Y-67206094D01*
X171976044Y-67212308D01*
X171953078Y-67217331D01*
X171929846Y-67221190D01*
X171906383Y-67223912D01*
X171882720Y-67225526D01*
X171858891Y-67226057D01*
X171822039Y-67224909D01*
X171784818Y-67221267D01*
X171747609Y-67214835D01*
X171710790Y-67205317D01*
X171674739Y-67192416D01*
X171657120Y-67184604D01*
X171639836Y-67175836D01*
X171622933Y-67166075D01*
X171606459Y-67155282D01*
X171590461Y-67143422D01*
X171574987Y-67130457D01*
X171560083Y-67116350D01*
X171545798Y-67101065D01*
X171532179Y-67084563D01*
X171519273Y-67066809D01*
X171507127Y-67047765D01*
X171495789Y-67027394D01*
X171485306Y-67005659D01*
X171475726Y-66982523D01*
X171467095Y-66957949D01*
X171459461Y-66931900D01*
X171452872Y-66904339D01*
X171447375Y-66875229D01*
X171443017Y-66844533D01*
X171439845Y-66812214D01*
X171437908Y-66778235D01*
X171437251Y-66742558D01*
X171437853Y-66708677D01*
X171439632Y-66676231D01*
X171441665Y-66654558D01*
X171628386Y-66654558D01*
X172029442Y-66654558D01*
X172028692Y-66641219D01*
X172027501Y-66628277D01*
X172025877Y-66615734D01*
X172023828Y-66603593D01*
X172021363Y-66591855D01*
X172018491Y-66580521D01*
X172015221Y-66569594D01*
X172011560Y-66559075D01*
X172007517Y-66548965D01*
X172003102Y-66539267D01*
X171998322Y-66529982D01*
X171993186Y-66521111D01*
X171987703Y-66512657D01*
X171981881Y-66504621D01*
X171975729Y-66497004D01*
X171969255Y-66489809D01*
X171962469Y-66483037D01*
X171955378Y-66476690D01*
X171947991Y-66470769D01*
X171940317Y-66465277D01*
X171932364Y-66460214D01*
X171924141Y-66455582D01*
X171915656Y-66451384D01*
X171906919Y-66447621D01*
X171897937Y-66444294D01*
X171888719Y-66441405D01*
X171879274Y-66438956D01*
X171869610Y-66436948D01*
X171859737Y-66435384D01*
X171849661Y-66434265D01*
X171839393Y-66433592D01*
X171828940Y-66433367D01*
X171818482Y-66433592D01*
X171808198Y-66434265D01*
X171798098Y-66435384D01*
X171788192Y-66436948D01*
X171778489Y-66438956D01*
X171768998Y-66441405D01*
X171759729Y-66444294D01*
X171750693Y-66447621D01*
X171741898Y-66451384D01*
X171733354Y-66455582D01*
X171725071Y-66460214D01*
X171717059Y-66465277D01*
X171709326Y-66470769D01*
X171701883Y-66476690D01*
X171694739Y-66483037D01*
X171687904Y-66489809D01*
X171681387Y-66497004D01*
X171675199Y-66504620D01*
X171669348Y-66512657D01*
X171663844Y-66521111D01*
X171658698Y-66529981D01*
X171653917Y-66539267D01*
X171649513Y-66548965D01*
X171645495Y-66559074D01*
X171641871Y-66569594D01*
X171638653Y-66580521D01*
X171635850Y-66591855D01*
X171633470Y-66603593D01*
X171631524Y-66615734D01*
X171630022Y-66628276D01*
X171628973Y-66641218D01*
X171628386Y-66654558D01*
X171441665Y-66654558D01*
X171442543Y-66645198D01*
X171446546Y-66615554D01*
X171451597Y-66587275D01*
X171457654Y-66560338D01*
X171464675Y-66534718D01*
X171472616Y-66510393D01*
X171481436Y-66487339D01*
X171491092Y-66465531D01*
X171501541Y-66444947D01*
X171512740Y-66425562D01*
X171524649Y-66407353D01*
X171537223Y-66390297D01*
X171550420Y-66374370D01*
X171564198Y-66359548D01*
X171578515Y-66345807D01*
X171593327Y-66333124D01*
X171608592Y-66321475D01*
X171624268Y-66310837D01*
X171640312Y-66301186D01*
X171656682Y-66292498D01*
X171673335Y-66284749D01*
X171690229Y-66277917D01*
X171707321Y-66271977D01*
X171724568Y-66266906D01*
X171741929Y-66262679D01*
X171759360Y-66259274D01*
X171794264Y-66254834D01*
X171828940Y-66253397D01*
X171848528Y-66253850D01*
G37*
G36*
X176951408Y-66253724D02*
G01*
X176965369Y-66254692D01*
X176979041Y-66256287D01*
X176992436Y-66258490D01*
X177005565Y-66261287D01*
X177018440Y-66264660D01*
X177031073Y-66268593D01*
X177043475Y-66273069D01*
X177055658Y-66278072D01*
X177067634Y-66283587D01*
X177079414Y-66289595D01*
X177091011Y-66296081D01*
X177102436Y-66303029D01*
X177113700Y-66310421D01*
X177124815Y-66318242D01*
X177135794Y-66326475D01*
X176997099Y-66491417D01*
X176988813Y-66485336D01*
X176980791Y-66479727D01*
X176972989Y-66474578D01*
X176965364Y-66469879D01*
X176957871Y-66465619D01*
X176950466Y-66461786D01*
X176943104Y-66458371D01*
X176935742Y-66455361D01*
X176928336Y-66452746D01*
X176920840Y-66450515D01*
X176913212Y-66448658D01*
X176905406Y-66447163D01*
X176897379Y-66446019D01*
X176889087Y-66445215D01*
X176880484Y-66444741D01*
X176871528Y-66444585D01*
X176853992Y-66445293D01*
X176836634Y-66447432D01*
X176819587Y-66451033D01*
X176802981Y-66456120D01*
X176794885Y-66459231D01*
X176786948Y-66462724D01*
X176779188Y-66466602D01*
X176771620Y-66470869D01*
X176764261Y-66475530D01*
X176757127Y-66480586D01*
X176750235Y-66486041D01*
X176743602Y-66491900D01*
X176737243Y-66498164D01*
X176731176Y-66504839D01*
X176725416Y-66511927D01*
X176719980Y-66519431D01*
X176714884Y-66527356D01*
X176710146Y-66535704D01*
X176705780Y-66544479D01*
X176701805Y-66553684D01*
X176698235Y-66563323D01*
X176695088Y-66573400D01*
X176692381Y-66583917D01*
X176690128Y-66594879D01*
X176688348Y-66606288D01*
X176687056Y-66618148D01*
X176686268Y-66630462D01*
X176686002Y-66643235D01*
X176686002Y-67214787D01*
X176494814Y-67214787D01*
X176494814Y-66264668D01*
X176686002Y-66264668D01*
X176686002Y-66365845D01*
X176689707Y-66365845D01*
X176701255Y-66352235D01*
X176713403Y-66339501D01*
X176726135Y-66327644D01*
X176739435Y-66316664D01*
X176753284Y-66306562D01*
X176767668Y-66297338D01*
X176782568Y-66288991D01*
X176797968Y-66281523D01*
X176813851Y-66274932D01*
X176830200Y-66269220D01*
X176846999Y-66264386D01*
X176864230Y-66260430D01*
X176881877Y-66257354D01*
X176899923Y-66255156D01*
X176918352Y-66253837D01*
X176937145Y-66253397D01*
X176951408Y-66253724D01*
G37*
G36*
X172839931Y-66253732D02*
G01*
X172853952Y-66254734D01*
X172882114Y-66258730D01*
X172910204Y-66265367D01*
X172937944Y-66274625D01*
X172951597Y-66280232D01*
X172965059Y-66286486D01*
X172978294Y-66293387D01*
X172991269Y-66300931D01*
X173003949Y-66309116D01*
X173016300Y-66317940D01*
X173028285Y-66327401D01*
X173039872Y-66337495D01*
X173051025Y-66348221D01*
X173061709Y-66359576D01*
X173071890Y-66371558D01*
X173081534Y-66384164D01*
X173090605Y-66397393D01*
X173099069Y-66411241D01*
X173106892Y-66425706D01*
X173114038Y-66440787D01*
X173120473Y-66456479D01*
X173126163Y-66472782D01*
X173131072Y-66489693D01*
X173135166Y-66507209D01*
X173138411Y-66525328D01*
X173140772Y-66544048D01*
X173142214Y-66563366D01*
X173142702Y-66583279D01*
X173142702Y-67214787D01*
X172951567Y-67214787D01*
X172951567Y-66648950D01*
X172951333Y-66636981D01*
X172950636Y-66625334D01*
X172949487Y-66614014D01*
X172947896Y-66603025D01*
X172945872Y-66592369D01*
X172943425Y-66582051D01*
X172940567Y-66572075D01*
X172937305Y-66562444D01*
X172933651Y-66553162D01*
X172929615Y-66544233D01*
X172925205Y-66535660D01*
X172920433Y-66527448D01*
X172915308Y-66519600D01*
X172909841Y-66512119D01*
X172904040Y-66505010D01*
X172897916Y-66498277D01*
X172891480Y-66491922D01*
X172884740Y-66485950D01*
X172877707Y-66480365D01*
X172870391Y-66475170D01*
X172862802Y-66470369D01*
X172854950Y-66465966D01*
X172846844Y-66461964D01*
X172838495Y-66458368D01*
X172829913Y-66455181D01*
X172821107Y-66452407D01*
X172812087Y-66450049D01*
X172802864Y-66448111D01*
X172793448Y-66446598D01*
X172783848Y-66445512D01*
X172774074Y-66444858D01*
X172764136Y-66444639D01*
X172754031Y-66444858D01*
X172744099Y-66445512D01*
X172734351Y-66446598D01*
X172724797Y-66448111D01*
X172715446Y-66450049D01*
X172706307Y-66452406D01*
X172697391Y-66455181D01*
X172688707Y-66458368D01*
X172680264Y-66461964D01*
X172672073Y-66465966D01*
X172664142Y-66470369D01*
X172656481Y-66475170D01*
X172649101Y-66480365D01*
X172642010Y-66485950D01*
X172635219Y-66491922D01*
X172628736Y-66498276D01*
X172622571Y-66505010D01*
X172616735Y-66512119D01*
X172611236Y-66519599D01*
X172606085Y-66527447D01*
X172601290Y-66535660D01*
X172596862Y-66544232D01*
X172592810Y-66553161D01*
X172589144Y-66562443D01*
X172585873Y-66572074D01*
X172583007Y-66582051D01*
X172580556Y-66592369D01*
X172578529Y-66603024D01*
X172576935Y-66614014D01*
X172575785Y-66625334D01*
X172575088Y-66636981D01*
X172574853Y-66648950D01*
X172574853Y-67214787D01*
X172383718Y-67214787D01*
X172383718Y-66264668D01*
X172574853Y-66264668D01*
X172574853Y-66365845D01*
X172578663Y-66365845D01*
X172590201Y-66352235D01*
X172602339Y-66339501D01*
X172615062Y-66327644D01*
X172628352Y-66316664D01*
X172642193Y-66306562D01*
X172656567Y-66297338D01*
X172671459Y-66288991D01*
X172686851Y-66281523D01*
X172702727Y-66274932D01*
X172719070Y-66269220D01*
X172735863Y-66264386D01*
X172753090Y-66260430D01*
X172770733Y-66257354D01*
X172788776Y-66255156D01*
X172807203Y-66253837D01*
X172825996Y-66253397D01*
X172839931Y-66253732D01*
G37*
G36*
X175717363Y-66830612D02*
G01*
X175717598Y-66842572D01*
X175718295Y-66854210D01*
X175719445Y-66865523D01*
X175721038Y-66876507D01*
X175723065Y-66887158D01*
X175725517Y-66897472D01*
X175728382Y-66907445D01*
X175731653Y-66917073D01*
X175735319Y-66926354D01*
X175739370Y-66935282D01*
X175743798Y-66943855D01*
X175748592Y-66952067D01*
X175753742Y-66959917D01*
X175759240Y-66967399D01*
X175765076Y-66974510D01*
X175771239Y-66981245D01*
X175777720Y-66987603D01*
X175784510Y-66993577D01*
X175791600Y-66999166D01*
X175798978Y-67004364D01*
X175806637Y-67009168D01*
X175814565Y-67013574D01*
X175822754Y-67017579D01*
X175831194Y-67021178D01*
X175839875Y-67024369D01*
X175848788Y-67027146D01*
X175857924Y-67029506D01*
X175867271Y-67031446D01*
X175876821Y-67032961D01*
X175886565Y-67034048D01*
X175896492Y-67034704D01*
X175906593Y-67034923D01*
X175916535Y-67034704D01*
X175926314Y-67034048D01*
X175935918Y-67032961D01*
X175945338Y-67031446D01*
X175954565Y-67029506D01*
X175963588Y-67027146D01*
X175972397Y-67024369D01*
X175980982Y-67021178D01*
X175989334Y-67017579D01*
X175997442Y-67013574D01*
X176005296Y-67009168D01*
X176012888Y-67004364D01*
X176020205Y-66999166D01*
X176027240Y-66993577D01*
X176033981Y-66987603D01*
X176040419Y-66981245D01*
X176046544Y-66974510D01*
X176052345Y-66967399D01*
X176057814Y-66959917D01*
X176062940Y-66952067D01*
X176067713Y-66943855D01*
X176072122Y-66935282D01*
X176076160Y-66926354D01*
X176079814Y-66917073D01*
X176083075Y-66907445D01*
X176085935Y-66897472D01*
X176088381Y-66887158D01*
X176090405Y-66876507D01*
X176091996Y-66865523D01*
X176093145Y-66854210D01*
X176093842Y-66842572D01*
X176094077Y-66830612D01*
X176094077Y-66264667D01*
X176285159Y-66264667D01*
X176285159Y-67214893D01*
X176094077Y-67214893D01*
X176094077Y-67113610D01*
X176090373Y-67113610D01*
X176078825Y-67127221D01*
X176066680Y-67139955D01*
X176053957Y-67151812D01*
X176040675Y-67162791D01*
X176026855Y-67172893D01*
X176012515Y-67182117D01*
X175997675Y-67190464D01*
X175982356Y-67197932D01*
X175966577Y-67204523D01*
X175950357Y-67210235D01*
X175933717Y-67215069D01*
X175916675Y-67219024D01*
X175899252Y-67222101D01*
X175881468Y-67224299D01*
X175863341Y-67225618D01*
X175844892Y-67226057D01*
X175830789Y-67225723D01*
X175816609Y-67224721D01*
X175788160Y-67220725D01*
X175759821Y-67214089D01*
X175745777Y-67209787D01*
X175731865Y-67204831D01*
X175718116Y-67199226D01*
X175704567Y-67192972D01*
X175691250Y-67186072D01*
X175678202Y-67178529D01*
X175665455Y-67170346D01*
X175653044Y-67161523D01*
X175641004Y-67152065D01*
X175629369Y-67141973D01*
X175618173Y-67131250D01*
X175607451Y-67119898D01*
X175597236Y-67107919D01*
X175587563Y-67095317D01*
X175578468Y-67082092D01*
X175569982Y-67068249D01*
X175562143Y-67053788D01*
X175554982Y-67038713D01*
X175548536Y-67023026D01*
X175542837Y-67006730D01*
X175537921Y-66989826D01*
X175533822Y-66972317D01*
X175530574Y-66954206D01*
X175528212Y-66935494D01*
X175526769Y-66916186D01*
X175526281Y-66896281D01*
X175526281Y-66264667D01*
X175717363Y-66264667D01*
X175717363Y-66830612D01*
G37*
G36*
X173820671Y-68715610D02*
G01*
X173629536Y-68715610D01*
X173629536Y-68616285D01*
X173617969Y-68628323D01*
X173605770Y-68639846D01*
X173592966Y-68650818D01*
X173579585Y-68661203D01*
X173565654Y-68670964D01*
X173551201Y-68680067D01*
X173536253Y-68688474D01*
X173520838Y-68696149D01*
X173504984Y-68703057D01*
X173488717Y-68709161D01*
X173472066Y-68714425D01*
X173455057Y-68718812D01*
X173437719Y-68722288D01*
X173420079Y-68724815D01*
X173402164Y-68726358D01*
X173384002Y-68726881D01*
X173373202Y-68726728D01*
X173362587Y-68726274D01*
X173352159Y-68725524D01*
X173341917Y-68724486D01*
X173331861Y-68723165D01*
X173321990Y-68721567D01*
X173312303Y-68719698D01*
X173302801Y-68717566D01*
X173293483Y-68715175D01*
X173284349Y-68712532D01*
X173275398Y-68709643D01*
X173266630Y-68706515D01*
X173258045Y-68703154D01*
X173249642Y-68699565D01*
X173233382Y-68691731D01*
X173217846Y-68683062D01*
X173203033Y-68673607D01*
X173188939Y-68663417D01*
X173175561Y-68652541D01*
X173162897Y-68641028D01*
X173150943Y-68628927D01*
X173139697Y-68616289D01*
X173129155Y-68603162D01*
X173119747Y-68590534D01*
X173111185Y-68577778D01*
X173103436Y-68564634D01*
X173096468Y-68550839D01*
X173090247Y-68536134D01*
X173084740Y-68520258D01*
X173079914Y-68502949D01*
X173075736Y-68483947D01*
X173072174Y-68462991D01*
X173069193Y-68439820D01*
X173066762Y-68414174D01*
X173064847Y-68385791D01*
X173062433Y-68319772D01*
X173061687Y-68239677D01*
X173252822Y-68239677D01*
X173252971Y-68267393D01*
X173253576Y-68294891D01*
X173254872Y-68321956D01*
X173257096Y-68348370D01*
X173260485Y-68373917D01*
X173262689Y-68386298D01*
X173265273Y-68398381D01*
X173268266Y-68410138D01*
X173271698Y-68421543D01*
X173275597Y-68432569D01*
X173279994Y-68443188D01*
X173284919Y-68453373D01*
X173290400Y-68463098D01*
X173296467Y-68472335D01*
X173303149Y-68481057D01*
X173310477Y-68489237D01*
X173318480Y-68496848D01*
X173327187Y-68503862D01*
X173336627Y-68510254D01*
X173346831Y-68515995D01*
X173357827Y-68521058D01*
X173369645Y-68525417D01*
X173382316Y-68529044D01*
X173395867Y-68531912D01*
X173410330Y-68533994D01*
X173425732Y-68535263D01*
X173442105Y-68535693D01*
X173458309Y-68535237D01*
X173473554Y-68533892D01*
X173487869Y-68531689D01*
X173501282Y-68528662D01*
X173513824Y-68524841D01*
X173525524Y-68520260D01*
X173536410Y-68514950D01*
X173546512Y-68508944D01*
X173555858Y-68502274D01*
X173564479Y-68494972D01*
X173572403Y-68487070D01*
X173579660Y-68478601D01*
X173586278Y-68469597D01*
X173592287Y-68460090D01*
X173597716Y-68450112D01*
X173602594Y-68439695D01*
X173606951Y-68428873D01*
X173610815Y-68417676D01*
X173617182Y-68394288D01*
X173621929Y-68369791D01*
X173625290Y-68344442D01*
X173627498Y-68318498D01*
X173628785Y-68292217D01*
X173629536Y-68239677D01*
X173629387Y-68213820D01*
X173628785Y-68187740D01*
X173627498Y-68161696D01*
X173625290Y-68135951D01*
X173621929Y-68110765D01*
X173619743Y-68098463D01*
X173617182Y-68086399D01*
X173614215Y-68074606D01*
X173610815Y-68063115D01*
X173606951Y-68051960D01*
X173602594Y-68041174D01*
X173597716Y-68030788D01*
X173592287Y-68020836D01*
X173586278Y-68011350D01*
X173579660Y-68002363D01*
X173572403Y-67993907D01*
X173564479Y-67986015D01*
X173555858Y-67978720D01*
X173546512Y-67972054D01*
X173536410Y-67966051D01*
X173525524Y-67960742D01*
X173513824Y-67956160D01*
X173501282Y-67952338D01*
X173487869Y-67949309D01*
X173473554Y-67947104D01*
X173458309Y-67945758D01*
X173442105Y-67945302D01*
X173425732Y-67945731D01*
X173410330Y-67947001D01*
X173395867Y-67949084D01*
X173382316Y-67951952D01*
X173369645Y-67955578D01*
X173357827Y-67959935D01*
X173346831Y-67964994D01*
X173336627Y-67970730D01*
X173327187Y-67977113D01*
X173318480Y-67984118D01*
X173310477Y-67991715D01*
X173303149Y-67999879D01*
X173296467Y-68008580D01*
X173290400Y-68017793D01*
X173284919Y-68027489D01*
X173279994Y-68037641D01*
X173275597Y-68048222D01*
X173271698Y-68059203D01*
X173265273Y-68082260D01*
X173260485Y-68106591D01*
X173257096Y-68131977D01*
X173254872Y-68158198D01*
X173253576Y-68185035D01*
X173252822Y-68239677D01*
X173061687Y-68239677D01*
X173061868Y-68198029D01*
X173062433Y-68160124D01*
X173063415Y-68125705D01*
X173064847Y-68094514D01*
X173066762Y-68066291D01*
X173069193Y-68040779D01*
X173072174Y-68017720D01*
X173075736Y-67996856D01*
X173079914Y-67977927D01*
X173082244Y-67969108D01*
X173084740Y-67960676D01*
X173087406Y-67952599D01*
X173090247Y-67944845D01*
X173093266Y-67937380D01*
X173096468Y-67930174D01*
X173103436Y-67916407D01*
X173111185Y-67903284D01*
X173119747Y-67890547D01*
X173129155Y-67877939D01*
X173139697Y-67864794D01*
X173150943Y-67852143D01*
X173162897Y-67840033D01*
X173175561Y-67828515D01*
X173188939Y-67817636D01*
X173203033Y-67807447D01*
X173217846Y-67797995D01*
X173233382Y-67789330D01*
X173249642Y-67781501D01*
X173266630Y-67774557D01*
X173284349Y-67768547D01*
X173302801Y-67763520D01*
X173321990Y-67759525D01*
X173341917Y-67756610D01*
X173362587Y-67754826D01*
X173384002Y-67754220D01*
X173402040Y-67754741D01*
X173419617Y-67756284D01*
X173436753Y-67758815D01*
X173453472Y-67762302D01*
X173469795Y-67766711D01*
X173485745Y-67772010D01*
X173501343Y-67778165D01*
X173516612Y-67785143D01*
X173531572Y-67792912D01*
X173546248Y-67801439D01*
X173560659Y-67810691D01*
X173574830Y-67820635D01*
X173588780Y-67831237D01*
X173602534Y-67842465D01*
X173616111Y-67854287D01*
X173629536Y-67866668D01*
X173629536Y-67381210D01*
X173820671Y-67381210D01*
X173820671Y-68715610D01*
G37*
G36*
X170008232Y-66253582D02*
G01*
X170021587Y-66254128D01*
X170034599Y-66255021D01*
X170047274Y-66256251D01*
X170059615Y-66257803D01*
X170071628Y-66259665D01*
X170083316Y-66261824D01*
X170094685Y-66264268D01*
X170105738Y-66266984D01*
X170116480Y-66269959D01*
X170126916Y-66273181D01*
X170137050Y-66276637D01*
X170146886Y-66280313D01*
X170156429Y-66284198D01*
X170165683Y-66288279D01*
X170174653Y-66292542D01*
X170191758Y-66301567D01*
X170207779Y-66311171D01*
X170222751Y-66321253D01*
X170236712Y-66331710D01*
X170249695Y-66342442D01*
X170261737Y-66353346D01*
X170272873Y-66364320D01*
X170283139Y-66375264D01*
X170296339Y-66390384D01*
X170308549Y-66405646D01*
X170319788Y-66421237D01*
X170330075Y-66437344D01*
X170339429Y-66454153D01*
X170347869Y-66471852D01*
X170355414Y-66490627D01*
X170362084Y-66510664D01*
X170367897Y-66532152D01*
X170372873Y-66555277D01*
X170377031Y-66580225D01*
X170380390Y-66607183D01*
X170382970Y-66636338D01*
X170384788Y-66667877D01*
X170385865Y-66701987D01*
X170386220Y-66738855D01*
X170385865Y-66776031D01*
X170384788Y-66810413D01*
X170382970Y-66842191D01*
X170380390Y-66871553D01*
X170377031Y-66898688D01*
X170372873Y-66923786D01*
X170367897Y-66947036D01*
X170362084Y-66968626D01*
X170355414Y-66988746D01*
X170347869Y-67007585D01*
X170339429Y-67025331D01*
X170330075Y-67042174D01*
X170319788Y-67058304D01*
X170308549Y-67073908D01*
X170296339Y-67089176D01*
X170283139Y-67104298D01*
X170272873Y-67115240D01*
X170261737Y-67126211D01*
X170249695Y-67137110D01*
X170236712Y-67147834D01*
X170222751Y-67158284D01*
X170207779Y-67168356D01*
X170191758Y-67177951D01*
X170174653Y-67186966D01*
X170156429Y-67195300D01*
X170137050Y-67202852D01*
X170116480Y-67209520D01*
X170094685Y-67215204D01*
X170071628Y-67219800D01*
X170047274Y-67223209D01*
X170021587Y-67225329D01*
X169994531Y-67226058D01*
X169980825Y-67225874D01*
X169967466Y-67225329D01*
X169954450Y-67224437D01*
X169941771Y-67223209D01*
X169929426Y-67221660D01*
X169917410Y-67219800D01*
X169905718Y-67217644D01*
X169894347Y-67215204D01*
X169883291Y-67212492D01*
X169872546Y-67209521D01*
X169862108Y-67206303D01*
X169851972Y-67202852D01*
X169842135Y-67199180D01*
X169832590Y-67195300D01*
X169823334Y-67191225D01*
X169814363Y-67186966D01*
X169797256Y-67177951D01*
X169781234Y-67168357D01*
X169766260Y-67158284D01*
X169752299Y-67147835D01*
X169739315Y-67137110D01*
X169727273Y-67126211D01*
X169716137Y-67115240D01*
X169705871Y-67104298D01*
X169692671Y-67089177D01*
X169680462Y-67073910D01*
X169669226Y-67058308D01*
X169658943Y-67042182D01*
X169649593Y-67025341D01*
X169641157Y-67007598D01*
X169633617Y-66988763D01*
X169626952Y-66968645D01*
X169621144Y-66947057D01*
X169616172Y-66923809D01*
X169612019Y-66898711D01*
X169608664Y-66871575D01*
X169606088Y-66842210D01*
X169604272Y-66810428D01*
X169603196Y-66776040D01*
X169602842Y-66738855D01*
X169793977Y-66738855D01*
X169794112Y-66763701D01*
X169794531Y-66786341D01*
X169795252Y-66806943D01*
X169796295Y-66825675D01*
X169797678Y-66842703D01*
X169799421Y-66858196D01*
X169801544Y-66872322D01*
X169804064Y-66885249D01*
X169807002Y-66897143D01*
X169810376Y-66908174D01*
X169814206Y-66918508D01*
X169818511Y-66928313D01*
X169823310Y-66937757D01*
X169828622Y-66947009D01*
X169834466Y-66956235D01*
X169840861Y-66965603D01*
X169846497Y-66972879D01*
X169852840Y-66979903D01*
X169859854Y-66986644D01*
X169867499Y-66993074D01*
X169875737Y-66999162D01*
X169884530Y-67004878D01*
X169893839Y-67010192D01*
X169903627Y-67015074D01*
X169913854Y-67019493D01*
X169924482Y-67023421D01*
X169935474Y-67026827D01*
X169946790Y-67029681D01*
X169958392Y-67031953D01*
X169970241Y-67033613D01*
X169982301Y-67034631D01*
X169994531Y-67034977D01*
X170006752Y-67034630D01*
X170018803Y-67033611D01*
X170030646Y-67031948D01*
X170042243Y-67029674D01*
X170053554Y-67026816D01*
X170064543Y-67023407D01*
X170075169Y-67019476D01*
X170085396Y-67015054D01*
X170095184Y-67010170D01*
X170104495Y-67004854D01*
X170113291Y-66999138D01*
X170121534Y-66993052D01*
X170129184Y-66986625D01*
X170136205Y-66979887D01*
X170142556Y-66972870D01*
X170145470Y-66969266D01*
X170148201Y-66965603D01*
X170154596Y-66956235D01*
X170160438Y-66947012D01*
X170165747Y-66937770D01*
X170170543Y-66928342D01*
X170174843Y-66918564D01*
X170178669Y-66908271D01*
X170182039Y-66897298D01*
X170184972Y-66885480D01*
X170187487Y-66872652D01*
X170189605Y-66858649D01*
X170191344Y-66843305D01*
X170192723Y-66826456D01*
X170193762Y-66807937D01*
X170194481Y-66787582D01*
X170195032Y-66740707D01*
X170194898Y-66715860D01*
X170194481Y-66693216D01*
X170193762Y-66672610D01*
X170192723Y-66653873D01*
X170191344Y-66636838D01*
X170189605Y-66621338D01*
X170187487Y-66607205D01*
X170184972Y-66594273D01*
X170182039Y-66582374D01*
X170178669Y-66571341D01*
X170174843Y-66561007D01*
X170170543Y-66551204D01*
X170165747Y-66541765D01*
X170160438Y-66532522D01*
X170154596Y-66523309D01*
X170148201Y-66513959D01*
X170142556Y-66506683D01*
X170136205Y-66499659D01*
X170129184Y-66492917D01*
X170121534Y-66486487D01*
X170113291Y-66480399D01*
X170104495Y-66474684D01*
X170095184Y-66469370D01*
X170085396Y-66464488D01*
X170075169Y-66460068D01*
X170064543Y-66456140D01*
X170053554Y-66452734D01*
X170042243Y-66449880D01*
X170030646Y-66447608D01*
X170018803Y-66445949D01*
X170006752Y-66444931D01*
X169994531Y-66444585D01*
X169982301Y-66444931D01*
X169970241Y-66445951D01*
X169958392Y-66447613D01*
X169946790Y-66449888D01*
X169935474Y-66452745D01*
X169924482Y-66456154D01*
X169913854Y-66460085D01*
X169903627Y-66464508D01*
X169893839Y-66469392D01*
X169884530Y-66474707D01*
X169875737Y-66480423D01*
X169867499Y-66486510D01*
X169859854Y-66492937D01*
X169852840Y-66499674D01*
X169846497Y-66506692D01*
X169843588Y-66510296D01*
X169840861Y-66513959D01*
X169834466Y-66523309D01*
X169828622Y-66532519D01*
X169823310Y-66541753D01*
X169818511Y-66551175D01*
X169814206Y-66560951D01*
X169810376Y-66571244D01*
X169807002Y-66582219D01*
X169804064Y-66594042D01*
X169801544Y-66606876D01*
X169799421Y-66620885D01*
X169797678Y-66636236D01*
X169796295Y-66653091D01*
X169795252Y-66671616D01*
X169794531Y-66691975D01*
X169793977Y-66738855D01*
X169602842Y-66738855D01*
X169603196Y-66701988D01*
X169604272Y-66667880D01*
X169606088Y-66636343D01*
X169608664Y-66607190D01*
X169612019Y-66580235D01*
X169616172Y-66555291D01*
X169621144Y-66532169D01*
X169626952Y-66510684D01*
X169633617Y-66490648D01*
X169641157Y-66471875D01*
X169649593Y-66454176D01*
X169658943Y-66437366D01*
X169669226Y-66421256D01*
X169680462Y-66405661D01*
X169692671Y-66390392D01*
X169705871Y-66375264D01*
X169716137Y-66364320D01*
X169727273Y-66353346D01*
X169739315Y-66342442D01*
X169752299Y-66331711D01*
X169766260Y-66321253D01*
X169781234Y-66311172D01*
X169797256Y-66301567D01*
X169814363Y-66292542D01*
X169832590Y-66284198D01*
X169851972Y-66276637D01*
X169872546Y-66269960D01*
X169894347Y-66264268D01*
X169917410Y-66259665D01*
X169941771Y-66256251D01*
X169967466Y-66254128D01*
X169994531Y-66253397D01*
X170008232Y-66253582D01*
G37*
G36*
X176714535Y-67754546D02*
G01*
X176728487Y-67755515D01*
X176742155Y-67757109D01*
X176755550Y-67759313D01*
X176768684Y-67762109D01*
X176781566Y-67765482D01*
X176794207Y-67769415D01*
X176806619Y-67773891D01*
X176818812Y-67778895D01*
X176830797Y-67784409D01*
X176842584Y-67790417D01*
X176854185Y-67796904D01*
X176865610Y-67803851D01*
X176876870Y-67811244D01*
X176887976Y-67819065D01*
X176898939Y-67827298D01*
X176760244Y-67992239D01*
X176751957Y-67986140D01*
X176743935Y-67980514D01*
X176736134Y-67975352D01*
X176728509Y-67970640D01*
X176721015Y-67966370D01*
X176713610Y-67962529D01*
X176706249Y-67959106D01*
X176698887Y-67956091D01*
X176691480Y-67953472D01*
X176683985Y-67951238D01*
X176676356Y-67949378D01*
X176668551Y-67947881D01*
X176660524Y-67946736D01*
X176652231Y-67945932D01*
X176643629Y-67945458D01*
X176634673Y-67945303D01*
X176617137Y-67946011D01*
X176599779Y-67948154D01*
X176582732Y-67951759D01*
X176566126Y-67956852D01*
X176558029Y-67959966D01*
X176550093Y-67963462D01*
X176542332Y-67967344D01*
X176534764Y-67971614D01*
X176527405Y-67976278D01*
X176520272Y-67981337D01*
X176513380Y-67986795D01*
X176506747Y-67992656D01*
X176500388Y-67998923D01*
X176494320Y-68005600D01*
X176488560Y-68012689D01*
X176483124Y-68020194D01*
X176478029Y-68028119D01*
X176473290Y-68036467D01*
X176468925Y-68045241D01*
X176464949Y-68054445D01*
X176461380Y-68064082D01*
X176458233Y-68074156D01*
X176455525Y-68084669D01*
X176453273Y-68095626D01*
X176451493Y-68107029D01*
X176450200Y-68118882D01*
X176449413Y-68131188D01*
X176449147Y-68143951D01*
X176449147Y-68715610D01*
X176258065Y-68715610D01*
X176258065Y-67765491D01*
X176449147Y-67765491D01*
X176449147Y-67866668D01*
X176452957Y-67866668D01*
X176464503Y-67853057D01*
X176476648Y-67840323D01*
X176489375Y-67828466D01*
X176502668Y-67817487D01*
X176516510Y-67807385D01*
X176530884Y-67798160D01*
X176545775Y-67789814D01*
X176561165Y-67782345D01*
X176577038Y-67775755D01*
X176593378Y-67770042D01*
X176610167Y-67765208D01*
X176627391Y-67761253D01*
X176645031Y-67758176D01*
X176663072Y-67755978D01*
X176681497Y-67754659D01*
X176700289Y-67754220D01*
X176714535Y-67754546D01*
G37*
D11*
X149569069Y-91596678D02*
X149569069Y-92668107D01*
X149569069Y-92668107D02*
X149497640Y-92882392D01*
X149497640Y-92882392D02*
X149354783Y-93025250D01*
X149354783Y-93025250D02*
X149140497Y-93096678D01*
X149140497Y-93096678D02*
X148997640Y-93096678D01*
X150997640Y-93096678D02*
X150283354Y-93096678D01*
X150283354Y-93096678D02*
X150283354Y-91596678D01*
X152354783Y-92953821D02*
X152283355Y-93025250D01*
X152283355Y-93025250D02*
X152069069Y-93096678D01*
X152069069Y-93096678D02*
X151926212Y-93096678D01*
X151926212Y-93096678D02*
X151711926Y-93025250D01*
X151711926Y-93025250D02*
X151569069Y-92882392D01*
X151569069Y-92882392D02*
X151497640Y-92739535D01*
X151497640Y-92739535D02*
X151426212Y-92453821D01*
X151426212Y-92453821D02*
X151426212Y-92239535D01*
X151426212Y-92239535D02*
X151497640Y-91953821D01*
X151497640Y-91953821D02*
X151569069Y-91810964D01*
X151569069Y-91810964D02*
X151711926Y-91668107D01*
X151711926Y-91668107D02*
X151926212Y-91596678D01*
X151926212Y-91596678D02*
X152069069Y-91596678D01*
X152069069Y-91596678D02*
X152283355Y-91668107D01*
X152283355Y-91668107D02*
X152354783Y-91739535D01*
X153426212Y-91596678D02*
X153426212Y-92668107D01*
X153426212Y-92668107D02*
X153354783Y-92882392D01*
X153354783Y-92882392D02*
X153211926Y-93025250D01*
X153211926Y-93025250D02*
X152997640Y-93096678D01*
X152997640Y-93096678D02*
X152854783Y-93096678D01*
X154854783Y-93096678D02*
X154140497Y-93096678D01*
X154140497Y-93096678D02*
X154140497Y-91596678D01*
X156211926Y-92953821D02*
X156140498Y-93025250D01*
X156140498Y-93025250D02*
X155926212Y-93096678D01*
X155926212Y-93096678D02*
X155783355Y-93096678D01*
X155783355Y-93096678D02*
X155569069Y-93025250D01*
X155569069Y-93025250D02*
X155426212Y-92882392D01*
X155426212Y-92882392D02*
X155354783Y-92739535D01*
X155354783Y-92739535D02*
X155283355Y-92453821D01*
X155283355Y-92453821D02*
X155283355Y-92239535D01*
X155283355Y-92239535D02*
X155354783Y-91953821D01*
X155354783Y-91953821D02*
X155426212Y-91810964D01*
X155426212Y-91810964D02*
X155569069Y-91668107D01*
X155569069Y-91668107D02*
X155783355Y-91596678D01*
X155783355Y-91596678D02*
X155926212Y-91596678D01*
X155926212Y-91596678D02*
X156140498Y-91668107D01*
X156140498Y-91668107D02*
X156211926Y-91739535D01*
X157283355Y-91596678D02*
X157283355Y-92668107D01*
X157283355Y-92668107D02*
X157211926Y-92882392D01*
X157211926Y-92882392D02*
X157069069Y-93025250D01*
X157069069Y-93025250D02*
X156854783Y-93096678D01*
X156854783Y-93096678D02*
X156711926Y-93096678D01*
X158711926Y-93096678D02*
X157997640Y-93096678D01*
X157997640Y-93096678D02*
X157997640Y-91596678D01*
X160069069Y-92953821D02*
X159997641Y-93025250D01*
X159997641Y-93025250D02*
X159783355Y-93096678D01*
X159783355Y-93096678D02*
X159640498Y-93096678D01*
X159640498Y-93096678D02*
X159426212Y-93025250D01*
X159426212Y-93025250D02*
X159283355Y-92882392D01*
X159283355Y-92882392D02*
X159211926Y-92739535D01*
X159211926Y-92739535D02*
X159140498Y-92453821D01*
X159140498Y-92453821D02*
X159140498Y-92239535D01*
X159140498Y-92239535D02*
X159211926Y-91953821D01*
X159211926Y-91953821D02*
X159283355Y-91810964D01*
X159283355Y-91810964D02*
X159426212Y-91668107D01*
X159426212Y-91668107D02*
X159640498Y-91596678D01*
X159640498Y-91596678D02*
X159783355Y-91596678D01*
X159783355Y-91596678D02*
X159997641Y-91668107D01*
X159997641Y-91668107D02*
X160069069Y-91739535D01*
X161140498Y-91596678D02*
X161140498Y-92668107D01*
X161140498Y-92668107D02*
X161069069Y-92882392D01*
X161069069Y-92882392D02*
X160926212Y-93025250D01*
X160926212Y-93025250D02*
X160711926Y-93096678D01*
X160711926Y-93096678D02*
X160569069Y-93096678D01*
X162569069Y-93096678D02*
X161854783Y-93096678D01*
X161854783Y-93096678D02*
X161854783Y-91596678D01*
X163926212Y-92953821D02*
X163854784Y-93025250D01*
X163854784Y-93025250D02*
X163640498Y-93096678D01*
X163640498Y-93096678D02*
X163497641Y-93096678D01*
X163497641Y-93096678D02*
X163283355Y-93025250D01*
X163283355Y-93025250D02*
X163140498Y-92882392D01*
X163140498Y-92882392D02*
X163069069Y-92739535D01*
X163069069Y-92739535D02*
X162997641Y-92453821D01*
X162997641Y-92453821D02*
X162997641Y-92239535D01*
X162997641Y-92239535D02*
X163069069Y-91953821D01*
X163069069Y-91953821D02*
X163140498Y-91810964D01*
X163140498Y-91810964D02*
X163283355Y-91668107D01*
X163283355Y-91668107D02*
X163497641Y-91596678D01*
X163497641Y-91596678D02*
X163640498Y-91596678D01*
X163640498Y-91596678D02*
X163854784Y-91668107D01*
X163854784Y-91668107D02*
X163926212Y-91739535D01*
D12*
X140346895Y-102344687D02*
X140346895Y-102801830D01*
X140346895Y-102573258D02*
X139546895Y-102573258D01*
X139546895Y-102573258D02*
X139661180Y-102649449D01*
X139661180Y-102649449D02*
X139737371Y-102725639D01*
X139737371Y-102725639D02*
X139775466Y-102801830D01*
X139623085Y-100820877D02*
X139584990Y-100782781D01*
X139584990Y-100782781D02*
X139546895Y-100706591D01*
X139546895Y-100706591D02*
X139546895Y-100516115D01*
X139546895Y-100516115D02*
X139584990Y-100439924D01*
X139584990Y-100439924D02*
X139623085Y-100401829D01*
X139623085Y-100401829D02*
X139699276Y-100363734D01*
X139699276Y-100363734D02*
X139775466Y-100363734D01*
X139775466Y-100363734D02*
X139889752Y-100401829D01*
X139889752Y-100401829D02*
X140346895Y-100858972D01*
X140346895Y-100858972D02*
X140346895Y-100363734D01*
X139546895Y-98878019D02*
X139546895Y-98382781D01*
X139546895Y-98382781D02*
X139851657Y-98649447D01*
X139851657Y-98649447D02*
X139851657Y-98535162D01*
X139851657Y-98535162D02*
X139889752Y-98458971D01*
X139889752Y-98458971D02*
X139927847Y-98420876D01*
X139927847Y-98420876D02*
X140004038Y-98382781D01*
X140004038Y-98382781D02*
X140194514Y-98382781D01*
X140194514Y-98382781D02*
X140270704Y-98420876D01*
X140270704Y-98420876D02*
X140308800Y-98458971D01*
X140308800Y-98458971D02*
X140346895Y-98535162D01*
X140346895Y-98535162D02*
X140346895Y-98763733D01*
X140346895Y-98763733D02*
X140308800Y-98839924D01*
X140308800Y-98839924D02*
X140270704Y-98878019D01*
D13*
X139975113Y-93500839D02*
X139927494Y-93453220D01*
X139927494Y-93453220D02*
X139879875Y-93357982D01*
X139879875Y-93357982D02*
X139879875Y-93119887D01*
X139879875Y-93119887D02*
X139927494Y-93024649D01*
X139927494Y-93024649D02*
X139975113Y-92977030D01*
X139975113Y-92977030D02*
X140070351Y-92929411D01*
X140070351Y-92929411D02*
X140165589Y-92929411D01*
X140165589Y-92929411D02*
X140308446Y-92977030D01*
X140308446Y-92977030D02*
X140879875Y-93548458D01*
X140879875Y-93548458D02*
X140879875Y-92929411D01*
X139879875Y-92024649D02*
X139879875Y-92500839D01*
X139879875Y-92500839D02*
X140356065Y-92548458D01*
X140356065Y-92548458D02*
X140308446Y-92500839D01*
X140308446Y-92500839D02*
X140260827Y-92405601D01*
X140260827Y-92405601D02*
X140260827Y-92167506D01*
X140260827Y-92167506D02*
X140308446Y-92072268D01*
X140308446Y-92072268D02*
X140356065Y-92024649D01*
X140356065Y-92024649D02*
X140451303Y-91977030D01*
X140451303Y-91977030D02*
X140689398Y-91977030D01*
X140689398Y-91977030D02*
X140784636Y-92024649D01*
X140784636Y-92024649D02*
X140832256Y-92072268D01*
X140832256Y-92072268D02*
X140879875Y-92167506D01*
X140879875Y-92167506D02*
X140879875Y-92405601D01*
X140879875Y-92405601D02*
X140832256Y-92500839D01*
X140832256Y-92500839D02*
X140784636Y-92548458D01*
X139879875Y-91119887D02*
X139879875Y-91310363D01*
X139879875Y-91310363D02*
X139927494Y-91405601D01*
X139927494Y-91405601D02*
X139975113Y-91453220D01*
X139975113Y-91453220D02*
X140117970Y-91548458D01*
X140117970Y-91548458D02*
X140308446Y-91596077D01*
X140308446Y-91596077D02*
X140689398Y-91596077D01*
X140689398Y-91596077D02*
X140784636Y-91548458D01*
X140784636Y-91548458D02*
X140832256Y-91500839D01*
X140832256Y-91500839D02*
X140879875Y-91405601D01*
X140879875Y-91405601D02*
X140879875Y-91215125D01*
X140879875Y-91215125D02*
X140832256Y-91119887D01*
X140832256Y-91119887D02*
X140784636Y-91072268D01*
X140784636Y-91072268D02*
X140689398Y-91024649D01*
X140689398Y-91024649D02*
X140451303Y-91024649D01*
X140451303Y-91024649D02*
X140356065Y-91072268D01*
X140356065Y-91072268D02*
X140308446Y-91119887D01*
X140308446Y-91119887D02*
X140260827Y-91215125D01*
X140260827Y-91215125D02*
X140260827Y-91405601D01*
X140260827Y-91405601D02*
X140308446Y-91500839D01*
X140308446Y-91500839D02*
X140356065Y-91548458D01*
X140356065Y-91548458D02*
X140451303Y-91596077D01*
X140879875Y-90596077D02*
X139879875Y-90596077D01*
X140879875Y-90024649D02*
X140308446Y-90453220D01*
X139879875Y-90024649D02*
X140451303Y-90596077D01*
X139975113Y-88881791D02*
X139927494Y-88834172D01*
X139927494Y-88834172D02*
X139879875Y-88738934D01*
X139879875Y-88738934D02*
X139879875Y-88500839D01*
X139879875Y-88500839D02*
X139927494Y-88405601D01*
X139927494Y-88405601D02*
X139975113Y-88357982D01*
X139975113Y-88357982D02*
X140070351Y-88310363D01*
X140070351Y-88310363D02*
X140165589Y-88310363D01*
X140165589Y-88310363D02*
X140308446Y-88357982D01*
X140308446Y-88357982D02*
X140879875Y-88929410D01*
X140879875Y-88929410D02*
X140879875Y-88310363D01*
X140879875Y-87215124D02*
X140213208Y-86691315D01*
X140213208Y-87215124D02*
X140879875Y-86691315D01*
X140879875Y-85024648D02*
X140879875Y-85596076D01*
X140879875Y-85310362D02*
X139879875Y-85310362D01*
X139879875Y-85310362D02*
X140022732Y-85405600D01*
X140022732Y-85405600D02*
X140117970Y-85500838D01*
X140117970Y-85500838D02*
X140165589Y-85596076D01*
X139879875Y-84405600D02*
X139879875Y-84310362D01*
X139879875Y-84310362D02*
X139927494Y-84215124D01*
X139927494Y-84215124D02*
X139975113Y-84167505D01*
X139975113Y-84167505D02*
X140070351Y-84119886D01*
X140070351Y-84119886D02*
X140260827Y-84072267D01*
X140260827Y-84072267D02*
X140498922Y-84072267D01*
X140498922Y-84072267D02*
X140689398Y-84119886D01*
X140689398Y-84119886D02*
X140784636Y-84167505D01*
X140784636Y-84167505D02*
X140832256Y-84215124D01*
X140832256Y-84215124D02*
X140879875Y-84310362D01*
X140879875Y-84310362D02*
X140879875Y-84405600D01*
X140879875Y-84405600D02*
X140832256Y-84500838D01*
X140832256Y-84500838D02*
X140784636Y-84548457D01*
X140784636Y-84548457D02*
X140689398Y-84596076D01*
X140689398Y-84596076D02*
X140498922Y-84643695D01*
X140498922Y-84643695D02*
X140260827Y-84643695D01*
X140260827Y-84643695D02*
X140070351Y-84596076D01*
X140070351Y-84596076D02*
X139975113Y-84548457D01*
X139975113Y-84548457D02*
X139927494Y-84500838D01*
X139927494Y-84500838D02*
X139879875Y-84405600D01*
X140879875Y-83643695D02*
X139879875Y-83643695D01*
X140498922Y-83548457D02*
X140879875Y-83262743D01*
X140213208Y-83262743D02*
X140594160Y-83643695D01*
X140879875Y-81929409D02*
X140832256Y-82024647D01*
X140832256Y-82024647D02*
X140784636Y-82072266D01*
X140784636Y-82072266D02*
X140689398Y-82119885D01*
X140689398Y-82119885D02*
X140403684Y-82119885D01*
X140403684Y-82119885D02*
X140308446Y-82072266D01*
X140308446Y-82072266D02*
X140260827Y-82024647D01*
X140260827Y-82024647D02*
X140213208Y-81929409D01*
X140213208Y-81929409D02*
X140213208Y-81786552D01*
X140213208Y-81786552D02*
X140260827Y-81691314D01*
X140260827Y-81691314D02*
X140308446Y-81643695D01*
X140308446Y-81643695D02*
X140403684Y-81596076D01*
X140403684Y-81596076D02*
X140689398Y-81596076D01*
X140689398Y-81596076D02*
X140784636Y-81643695D01*
X140784636Y-81643695D02*
X140832256Y-81691314D01*
X140832256Y-81691314D02*
X140879875Y-81786552D01*
X140879875Y-81786552D02*
X140879875Y-81929409D01*
X140213208Y-81167504D02*
X140879875Y-81167504D01*
X140308446Y-81167504D02*
X140260827Y-81119885D01*
X140260827Y-81119885D02*
X140213208Y-81024647D01*
X140213208Y-81024647D02*
X140213208Y-80881790D01*
X140213208Y-80881790D02*
X140260827Y-80786552D01*
X140260827Y-80786552D02*
X140356065Y-80738933D01*
X140356065Y-80738933D02*
X140879875Y-80738933D01*
X141260827Y-79215123D02*
X141213208Y-79262742D01*
X141213208Y-79262742D02*
X141070351Y-79357980D01*
X141070351Y-79357980D02*
X140975113Y-79405599D01*
X140975113Y-79405599D02*
X140832256Y-79453218D01*
X140832256Y-79453218D02*
X140594160Y-79500837D01*
X140594160Y-79500837D02*
X140403684Y-79500837D01*
X140403684Y-79500837D02*
X140165589Y-79453218D01*
X140165589Y-79453218D02*
X140022732Y-79405599D01*
X140022732Y-79405599D02*
X139927494Y-79357980D01*
X139927494Y-79357980D02*
X139784636Y-79262742D01*
X139784636Y-79262742D02*
X139737017Y-79215123D01*
X139975113Y-78881789D02*
X139927494Y-78834170D01*
X139927494Y-78834170D02*
X139879875Y-78738932D01*
X139879875Y-78738932D02*
X139879875Y-78500837D01*
X139879875Y-78500837D02*
X139927494Y-78405599D01*
X139927494Y-78405599D02*
X139975113Y-78357980D01*
X139975113Y-78357980D02*
X140070351Y-78310361D01*
X140070351Y-78310361D02*
X140165589Y-78310361D01*
X140165589Y-78310361D02*
X140308446Y-78357980D01*
X140308446Y-78357980D02*
X140879875Y-78929408D01*
X140879875Y-78929408D02*
X140879875Y-78310361D01*
X140498922Y-77881789D02*
X140498922Y-77119885D01*
X139879875Y-76738932D02*
X139879875Y-76119885D01*
X139879875Y-76119885D02*
X140260827Y-76453218D01*
X140260827Y-76453218D02*
X140260827Y-76310361D01*
X140260827Y-76310361D02*
X140308446Y-76215123D01*
X140308446Y-76215123D02*
X140356065Y-76167504D01*
X140356065Y-76167504D02*
X140451303Y-76119885D01*
X140451303Y-76119885D02*
X140689398Y-76119885D01*
X140689398Y-76119885D02*
X140784636Y-76167504D01*
X140784636Y-76167504D02*
X140832256Y-76215123D01*
X140832256Y-76215123D02*
X140879875Y-76310361D01*
X140879875Y-76310361D02*
X140879875Y-76596075D01*
X140879875Y-76596075D02*
X140832256Y-76691313D01*
X140832256Y-76691313D02*
X140784636Y-76738932D01*
X141260827Y-75786551D02*
X141213208Y-75738932D01*
X141213208Y-75738932D02*
X141070351Y-75643694D01*
X141070351Y-75643694D02*
X140975113Y-75596075D01*
X140975113Y-75596075D02*
X140832256Y-75548456D01*
X140832256Y-75548456D02*
X140594160Y-75500837D01*
X140594160Y-75500837D02*
X140403684Y-75500837D01*
X140403684Y-75500837D02*
X140165589Y-75548456D01*
X140165589Y-75548456D02*
X140022732Y-75596075D01*
X140022732Y-75596075D02*
X139927494Y-75643694D01*
X139927494Y-75643694D02*
X139784636Y-75738932D01*
X139784636Y-75738932D02*
X139737017Y-75786551D01*
X142489819Y-92929411D02*
X142489819Y-93500839D01*
X142489819Y-93215125D02*
X141489819Y-93215125D01*
X141489819Y-93215125D02*
X141632676Y-93310363D01*
X141632676Y-93310363D02*
X141727914Y-93405601D01*
X141727914Y-93405601D02*
X141775533Y-93500839D01*
X142489819Y-92500839D02*
X141489819Y-92500839D01*
X141489819Y-92500839D02*
X142204104Y-92167506D01*
X142204104Y-92167506D02*
X141489819Y-91834173D01*
X141489819Y-91834173D02*
X142489819Y-91834173D01*
X141966009Y-91024649D02*
X142013628Y-90881792D01*
X142013628Y-90881792D02*
X142061247Y-90834173D01*
X142061247Y-90834173D02*
X142156485Y-90786554D01*
X142156485Y-90786554D02*
X142299342Y-90786554D01*
X142299342Y-90786554D02*
X142394580Y-90834173D01*
X142394580Y-90834173D02*
X142442200Y-90881792D01*
X142442200Y-90881792D02*
X142489819Y-90977030D01*
X142489819Y-90977030D02*
X142489819Y-91357982D01*
X142489819Y-91357982D02*
X141489819Y-91357982D01*
X141489819Y-91357982D02*
X141489819Y-91024649D01*
X141489819Y-91024649D02*
X141537438Y-90929411D01*
X141537438Y-90929411D02*
X141585057Y-90881792D01*
X141585057Y-90881792D02*
X141680295Y-90834173D01*
X141680295Y-90834173D02*
X141775533Y-90834173D01*
X141775533Y-90834173D02*
X141870771Y-90881792D01*
X141870771Y-90881792D02*
X141918390Y-90929411D01*
X141918390Y-90929411D02*
X141966009Y-91024649D01*
X141966009Y-91024649D02*
X141966009Y-91357982D01*
X141585057Y-89643696D02*
X141537438Y-89596077D01*
X141537438Y-89596077D02*
X141489819Y-89500839D01*
X141489819Y-89500839D02*
X141489819Y-89262744D01*
X141489819Y-89262744D02*
X141537438Y-89167506D01*
X141537438Y-89167506D02*
X141585057Y-89119887D01*
X141585057Y-89119887D02*
X141680295Y-89072268D01*
X141680295Y-89072268D02*
X141775533Y-89072268D01*
X141775533Y-89072268D02*
X141918390Y-89119887D01*
X141918390Y-89119887D02*
X142489819Y-89691315D01*
X142489819Y-89691315D02*
X142489819Y-89072268D01*
X142489819Y-87977029D02*
X141823152Y-87453220D01*
X141823152Y-87977029D02*
X142489819Y-87453220D01*
X141489819Y-86119886D02*
X141489819Y-86024648D01*
X141489819Y-86024648D02*
X141537438Y-85929410D01*
X141537438Y-85929410D02*
X141585057Y-85881791D01*
X141585057Y-85881791D02*
X141680295Y-85834172D01*
X141680295Y-85834172D02*
X141870771Y-85786553D01*
X141870771Y-85786553D02*
X142108866Y-85786553D01*
X142108866Y-85786553D02*
X142299342Y-85834172D01*
X142299342Y-85834172D02*
X142394580Y-85881791D01*
X142394580Y-85881791D02*
X142442200Y-85929410D01*
X142442200Y-85929410D02*
X142489819Y-86024648D01*
X142489819Y-86024648D02*
X142489819Y-86119886D01*
X142489819Y-86119886D02*
X142442200Y-86215124D01*
X142442200Y-86215124D02*
X142394580Y-86262743D01*
X142394580Y-86262743D02*
X142299342Y-86310362D01*
X142299342Y-86310362D02*
X142108866Y-86357981D01*
X142108866Y-86357981D02*
X141870771Y-86357981D01*
X141870771Y-86357981D02*
X141680295Y-86310362D01*
X141680295Y-86310362D02*
X141585057Y-86262743D01*
X141585057Y-86262743D02*
X141537438Y-86215124D01*
X141537438Y-86215124D02*
X141489819Y-86119886D01*
X142489819Y-85405600D02*
X142489819Y-85167505D01*
X142489819Y-85167505D02*
X142299342Y-85167505D01*
X142299342Y-85167505D02*
X142251723Y-85262743D01*
X142251723Y-85262743D02*
X142156485Y-85357981D01*
X142156485Y-85357981D02*
X142013628Y-85405600D01*
X142013628Y-85405600D02*
X141775533Y-85405600D01*
X141775533Y-85405600D02*
X141632676Y-85357981D01*
X141632676Y-85357981D02*
X141537438Y-85262743D01*
X141537438Y-85262743D02*
X141489819Y-85119886D01*
X141489819Y-85119886D02*
X141489819Y-84929410D01*
X141489819Y-84929410D02*
X141537438Y-84786553D01*
X141537438Y-84786553D02*
X141632676Y-84691315D01*
X141632676Y-84691315D02*
X141775533Y-84643696D01*
X141775533Y-84643696D02*
X142013628Y-84643696D01*
X142013628Y-84643696D02*
X142156485Y-84691315D01*
X142156485Y-84691315D02*
X142251723Y-84786553D01*
X142251723Y-84786553D02*
X142299342Y-84881791D01*
X142299342Y-84881791D02*
X142489819Y-84881791D01*
X142489819Y-84881791D02*
X142489819Y-84643696D01*
X142489819Y-83310362D02*
X142442200Y-83405600D01*
X142442200Y-83405600D02*
X142394580Y-83453219D01*
X142394580Y-83453219D02*
X142299342Y-83500838D01*
X142299342Y-83500838D02*
X142013628Y-83500838D01*
X142013628Y-83500838D02*
X141918390Y-83453219D01*
X141918390Y-83453219D02*
X141870771Y-83405600D01*
X141870771Y-83405600D02*
X141823152Y-83310362D01*
X141823152Y-83310362D02*
X141823152Y-83167505D01*
X141823152Y-83167505D02*
X141870771Y-83072267D01*
X141870771Y-83072267D02*
X141918390Y-83024648D01*
X141918390Y-83024648D02*
X142013628Y-82977029D01*
X142013628Y-82977029D02*
X142299342Y-82977029D01*
X142299342Y-82977029D02*
X142394580Y-83024648D01*
X142394580Y-83024648D02*
X142442200Y-83072267D01*
X142442200Y-83072267D02*
X142489819Y-83167505D01*
X142489819Y-83167505D02*
X142489819Y-83310362D01*
X141823152Y-82548457D02*
X142489819Y-82548457D01*
X141918390Y-82548457D02*
X141870771Y-82500838D01*
X141870771Y-82500838D02*
X141823152Y-82405600D01*
X141823152Y-82405600D02*
X141823152Y-82262743D01*
X141823152Y-82262743D02*
X141870771Y-82167505D01*
X141870771Y-82167505D02*
X141966009Y-82119886D01*
X141966009Y-82119886D02*
X142489819Y-82119886D01*
X142870771Y-80596076D02*
X142823152Y-80643695D01*
X142823152Y-80643695D02*
X142680295Y-80738933D01*
X142680295Y-80738933D02*
X142585057Y-80786552D01*
X142585057Y-80786552D02*
X142442200Y-80834171D01*
X142442200Y-80834171D02*
X142204104Y-80881790D01*
X142204104Y-80881790D02*
X142013628Y-80881790D01*
X142013628Y-80881790D02*
X141775533Y-80834171D01*
X141775533Y-80834171D02*
X141632676Y-80786552D01*
X141632676Y-80786552D02*
X141537438Y-80738933D01*
X141537438Y-80738933D02*
X141394580Y-80643695D01*
X141394580Y-80643695D02*
X141346961Y-80596076D01*
X142489819Y-79691314D02*
X142489819Y-80262742D01*
X142489819Y-79977028D02*
X141489819Y-79977028D01*
X141489819Y-79977028D02*
X141632676Y-80072266D01*
X141632676Y-80072266D02*
X141727914Y-80167504D01*
X141727914Y-80167504D02*
X141775533Y-80262742D01*
X142108866Y-79262742D02*
X142108866Y-78500838D01*
X141585057Y-78072266D02*
X141537438Y-78024647D01*
X141537438Y-78024647D02*
X141489819Y-77929409D01*
X141489819Y-77929409D02*
X141489819Y-77691314D01*
X141489819Y-77691314D02*
X141537438Y-77596076D01*
X141537438Y-77596076D02*
X141585057Y-77548457D01*
X141585057Y-77548457D02*
X141680295Y-77500838D01*
X141680295Y-77500838D02*
X141775533Y-77500838D01*
X141775533Y-77500838D02*
X141918390Y-77548457D01*
X141918390Y-77548457D02*
X142489819Y-78119885D01*
X142489819Y-78119885D02*
X142489819Y-77500838D01*
X142870771Y-77167504D02*
X142823152Y-77119885D01*
X142823152Y-77119885D02*
X142680295Y-77024647D01*
X142680295Y-77024647D02*
X142585057Y-76977028D01*
X142585057Y-76977028D02*
X142442200Y-76929409D01*
X142442200Y-76929409D02*
X142204104Y-76881790D01*
X142204104Y-76881790D02*
X142013628Y-76881790D01*
X142013628Y-76881790D02*
X141775533Y-76929409D01*
X141775533Y-76929409D02*
X141632676Y-76977028D01*
X141632676Y-76977028D02*
X141537438Y-77024647D01*
X141537438Y-77024647D02*
X141394580Y-77119885D01*
X141394580Y-77119885D02*
X141346961Y-77167504D01*
D12*
X145336895Y-102344687D02*
X145336895Y-102801830D01*
X145336895Y-102573258D02*
X144536895Y-102573258D01*
X144536895Y-102573258D02*
X144651180Y-102649449D01*
X144651180Y-102649449D02*
X144727371Y-102725639D01*
X144727371Y-102725639D02*
X144765466Y-102801830D01*
X144613085Y-100820877D02*
X144574990Y-100782781D01*
X144574990Y-100782781D02*
X144536895Y-100706591D01*
X144536895Y-100706591D02*
X144536895Y-100516115D01*
X144536895Y-100516115D02*
X144574990Y-100439924D01*
X144574990Y-100439924D02*
X144613085Y-100401829D01*
X144613085Y-100401829D02*
X144689276Y-100363734D01*
X144689276Y-100363734D02*
X144765466Y-100363734D01*
X144765466Y-100363734D02*
X144879752Y-100401829D01*
X144879752Y-100401829D02*
X145336895Y-100858972D01*
X145336895Y-100858972D02*
X145336895Y-100363734D01*
X144536895Y-98878019D02*
X144536895Y-98382781D01*
X144536895Y-98382781D02*
X144841657Y-98649447D01*
X144841657Y-98649447D02*
X144841657Y-98535162D01*
X144841657Y-98535162D02*
X144879752Y-98458971D01*
X144879752Y-98458971D02*
X144917847Y-98420876D01*
X144917847Y-98420876D02*
X144994038Y-98382781D01*
X144994038Y-98382781D02*
X145184514Y-98382781D01*
X145184514Y-98382781D02*
X145260704Y-98420876D01*
X145260704Y-98420876D02*
X145298800Y-98458971D01*
X145298800Y-98458971D02*
X145336895Y-98535162D01*
X145336895Y-98535162D02*
X145336895Y-98763733D01*
X145336895Y-98763733D02*
X145298800Y-98839924D01*
X145298800Y-98839924D02*
X145260704Y-98878019D01*
D13*
X225533333Y-69039580D02*
X225485714Y-69087200D01*
X225485714Y-69087200D02*
X225342857Y-69134819D01*
X225342857Y-69134819D02*
X225247619Y-69134819D01*
X225247619Y-69134819D02*
X225104762Y-69087200D01*
X225104762Y-69087200D02*
X225009524Y-68991961D01*
X225009524Y-68991961D02*
X224961905Y-68896723D01*
X224961905Y-68896723D02*
X224914286Y-68706247D01*
X224914286Y-68706247D02*
X224914286Y-68563390D01*
X224914286Y-68563390D02*
X224961905Y-68372914D01*
X224961905Y-68372914D02*
X225009524Y-68277676D01*
X225009524Y-68277676D02*
X225104762Y-68182438D01*
X225104762Y-68182438D02*
X225247619Y-68134819D01*
X225247619Y-68134819D02*
X225342857Y-68134819D01*
X225342857Y-68134819D02*
X225485714Y-68182438D01*
X225485714Y-68182438D02*
X225533333Y-68230057D01*
X225866667Y-68134819D02*
X226485714Y-68134819D01*
X226485714Y-68134819D02*
X226152381Y-68515771D01*
X226152381Y-68515771D02*
X226295238Y-68515771D01*
X226295238Y-68515771D02*
X226390476Y-68563390D01*
X226390476Y-68563390D02*
X226438095Y-68611009D01*
X226438095Y-68611009D02*
X226485714Y-68706247D01*
X226485714Y-68706247D02*
X226485714Y-68944342D01*
X226485714Y-68944342D02*
X226438095Y-69039580D01*
X226438095Y-69039580D02*
X226390476Y-69087200D01*
X226390476Y-69087200D02*
X226295238Y-69134819D01*
X226295238Y-69134819D02*
X226009524Y-69134819D01*
X226009524Y-69134819D02*
X225914286Y-69087200D01*
X225914286Y-69087200D02*
X225866667Y-69039580D01*
X196048095Y-93094819D02*
X196048095Y-93904342D01*
X196048095Y-93904342D02*
X196095714Y-93999580D01*
X196095714Y-93999580D02*
X196143333Y-94047200D01*
X196143333Y-94047200D02*
X196238571Y-94094819D01*
X196238571Y-94094819D02*
X196429047Y-94094819D01*
X196429047Y-94094819D02*
X196524285Y-94047200D01*
X196524285Y-94047200D02*
X196571904Y-93999580D01*
X196571904Y-93999580D02*
X196619523Y-93904342D01*
X196619523Y-93904342D02*
X196619523Y-93094819D01*
X197000476Y-93094819D02*
X197619523Y-93094819D01*
X197619523Y-93094819D02*
X197286190Y-93475771D01*
X197286190Y-93475771D02*
X197429047Y-93475771D01*
X197429047Y-93475771D02*
X197524285Y-93523390D01*
X197524285Y-93523390D02*
X197571904Y-93571009D01*
X197571904Y-93571009D02*
X197619523Y-93666247D01*
X197619523Y-93666247D02*
X197619523Y-93904342D01*
X197619523Y-93904342D02*
X197571904Y-93999580D01*
X197571904Y-93999580D02*
X197524285Y-94047200D01*
X197524285Y-94047200D02*
X197429047Y-94094819D01*
X197429047Y-94094819D02*
X197143333Y-94094819D01*
X197143333Y-94094819D02*
X197048095Y-94047200D01*
X197048095Y-94047200D02*
X197000476Y-93999580D01*
X222128095Y-93094819D02*
X222128095Y-93904342D01*
X222128095Y-93904342D02*
X222175714Y-93999580D01*
X222175714Y-93999580D02*
X222223333Y-94047200D01*
X222223333Y-94047200D02*
X222318571Y-94094819D01*
X222318571Y-94094819D02*
X222509047Y-94094819D01*
X222509047Y-94094819D02*
X222604285Y-94047200D01*
X222604285Y-94047200D02*
X222651904Y-93999580D01*
X222651904Y-93999580D02*
X222699523Y-93904342D01*
X222699523Y-93904342D02*
X222699523Y-93094819D01*
X223699523Y-94094819D02*
X223128095Y-94094819D01*
X223413809Y-94094819D02*
X223413809Y-93094819D01*
X223413809Y-93094819D02*
X223318571Y-93237676D01*
X223318571Y-93237676D02*
X223223333Y-93332914D01*
X223223333Y-93332914D02*
X223128095Y-93380533D01*
X186513333Y-69039580D02*
X186465714Y-69087200D01*
X186465714Y-69087200D02*
X186322857Y-69134819D01*
X186322857Y-69134819D02*
X186227619Y-69134819D01*
X186227619Y-69134819D02*
X186084762Y-69087200D01*
X186084762Y-69087200D02*
X185989524Y-68991961D01*
X185989524Y-68991961D02*
X185941905Y-68896723D01*
X185941905Y-68896723D02*
X185894286Y-68706247D01*
X185894286Y-68706247D02*
X185894286Y-68563390D01*
X185894286Y-68563390D02*
X185941905Y-68372914D01*
X185941905Y-68372914D02*
X185989524Y-68277676D01*
X185989524Y-68277676D02*
X186084762Y-68182438D01*
X186084762Y-68182438D02*
X186227619Y-68134819D01*
X186227619Y-68134819D02*
X186322857Y-68134819D01*
X186322857Y-68134819D02*
X186465714Y-68182438D01*
X186465714Y-68182438D02*
X186513333Y-68230057D01*
X187418095Y-68134819D02*
X186941905Y-68134819D01*
X186941905Y-68134819D02*
X186894286Y-68611009D01*
X186894286Y-68611009D02*
X186941905Y-68563390D01*
X186941905Y-68563390D02*
X187037143Y-68515771D01*
X187037143Y-68515771D02*
X187275238Y-68515771D01*
X187275238Y-68515771D02*
X187370476Y-68563390D01*
X187370476Y-68563390D02*
X187418095Y-68611009D01*
X187418095Y-68611009D02*
X187465714Y-68706247D01*
X187465714Y-68706247D02*
X187465714Y-68944342D01*
X187465714Y-68944342D02*
X187418095Y-69039580D01*
X187418095Y-69039580D02*
X187370476Y-69087200D01*
X187370476Y-69087200D02*
X187275238Y-69134819D01*
X187275238Y-69134819D02*
X187037143Y-69134819D01*
X187037143Y-69134819D02*
X186941905Y-69087200D01*
X186941905Y-69087200D02*
X186894286Y-69039580D01*
X199488333Y-69039580D02*
X199440714Y-69087200D01*
X199440714Y-69087200D02*
X199297857Y-69134819D01*
X199297857Y-69134819D02*
X199202619Y-69134819D01*
X199202619Y-69134819D02*
X199059762Y-69087200D01*
X199059762Y-69087200D02*
X198964524Y-68991961D01*
X198964524Y-68991961D02*
X198916905Y-68896723D01*
X198916905Y-68896723D02*
X198869286Y-68706247D01*
X198869286Y-68706247D02*
X198869286Y-68563390D01*
X198869286Y-68563390D02*
X198916905Y-68372914D01*
X198916905Y-68372914D02*
X198964524Y-68277676D01*
X198964524Y-68277676D02*
X199059762Y-68182438D01*
X199059762Y-68182438D02*
X199202619Y-68134819D01*
X199202619Y-68134819D02*
X199297857Y-68134819D01*
X199297857Y-68134819D02*
X199440714Y-68182438D01*
X199440714Y-68182438D02*
X199488333Y-68230057D01*
X200345476Y-68468152D02*
X200345476Y-69134819D01*
X200107381Y-68087200D02*
X199869286Y-68801485D01*
X199869286Y-68801485D02*
X200488333Y-68801485D01*
X215733333Y-62024580D02*
X215685714Y-62072200D01*
X215685714Y-62072200D02*
X215542857Y-62119819D01*
X215542857Y-62119819D02*
X215447619Y-62119819D01*
X215447619Y-62119819D02*
X215304762Y-62072200D01*
X215304762Y-62072200D02*
X215209524Y-61976961D01*
X215209524Y-61976961D02*
X215161905Y-61881723D01*
X215161905Y-61881723D02*
X215114286Y-61691247D01*
X215114286Y-61691247D02*
X215114286Y-61548390D01*
X215114286Y-61548390D02*
X215161905Y-61357914D01*
X215161905Y-61357914D02*
X215209524Y-61262676D01*
X215209524Y-61262676D02*
X215304762Y-61167438D01*
X215304762Y-61167438D02*
X215447619Y-61119819D01*
X215447619Y-61119819D02*
X215542857Y-61119819D01*
X215542857Y-61119819D02*
X215685714Y-61167438D01*
X215685714Y-61167438D02*
X215733333Y-61215057D01*
X216685714Y-62119819D02*
X216114286Y-62119819D01*
X216400000Y-62119819D02*
X216400000Y-61119819D01*
X216400000Y-61119819D02*
X216304762Y-61262676D01*
X216304762Y-61262676D02*
X216209524Y-61357914D01*
X216209524Y-61357914D02*
X216114286Y-61405533D01*
X155138095Y-97804819D02*
X155138095Y-98614342D01*
X155138095Y-98614342D02*
X155185714Y-98709580D01*
X155185714Y-98709580D02*
X155233333Y-98757200D01*
X155233333Y-98757200D02*
X155328571Y-98804819D01*
X155328571Y-98804819D02*
X155519047Y-98804819D01*
X155519047Y-98804819D02*
X155614285Y-98757200D01*
X155614285Y-98757200D02*
X155661904Y-98709580D01*
X155661904Y-98709580D02*
X155709523Y-98614342D01*
X155709523Y-98614342D02*
X155709523Y-97804819D01*
X156233333Y-98804819D02*
X156423809Y-98804819D01*
X156423809Y-98804819D02*
X156519047Y-98757200D01*
X156519047Y-98757200D02*
X156566666Y-98709580D01*
X156566666Y-98709580D02*
X156661904Y-98566723D01*
X156661904Y-98566723D02*
X156709523Y-98376247D01*
X156709523Y-98376247D02*
X156709523Y-97995295D01*
X156709523Y-97995295D02*
X156661904Y-97900057D01*
X156661904Y-97900057D02*
X156614285Y-97852438D01*
X156614285Y-97852438D02*
X156519047Y-97804819D01*
X156519047Y-97804819D02*
X156328571Y-97804819D01*
X156328571Y-97804819D02*
X156233333Y-97852438D01*
X156233333Y-97852438D02*
X156185714Y-97900057D01*
X156185714Y-97900057D02*
X156138095Y-97995295D01*
X156138095Y-97995295D02*
X156138095Y-98233390D01*
X156138095Y-98233390D02*
X156185714Y-98328628D01*
X156185714Y-98328628D02*
X156233333Y-98376247D01*
X156233333Y-98376247D02*
X156328571Y-98423866D01*
X156328571Y-98423866D02*
X156519047Y-98423866D01*
X156519047Y-98423866D02*
X156614285Y-98376247D01*
X156614285Y-98376247D02*
X156661904Y-98328628D01*
X156661904Y-98328628D02*
X156709523Y-98233390D01*
X159301905Y-58234819D02*
X159301905Y-59044342D01*
X159301905Y-59044342D02*
X159349524Y-59139580D01*
X159349524Y-59139580D02*
X159397143Y-59187200D01*
X159397143Y-59187200D02*
X159492381Y-59234819D01*
X159492381Y-59234819D02*
X159682857Y-59234819D01*
X159682857Y-59234819D02*
X159778095Y-59187200D01*
X159778095Y-59187200D02*
X159825714Y-59139580D01*
X159825714Y-59139580D02*
X159873333Y-59044342D01*
X159873333Y-59044342D02*
X159873333Y-58234819D01*
X160873333Y-59234819D02*
X160301905Y-59234819D01*
X160587619Y-59234819D02*
X160587619Y-58234819D01*
X160587619Y-58234819D02*
X160492381Y-58377676D01*
X160492381Y-58377676D02*
X160397143Y-58472914D01*
X160397143Y-58472914D02*
X160301905Y-58520533D01*
X161254286Y-58330057D02*
X161301905Y-58282438D01*
X161301905Y-58282438D02*
X161397143Y-58234819D01*
X161397143Y-58234819D02*
X161635238Y-58234819D01*
X161635238Y-58234819D02*
X161730476Y-58282438D01*
X161730476Y-58282438D02*
X161778095Y-58330057D01*
X161778095Y-58330057D02*
X161825714Y-58425295D01*
X161825714Y-58425295D02*
X161825714Y-58520533D01*
X161825714Y-58520533D02*
X161778095Y-58663390D01*
X161778095Y-58663390D02*
X161206667Y-59234819D01*
X161206667Y-59234819D02*
X161825714Y-59234819D01*
X145451905Y-58234819D02*
X145451905Y-59044342D01*
X145451905Y-59044342D02*
X145499524Y-59139580D01*
X145499524Y-59139580D02*
X145547143Y-59187200D01*
X145547143Y-59187200D02*
X145642381Y-59234819D01*
X145642381Y-59234819D02*
X145832857Y-59234819D01*
X145832857Y-59234819D02*
X145928095Y-59187200D01*
X145928095Y-59187200D02*
X145975714Y-59139580D01*
X145975714Y-59139580D02*
X146023333Y-59044342D01*
X146023333Y-59044342D02*
X146023333Y-58234819D01*
X147023333Y-59234819D02*
X146451905Y-59234819D01*
X146737619Y-59234819D02*
X146737619Y-58234819D01*
X146737619Y-58234819D02*
X146642381Y-58377676D01*
X146642381Y-58377676D02*
X146547143Y-58472914D01*
X146547143Y-58472914D02*
X146451905Y-58520533D01*
X147975714Y-59234819D02*
X147404286Y-59234819D01*
X147690000Y-59234819D02*
X147690000Y-58234819D01*
X147690000Y-58234819D02*
X147594762Y-58377676D01*
X147594762Y-58377676D02*
X147499524Y-58472914D01*
X147499524Y-58472914D02*
X147404286Y-58520533D01*
X190623333Y-62304580D02*
X190575714Y-62352200D01*
X190575714Y-62352200D02*
X190432857Y-62399819D01*
X190432857Y-62399819D02*
X190337619Y-62399819D01*
X190337619Y-62399819D02*
X190194762Y-62352200D01*
X190194762Y-62352200D02*
X190099524Y-62256961D01*
X190099524Y-62256961D02*
X190051905Y-62161723D01*
X190051905Y-62161723D02*
X190004286Y-61971247D01*
X190004286Y-61971247D02*
X190004286Y-61828390D01*
X190004286Y-61828390D02*
X190051905Y-61637914D01*
X190051905Y-61637914D02*
X190099524Y-61542676D01*
X190099524Y-61542676D02*
X190194762Y-61447438D01*
X190194762Y-61447438D02*
X190337619Y-61399819D01*
X190337619Y-61399819D02*
X190432857Y-61399819D01*
X190432857Y-61399819D02*
X190575714Y-61447438D01*
X190575714Y-61447438D02*
X190623333Y-61495057D01*
X191004286Y-61495057D02*
X191051905Y-61447438D01*
X191051905Y-61447438D02*
X191147143Y-61399819D01*
X191147143Y-61399819D02*
X191385238Y-61399819D01*
X191385238Y-61399819D02*
X191480476Y-61447438D01*
X191480476Y-61447438D02*
X191528095Y-61495057D01*
X191528095Y-61495057D02*
X191575714Y-61590295D01*
X191575714Y-61590295D02*
X191575714Y-61685533D01*
X191575714Y-61685533D02*
X191528095Y-61828390D01*
X191528095Y-61828390D02*
X190956667Y-62399819D01*
X190956667Y-62399819D02*
X191575714Y-62399819D01*
X182978095Y-93094819D02*
X182978095Y-93904342D01*
X182978095Y-93904342D02*
X183025714Y-93999580D01*
X183025714Y-93999580D02*
X183073333Y-94047200D01*
X183073333Y-94047200D02*
X183168571Y-94094819D01*
X183168571Y-94094819D02*
X183359047Y-94094819D01*
X183359047Y-94094819D02*
X183454285Y-94047200D01*
X183454285Y-94047200D02*
X183501904Y-93999580D01*
X183501904Y-93999580D02*
X183549523Y-93904342D01*
X183549523Y-93904342D02*
X183549523Y-93094819D01*
X184454285Y-93428152D02*
X184454285Y-94094819D01*
X184216190Y-93047200D02*
X183978095Y-93761485D01*
X183978095Y-93761485D02*
X184597142Y-93761485D01*
X166873333Y-99244819D02*
X166540000Y-98768628D01*
X166301905Y-99244819D02*
X166301905Y-98244819D01*
X166301905Y-98244819D02*
X166682857Y-98244819D01*
X166682857Y-98244819D02*
X166778095Y-98292438D01*
X166778095Y-98292438D02*
X166825714Y-98340057D01*
X166825714Y-98340057D02*
X166873333Y-98435295D01*
X166873333Y-98435295D02*
X166873333Y-98578152D01*
X166873333Y-98578152D02*
X166825714Y-98673390D01*
X166825714Y-98673390D02*
X166778095Y-98721009D01*
X166778095Y-98721009D02*
X166682857Y-98768628D01*
X166682857Y-98768628D02*
X166301905Y-98768628D01*
X167825714Y-99244819D02*
X167254286Y-99244819D01*
X167540000Y-99244819D02*
X167540000Y-98244819D01*
X167540000Y-98244819D02*
X167444762Y-98387676D01*
X167444762Y-98387676D02*
X167349524Y-98482914D01*
X167349524Y-98482914D02*
X167254286Y-98530533D01*
X154591905Y-86004819D02*
X154591905Y-86814342D01*
X154591905Y-86814342D02*
X154639524Y-86909580D01*
X154639524Y-86909580D02*
X154687143Y-86957200D01*
X154687143Y-86957200D02*
X154782381Y-87004819D01*
X154782381Y-87004819D02*
X154972857Y-87004819D01*
X154972857Y-87004819D02*
X155068095Y-86957200D01*
X155068095Y-86957200D02*
X155115714Y-86909580D01*
X155115714Y-86909580D02*
X155163333Y-86814342D01*
X155163333Y-86814342D02*
X155163333Y-86004819D01*
X156163333Y-87004819D02*
X155591905Y-87004819D01*
X155877619Y-87004819D02*
X155877619Y-86004819D01*
X155877619Y-86004819D02*
X155782381Y-86147676D01*
X155782381Y-86147676D02*
X155687143Y-86242914D01*
X155687143Y-86242914D02*
X155591905Y-86290533D01*
X156782381Y-86004819D02*
X156877619Y-86004819D01*
X156877619Y-86004819D02*
X156972857Y-86052438D01*
X156972857Y-86052438D02*
X157020476Y-86100057D01*
X157020476Y-86100057D02*
X157068095Y-86195295D01*
X157068095Y-86195295D02*
X157115714Y-86385771D01*
X157115714Y-86385771D02*
X157115714Y-86623866D01*
X157115714Y-86623866D02*
X157068095Y-86814342D01*
X157068095Y-86814342D02*
X157020476Y-86909580D01*
X157020476Y-86909580D02*
X156972857Y-86957200D01*
X156972857Y-86957200D02*
X156877619Y-87004819D01*
X156877619Y-87004819D02*
X156782381Y-87004819D01*
X156782381Y-87004819D02*
X156687143Y-86957200D01*
X156687143Y-86957200D02*
X156639524Y-86909580D01*
X156639524Y-86909580D02*
X156591905Y-86814342D01*
X156591905Y-86814342D02*
X156544286Y-86623866D01*
X156544286Y-86623866D02*
X156544286Y-86385771D01*
X156544286Y-86385771D02*
X156591905Y-86195295D01*
X156591905Y-86195295D02*
X156639524Y-86100057D01*
X156639524Y-86100057D02*
X156687143Y-86052438D01*
X156687143Y-86052438D02*
X156782381Y-86004819D01*
X209058095Y-93094819D02*
X209058095Y-93904342D01*
X209058095Y-93904342D02*
X209105714Y-93999580D01*
X209105714Y-93999580D02*
X209153333Y-94047200D01*
X209153333Y-94047200D02*
X209248571Y-94094819D01*
X209248571Y-94094819D02*
X209439047Y-94094819D01*
X209439047Y-94094819D02*
X209534285Y-94047200D01*
X209534285Y-94047200D02*
X209581904Y-93999580D01*
X209581904Y-93999580D02*
X209629523Y-93904342D01*
X209629523Y-93904342D02*
X209629523Y-93094819D01*
X210058095Y-93190057D02*
X210105714Y-93142438D01*
X210105714Y-93142438D02*
X210200952Y-93094819D01*
X210200952Y-93094819D02*
X210439047Y-93094819D01*
X210439047Y-93094819D02*
X210534285Y-93142438D01*
X210534285Y-93142438D02*
X210581904Y-93190057D01*
X210581904Y-93190057D02*
X210629523Y-93285295D01*
X210629523Y-93285295D02*
X210629523Y-93380533D01*
X210629523Y-93380533D02*
X210581904Y-93523390D01*
X210581904Y-93523390D02*
X210010476Y-94094819D01*
X210010476Y-94094819D02*
X210629523Y-94094819D01*
X212203333Y-69039580D02*
X212155714Y-69087200D01*
X212155714Y-69087200D02*
X212012857Y-69134819D01*
X212012857Y-69134819D02*
X211917619Y-69134819D01*
X211917619Y-69134819D02*
X211774762Y-69087200D01*
X211774762Y-69087200D02*
X211679524Y-68991961D01*
X211679524Y-68991961D02*
X211631905Y-68896723D01*
X211631905Y-68896723D02*
X211584286Y-68706247D01*
X211584286Y-68706247D02*
X211584286Y-68563390D01*
X211584286Y-68563390D02*
X211631905Y-68372914D01*
X211631905Y-68372914D02*
X211679524Y-68277676D01*
X211679524Y-68277676D02*
X211774762Y-68182438D01*
X211774762Y-68182438D02*
X211917619Y-68134819D01*
X211917619Y-68134819D02*
X212012857Y-68134819D01*
X212012857Y-68134819D02*
X212155714Y-68182438D01*
X212155714Y-68182438D02*
X212203333Y-68230057D01*
X213060476Y-68134819D02*
X212870000Y-68134819D01*
X212870000Y-68134819D02*
X212774762Y-68182438D01*
X212774762Y-68182438D02*
X212727143Y-68230057D01*
X212727143Y-68230057D02*
X212631905Y-68372914D01*
X212631905Y-68372914D02*
X212584286Y-68563390D01*
X212584286Y-68563390D02*
X212584286Y-68944342D01*
X212584286Y-68944342D02*
X212631905Y-69039580D01*
X212631905Y-69039580D02*
X212679524Y-69087200D01*
X212679524Y-69087200D02*
X212774762Y-69134819D01*
X212774762Y-69134819D02*
X212965238Y-69134819D01*
X212965238Y-69134819D02*
X213060476Y-69087200D01*
X213060476Y-69087200D02*
X213108095Y-69039580D01*
X213108095Y-69039580D02*
X213155714Y-68944342D01*
X213155714Y-68944342D02*
X213155714Y-68706247D01*
X213155714Y-68706247D02*
X213108095Y-68611009D01*
X213108095Y-68611009D02*
X213060476Y-68563390D01*
X213060476Y-68563390D02*
X212965238Y-68515771D01*
X212965238Y-68515771D02*
X212774762Y-68515771D01*
X212774762Y-68515771D02*
X212679524Y-68563390D01*
X212679524Y-68563390D02*
X212631905Y-68611009D01*
X212631905Y-68611009D02*
X212584286Y-68706247D01*
D14*
%TO.C,C3*%
X226061252Y-69795000D02*
X225538748Y-69795000D01*
X226061252Y-71265000D02*
X225538748Y-71265000D01*
D15*
%TO.C,U3*%
X192953332Y-71547500D02*
X192953332Y-71927500D01*
X192953332Y-71547500D02*
X195863332Y-71547500D01*
X192953332Y-73097500D02*
X192953332Y-73197500D01*
X192953332Y-74367500D02*
X192953332Y-74467500D01*
X192953332Y-75637500D02*
X192953332Y-75737500D01*
X192953332Y-76907500D02*
X192953332Y-77007500D01*
X192953332Y-78177500D02*
X192953332Y-78277500D01*
X192953332Y-79447500D02*
X192953332Y-79547500D01*
X192953332Y-80717500D02*
X192953332Y-80817500D01*
X192953332Y-81987500D02*
X192953332Y-82087500D01*
X192953332Y-83257500D02*
X192953332Y-83357500D01*
X192953332Y-84527500D02*
X192953332Y-84627500D01*
X192953332Y-85797500D02*
X192953332Y-85897500D01*
X192953332Y-87067500D02*
X192953332Y-87167500D01*
X192953332Y-88337500D02*
X192953332Y-88437500D01*
X192953332Y-89607500D02*
X192953332Y-89707500D01*
X192953332Y-90877500D02*
X192953332Y-90977500D01*
X192953332Y-92147500D02*
X192953332Y-92527500D01*
X197843332Y-71547500D02*
X200753332Y-71547500D01*
X200753332Y-71547500D02*
X200753332Y-71927500D01*
X200753332Y-73097500D02*
X200753332Y-73197500D01*
X200753332Y-74367500D02*
X200753332Y-74467500D01*
X200753332Y-75637500D02*
X200753332Y-75737500D01*
X200753332Y-76907500D02*
X200753332Y-77007500D01*
X200753332Y-78177500D02*
X200753332Y-78277500D01*
X200753332Y-79447500D02*
X200753332Y-79547500D01*
X200753332Y-80717500D02*
X200753332Y-80817500D01*
X200753332Y-81987500D02*
X200753332Y-82087500D01*
X200753332Y-83257500D02*
X200753332Y-83357500D01*
X200753332Y-84527500D02*
X200753332Y-84627500D01*
X200753332Y-85797500D02*
X200753332Y-85897500D01*
X200753332Y-87067500D02*
X200753332Y-87167500D01*
X200753332Y-88337500D02*
X200753332Y-88437500D01*
X200753332Y-89607500D02*
X200753332Y-89707500D01*
X200753332Y-90877500D02*
X200753332Y-90977500D01*
X200753332Y-92147500D02*
X200753332Y-92527500D01*
X200753332Y-92527500D02*
X192953332Y-92527500D01*
X195853484Y-71540048D02*
G75*
G02*
X195853332Y-71557500I999848J-17435D01*
G01*
X192533332Y-71367500D02*
G75*
G02*
X192033332Y-71367500I-250000J0D01*
G01*
X192033332Y-71367500D02*
G75*
G02*
X192533332Y-71367500I250000J0D01*
G01*
%TO.C,U1*%
X219020000Y-71547500D02*
X219020000Y-71927500D01*
X219020000Y-71547500D02*
X221930000Y-71547500D01*
X219020000Y-73097500D02*
X219020000Y-73197500D01*
X219020000Y-74367500D02*
X219020000Y-74467500D01*
X219020000Y-75637500D02*
X219020000Y-75737500D01*
X219020000Y-76907500D02*
X219020000Y-77007500D01*
X219020000Y-78177500D02*
X219020000Y-78277500D01*
X219020000Y-79447500D02*
X219020000Y-79547500D01*
X219020000Y-80717500D02*
X219020000Y-80817500D01*
X219020000Y-81987500D02*
X219020000Y-82087500D01*
X219020000Y-83257500D02*
X219020000Y-83357500D01*
X219020000Y-84527500D02*
X219020000Y-84627500D01*
X219020000Y-85797500D02*
X219020000Y-85897500D01*
X219020000Y-87067500D02*
X219020000Y-87167500D01*
X219020000Y-88337500D02*
X219020000Y-88437500D01*
X219020000Y-89607500D02*
X219020000Y-89707500D01*
X219020000Y-90877500D02*
X219020000Y-90977500D01*
X219020000Y-92147500D02*
X219020000Y-92527500D01*
X223910000Y-71547500D02*
X226820000Y-71547500D01*
X226820000Y-71547500D02*
X226820000Y-71927500D01*
X226820000Y-73097500D02*
X226820000Y-73197500D01*
X226820000Y-74367500D02*
X226820000Y-74467500D01*
X226820000Y-75637500D02*
X226820000Y-75737500D01*
X226820000Y-76907500D02*
X226820000Y-77007500D01*
X226820000Y-78177500D02*
X226820000Y-78277500D01*
X226820000Y-79447500D02*
X226820000Y-79547500D01*
X226820000Y-80717500D02*
X226820000Y-80817500D01*
X226820000Y-81987500D02*
X226820000Y-82087500D01*
X226820000Y-83257500D02*
X226820000Y-83357500D01*
X226820000Y-84527500D02*
X226820000Y-84627500D01*
X226820000Y-85797500D02*
X226820000Y-85897500D01*
X226820000Y-87067500D02*
X226820000Y-87167500D01*
X226820000Y-88337500D02*
X226820000Y-88437500D01*
X226820000Y-89607500D02*
X226820000Y-89707500D01*
X226820000Y-90877500D02*
X226820000Y-90977500D01*
X226820000Y-92147500D02*
X226820000Y-92527500D01*
X226820000Y-92527500D02*
X219020000Y-92527500D01*
X221920152Y-71540048D02*
G75*
G02*
X221920000Y-71557500I999848J-17435D01*
G01*
X218600000Y-71367500D02*
G75*
G02*
X218100000Y-71367500I-250000J0D01*
G01*
X218100000Y-71367500D02*
G75*
G02*
X218600000Y-71367500I250000J0D01*
G01*
D14*
%TO.C,R2*%
X142817500Y-101542258D02*
X142817500Y-101067742D01*
X143862500Y-101542258D02*
X143862500Y-101067742D01*
%TO.C,R5*%
X140947500Y-99892258D02*
X140947500Y-99417742D01*
X141992500Y-99892258D02*
X141992500Y-99417742D01*
%TO.C,R3*%
X140947500Y-101542258D02*
X140947500Y-101067742D01*
X141992500Y-101542258D02*
X141992500Y-101067742D01*
%TO.C,C5*%
X186941252Y-69795000D02*
X186418748Y-69795000D01*
X186941252Y-71265000D02*
X186418748Y-71265000D01*
%TO.C,C4*%
X199991252Y-69795000D02*
X199468748Y-69795000D01*
X199991252Y-71265000D02*
X199468748Y-71265000D01*
%TO.C,C1*%
X216611252Y-62680000D02*
X215188748Y-62680000D01*
X216611252Y-64500000D02*
X215188748Y-64500000D01*
D15*
%TO.C,U9*%
X145370000Y-88590000D02*
X145750000Y-88590000D01*
X145370000Y-91500000D02*
X145370000Y-88590000D01*
X145370000Y-96390000D02*
X145370000Y-93480000D01*
X145370000Y-96390000D02*
X145750000Y-96390000D01*
X146920000Y-88590000D02*
X147020000Y-88590000D01*
X146920000Y-96390000D02*
X147020000Y-96390000D01*
X148190000Y-88590000D02*
X148290000Y-88590000D01*
X148190000Y-96390000D02*
X148290000Y-96390000D01*
X149460000Y-88590000D02*
X149560000Y-88590000D01*
X149460000Y-96390000D02*
X149560000Y-96390000D01*
X150730000Y-88590000D02*
X150830000Y-88590000D01*
X150730000Y-96390000D02*
X150830000Y-96390000D01*
X152000000Y-88590000D02*
X152100000Y-88590000D01*
X152000000Y-96390000D02*
X152100000Y-96390000D01*
X153270000Y-88590000D02*
X153370000Y-88590000D01*
X153270000Y-96390000D02*
X153370000Y-96390000D01*
X154540000Y-88590000D02*
X154640000Y-88590000D01*
X154540000Y-96390000D02*
X154640000Y-96390000D01*
X155810000Y-88590000D02*
X155910000Y-88590000D01*
X155810000Y-96390000D02*
X155910000Y-96390000D01*
X157080000Y-88590000D02*
X157180000Y-88590000D01*
X157080000Y-96390000D02*
X157180000Y-96390000D01*
X158350000Y-88590000D02*
X158450000Y-88590000D01*
X158350000Y-96390000D02*
X158450000Y-96390000D01*
X159620000Y-88590000D02*
X159720000Y-88590000D01*
X159620000Y-96390000D02*
X159720000Y-96390000D01*
X160890000Y-88590000D02*
X160990000Y-88590000D01*
X160890000Y-96390000D02*
X160990000Y-96390000D01*
X162160000Y-88590000D02*
X162260000Y-88590000D01*
X162160000Y-96390000D02*
X162260000Y-96390000D01*
X163430000Y-88590000D02*
X163530000Y-88590000D01*
X163430000Y-96390000D02*
X163530000Y-96390000D01*
X164700000Y-88590000D02*
X164800000Y-88590000D01*
X164700000Y-96390000D02*
X164800000Y-96390000D01*
X165970000Y-88590000D02*
X166350000Y-88590000D01*
X165970000Y-96390000D02*
X166350000Y-96390000D01*
X166350000Y-88590000D02*
X166350000Y-96390000D01*
X145362548Y-93489848D02*
G75*
G02*
X145380000Y-93490000I17435J999848D01*
G01*
X145440000Y-97060000D02*
G75*
G02*
X144940000Y-97060000I-250000J0D01*
G01*
X144940000Y-97060000D02*
G75*
G02*
X145440000Y-97060000I250000J0D01*
G01*
%TO.C,U12*%
X155540343Y-68970721D02*
G75*
G02*
X154620343Y-68970721I-460000J0D01*
G01*
X154620343Y-68970721D02*
G75*
G02*
X155540343Y-68970721I460000J0D01*
G01*
X154190350Y-65475071D02*
G75*
G02*
X154150343Y-67130721I-110007J-825650D01*
G01*
X166890343Y-69400721D02*
X166890343Y-69990721D01*
X166890343Y-63260721D02*
X166890343Y-69400721D01*
X166890343Y-63260721D02*
X166890343Y-62620721D01*
X154180343Y-65480721D02*
X154180343Y-62620721D01*
X154150343Y-67130721D02*
X154150343Y-69990721D01*
%TO.C,U11*%
X140340343Y-67130721D02*
X140340343Y-69990721D01*
X140370343Y-65480721D02*
X140370343Y-62620721D01*
X153080343Y-63260721D02*
X153080343Y-62620721D01*
X153080343Y-63260721D02*
X153080343Y-69400721D01*
X153080343Y-69400721D02*
X153080343Y-69990721D01*
X140380350Y-65475071D02*
G75*
G02*
X140340343Y-67130721I-110007J-825650D01*
G01*
X141730343Y-68970721D02*
G75*
G02*
X140810343Y-68970721I-460000J0D01*
G01*
X140810343Y-68970721D02*
G75*
G02*
X141730343Y-68970721I460000J0D01*
G01*
D14*
%TO.C,R4*%
X142817500Y-99892258D02*
X142817500Y-99417742D01*
X143862500Y-99892258D02*
X143862500Y-99417742D01*
%TO.C,C2*%
X191601252Y-62810000D02*
X190178748Y-62810000D01*
X191601252Y-64630000D02*
X190178748Y-64630000D01*
D15*
%TO.C,U4*%
X179906666Y-71547500D02*
X179906666Y-71927500D01*
X179906666Y-71547500D02*
X182816666Y-71547500D01*
X179906666Y-73097500D02*
X179906666Y-73197500D01*
X179906666Y-74367500D02*
X179906666Y-74467500D01*
X179906666Y-75637500D02*
X179906666Y-75737500D01*
X179906666Y-76907500D02*
X179906666Y-77007500D01*
X179906666Y-78177500D02*
X179906666Y-78277500D01*
X179906666Y-79447500D02*
X179906666Y-79547500D01*
X179906666Y-80717500D02*
X179906666Y-80817500D01*
X179906666Y-81987500D02*
X179906666Y-82087500D01*
X179906666Y-83257500D02*
X179906666Y-83357500D01*
X179906666Y-84527500D02*
X179906666Y-84627500D01*
X179906666Y-85797500D02*
X179906666Y-85897500D01*
X179906666Y-87067500D02*
X179906666Y-87167500D01*
X179906666Y-88337500D02*
X179906666Y-88437500D01*
X179906666Y-89607500D02*
X179906666Y-89707500D01*
X179906666Y-90877500D02*
X179906666Y-90977500D01*
X179906666Y-92147500D02*
X179906666Y-92527500D01*
X184796666Y-71547500D02*
X187706666Y-71547500D01*
X187706666Y-71547500D02*
X187706666Y-71927500D01*
X187706666Y-73097500D02*
X187706666Y-73197500D01*
X187706666Y-74367500D02*
X187706666Y-74467500D01*
X187706666Y-75637500D02*
X187706666Y-75737500D01*
X187706666Y-76907500D02*
X187706666Y-77007500D01*
X187706666Y-78177500D02*
X187706666Y-78277500D01*
X187706666Y-79447500D02*
X187706666Y-79547500D01*
X187706666Y-80717500D02*
X187706666Y-80817500D01*
X187706666Y-81987500D02*
X187706666Y-82087500D01*
X187706666Y-83257500D02*
X187706666Y-83357500D01*
X187706666Y-84527500D02*
X187706666Y-84627500D01*
X187706666Y-85797500D02*
X187706666Y-85897500D01*
X187706666Y-87067500D02*
X187706666Y-87167500D01*
X187706666Y-88337500D02*
X187706666Y-88437500D01*
X187706666Y-89607500D02*
X187706666Y-89707500D01*
X187706666Y-90877500D02*
X187706666Y-90977500D01*
X187706666Y-92147500D02*
X187706666Y-92527500D01*
X187706666Y-92527500D02*
X179906666Y-92527500D01*
X182806818Y-71540048D02*
G75*
G02*
X182806666Y-71557500I999848J-17435D01*
G01*
X179486666Y-71367500D02*
G75*
G02*
X178986666Y-71367500I-250000J0D01*
G01*
X178986666Y-71367500D02*
G75*
G02*
X179486666Y-71367500I250000J0D01*
G01*
D14*
%TO.C,R1*%
X164342742Y-98267500D02*
X164817258Y-98267500D01*
X164342742Y-99312500D02*
X164817258Y-99312500D01*
D15*
%TO.C,U10*%
X145400000Y-76660000D02*
X145780000Y-76660000D01*
X145400000Y-79570000D02*
X145400000Y-76660000D01*
X145400000Y-84460000D02*
X145400000Y-81550000D01*
X145400000Y-84460000D02*
X145780000Y-84460000D01*
X146950000Y-76660000D02*
X147050000Y-76660000D01*
X146950000Y-84460000D02*
X147050000Y-84460000D01*
X148220000Y-76660000D02*
X148320000Y-76660000D01*
X148220000Y-84460000D02*
X148320000Y-84460000D01*
X149490000Y-76660000D02*
X149590000Y-76660000D01*
X149490000Y-84460000D02*
X149590000Y-84460000D01*
X150760000Y-76660000D02*
X150860000Y-76660000D01*
X150760000Y-84460000D02*
X150860000Y-84460000D01*
X152030000Y-76660000D02*
X152130000Y-76660000D01*
X152030000Y-84460000D02*
X152130000Y-84460000D01*
X153300000Y-76660000D02*
X153400000Y-76660000D01*
X153300000Y-84460000D02*
X153400000Y-84460000D01*
X154570000Y-76660000D02*
X154670000Y-76660000D01*
X154570000Y-84460000D02*
X154670000Y-84460000D01*
X155840000Y-76660000D02*
X155940000Y-76660000D01*
X155840000Y-84460000D02*
X155940000Y-84460000D01*
X157110000Y-76660000D02*
X157210000Y-76660000D01*
X157110000Y-84460000D02*
X157210000Y-84460000D01*
X158380000Y-76660000D02*
X158480000Y-76660000D01*
X158380000Y-84460000D02*
X158480000Y-84460000D01*
X159650000Y-76660000D02*
X159750000Y-76660000D01*
X159650000Y-84460000D02*
X159750000Y-84460000D01*
X160920000Y-76660000D02*
X161020000Y-76660000D01*
X160920000Y-84460000D02*
X161020000Y-84460000D01*
X162190000Y-76660000D02*
X162290000Y-76660000D01*
X162190000Y-84460000D02*
X162290000Y-84460000D01*
X163460000Y-76660000D02*
X163560000Y-76660000D01*
X163460000Y-84460000D02*
X163560000Y-84460000D01*
X164730000Y-76660000D02*
X164830000Y-76660000D01*
X164730000Y-84460000D02*
X164830000Y-84460000D01*
X166000000Y-76660000D02*
X166380000Y-76660000D01*
X166000000Y-84460000D02*
X166380000Y-84460000D01*
X166380000Y-76660000D02*
X166380000Y-84460000D01*
X145392548Y-81559848D02*
G75*
G02*
X145410000Y-81560000I17435J999848D01*
G01*
X145470000Y-85130000D02*
G75*
G02*
X144970000Y-85130000I-250000J0D01*
G01*
X144970000Y-85130000D02*
G75*
G02*
X145470000Y-85130000I250000J0D01*
G01*
%TO.C,U2*%
X205976666Y-71547500D02*
X205976666Y-71927500D01*
X205976666Y-71547500D02*
X208886666Y-71547500D01*
X205976666Y-73097500D02*
X205976666Y-73197500D01*
X205976666Y-74367500D02*
X205976666Y-74467500D01*
X205976666Y-75637500D02*
X205976666Y-75737500D01*
X205976666Y-76907500D02*
X205976666Y-77007500D01*
X205976666Y-78177500D02*
X205976666Y-78277500D01*
X205976666Y-79447500D02*
X205976666Y-79547500D01*
X205976666Y-80717500D02*
X205976666Y-80817500D01*
X205976666Y-81987500D02*
X205976666Y-82087500D01*
X205976666Y-83257500D02*
X205976666Y-83357500D01*
X205976666Y-84527500D02*
X205976666Y-84627500D01*
X205976666Y-85797500D02*
X205976666Y-85897500D01*
X205976666Y-87067500D02*
X205976666Y-87167500D01*
X205976666Y-88337500D02*
X205976666Y-88437500D01*
X205976666Y-89607500D02*
X205976666Y-89707500D01*
X205976666Y-90877500D02*
X205976666Y-90977500D01*
X205976666Y-92147500D02*
X205976666Y-92527500D01*
X210866666Y-71547500D02*
X213776666Y-71547500D01*
X213776666Y-71547500D02*
X213776666Y-71927500D01*
X213776666Y-73097500D02*
X213776666Y-73197500D01*
X213776666Y-74367500D02*
X213776666Y-74467500D01*
X213776666Y-75637500D02*
X213776666Y-75737500D01*
X213776666Y-76907500D02*
X213776666Y-77007500D01*
X213776666Y-78177500D02*
X213776666Y-78277500D01*
X213776666Y-79447500D02*
X213776666Y-79547500D01*
X213776666Y-80717500D02*
X213776666Y-80817500D01*
X213776666Y-81987500D02*
X213776666Y-82087500D01*
X213776666Y-83257500D02*
X213776666Y-83357500D01*
X213776666Y-84527500D02*
X213776666Y-84627500D01*
X213776666Y-85797500D02*
X213776666Y-85897500D01*
X213776666Y-87067500D02*
X213776666Y-87167500D01*
X213776666Y-88337500D02*
X213776666Y-88437500D01*
X213776666Y-89607500D02*
X213776666Y-89707500D01*
X213776666Y-90877500D02*
X213776666Y-90977500D01*
X213776666Y-92147500D02*
X213776666Y-92527500D01*
X213776666Y-92527500D02*
X205976666Y-92527500D01*
X208876818Y-71540048D02*
G75*
G02*
X208876666Y-71557500I999848J-17435D01*
G01*
X205556666Y-71367500D02*
G75*
G02*
X205056666Y-71367500I-250000J0D01*
G01*
X205056666Y-71367500D02*
G75*
G02*
X205556666Y-71367500I250000J0D01*
G01*
D14*
%TO.C,C6*%
X212981252Y-69795000D02*
X212458748Y-69795000D01*
X212981252Y-71265000D02*
X212458748Y-71265000D01*
%TD*%
M02*
