%TF.GenerationSoftware,KiCad,Pcbnew,8.0.4*%
%TF.CreationDate,2024-08-28T15:47:27+02:00*%
%TF.ProjectId,sram,7372616d-2e6b-4696-9361-645f70636258,rev?*%
%TF.SameCoordinates,Original*%
%TF.FileFunction,Copper,L3,Inr*%
%TF.FilePolarity,Positive*%
%FSLAX46Y46*%
G04 Gerber Fmt 4.6, Leading zero omitted, Abs format (unit mm)*
G04 Created by KiCad (PCBNEW 8.0.4) date 2024-08-28 15:47:27*
%MOMM*%
%LPD*%
G01*
G04 APERTURE LIST*
%ADD10C,0.300000*%
%TA.AperFunction,NonConductor*%
%ADD11C,0.300000*%
%TD*%
%TA.AperFunction,ViaPad*%
%ADD12C,0.500000*%
%TD*%
G04 APERTURE END LIST*
D10*
D11*
X226534685Y-101229008D02*
X227587066Y-101229008D01*
X227587066Y-101229008D02*
X227020399Y-101800437D01*
X227020399Y-101800437D02*
X227263256Y-101800437D01*
X227263256Y-101800437D02*
X227425161Y-101871865D01*
X227425161Y-101871865D02*
X227506113Y-101943294D01*
X227506113Y-101943294D02*
X227587066Y-102086151D01*
X227587066Y-102086151D02*
X227587066Y-102443294D01*
X227587066Y-102443294D02*
X227506113Y-102586151D01*
X227506113Y-102586151D02*
X227425161Y-102657580D01*
X227425161Y-102657580D02*
X227263256Y-102729008D01*
X227263256Y-102729008D02*
X226777542Y-102729008D01*
X226777542Y-102729008D02*
X226615637Y-102657580D01*
X226615637Y-102657580D02*
X226534685Y-102586151D01*
D12*
%TO.N,+5V*%
X188000000Y-72000000D03*
X179575000Y-71900000D03*
X154050000Y-77250000D03*
X193200000Y-65325000D03*
X162100000Y-104350000D03*
X172100000Y-86400000D03*
X192600000Y-71925000D03*
X205700000Y-71925000D03*
X201000000Y-72000000D03*
X202600000Y-104300000D03*
X163900000Y-97650000D03*
X218600000Y-72450000D03*
X153650000Y-62100000D03*
X193200000Y-66325000D03*
X189900000Y-104300000D03*
X177300000Y-104550000D03*
X193200000Y-67325000D03*
X218275000Y-67475000D03*
X218275000Y-65475000D03*
X195100000Y-104300000D03*
X227000000Y-72000000D03*
X214000000Y-72000000D03*
X218275000Y-66475000D03*
X169950000Y-104200000D03*
X154300000Y-104250000D03*
X165650000Y-83900000D03*
X184700000Y-104500000D03*
%TO.N,Cache_A17*%
X185550000Y-75025000D03*
%TO.N,Cache_A15*%
X184750000Y-76975000D03*
%TO.N,Cache_A10*%
X183400000Y-77587500D03*
%TO.N,Cache_A9*%
X183400000Y-78857500D03*
%TO.N,Cache_A8*%
X183475000Y-80127500D03*
%TO.N,Cache_A7*%
X183450000Y-81397500D03*
%TO.N,Cache_A6*%
X183500000Y-82667500D03*
%TO.N,Cache_A5*%
X183500000Y-83975000D03*
%TO.N,Cache_A4*%
X183475000Y-85207500D03*
%TO.N,Cache_A13*%
X182000000Y-83275000D03*
%TO.N,Cache_A14*%
X181975000Y-80825000D03*
%TO.N,CPU_D0*%
X222000000Y-88325000D03*
%TO.N,CPU_D2*%
X222000000Y-90900000D03*
%TO.N,CPU_D1*%
X222075000Y-89700000D03*
%TO.N,CPU_D3*%
X222650000Y-91575000D03*
%TO.N,CPU_A4*%
X172950000Y-94100000D03*
X145200000Y-84375000D03*
%TO.N,GND*%
X188450000Y-104550000D03*
X199900000Y-104250000D03*
X223500000Y-72000000D03*
X210500000Y-72000000D03*
X213275000Y-65475000D03*
X188200000Y-65825000D03*
X225200000Y-92100000D03*
X222225000Y-71925000D03*
X143100000Y-75600000D03*
X149425000Y-61675000D03*
X155350000Y-103850000D03*
X170750000Y-103700000D03*
X164100000Y-86500000D03*
X188200000Y-67825000D03*
X184500000Y-72000000D03*
X220600000Y-92200000D03*
X162000000Y-100750000D03*
X164900000Y-97600000D03*
X151175000Y-104250000D03*
X196150000Y-104200000D03*
X204950000Y-104300000D03*
X156600000Y-60850000D03*
X213275000Y-66475000D03*
X199200000Y-92200000D03*
X194500000Y-92200000D03*
X174500000Y-104150000D03*
X181500000Y-92200000D03*
X149500000Y-86200000D03*
X142900000Y-86800000D03*
X162900000Y-83850000D03*
X183200000Y-71900000D03*
X212200000Y-92200000D03*
X209200000Y-71875000D03*
X196150000Y-71875000D03*
X169750000Y-97750000D03*
X159300000Y-104250000D03*
X170500000Y-97750000D03*
X163100000Y-104400000D03*
X142900000Y-84200000D03*
X213275000Y-67475000D03*
X197500000Y-72000000D03*
X143000000Y-71900000D03*
X207500000Y-92200000D03*
X166900000Y-104350000D03*
X152700000Y-76400000D03*
X188200000Y-66825000D03*
X168900000Y-86500000D03*
X168900000Y-97700000D03*
X156800000Y-75900000D03*
X183300000Y-104300000D03*
X166750000Y-100750000D03*
X186200000Y-92200000D03*
X143050000Y-60425000D03*
X178100000Y-104550000D03*
%TO.N,CPU_D4*%
X222625000Y-90350000D03*
%TO.N,CPU_D5*%
X222650000Y-89000000D03*
%TO.N,CPU_D6*%
X222650000Y-87725000D03*
%TO.N,CPU_D7*%
X221200000Y-86477500D03*
%TO.N,CPU_D8*%
X208925000Y-88400000D03*
%TO.N,CPU_D9*%
X208950000Y-89600000D03*
%TO.N,CPU_D10*%
X208925000Y-90900000D03*
%TO.N,CPU_D11*%
X209625000Y-91550000D03*
%TO.N,CPU_D12*%
X209675000Y-90300000D03*
%TO.N,CPU_D13*%
X209650000Y-89000000D03*
%TO.N,CPU_D14*%
X209650000Y-87775000D03*
%TO.N,CPU_D15*%
X208350000Y-86477500D03*
%TO.N,CPU_D16*%
X196125000Y-88350000D03*
%TO.N,CPU_D17*%
X196075000Y-89575000D03*
%TO.N,CPU_D18*%
X196050000Y-90975000D03*
%TO.N,CPU_D19*%
X197075000Y-91650000D03*
%TO.N,CPU_D20*%
X197100000Y-90287500D03*
%TO.N,CPU_D21*%
X197125000Y-89017500D03*
%TO.N,CPU_D22*%
X197150000Y-87700000D03*
%TO.N,CPU_D23*%
X195650000Y-86477500D03*
%TO.N,CPU_D24*%
X183725000Y-88375000D03*
%TO.N,CPU_D25*%
X183725000Y-89525000D03*
%TO.N,CPU_D26*%
X183725000Y-90925000D03*
%TO.N,CPU_D27*%
X184850000Y-91600000D03*
%TO.N,CPU_D28*%
X184900000Y-90300000D03*
%TO.N,CPU_D29*%
X184950000Y-89017500D03*
%TO.N,CPU_D30*%
X184950000Y-87747500D03*
%TO.N,CPU_D31*%
X184975000Y-86477500D03*
%TO.N,CPU_A17*%
X171300000Y-87350000D03*
X143125000Y-61650000D03*
%TO.N,CPU_A13*%
X145600000Y-81650000D03*
X155600000Y-91500000D03*
%TO.N,CPU_A15*%
X152500000Y-64100000D03*
X169700000Y-87400000D03*
%TO.N,CPU_A14*%
X156212500Y-92512500D03*
X143350000Y-76875000D03*
%TO.N,CPU_A16*%
X142925000Y-64200000D03*
X170500000Y-86600000D03*
%TO.N,CPU_A12*%
X157700000Y-88500000D03*
X143050000Y-69350000D03*
%TO.N,CPU_A11*%
X156900000Y-86500000D03*
X147300000Y-66825000D03*
%TO.N,CPU_A10*%
X159625000Y-87675000D03*
X148725000Y-66675000D03*
%TO.N,CPU_A9*%
X149325000Y-69275000D03*
X160150000Y-86575000D03*
%TO.N,CPU_A8*%
X148100000Y-71725000D03*
X158500000Y-92800000D03*
%TO.N,CPU_A7*%
X159300000Y-93600000D03*
X145255000Y-79070000D03*
%TO.N,CPU_A6*%
X142825000Y-79200000D03*
X171300000Y-94650000D03*
%TO.N,CPU_A5*%
X172100000Y-95200000D03*
X142900000Y-81600000D03*
%TO.N,Cache_A12*%
X181975000Y-79500000D03*
%TO.N,Cache_A11*%
X182000000Y-78200000D03*
%TO.N,TAG_WE*%
X160125000Y-81400000D03*
X160100000Y-83600000D03*
%TO.N,Cache_A16*%
X182300000Y-76950000D03*
%TO.N,CWE0*%
X223775000Y-76317500D03*
X173900000Y-94000000D03*
%TO.N,CWE1*%
X211625000Y-76317500D03*
X201650000Y-69725000D03*
X174500000Y-94700000D03*
%TO.N,CWE2*%
X174300000Y-95700000D03*
X198275000Y-76317500D03*
X196650000Y-75150000D03*
X196650000Y-70225000D03*
%TO.N,CWE3*%
X173910000Y-96700000D03*
X185475000Y-76175000D03*
%TO.N,COEB*%
X229000000Y-83200000D03*
%TO.N,CCSB*%
X228600000Y-85961000D03*
%TO.N,CA3BA2*%
X227600000Y-86450000D03*
%TD*%
%TA.AperFunction,Conductor*%
%TO.N,+5V*%
G36*
X230478039Y-58019685D02*
G01*
X230523794Y-58072489D01*
X230535000Y-58124000D01*
X230535000Y-103875143D01*
X230515315Y-103942182D01*
X230462511Y-103987937D01*
X230410820Y-103999143D01*
X215877818Y-103978018D01*
X212010000Y-103972396D01*
X212009910Y-103972396D01*
X208735837Y-103972396D01*
X208647052Y-103973764D01*
X208647047Y-103973765D01*
X208473474Y-104011177D01*
X208473469Y-104011179D01*
X208312570Y-104086276D01*
X208312565Y-104086279D01*
X208172410Y-104195294D01*
X208172409Y-104195296D01*
X208060020Y-104332768D01*
X207981038Y-104491797D01*
X207939423Y-104664412D01*
X207939422Y-104664422D01*
X207935854Y-104753165D01*
X207935469Y-105531061D01*
X207915751Y-105598091D01*
X207862925Y-105643820D01*
X207811469Y-105655000D01*
X193339585Y-105655000D01*
X193272546Y-105635315D01*
X193226791Y-105582511D01*
X193215585Y-105531000D01*
X193215585Y-105232407D01*
X193214169Y-105178218D01*
X193213119Y-105138019D01*
X193188222Y-105020890D01*
X193173875Y-104953391D01*
X193173873Y-104953386D01*
X193152441Y-104905249D01*
X193097102Y-104780956D01*
X193097099Y-104780952D01*
X193097099Y-104780951D01*
X193017130Y-104670884D01*
X192986156Y-104628251D01*
X192845885Y-104501951D01*
X192682419Y-104407574D01*
X192682413Y-104407571D01*
X192502907Y-104349247D01*
X192502904Y-104349246D01*
X192315185Y-104329516D01*
X192127466Y-104349246D01*
X192127463Y-104349246D01*
X192127462Y-104349247D01*
X191947956Y-104407571D01*
X191947950Y-104407574D01*
X191784486Y-104501950D01*
X191644214Y-104628250D01*
X191644213Y-104628252D01*
X191533270Y-104780951D01*
X191533268Y-104780956D01*
X191456496Y-104953386D01*
X191456494Y-104953391D01*
X191417252Y-105138008D01*
X191417251Y-105138017D01*
X191416200Y-105178218D01*
X191410185Y-105196882D01*
X191410185Y-105531000D01*
X191390500Y-105598039D01*
X191337696Y-105643794D01*
X191286185Y-105655000D01*
X147693066Y-105655000D01*
X147626027Y-105635315D01*
X147580272Y-105582511D01*
X147569068Y-105531782D01*
X147566599Y-105140476D01*
X147564032Y-104733517D01*
X147561812Y-104648056D01*
X147523712Y-104481433D01*
X147449447Y-104327487D01*
X147387528Y-104249997D01*
X150419751Y-104249997D01*
X150419751Y-104250002D01*
X150438685Y-104418056D01*
X150494545Y-104577694D01*
X150494547Y-104577697D01*
X150584518Y-104720884D01*
X150584523Y-104720890D01*
X150704109Y-104840476D01*
X150704115Y-104840481D01*
X150847302Y-104930452D01*
X150847305Y-104930454D01*
X150847309Y-104930455D01*
X150847310Y-104930456D01*
X150875946Y-104940476D01*
X151006943Y-104986314D01*
X151174997Y-105005249D01*
X151175000Y-105005249D01*
X151175003Y-105005249D01*
X151343056Y-104986314D01*
X151359809Y-104980452D01*
X151502690Y-104930456D01*
X151502692Y-104930454D01*
X151502694Y-104930454D01*
X151502697Y-104930452D01*
X151645884Y-104840481D01*
X151645885Y-104840480D01*
X151645890Y-104840477D01*
X151765477Y-104720890D01*
X151792622Y-104677690D01*
X151855452Y-104577697D01*
X151855454Y-104577694D01*
X151855454Y-104577692D01*
X151855456Y-104577690D01*
X151911313Y-104418059D01*
X151911313Y-104418058D01*
X151911314Y-104418056D01*
X151930249Y-104250002D01*
X151930249Y-104249997D01*
X151911314Y-104081943D01*
X151868477Y-103959523D01*
X151855456Y-103922310D01*
X151855455Y-103922309D01*
X151855454Y-103922305D01*
X151855452Y-103922302D01*
X151810019Y-103849997D01*
X154594751Y-103849997D01*
X154594751Y-103850002D01*
X154613685Y-104018056D01*
X154669545Y-104177694D01*
X154669547Y-104177697D01*
X154759518Y-104320884D01*
X154759523Y-104320890D01*
X154879109Y-104440476D01*
X154879115Y-104440481D01*
X155022302Y-104530452D01*
X155022305Y-104530454D01*
X155022309Y-104530455D01*
X155022310Y-104530456D01*
X155078155Y-104549997D01*
X155181943Y-104586314D01*
X155349997Y-104605249D01*
X155350000Y-104605249D01*
X155350003Y-104605249D01*
X155518056Y-104586314D01*
X155542682Y-104577697D01*
X155677690Y-104530456D01*
X155677692Y-104530454D01*
X155677694Y-104530454D01*
X155677697Y-104530452D01*
X155820884Y-104440481D01*
X155820885Y-104440480D01*
X155820890Y-104440477D01*
X155940477Y-104320890D01*
X155953605Y-104299997D01*
X155985022Y-104249997D01*
X158544751Y-104249997D01*
X158544751Y-104250002D01*
X158563685Y-104418056D01*
X158619545Y-104577694D01*
X158619547Y-104577697D01*
X158709518Y-104720884D01*
X158709523Y-104720890D01*
X158829109Y-104840476D01*
X158829115Y-104840481D01*
X158972302Y-104930452D01*
X158972305Y-104930454D01*
X158972309Y-104930455D01*
X158972310Y-104930456D01*
X159000946Y-104940476D01*
X159131943Y-104986314D01*
X159299997Y-105005249D01*
X159300000Y-105005249D01*
X159300003Y-105005249D01*
X159468056Y-104986314D01*
X159484809Y-104980452D01*
X159627690Y-104930456D01*
X159627692Y-104930454D01*
X159627694Y-104930454D01*
X159627697Y-104930452D01*
X159770884Y-104840481D01*
X159770885Y-104840480D01*
X159770890Y-104840477D01*
X159890477Y-104720890D01*
X159917622Y-104677690D01*
X159980452Y-104577697D01*
X159980454Y-104577694D01*
X159980454Y-104577692D01*
X159980456Y-104577690D01*
X160036313Y-104418059D01*
X160036313Y-104418058D01*
X160036314Y-104418056D01*
X160038349Y-104399997D01*
X162344751Y-104399997D01*
X162344751Y-104400002D01*
X162363685Y-104568056D01*
X162419545Y-104727694D01*
X162419547Y-104727697D01*
X162509518Y-104870884D01*
X162509523Y-104870890D01*
X162629109Y-104990476D01*
X162629115Y-104990481D01*
X162772302Y-105080452D01*
X162772305Y-105080454D01*
X162772309Y-105080455D01*
X162772310Y-105080456D01*
X162843165Y-105105249D01*
X162931943Y-105136314D01*
X163099997Y-105155249D01*
X163100000Y-105155249D01*
X163100003Y-105155249D01*
X163268056Y-105136314D01*
X163268059Y-105136313D01*
X163427690Y-105080456D01*
X163427692Y-105080454D01*
X163427694Y-105080454D01*
X163427697Y-105080452D01*
X163570884Y-104990481D01*
X163570885Y-104990480D01*
X163570890Y-104990477D01*
X163690477Y-104870890D01*
X163690481Y-104870884D01*
X163780452Y-104727697D01*
X163780454Y-104727694D01*
X163780454Y-104727692D01*
X163780456Y-104727690D01*
X163836313Y-104568059D01*
X163836313Y-104568058D01*
X163836314Y-104568056D01*
X163855249Y-104400002D01*
X163855249Y-104399997D01*
X163849615Y-104349997D01*
X166144751Y-104349997D01*
X166144751Y-104350002D01*
X166163685Y-104518056D01*
X166219545Y-104677694D01*
X166219547Y-104677697D01*
X166309518Y-104820884D01*
X166309523Y-104820890D01*
X166429109Y-104940476D01*
X166429115Y-104940481D01*
X166572302Y-105030452D01*
X166572305Y-105030454D01*
X166572309Y-105030455D01*
X166572310Y-105030456D01*
X166643165Y-105055249D01*
X166731943Y-105086314D01*
X166899997Y-105105249D01*
X166900000Y-105105249D01*
X166900003Y-105105249D01*
X167068056Y-105086314D01*
X167084809Y-105080452D01*
X167227690Y-105030456D01*
X167227692Y-105030454D01*
X167227694Y-105030454D01*
X167227697Y-105030452D01*
X167370884Y-104940481D01*
X167370885Y-104940480D01*
X167370890Y-104940477D01*
X167490477Y-104820890D01*
X167490481Y-104820884D01*
X167580452Y-104677697D01*
X167580454Y-104677694D01*
X167580454Y-104677692D01*
X167580456Y-104677690D01*
X167636313Y-104518059D01*
X167636313Y-104518058D01*
X167636314Y-104518056D01*
X167655249Y-104350002D01*
X167655249Y-104349997D01*
X167636314Y-104181943D01*
X167597949Y-104072302D01*
X167580456Y-104022310D01*
X167580455Y-104022309D01*
X167580454Y-104022305D01*
X167580452Y-104022302D01*
X167490481Y-103879115D01*
X167490476Y-103879109D01*
X167370890Y-103759523D01*
X167370884Y-103759518D01*
X167276158Y-103699997D01*
X169994751Y-103699997D01*
X169994751Y-103700002D01*
X170013685Y-103868056D01*
X170069545Y-104027694D01*
X170069547Y-104027697D01*
X170159518Y-104170884D01*
X170159523Y-104170890D01*
X170279109Y-104290476D01*
X170279115Y-104290481D01*
X170422302Y-104380452D01*
X170422305Y-104380454D01*
X170422309Y-104380455D01*
X170422310Y-104380456D01*
X170426560Y-104381943D01*
X170581943Y-104436314D01*
X170749997Y-104455249D01*
X170750000Y-104455249D01*
X170750003Y-104455249D01*
X170918056Y-104436314D01*
X170970226Y-104418059D01*
X171077690Y-104380456D01*
X171077692Y-104380454D01*
X171077694Y-104380454D01*
X171077697Y-104380452D01*
X171220884Y-104290481D01*
X171220885Y-104290480D01*
X171220890Y-104290477D01*
X171340477Y-104170890D01*
X171353605Y-104149997D01*
X173744751Y-104149997D01*
X173744751Y-104150002D01*
X173763685Y-104318056D01*
X173819545Y-104477694D01*
X173819547Y-104477697D01*
X173909518Y-104620884D01*
X173909523Y-104620890D01*
X174029109Y-104740476D01*
X174029115Y-104740481D01*
X174172302Y-104830452D01*
X174172305Y-104830454D01*
X174172309Y-104830455D01*
X174172310Y-104830456D01*
X174200946Y-104840476D01*
X174331943Y-104886314D01*
X174499997Y-104905249D01*
X174500000Y-104905249D01*
X174500003Y-104905249D01*
X174668056Y-104886314D01*
X174692682Y-104877697D01*
X174827690Y-104830456D01*
X174827692Y-104830454D01*
X174827694Y-104830454D01*
X174827697Y-104830452D01*
X174970884Y-104740481D01*
X174970885Y-104740480D01*
X174970890Y-104740477D01*
X175090477Y-104620890D01*
X175112203Y-104586314D01*
X175135023Y-104549997D01*
X177344751Y-104549997D01*
X177344751Y-104550002D01*
X177363685Y-104718056D01*
X177419545Y-104877694D01*
X177419547Y-104877697D01*
X177509518Y-105020884D01*
X177509523Y-105020890D01*
X177629109Y-105140476D01*
X177629115Y-105140481D01*
X177772302Y-105230452D01*
X177772305Y-105230454D01*
X177772309Y-105230455D01*
X177772310Y-105230456D01*
X177777886Y-105232407D01*
X177931943Y-105286314D01*
X178099997Y-105305249D01*
X178100000Y-105305249D01*
X178100003Y-105305249D01*
X178268056Y-105286314D01*
X178268059Y-105286313D01*
X178427690Y-105230456D01*
X178427692Y-105230454D01*
X178427694Y-105230454D01*
X178427697Y-105230452D01*
X178570884Y-105140481D01*
X178570885Y-105140480D01*
X178570890Y-105140477D01*
X178690477Y-105020890D01*
X178700305Y-105005249D01*
X178780452Y-104877697D01*
X178780454Y-104877694D01*
X178780454Y-104877692D01*
X178780456Y-104877690D01*
X178836313Y-104718059D01*
X178836313Y-104718058D01*
X178836314Y-104718056D01*
X178855249Y-104550002D01*
X178855249Y-104549997D01*
X178836314Y-104381943D01*
X178807640Y-104299997D01*
X182544751Y-104299997D01*
X182544751Y-104300002D01*
X182563685Y-104468056D01*
X182619545Y-104627694D01*
X182619547Y-104627697D01*
X182709518Y-104770884D01*
X182709523Y-104770890D01*
X182829109Y-104890476D01*
X182829115Y-104890481D01*
X182972302Y-104980452D01*
X182972305Y-104980454D01*
X182972309Y-104980455D01*
X182972310Y-104980456D01*
X183000946Y-104990476D01*
X183131943Y-105036314D01*
X183299997Y-105055249D01*
X183300000Y-105055249D01*
X183300003Y-105055249D01*
X183468056Y-105036314D01*
X183484809Y-105030452D01*
X183627690Y-104980456D01*
X183627692Y-104980454D01*
X183627694Y-104980454D01*
X183627697Y-104980452D01*
X183770884Y-104890481D01*
X183770885Y-104890480D01*
X183770890Y-104890477D01*
X183890477Y-104770890D01*
X183890481Y-104770884D01*
X183980452Y-104627697D01*
X183980454Y-104627694D01*
X183980454Y-104627692D01*
X183980456Y-104627690D01*
X184007642Y-104549997D01*
X187694751Y-104549997D01*
X187694751Y-104550002D01*
X187713685Y-104718056D01*
X187769545Y-104877694D01*
X187769547Y-104877697D01*
X187859518Y-105020884D01*
X187859523Y-105020890D01*
X187979109Y-105140476D01*
X187979115Y-105140481D01*
X188122302Y-105230452D01*
X188122305Y-105230454D01*
X188122309Y-105230455D01*
X188122310Y-105230456D01*
X188127886Y-105232407D01*
X188281943Y-105286314D01*
X188449997Y-105305249D01*
X188450000Y-105305249D01*
X188450003Y-105305249D01*
X188618056Y-105286314D01*
X188618059Y-105286313D01*
X188777690Y-105230456D01*
X188777692Y-105230454D01*
X188777694Y-105230454D01*
X188777697Y-105230452D01*
X188920884Y-105140481D01*
X188920885Y-105140480D01*
X188920890Y-105140477D01*
X189040477Y-105020890D01*
X189050305Y-105005249D01*
X189130452Y-104877697D01*
X189130454Y-104877694D01*
X189130454Y-104877692D01*
X189130456Y-104877690D01*
X189186313Y-104718059D01*
X189186313Y-104718058D01*
X189186314Y-104718056D01*
X189205249Y-104550002D01*
X189205249Y-104549997D01*
X189186314Y-104381943D01*
X189140144Y-104249997D01*
X189130456Y-104222310D01*
X189130455Y-104222309D01*
X189130454Y-104222305D01*
X189130452Y-104222302D01*
X189116437Y-104199997D01*
X195394751Y-104199997D01*
X195394751Y-104200002D01*
X195413685Y-104368056D01*
X195469545Y-104527694D01*
X195469547Y-104527697D01*
X195559518Y-104670884D01*
X195559523Y-104670890D01*
X195679109Y-104790476D01*
X195679115Y-104790481D01*
X195822302Y-104880452D01*
X195822305Y-104880454D01*
X195822309Y-104880455D01*
X195822310Y-104880456D01*
X195850946Y-104890476D01*
X195981943Y-104936314D01*
X196149997Y-104955249D01*
X196150000Y-104955249D01*
X196150003Y-104955249D01*
X196318056Y-104936314D01*
X196334809Y-104930452D01*
X196477690Y-104880456D01*
X196477692Y-104880454D01*
X196477694Y-104880454D01*
X196477697Y-104880452D01*
X196620884Y-104790481D01*
X196620885Y-104790480D01*
X196620890Y-104790477D01*
X196740477Y-104670890D01*
X196744541Y-104664422D01*
X196830452Y-104527697D01*
X196830454Y-104527694D01*
X196830454Y-104527692D01*
X196830456Y-104527690D01*
X196886313Y-104368059D01*
X196886313Y-104368058D01*
X196886314Y-104368056D01*
X196899616Y-104249997D01*
X199144751Y-104249997D01*
X199144751Y-104250002D01*
X199163685Y-104418056D01*
X199219545Y-104577694D01*
X199219547Y-104577697D01*
X199309518Y-104720884D01*
X199309523Y-104720890D01*
X199429109Y-104840476D01*
X199429115Y-104840481D01*
X199572302Y-104930452D01*
X199572305Y-104930454D01*
X199572309Y-104930455D01*
X199572310Y-104930456D01*
X199600946Y-104940476D01*
X199731943Y-104986314D01*
X199899997Y-105005249D01*
X199900000Y-105005249D01*
X199900003Y-105005249D01*
X200068056Y-104986314D01*
X200084809Y-104980452D01*
X200227690Y-104930456D01*
X200227692Y-104930454D01*
X200227694Y-104930454D01*
X200227697Y-104930452D01*
X200370884Y-104840481D01*
X200370885Y-104840480D01*
X200370890Y-104840477D01*
X200490477Y-104720890D01*
X200517622Y-104677690D01*
X200580452Y-104577697D01*
X200580454Y-104577694D01*
X200580454Y-104577692D01*
X200580456Y-104577690D01*
X200636313Y-104418059D01*
X200636313Y-104418058D01*
X200636314Y-104418056D01*
X200649616Y-104299997D01*
X204194751Y-104299997D01*
X204194751Y-104300002D01*
X204213685Y-104468056D01*
X204269545Y-104627694D01*
X204269547Y-104627697D01*
X204359518Y-104770884D01*
X204359523Y-104770890D01*
X204479109Y-104890476D01*
X204479115Y-104890481D01*
X204622302Y-104980452D01*
X204622305Y-104980454D01*
X204622309Y-104980455D01*
X204622310Y-104980456D01*
X204650946Y-104990476D01*
X204781943Y-105036314D01*
X204949997Y-105055249D01*
X204950000Y-105055249D01*
X204950003Y-105055249D01*
X205118056Y-105036314D01*
X205134809Y-105030452D01*
X205277690Y-104980456D01*
X205277692Y-104980454D01*
X205277694Y-104980454D01*
X205277697Y-104980452D01*
X205420884Y-104890481D01*
X205420885Y-104890480D01*
X205420890Y-104890477D01*
X205540477Y-104770890D01*
X205540481Y-104770884D01*
X205630452Y-104627697D01*
X205630454Y-104627694D01*
X205630454Y-104627692D01*
X205630456Y-104627690D01*
X205686313Y-104468059D01*
X205686313Y-104468058D01*
X205686314Y-104468056D01*
X205705249Y-104300002D01*
X205705249Y-104299997D01*
X205686314Y-104131943D01*
X205639845Y-103999143D01*
X205630456Y-103972310D01*
X205630455Y-103972309D01*
X205630454Y-103972305D01*
X205630452Y-103972302D01*
X205540481Y-103829115D01*
X205540476Y-103829109D01*
X205420890Y-103709523D01*
X205420884Y-103709518D01*
X205277697Y-103619547D01*
X205277694Y-103619545D01*
X205118056Y-103563685D01*
X204950003Y-103544751D01*
X204949997Y-103544751D01*
X204781943Y-103563685D01*
X204622305Y-103619545D01*
X204622302Y-103619547D01*
X204479115Y-103709518D01*
X204479109Y-103709523D01*
X204359523Y-103829109D01*
X204359518Y-103829115D01*
X204269547Y-103972302D01*
X204269545Y-103972305D01*
X204213685Y-104131943D01*
X204194751Y-104299997D01*
X200649616Y-104299997D01*
X200655249Y-104250002D01*
X200655249Y-104249997D01*
X200636314Y-104081943D01*
X200593477Y-103959523D01*
X200580456Y-103922310D01*
X200580455Y-103922309D01*
X200580454Y-103922305D01*
X200580452Y-103922302D01*
X200490481Y-103779115D01*
X200490476Y-103779109D01*
X200370890Y-103659523D01*
X200370884Y-103659518D01*
X200227697Y-103569547D01*
X200227694Y-103569545D01*
X200068056Y-103513685D01*
X199900003Y-103494751D01*
X199899997Y-103494751D01*
X199731943Y-103513685D01*
X199572305Y-103569545D01*
X199572302Y-103569547D01*
X199429115Y-103659518D01*
X199429109Y-103659523D01*
X199309523Y-103779109D01*
X199309518Y-103779115D01*
X199219547Y-103922302D01*
X199219545Y-103922305D01*
X199163685Y-104081943D01*
X199144751Y-104249997D01*
X196899616Y-104249997D01*
X196905249Y-104200002D01*
X196905249Y-104199997D01*
X196886314Y-104031943D01*
X196830454Y-103872305D01*
X196830452Y-103872302D01*
X196740481Y-103729115D01*
X196740476Y-103729109D01*
X196620890Y-103609523D01*
X196620884Y-103609518D01*
X196477697Y-103519547D01*
X196477694Y-103519545D01*
X196318056Y-103463685D01*
X196150003Y-103444751D01*
X196149997Y-103444751D01*
X195981943Y-103463685D01*
X195822305Y-103519545D01*
X195822302Y-103519547D01*
X195679115Y-103609518D01*
X195679109Y-103609523D01*
X195559523Y-103729109D01*
X195559518Y-103729115D01*
X195469547Y-103872302D01*
X195469545Y-103872305D01*
X195413685Y-104031943D01*
X195394751Y-104199997D01*
X189116437Y-104199997D01*
X189040481Y-104079115D01*
X189040476Y-104079109D01*
X188920890Y-103959523D01*
X188920884Y-103959518D01*
X188777697Y-103869547D01*
X188777694Y-103869545D01*
X188618056Y-103813685D01*
X188450003Y-103794751D01*
X188449997Y-103794751D01*
X188281943Y-103813685D01*
X188122305Y-103869545D01*
X188122302Y-103869547D01*
X187979115Y-103959518D01*
X187979109Y-103959523D01*
X187859523Y-104079109D01*
X187859518Y-104079115D01*
X187769547Y-104222302D01*
X187769545Y-104222305D01*
X187713685Y-104381943D01*
X187694751Y-104549997D01*
X184007642Y-104549997D01*
X184036313Y-104468059D01*
X184036313Y-104468058D01*
X184036314Y-104468056D01*
X184055249Y-104300002D01*
X184055249Y-104299997D01*
X184036314Y-104131943D01*
X183989845Y-103999143D01*
X183980456Y-103972310D01*
X183980455Y-103972309D01*
X183980454Y-103972305D01*
X183980452Y-103972302D01*
X183890481Y-103829115D01*
X183890476Y-103829109D01*
X183770890Y-103709523D01*
X183770884Y-103709518D01*
X183627697Y-103619547D01*
X183627694Y-103619545D01*
X183468056Y-103563685D01*
X183300003Y-103544751D01*
X183299997Y-103544751D01*
X183131943Y-103563685D01*
X182972305Y-103619545D01*
X182972302Y-103619547D01*
X182829115Y-103709518D01*
X182829109Y-103709523D01*
X182709523Y-103829109D01*
X182709518Y-103829115D01*
X182619547Y-103972302D01*
X182619545Y-103972305D01*
X182563685Y-104131943D01*
X182544751Y-104299997D01*
X178807640Y-104299997D01*
X178790144Y-104249997D01*
X178780456Y-104222310D01*
X178780455Y-104222309D01*
X178780454Y-104222305D01*
X178780452Y-104222302D01*
X178690481Y-104079115D01*
X178690476Y-104079109D01*
X178570890Y-103959523D01*
X178570884Y-103959518D01*
X178427697Y-103869547D01*
X178427694Y-103869545D01*
X178268056Y-103813685D01*
X178100003Y-103794751D01*
X178099997Y-103794751D01*
X177931943Y-103813685D01*
X177772305Y-103869545D01*
X177772302Y-103869547D01*
X177629115Y-103959518D01*
X177629109Y-103959523D01*
X177509523Y-104079109D01*
X177509518Y-104079115D01*
X177419547Y-104222302D01*
X177419545Y-104222305D01*
X177363685Y-104381943D01*
X177344751Y-104549997D01*
X175135023Y-104549997D01*
X175180452Y-104477697D01*
X175180454Y-104477694D01*
X175180454Y-104477692D01*
X175180456Y-104477690D01*
X175236313Y-104318059D01*
X175236313Y-104318058D01*
X175236314Y-104318056D01*
X175255249Y-104150002D01*
X175255249Y-104149997D01*
X175236314Y-103981943D01*
X175180454Y-103822305D01*
X175180452Y-103822302D01*
X175090481Y-103679115D01*
X175090476Y-103679109D01*
X174970890Y-103559523D01*
X174970884Y-103559518D01*
X174827697Y-103469547D01*
X174827694Y-103469545D01*
X174668056Y-103413685D01*
X174500003Y-103394751D01*
X174499997Y-103394751D01*
X174331943Y-103413685D01*
X174172305Y-103469545D01*
X174172302Y-103469547D01*
X174029115Y-103559518D01*
X174029109Y-103559523D01*
X173909523Y-103679109D01*
X173909518Y-103679115D01*
X173819547Y-103822302D01*
X173819545Y-103822305D01*
X173763685Y-103981943D01*
X173744751Y-104149997D01*
X171353605Y-104149997D01*
X171364949Y-104131943D01*
X171430452Y-104027697D01*
X171430454Y-104027694D01*
X171430454Y-104027692D01*
X171430456Y-104027690D01*
X171486313Y-103868059D01*
X171486313Y-103868058D01*
X171486314Y-103868056D01*
X171505249Y-103700002D01*
X171505249Y-103699997D01*
X171486314Y-103531943D01*
X171430454Y-103372305D01*
X171430452Y-103372302D01*
X171340481Y-103229115D01*
X171340476Y-103229109D01*
X171220890Y-103109523D01*
X171220884Y-103109518D01*
X171077697Y-103019547D01*
X171077694Y-103019545D01*
X170918056Y-102963685D01*
X170750003Y-102944751D01*
X170749997Y-102944751D01*
X170581943Y-102963685D01*
X170422305Y-103019545D01*
X170422302Y-103019547D01*
X170279115Y-103109518D01*
X170279109Y-103109523D01*
X170159523Y-103229109D01*
X170159518Y-103229115D01*
X170069547Y-103372302D01*
X170069545Y-103372305D01*
X170013685Y-103531943D01*
X169994751Y-103699997D01*
X167276158Y-103699997D01*
X167227697Y-103669547D01*
X167227694Y-103669545D01*
X167068056Y-103613685D01*
X166900003Y-103594751D01*
X166899997Y-103594751D01*
X166731943Y-103613685D01*
X166572305Y-103669545D01*
X166572302Y-103669547D01*
X166429115Y-103759518D01*
X166429109Y-103759523D01*
X166309523Y-103879109D01*
X166309518Y-103879115D01*
X166219547Y-104022302D01*
X166219545Y-104022305D01*
X166163685Y-104181943D01*
X166144751Y-104349997D01*
X163849615Y-104349997D01*
X163836314Y-104231943D01*
X163785343Y-104086276D01*
X163780456Y-104072310D01*
X163780455Y-104072309D01*
X163780454Y-104072305D01*
X163780452Y-104072302D01*
X163690481Y-103929115D01*
X163690476Y-103929109D01*
X163570890Y-103809523D01*
X163570884Y-103809518D01*
X163427697Y-103719547D01*
X163427694Y-103719545D01*
X163268056Y-103663685D01*
X163100003Y-103644751D01*
X163099997Y-103644751D01*
X162931943Y-103663685D01*
X162772305Y-103719545D01*
X162772302Y-103719547D01*
X162629115Y-103809518D01*
X162629109Y-103809523D01*
X162509523Y-103929109D01*
X162509518Y-103929115D01*
X162419547Y-104072302D01*
X162419545Y-104072305D01*
X162363685Y-104231943D01*
X162344751Y-104399997D01*
X160038349Y-104399997D01*
X160055249Y-104250002D01*
X160055249Y-104249997D01*
X160036314Y-104081943D01*
X159993477Y-103959523D01*
X159980456Y-103922310D01*
X159980455Y-103922309D01*
X159980454Y-103922305D01*
X159980452Y-103922302D01*
X159890481Y-103779115D01*
X159890476Y-103779109D01*
X159770890Y-103659523D01*
X159770884Y-103659518D01*
X159627697Y-103569547D01*
X159627694Y-103569545D01*
X159468056Y-103513685D01*
X159300003Y-103494751D01*
X159299997Y-103494751D01*
X159131943Y-103513685D01*
X158972305Y-103569545D01*
X158972302Y-103569547D01*
X158829115Y-103659518D01*
X158829109Y-103659523D01*
X158709523Y-103779109D01*
X158709518Y-103779115D01*
X158619547Y-103922302D01*
X158619545Y-103922305D01*
X158563685Y-104081943D01*
X158544751Y-104249997D01*
X155985022Y-104249997D01*
X156030452Y-104177697D01*
X156030454Y-104177694D01*
X156030454Y-104177692D01*
X156030456Y-104177690D01*
X156086313Y-104018059D01*
X156086313Y-104018058D01*
X156086314Y-104018056D01*
X156105249Y-103850002D01*
X156105249Y-103849997D01*
X156086314Y-103681943D01*
X156043477Y-103559523D01*
X156030456Y-103522310D01*
X156030455Y-103522309D01*
X156030454Y-103522305D01*
X156030452Y-103522302D01*
X155940481Y-103379115D01*
X155940476Y-103379109D01*
X155820890Y-103259523D01*
X155820884Y-103259518D01*
X155677697Y-103169547D01*
X155677694Y-103169545D01*
X155518056Y-103113685D01*
X155350003Y-103094751D01*
X155349997Y-103094751D01*
X155181943Y-103113685D01*
X155022305Y-103169545D01*
X155022302Y-103169547D01*
X154879115Y-103259518D01*
X154879109Y-103259523D01*
X154759523Y-103379109D01*
X154759518Y-103379115D01*
X154669547Y-103522302D01*
X154669545Y-103522305D01*
X154613685Y-103681943D01*
X154594751Y-103849997D01*
X151810019Y-103849997D01*
X151765481Y-103779115D01*
X151765476Y-103779109D01*
X151645890Y-103659523D01*
X151645884Y-103659518D01*
X151502697Y-103569547D01*
X151502694Y-103569545D01*
X151343056Y-103513685D01*
X151175003Y-103494751D01*
X151174997Y-103494751D01*
X151006943Y-103513685D01*
X150847305Y-103569545D01*
X150847302Y-103569547D01*
X150704115Y-103659518D01*
X150704109Y-103659523D01*
X150584523Y-103779109D01*
X150584518Y-103779115D01*
X150494547Y-103922302D01*
X150494545Y-103922305D01*
X150438685Y-104081943D01*
X150419751Y-104249997D01*
X147387528Y-104249997D01*
X147343819Y-104195296D01*
X147342750Y-104193958D01*
X147208984Y-104087557D01*
X147208985Y-104087557D01*
X147208983Y-104087556D01*
X147208980Y-104087554D01*
X147208976Y-104087552D01*
X147054879Y-104013633D01*
X147054869Y-104013629D01*
X146888163Y-103975900D01*
X146888169Y-103975900D01*
X146852339Y-103975045D01*
X146848694Y-103973879D01*
X143453344Y-103972396D01*
X143453340Y-103972396D01*
X143453288Y-103972396D01*
X142098455Y-103980793D01*
X139624769Y-103996126D01*
X139557608Y-103976857D01*
X139511527Y-103924338D01*
X139500000Y-103872128D01*
X139500000Y-100749997D01*
X161244751Y-100749997D01*
X161244751Y-100750002D01*
X161263685Y-100918056D01*
X161319545Y-101077694D01*
X161319547Y-101077697D01*
X161409518Y-101220884D01*
X161409523Y-101220890D01*
X161529109Y-101340476D01*
X161529115Y-101340481D01*
X161672302Y-101430452D01*
X161672305Y-101430454D01*
X161672309Y-101430455D01*
X161672310Y-101430456D01*
X161744913Y-101455860D01*
X161831943Y-101486314D01*
X161999997Y-101505249D01*
X162000000Y-101505249D01*
X162000003Y-101505249D01*
X162168056Y-101486314D01*
X162168059Y-101486313D01*
X162327690Y-101430456D01*
X162327692Y-101430454D01*
X162327694Y-101430454D01*
X162327697Y-101430452D01*
X162470884Y-101340481D01*
X162470885Y-101340480D01*
X162470890Y-101340477D01*
X162590477Y-101220890D01*
X162680452Y-101077697D01*
X162680454Y-101077694D01*
X162680454Y-101077692D01*
X162680456Y-101077690D01*
X162736313Y-100918059D01*
X162736313Y-100918058D01*
X162736314Y-100918056D01*
X162755249Y-100750002D01*
X162755249Y-100749997D01*
X165994751Y-100749997D01*
X165994751Y-100750002D01*
X166013685Y-100918056D01*
X166069545Y-101077694D01*
X166069547Y-101077697D01*
X166159518Y-101220884D01*
X166159523Y-101220890D01*
X166279109Y-101340476D01*
X166279115Y-101340481D01*
X166422302Y-101430452D01*
X166422305Y-101430454D01*
X166422309Y-101430455D01*
X166422310Y-101430456D01*
X166494913Y-101455860D01*
X166581943Y-101486314D01*
X166749997Y-101505249D01*
X166750000Y-101505249D01*
X166750003Y-101505249D01*
X166918056Y-101486314D01*
X166918059Y-101486313D01*
X167077690Y-101430456D01*
X167077692Y-101430454D01*
X167077694Y-101430454D01*
X167077697Y-101430452D01*
X167220884Y-101340481D01*
X167220885Y-101340480D01*
X167220890Y-101340477D01*
X167340477Y-101220890D01*
X167430452Y-101077697D01*
X167430454Y-101077694D01*
X167430454Y-101077692D01*
X167430456Y-101077690D01*
X167486313Y-100918059D01*
X167486313Y-100918058D01*
X167486314Y-100918056D01*
X167489926Y-100885996D01*
X221817841Y-100885996D01*
X221821857Y-103236141D01*
X225753890Y-103244497D01*
X225820887Y-103264324D01*
X225866530Y-103317225D01*
X225877626Y-103368497D01*
X225877626Y-103385148D01*
X228245054Y-103385148D01*
X228245054Y-103374056D01*
X228264739Y-103307017D01*
X228317543Y-103261262D01*
X228369317Y-103250056D01*
X229653235Y-103252785D01*
X229653235Y-100885996D01*
X228369054Y-100885996D01*
X228302015Y-100866311D01*
X228256260Y-100813507D01*
X228245054Y-100761996D01*
X228245054Y-100573385D01*
X225877626Y-100573385D01*
X225877626Y-100761996D01*
X225857941Y-100829035D01*
X225805137Y-100874790D01*
X225753626Y-100885996D01*
X221817841Y-100885996D01*
X167489926Y-100885996D01*
X167505249Y-100750002D01*
X167505249Y-100749997D01*
X167486314Y-100581943D01*
X167430454Y-100422305D01*
X167430452Y-100422302D01*
X167340481Y-100279115D01*
X167340476Y-100279109D01*
X167220890Y-100159523D01*
X167220884Y-100159518D01*
X167077697Y-100069547D01*
X167077694Y-100069545D01*
X166918056Y-100013685D01*
X166750003Y-99994751D01*
X166749997Y-99994751D01*
X166581943Y-100013685D01*
X166422305Y-100069545D01*
X166422302Y-100069547D01*
X166279115Y-100159518D01*
X166279109Y-100159523D01*
X166159523Y-100279109D01*
X166159518Y-100279115D01*
X166069547Y-100422302D01*
X166069545Y-100422305D01*
X166013685Y-100581943D01*
X165994751Y-100749997D01*
X162755249Y-100749997D01*
X162736314Y-100581943D01*
X162680454Y-100422305D01*
X162680452Y-100422302D01*
X162590481Y-100279115D01*
X162590476Y-100279109D01*
X162470890Y-100159523D01*
X162470884Y-100159518D01*
X162327697Y-100069547D01*
X162327694Y-100069545D01*
X162168056Y-100013685D01*
X162000003Y-99994751D01*
X161999997Y-99994751D01*
X161831943Y-100013685D01*
X161672305Y-100069545D01*
X161672302Y-100069547D01*
X161529115Y-100159518D01*
X161529109Y-100159523D01*
X161409523Y-100279109D01*
X161409518Y-100279115D01*
X161319547Y-100422302D01*
X161319545Y-100422305D01*
X161263685Y-100581943D01*
X161244751Y-100749997D01*
X139500000Y-100749997D01*
X139500000Y-97599997D01*
X164144751Y-97599997D01*
X164144751Y-97600002D01*
X164163685Y-97768056D01*
X164219545Y-97927694D01*
X164219547Y-97927697D01*
X164309518Y-98070884D01*
X164309523Y-98070890D01*
X164429109Y-98190476D01*
X164429115Y-98190481D01*
X164572302Y-98280452D01*
X164572305Y-98280454D01*
X164572309Y-98280455D01*
X164572310Y-98280456D01*
X164600946Y-98290476D01*
X164731943Y-98336314D01*
X164899997Y-98355249D01*
X164900000Y-98355249D01*
X164900003Y-98355249D01*
X165068056Y-98336314D01*
X165068059Y-98336313D01*
X165227690Y-98280456D01*
X165227692Y-98280454D01*
X165227694Y-98280454D01*
X165227697Y-98280452D01*
X165370884Y-98190481D01*
X165370885Y-98190480D01*
X165370890Y-98190477D01*
X165490477Y-98070890D01*
X165580452Y-97927697D01*
X165580454Y-97927694D01*
X165580454Y-97927692D01*
X165580456Y-97927690D01*
X165636313Y-97768059D01*
X165636313Y-97768058D01*
X165636314Y-97768056D01*
X165643982Y-97699997D01*
X168144751Y-97699997D01*
X168144751Y-97700002D01*
X168163685Y-97868056D01*
X168219545Y-98027694D01*
X168219547Y-98027697D01*
X168309518Y-98170884D01*
X168309523Y-98170890D01*
X168429109Y-98290476D01*
X168429115Y-98290481D01*
X168572302Y-98380452D01*
X168572305Y-98380454D01*
X168572309Y-98380455D01*
X168572310Y-98380456D01*
X168644913Y-98405860D01*
X168731943Y-98436314D01*
X168899997Y-98455249D01*
X168900000Y-98455249D01*
X168900003Y-98455249D01*
X169068059Y-98436313D01*
X169068061Y-98436313D01*
X169145134Y-98409343D01*
X169227690Y-98380456D01*
X169227699Y-98380449D01*
X169231069Y-98378828D01*
X169233475Y-98378431D01*
X169234263Y-98378156D01*
X169234311Y-98378293D01*
X169300010Y-98367473D01*
X169350848Y-98385553D01*
X169422306Y-98430454D01*
X169422307Y-98430454D01*
X169422310Y-98430456D01*
X169493165Y-98455249D01*
X169581943Y-98486314D01*
X169749997Y-98505249D01*
X169750000Y-98505249D01*
X169750003Y-98505249D01*
X169918059Y-98486313D01*
X169918060Y-98486313D01*
X170007237Y-98455108D01*
X170077690Y-98430456D01*
X170077690Y-98430455D01*
X170084045Y-98428232D01*
X170153824Y-98424670D01*
X170165955Y-98428232D01*
X170172309Y-98430455D01*
X170172310Y-98430456D01*
X170215918Y-98445715D01*
X170331939Y-98486313D01*
X170499997Y-98505249D01*
X170500000Y-98505249D01*
X170500003Y-98505249D01*
X170668056Y-98486314D01*
X170668059Y-98486313D01*
X170827690Y-98430456D01*
X170827692Y-98430454D01*
X170827694Y-98430454D01*
X170827697Y-98430452D01*
X170970884Y-98340481D01*
X170970885Y-98340480D01*
X170970890Y-98340477D01*
X171090477Y-98220890D01*
X171090481Y-98220884D01*
X171180452Y-98077697D01*
X171180454Y-98077694D01*
X171180454Y-98077692D01*
X171180456Y-98077690D01*
X171236313Y-97918059D01*
X171236313Y-97918058D01*
X171236314Y-97918056D01*
X171255249Y-97750002D01*
X171255249Y-97749997D01*
X171236314Y-97581943D01*
X171185356Y-97436313D01*
X171180456Y-97422310D01*
X171180455Y-97422309D01*
X171180454Y-97422305D01*
X171180452Y-97422302D01*
X171090481Y-97279115D01*
X171090476Y-97279109D01*
X170970890Y-97159523D01*
X170970884Y-97159518D01*
X170827697Y-97069547D01*
X170827694Y-97069545D01*
X170668056Y-97013685D01*
X170500003Y-96994751D01*
X170499997Y-96994751D01*
X170331943Y-97013685D01*
X170197190Y-97060838D01*
X170172310Y-97069544D01*
X170172309Y-97069544D01*
X170165955Y-97071768D01*
X170096176Y-97075329D01*
X170084045Y-97071768D01*
X170077690Y-97069544D01*
X170044077Y-97057782D01*
X169918056Y-97013685D01*
X169750003Y-96994751D01*
X169749997Y-96994751D01*
X169581943Y-97013685D01*
X169422297Y-97069548D01*
X169418911Y-97071179D01*
X169416509Y-97071574D01*
X169415738Y-97071844D01*
X169415690Y-97071708D01*
X169349968Y-97082522D01*
X169299152Y-97064446D01*
X169227692Y-97019545D01*
X169227691Y-97019544D01*
X169227690Y-97019544D01*
X169189370Y-97006135D01*
X169068056Y-96963685D01*
X168900003Y-96944751D01*
X168899997Y-96944751D01*
X168731943Y-96963685D01*
X168572305Y-97019545D01*
X168572302Y-97019547D01*
X168429115Y-97109518D01*
X168429109Y-97109523D01*
X168309523Y-97229109D01*
X168309518Y-97229115D01*
X168219547Y-97372302D01*
X168219545Y-97372305D01*
X168163685Y-97531943D01*
X168144751Y-97699997D01*
X165643982Y-97699997D01*
X165655249Y-97600002D01*
X165655249Y-97599997D01*
X165636314Y-97431943D01*
X165586813Y-97290477D01*
X165580456Y-97272310D01*
X165580455Y-97272309D01*
X165580454Y-97272305D01*
X165580452Y-97272302D01*
X165490481Y-97129115D01*
X165490476Y-97129109D01*
X165370890Y-97009523D01*
X165370884Y-97009518D01*
X165227697Y-96919547D01*
X165227694Y-96919545D01*
X165068056Y-96863685D01*
X164900003Y-96844751D01*
X164899997Y-96844751D01*
X164731943Y-96863685D01*
X164572305Y-96919545D01*
X164572302Y-96919547D01*
X164429115Y-97009518D01*
X164429109Y-97009523D01*
X164309523Y-97129109D01*
X164309518Y-97129115D01*
X164219547Y-97272302D01*
X164219545Y-97272305D01*
X164163685Y-97431943D01*
X164144751Y-97599997D01*
X139500000Y-97599997D01*
X139500000Y-94649997D01*
X170544751Y-94649997D01*
X170544751Y-94650002D01*
X170563685Y-94818056D01*
X170619545Y-94977694D01*
X170619547Y-94977697D01*
X170709518Y-95120884D01*
X170709523Y-95120890D01*
X170829109Y-95240476D01*
X170829115Y-95240481D01*
X170972302Y-95330452D01*
X170972305Y-95330454D01*
X170972309Y-95330455D01*
X170972310Y-95330456D01*
X171091923Y-95372310D01*
X171131944Y-95386314D01*
X171302423Y-95405522D01*
X171366837Y-95432588D01*
X171405581Y-95487787D01*
X171419543Y-95527688D01*
X171419548Y-95527699D01*
X171509518Y-95670884D01*
X171509523Y-95670890D01*
X171629109Y-95790476D01*
X171629115Y-95790481D01*
X171772302Y-95880452D01*
X171772305Y-95880454D01*
X171772309Y-95880455D01*
X171772310Y-95880456D01*
X171844913Y-95905860D01*
X171931943Y-95936314D01*
X172099997Y-95955249D01*
X172100000Y-95955249D01*
X172100003Y-95955249D01*
X172268056Y-95936314D01*
X172268059Y-95936313D01*
X172427690Y-95880456D01*
X172427692Y-95880454D01*
X172427694Y-95880454D01*
X172427697Y-95880452D01*
X172570884Y-95790481D01*
X172570885Y-95790480D01*
X172570890Y-95790477D01*
X172690477Y-95670890D01*
X172777785Y-95531941D01*
X172780452Y-95527697D01*
X172780454Y-95527694D01*
X172780454Y-95527692D01*
X172780456Y-95527690D01*
X172836313Y-95368059D01*
X172836313Y-95368058D01*
X172836314Y-95368056D01*
X172855249Y-95200002D01*
X172855249Y-95199997D01*
X172836313Y-95031940D01*
X172836313Y-95031938D01*
X172832207Y-95020204D01*
X172828645Y-94950425D01*
X172863373Y-94889798D01*
X172925367Y-94857570D01*
X172949248Y-94855249D01*
X172950003Y-94855249D01*
X173118056Y-94836314D01*
X173118059Y-94836313D01*
X173277690Y-94780456D01*
X173420890Y-94690477D01*
X173420895Y-94690471D01*
X173425848Y-94686522D01*
X173490532Y-94660106D01*
X173559229Y-94672854D01*
X173569137Y-94678462D01*
X173572310Y-94680456D01*
X173628164Y-94700000D01*
X173675993Y-94716736D01*
X173732769Y-94757458D01*
X173758259Y-94819891D01*
X173760110Y-94836313D01*
X173763687Y-94868059D01*
X173771294Y-94889798D01*
X173817502Y-95021855D01*
X173821063Y-95091634D01*
X173788142Y-95150489D01*
X173709524Y-95229108D01*
X173709518Y-95229115D01*
X173619547Y-95372302D01*
X173619545Y-95372305D01*
X173563685Y-95531943D01*
X173544751Y-95699997D01*
X173544751Y-95700002D01*
X173563686Y-95868058D01*
X173577836Y-95908498D01*
X173581397Y-95978277D01*
X173546667Y-96038904D01*
X173526766Y-96054445D01*
X173439109Y-96109523D01*
X173319523Y-96229109D01*
X173319518Y-96229115D01*
X173229547Y-96372302D01*
X173229545Y-96372305D01*
X173173685Y-96531943D01*
X173154751Y-96699997D01*
X173154751Y-96700002D01*
X173173685Y-96868056D01*
X173229545Y-97027694D01*
X173229547Y-97027697D01*
X173319518Y-97170884D01*
X173319523Y-97170890D01*
X173439109Y-97290476D01*
X173439115Y-97290481D01*
X173582302Y-97380452D01*
X173582305Y-97380454D01*
X173582309Y-97380455D01*
X173582310Y-97380456D01*
X173654913Y-97405860D01*
X173741943Y-97436314D01*
X173909997Y-97455249D01*
X173910000Y-97455249D01*
X173910003Y-97455249D01*
X174078056Y-97436314D01*
X174090548Y-97431943D01*
X174237690Y-97380456D01*
X174237692Y-97380454D01*
X174237694Y-97380454D01*
X174237697Y-97380452D01*
X174380884Y-97290481D01*
X174380885Y-97290480D01*
X174380890Y-97290477D01*
X174500477Y-97170890D01*
X174500481Y-97170884D01*
X174590452Y-97027697D01*
X174590454Y-97027694D01*
X174590454Y-97027692D01*
X174590456Y-97027690D01*
X174646313Y-96868059D01*
X174646313Y-96868058D01*
X174646314Y-96868056D01*
X174665249Y-96700002D01*
X174665249Y-96699997D01*
X174646314Y-96531945D01*
X174646312Y-96531937D01*
X174632164Y-96491504D01*
X174628602Y-96421725D01*
X174663330Y-96361098D01*
X174683227Y-96345559D01*
X174770890Y-96290477D01*
X174890477Y-96170890D01*
X174980452Y-96027697D01*
X174980454Y-96027694D01*
X174980454Y-96027692D01*
X174980456Y-96027690D01*
X175036313Y-95868059D01*
X175036313Y-95868058D01*
X175036314Y-95868056D01*
X175055249Y-95700002D01*
X175055249Y-95699997D01*
X175036314Y-95531943D01*
X174985356Y-95386314D01*
X174982496Y-95378142D01*
X174978936Y-95308365D01*
X175011855Y-95249511D01*
X175090477Y-95170890D01*
X175103296Y-95150489D01*
X175180452Y-95027697D01*
X175180454Y-95027694D01*
X175180454Y-95027692D01*
X175180456Y-95027690D01*
X175236313Y-94868059D01*
X175236313Y-94868058D01*
X175236314Y-94868056D01*
X175255249Y-94700002D01*
X175255249Y-94699997D01*
X175236314Y-94531943D01*
X175199834Y-94427690D01*
X175180456Y-94372310D01*
X175180455Y-94372309D01*
X175180454Y-94372305D01*
X175180452Y-94372302D01*
X175090481Y-94229115D01*
X175090476Y-94229109D01*
X174970890Y-94109523D01*
X174970884Y-94109518D01*
X174827697Y-94019547D01*
X174827692Y-94019544D01*
X174761961Y-93996544D01*
X174724004Y-93983263D01*
X174667230Y-93942542D01*
X174641740Y-93880104D01*
X174636314Y-93831944D01*
X174615447Y-93772310D01*
X174580456Y-93672310D01*
X174580455Y-93672309D01*
X174580454Y-93672305D01*
X174580452Y-93672302D01*
X174490481Y-93529115D01*
X174490476Y-93529109D01*
X174370890Y-93409523D01*
X174370884Y-93409518D01*
X174227697Y-93319547D01*
X174227694Y-93319545D01*
X174068056Y-93263685D01*
X173900003Y-93244751D01*
X173899997Y-93244751D01*
X173731943Y-93263685D01*
X173572305Y-93319545D01*
X173572302Y-93319547D01*
X173429112Y-93409520D01*
X173424136Y-93413489D01*
X173359448Y-93439895D01*
X173290753Y-93427136D01*
X173280860Y-93421535D01*
X173277690Y-93419544D01*
X173260386Y-93413489D01*
X173118056Y-93363685D01*
X172950003Y-93344751D01*
X172949997Y-93344751D01*
X172781943Y-93363685D01*
X172622305Y-93419545D01*
X172622302Y-93419547D01*
X172479115Y-93509518D01*
X172479109Y-93509523D01*
X172359523Y-93629109D01*
X172359518Y-93629115D01*
X172269547Y-93772302D01*
X172269545Y-93772305D01*
X172213685Y-93931943D01*
X172194751Y-94099997D01*
X172194751Y-94100004D01*
X172211266Y-94246587D01*
X172199211Y-94315409D01*
X172151862Y-94366788D01*
X172084251Y-94384412D01*
X172017846Y-94362685D01*
X171983052Y-94326442D01*
X171980451Y-94322302D01*
X171890477Y-94179110D01*
X171770890Y-94059523D01*
X171770884Y-94059518D01*
X171627697Y-93969547D01*
X171627694Y-93969545D01*
X171468056Y-93913685D01*
X171300003Y-93894751D01*
X171299997Y-93894751D01*
X171131943Y-93913685D01*
X170972305Y-93969545D01*
X170972302Y-93969547D01*
X170829115Y-94059518D01*
X170829109Y-94059523D01*
X170709523Y-94179109D01*
X170709518Y-94179115D01*
X170619547Y-94322302D01*
X170619545Y-94322305D01*
X170563685Y-94481943D01*
X170544751Y-94649997D01*
X139500000Y-94649997D01*
X139500000Y-91499997D01*
X154844751Y-91499997D01*
X154844751Y-91500002D01*
X154863685Y-91668056D01*
X154919545Y-91827694D01*
X154919547Y-91827697D01*
X155009518Y-91970884D01*
X155009523Y-91970890D01*
X155129109Y-92090476D01*
X155129115Y-92090481D01*
X155272302Y-92180452D01*
X155272307Y-92180455D01*
X155272310Y-92180456D01*
X155392893Y-92222649D01*
X155449667Y-92263369D01*
X155475415Y-92328322D01*
X155475157Y-92353573D01*
X155457251Y-92512496D01*
X155457251Y-92512502D01*
X155476185Y-92680556D01*
X155532045Y-92840194D01*
X155532047Y-92840197D01*
X155622018Y-92983384D01*
X155622023Y-92983390D01*
X155741609Y-93102976D01*
X155741615Y-93102981D01*
X155884802Y-93192952D01*
X155884805Y-93192954D01*
X155884809Y-93192955D01*
X155884810Y-93192956D01*
X155957413Y-93218360D01*
X156044443Y-93248814D01*
X156212497Y-93267749D01*
X156212500Y-93267749D01*
X156212503Y-93267749D01*
X156380556Y-93248814D01*
X156380559Y-93248813D01*
X156540190Y-93192956D01*
X156540192Y-93192954D01*
X156540194Y-93192954D01*
X156540197Y-93192952D01*
X156683384Y-93102981D01*
X156683385Y-93102980D01*
X156683390Y-93102977D01*
X156802977Y-92983390D01*
X156812612Y-92968056D01*
X156892952Y-92840197D01*
X156892954Y-92840194D01*
X156892954Y-92840192D01*
X156892956Y-92840190D01*
X156907020Y-92799997D01*
X157744751Y-92799997D01*
X157744751Y-92800002D01*
X157763685Y-92968056D01*
X157819545Y-93127694D01*
X157819547Y-93127697D01*
X157909518Y-93270884D01*
X157909523Y-93270890D01*
X158029109Y-93390476D01*
X158029115Y-93390481D01*
X158172302Y-93480452D01*
X158172305Y-93480454D01*
X158172309Y-93480455D01*
X158172310Y-93480456D01*
X158311353Y-93529109D01*
X158331944Y-93536314D01*
X158441953Y-93548709D01*
X158506367Y-93575775D01*
X158545923Y-93633370D01*
X158551290Y-93658045D01*
X158563685Y-93768055D01*
X158619545Y-93927694D01*
X158619547Y-93927697D01*
X158709518Y-94070884D01*
X158709523Y-94070890D01*
X158829109Y-94190476D01*
X158829115Y-94190481D01*
X158972302Y-94280452D01*
X158972305Y-94280454D01*
X158972309Y-94280455D01*
X158972310Y-94280456D01*
X159044913Y-94305860D01*
X159131943Y-94336314D01*
X159299997Y-94355249D01*
X159300000Y-94355249D01*
X159300003Y-94355249D01*
X159468056Y-94336314D01*
X159468059Y-94336313D01*
X159627690Y-94280456D01*
X159627692Y-94280454D01*
X159627694Y-94280454D01*
X159627697Y-94280452D01*
X159770884Y-94190481D01*
X159770885Y-94190480D01*
X159770890Y-94190477D01*
X159890477Y-94070890D01*
X159890481Y-94070884D01*
X159980452Y-93927697D01*
X159980454Y-93927694D01*
X159980454Y-93927692D01*
X159980456Y-93927690D01*
X160036313Y-93768059D01*
X160036313Y-93768058D01*
X160036314Y-93768056D01*
X160055249Y-93600002D01*
X160055249Y-93599997D01*
X160036314Y-93431943D01*
X159980454Y-93272305D01*
X159980452Y-93272302D01*
X159890481Y-93129115D01*
X159890476Y-93129109D01*
X159770890Y-93009523D01*
X159770884Y-93009518D01*
X159627697Y-92919547D01*
X159627694Y-92919545D01*
X159468055Y-92863685D01*
X159358045Y-92851290D01*
X159293631Y-92824223D01*
X159254076Y-92766628D01*
X159248709Y-92741953D01*
X159236314Y-92631944D01*
X159214948Y-92570884D01*
X159180456Y-92472310D01*
X159180455Y-92472309D01*
X159180454Y-92472305D01*
X159180452Y-92472302D01*
X159090481Y-92329115D01*
X159090476Y-92329109D01*
X158970890Y-92209523D01*
X158970884Y-92209518D01*
X158955732Y-92199997D01*
X180744751Y-92199997D01*
X180744751Y-92200002D01*
X180763685Y-92368056D01*
X180819545Y-92527694D01*
X180819547Y-92527697D01*
X180909518Y-92670884D01*
X180909523Y-92670890D01*
X181029109Y-92790476D01*
X181029115Y-92790481D01*
X181172302Y-92880452D01*
X181172305Y-92880454D01*
X181172309Y-92880455D01*
X181172310Y-92880456D01*
X181244913Y-92905860D01*
X181331943Y-92936314D01*
X181499997Y-92955249D01*
X181500000Y-92955249D01*
X181500003Y-92955249D01*
X181668056Y-92936314D01*
X181668059Y-92936313D01*
X181827690Y-92880456D01*
X181827692Y-92880454D01*
X181827694Y-92880454D01*
X181827697Y-92880452D01*
X181970884Y-92790481D01*
X181970885Y-92790480D01*
X181970890Y-92790477D01*
X182090477Y-92670890D01*
X182114949Y-92631943D01*
X182180452Y-92527697D01*
X182180454Y-92527694D01*
X182180454Y-92527692D01*
X182180456Y-92527690D01*
X182236313Y-92368059D01*
X182236313Y-92368058D01*
X182236314Y-92368056D01*
X182255249Y-92200002D01*
X182255249Y-92199997D01*
X182236314Y-92031943D01*
X182182339Y-91877691D01*
X182180456Y-91872310D01*
X182180455Y-91872309D01*
X182180454Y-91872305D01*
X182180452Y-91872302D01*
X182090481Y-91729115D01*
X182090476Y-91729109D01*
X181970890Y-91609523D01*
X181970884Y-91609518D01*
X181827697Y-91519547D01*
X181827694Y-91519545D01*
X181668056Y-91463685D01*
X181500003Y-91444751D01*
X181499997Y-91444751D01*
X181331943Y-91463685D01*
X181172305Y-91519545D01*
X181172302Y-91519547D01*
X181029115Y-91609518D01*
X181029109Y-91609523D01*
X180909523Y-91729109D01*
X180909518Y-91729115D01*
X180819547Y-91872302D01*
X180819545Y-91872305D01*
X180763685Y-92031943D01*
X180744751Y-92199997D01*
X158955732Y-92199997D01*
X158827697Y-92119547D01*
X158827694Y-92119545D01*
X158668056Y-92063685D01*
X158500003Y-92044751D01*
X158499997Y-92044751D01*
X158331943Y-92063685D01*
X158172305Y-92119545D01*
X158172302Y-92119547D01*
X158029115Y-92209518D01*
X158029109Y-92209523D01*
X157909523Y-92329109D01*
X157909518Y-92329115D01*
X157819547Y-92472302D01*
X157819545Y-92472305D01*
X157763685Y-92631943D01*
X157744751Y-92799997D01*
X156907020Y-92799997D01*
X156948813Y-92680559D01*
X156948813Y-92680558D01*
X156948814Y-92680556D01*
X156967749Y-92512502D01*
X156967749Y-92512497D01*
X156948814Y-92344443D01*
X156901603Y-92209523D01*
X156892956Y-92184810D01*
X156892955Y-92184809D01*
X156892954Y-92184805D01*
X156892952Y-92184802D01*
X156802981Y-92041615D01*
X156802976Y-92041609D01*
X156683390Y-91922023D01*
X156683384Y-91922018D01*
X156540197Y-91832047D01*
X156540191Y-91832044D01*
X156468421Y-91806931D01*
X156419607Y-91789850D01*
X156362832Y-91749129D01*
X156337084Y-91684177D01*
X156337342Y-91658925D01*
X156338348Y-91650002D01*
X156349616Y-91549997D01*
X156355249Y-91500002D01*
X156355249Y-91499997D01*
X156336314Y-91331943D01*
X156280454Y-91172305D01*
X156280452Y-91172302D01*
X156190481Y-91029115D01*
X156190476Y-91029109D01*
X156070890Y-90909523D01*
X156070884Y-90909518D01*
X155927697Y-90819547D01*
X155927694Y-90819545D01*
X155768056Y-90763685D01*
X155600003Y-90744751D01*
X155599997Y-90744751D01*
X155431943Y-90763685D01*
X155272305Y-90819545D01*
X155272302Y-90819547D01*
X155129115Y-90909518D01*
X155129109Y-90909523D01*
X155009523Y-91029109D01*
X155009518Y-91029115D01*
X154919547Y-91172302D01*
X154919545Y-91172305D01*
X154863685Y-91331943D01*
X154844751Y-91499997D01*
X139500000Y-91499997D01*
X139500000Y-88499997D01*
X156944751Y-88499997D01*
X156944751Y-88500002D01*
X156963685Y-88668056D01*
X157019545Y-88827694D01*
X157019547Y-88827697D01*
X157109518Y-88970884D01*
X157109523Y-88970890D01*
X157229109Y-89090476D01*
X157229115Y-89090481D01*
X157372302Y-89180452D01*
X157372305Y-89180454D01*
X157372309Y-89180455D01*
X157372310Y-89180456D01*
X157420462Y-89197305D01*
X157531943Y-89236314D01*
X157699997Y-89255249D01*
X157700000Y-89255249D01*
X157700003Y-89255249D01*
X157868056Y-89236314D01*
X157868059Y-89236313D01*
X158027690Y-89180456D01*
X158027692Y-89180454D01*
X158027694Y-89180454D01*
X158027697Y-89180452D01*
X158170884Y-89090481D01*
X158170885Y-89090480D01*
X158170890Y-89090477D01*
X158290477Y-88970890D01*
X158303603Y-88950000D01*
X158380452Y-88827697D01*
X158380454Y-88827694D01*
X158380454Y-88827692D01*
X158380456Y-88827690D01*
X158436313Y-88668059D01*
X158436313Y-88668058D01*
X158436314Y-88668056D01*
X158455249Y-88500002D01*
X158455249Y-88499997D01*
X158436314Y-88331943D01*
X158396578Y-88218384D01*
X158380456Y-88172310D01*
X158380455Y-88172309D01*
X158380454Y-88172305D01*
X158380452Y-88172302D01*
X158290481Y-88029115D01*
X158290476Y-88029109D01*
X158170890Y-87909523D01*
X158170884Y-87909518D01*
X158027697Y-87819547D01*
X158027694Y-87819545D01*
X157868056Y-87763685D01*
X157700003Y-87744751D01*
X157699997Y-87744751D01*
X157531943Y-87763685D01*
X157372305Y-87819545D01*
X157372302Y-87819547D01*
X157229115Y-87909518D01*
X157229109Y-87909523D01*
X157109523Y-88029109D01*
X157109518Y-88029115D01*
X157019547Y-88172302D01*
X157019545Y-88172305D01*
X156963685Y-88331943D01*
X156944751Y-88499997D01*
X139500000Y-88499997D01*
X139500000Y-87674997D01*
X158869751Y-87674997D01*
X158869751Y-87675002D01*
X158888685Y-87843056D01*
X158944545Y-88002694D01*
X158944547Y-88002697D01*
X159034518Y-88145884D01*
X159034523Y-88145890D01*
X159154109Y-88265476D01*
X159154115Y-88265481D01*
X159297302Y-88355452D01*
X159297305Y-88355454D01*
X159297309Y-88355455D01*
X159297310Y-88355456D01*
X159353155Y-88374997D01*
X159456943Y-88411314D01*
X159624997Y-88430249D01*
X159625000Y-88430249D01*
X159625003Y-88430249D01*
X159793056Y-88411314D01*
X159793059Y-88411313D01*
X159896845Y-88374997D01*
X182969751Y-88374997D01*
X182969751Y-88375002D01*
X182988685Y-88543056D01*
X183044545Y-88702694D01*
X183044547Y-88702697D01*
X183134518Y-88845884D01*
X183134523Y-88845890D01*
X183150952Y-88862319D01*
X183184437Y-88923642D01*
X183179453Y-88993334D01*
X183150952Y-89037681D01*
X183134523Y-89054109D01*
X183134518Y-89054115D01*
X183044547Y-89197302D01*
X183044545Y-89197305D01*
X182988685Y-89356943D01*
X182969751Y-89524997D01*
X182969751Y-89525002D01*
X182988685Y-89693056D01*
X183044545Y-89852694D01*
X183044547Y-89852697D01*
X183134518Y-89995884D01*
X183134523Y-89995890D01*
X183254109Y-90115476D01*
X183254112Y-90115478D01*
X183261319Y-90120007D01*
X183307610Y-90172342D01*
X183318257Y-90241396D01*
X183289881Y-90305244D01*
X183261319Y-90329993D01*
X183254112Y-90334521D01*
X183254109Y-90334523D01*
X183134523Y-90454109D01*
X183134518Y-90454115D01*
X183044547Y-90597302D01*
X183044545Y-90597305D01*
X182988685Y-90756943D01*
X182969751Y-90924997D01*
X182969751Y-90925002D01*
X182988685Y-91093056D01*
X183044545Y-91252694D01*
X183044547Y-91252697D01*
X183134518Y-91395884D01*
X183134523Y-91395890D01*
X183254109Y-91515476D01*
X183254115Y-91515481D01*
X183397302Y-91605452D01*
X183397305Y-91605454D01*
X183397309Y-91605455D01*
X183397310Y-91605456D01*
X183408919Y-91609518D01*
X183556943Y-91661314D01*
X183724997Y-91680249D01*
X183725000Y-91680249D01*
X183725003Y-91680249D01*
X183851044Y-91666047D01*
X183893059Y-91661313D01*
X183946981Y-91642444D01*
X184016759Y-91638882D01*
X184077386Y-91673610D01*
X184109614Y-91735603D01*
X184111156Y-91745602D01*
X184113685Y-91768056D01*
X184169545Y-91927694D01*
X184169547Y-91927697D01*
X184259518Y-92070884D01*
X184259523Y-92070890D01*
X184379109Y-92190476D01*
X184379115Y-92190481D01*
X184522302Y-92280452D01*
X184522305Y-92280454D01*
X184522309Y-92280455D01*
X184522310Y-92280456D01*
X184593165Y-92305249D01*
X184681943Y-92336314D01*
X184849997Y-92355249D01*
X184850000Y-92355249D01*
X184850003Y-92355249D01*
X185018056Y-92336314D01*
X185034803Y-92330454D01*
X185177690Y-92280456D01*
X185268462Y-92223419D01*
X185335697Y-92204419D01*
X185402533Y-92224786D01*
X185447747Y-92278053D01*
X185457654Y-92314528D01*
X185463685Y-92368056D01*
X185519545Y-92527694D01*
X185519547Y-92527697D01*
X185609518Y-92670884D01*
X185609523Y-92670890D01*
X185729109Y-92790476D01*
X185729115Y-92790481D01*
X185872302Y-92880452D01*
X185872305Y-92880454D01*
X185872309Y-92880455D01*
X185872310Y-92880456D01*
X185944913Y-92905860D01*
X186031943Y-92936314D01*
X186199997Y-92955249D01*
X186200000Y-92955249D01*
X186200003Y-92955249D01*
X186368056Y-92936314D01*
X186368059Y-92936313D01*
X186527690Y-92880456D01*
X186527692Y-92880454D01*
X186527694Y-92880454D01*
X186527697Y-92880452D01*
X186670884Y-92790481D01*
X186670885Y-92790480D01*
X186670890Y-92790477D01*
X186790477Y-92670890D01*
X186814949Y-92631943D01*
X186880452Y-92527697D01*
X186880454Y-92527694D01*
X186880454Y-92527692D01*
X186880456Y-92527690D01*
X186936313Y-92368059D01*
X186936313Y-92368058D01*
X186936314Y-92368056D01*
X186955249Y-92200002D01*
X186955249Y-92199997D01*
X193744751Y-92199997D01*
X193744751Y-92200002D01*
X193763685Y-92368056D01*
X193819545Y-92527694D01*
X193819547Y-92527697D01*
X193909518Y-92670884D01*
X193909523Y-92670890D01*
X194029109Y-92790476D01*
X194029115Y-92790481D01*
X194172302Y-92880452D01*
X194172305Y-92880454D01*
X194172309Y-92880455D01*
X194172310Y-92880456D01*
X194244913Y-92905860D01*
X194331943Y-92936314D01*
X194499997Y-92955249D01*
X194500000Y-92955249D01*
X194500003Y-92955249D01*
X194668056Y-92936314D01*
X194668059Y-92936313D01*
X194827690Y-92880456D01*
X194827692Y-92880454D01*
X194827694Y-92880454D01*
X194827697Y-92880452D01*
X194970884Y-92790481D01*
X194970885Y-92790480D01*
X194970890Y-92790477D01*
X195090477Y-92670890D01*
X195114949Y-92631943D01*
X195180452Y-92527697D01*
X195180454Y-92527694D01*
X195180454Y-92527692D01*
X195180456Y-92527690D01*
X195236313Y-92368059D01*
X195236313Y-92368058D01*
X195236314Y-92368056D01*
X195255249Y-92200002D01*
X195255249Y-92199997D01*
X195236314Y-92031943D01*
X195182339Y-91877691D01*
X195180456Y-91872310D01*
X195180455Y-91872309D01*
X195180454Y-91872305D01*
X195180452Y-91872302D01*
X195090481Y-91729115D01*
X195090476Y-91729109D01*
X194970890Y-91609523D01*
X194970884Y-91609518D01*
X194827697Y-91519547D01*
X194827694Y-91519545D01*
X194668056Y-91463685D01*
X194500003Y-91444751D01*
X194499997Y-91444751D01*
X194331943Y-91463685D01*
X194172305Y-91519545D01*
X194172302Y-91519547D01*
X194029115Y-91609518D01*
X194029109Y-91609523D01*
X193909523Y-91729109D01*
X193909518Y-91729115D01*
X193819547Y-91872302D01*
X193819545Y-91872305D01*
X193763685Y-92031943D01*
X193744751Y-92199997D01*
X186955249Y-92199997D01*
X186936314Y-92031943D01*
X186882339Y-91877691D01*
X186880456Y-91872310D01*
X186880455Y-91872309D01*
X186880454Y-91872305D01*
X186880452Y-91872302D01*
X186790481Y-91729115D01*
X186790476Y-91729109D01*
X186670890Y-91609523D01*
X186670884Y-91609518D01*
X186527697Y-91519547D01*
X186527694Y-91519545D01*
X186368056Y-91463685D01*
X186200003Y-91444751D01*
X186199997Y-91444751D01*
X186031943Y-91463685D01*
X185872307Y-91519545D01*
X185781537Y-91576580D01*
X185714300Y-91595580D01*
X185647465Y-91575212D01*
X185602251Y-91521944D01*
X185592345Y-91485470D01*
X185586314Y-91431943D01*
X185530454Y-91272305D01*
X185530452Y-91272302D01*
X185440481Y-91129115D01*
X185440476Y-91129109D01*
X185374048Y-91062681D01*
X185340563Y-91001358D01*
X185342448Y-90974997D01*
X195294751Y-90974997D01*
X195294751Y-90975002D01*
X195313685Y-91143056D01*
X195369545Y-91302694D01*
X195369547Y-91302697D01*
X195459518Y-91445884D01*
X195459523Y-91445890D01*
X195579109Y-91565476D01*
X195579115Y-91565481D01*
X195722302Y-91655452D01*
X195722305Y-91655454D01*
X195722309Y-91655455D01*
X195722310Y-91655456D01*
X195793165Y-91680249D01*
X195881943Y-91711314D01*
X196049997Y-91730249D01*
X196050000Y-91730249D01*
X196050003Y-91730249D01*
X196202077Y-91713114D01*
X196270899Y-91725168D01*
X196322279Y-91772517D01*
X196335522Y-91811639D01*
X196337137Y-91811271D01*
X196338684Y-91818053D01*
X196394545Y-91977694D01*
X196394547Y-91977697D01*
X196484518Y-92120884D01*
X196484523Y-92120890D01*
X196604109Y-92240476D01*
X196604115Y-92240481D01*
X196747302Y-92330452D01*
X196747305Y-92330454D01*
X196747309Y-92330455D01*
X196747310Y-92330456D01*
X196787277Y-92344441D01*
X196906943Y-92386314D01*
X197074997Y-92405249D01*
X197075000Y-92405249D01*
X197075003Y-92405249D01*
X197243056Y-92386314D01*
X197295226Y-92368059D01*
X197402690Y-92330456D01*
X197402692Y-92330454D01*
X197402694Y-92330454D01*
X197402697Y-92330452D01*
X197545884Y-92240481D01*
X197545885Y-92240480D01*
X197545890Y-92240477D01*
X197586370Y-92199997D01*
X198444751Y-92199997D01*
X198444751Y-92200002D01*
X198463685Y-92368056D01*
X198519545Y-92527694D01*
X198519547Y-92527697D01*
X198609518Y-92670884D01*
X198609523Y-92670890D01*
X198729109Y-92790476D01*
X198729115Y-92790481D01*
X198872302Y-92880452D01*
X198872305Y-92880454D01*
X198872309Y-92880455D01*
X198872310Y-92880456D01*
X198944913Y-92905860D01*
X199031943Y-92936314D01*
X199199997Y-92955249D01*
X199200000Y-92955249D01*
X199200003Y-92955249D01*
X199368056Y-92936314D01*
X199368059Y-92936313D01*
X199527690Y-92880456D01*
X199527692Y-92880454D01*
X199527694Y-92880454D01*
X199527697Y-92880452D01*
X199670884Y-92790481D01*
X199670885Y-92790480D01*
X199670890Y-92790477D01*
X199790477Y-92670890D01*
X199814949Y-92631943D01*
X199880452Y-92527697D01*
X199880454Y-92527694D01*
X199880454Y-92527692D01*
X199880456Y-92527690D01*
X199936313Y-92368059D01*
X199936313Y-92368058D01*
X199936314Y-92368056D01*
X199955249Y-92200002D01*
X199955249Y-92199997D01*
X206744751Y-92199997D01*
X206744751Y-92200002D01*
X206763685Y-92368056D01*
X206819545Y-92527694D01*
X206819547Y-92527697D01*
X206909518Y-92670884D01*
X206909523Y-92670890D01*
X207029109Y-92790476D01*
X207029115Y-92790481D01*
X207172302Y-92880452D01*
X207172305Y-92880454D01*
X207172309Y-92880455D01*
X207172310Y-92880456D01*
X207244913Y-92905860D01*
X207331943Y-92936314D01*
X207499997Y-92955249D01*
X207500000Y-92955249D01*
X207500003Y-92955249D01*
X207668056Y-92936314D01*
X207668059Y-92936313D01*
X207827690Y-92880456D01*
X207827692Y-92880454D01*
X207827694Y-92880454D01*
X207827697Y-92880452D01*
X207970884Y-92790481D01*
X207970885Y-92790480D01*
X207970890Y-92790477D01*
X208090477Y-92670890D01*
X208114949Y-92631943D01*
X208180452Y-92527697D01*
X208180454Y-92527694D01*
X208180454Y-92527692D01*
X208180456Y-92527690D01*
X208236313Y-92368059D01*
X208236313Y-92368058D01*
X208236314Y-92368056D01*
X208255249Y-92200002D01*
X208255249Y-92199997D01*
X208236314Y-92031943D01*
X208182339Y-91877691D01*
X208180456Y-91872310D01*
X208180455Y-91872309D01*
X208180454Y-91872305D01*
X208180452Y-91872302D01*
X208090481Y-91729115D01*
X208090476Y-91729109D01*
X207970890Y-91609523D01*
X207970884Y-91609518D01*
X207827697Y-91519547D01*
X207827694Y-91519545D01*
X207668056Y-91463685D01*
X207500003Y-91444751D01*
X207499997Y-91444751D01*
X207331943Y-91463685D01*
X207172305Y-91519545D01*
X207172302Y-91519547D01*
X207029115Y-91609518D01*
X207029109Y-91609523D01*
X206909523Y-91729109D01*
X206909518Y-91729115D01*
X206819547Y-91872302D01*
X206819545Y-91872305D01*
X206763685Y-92031943D01*
X206744751Y-92199997D01*
X199955249Y-92199997D01*
X199936314Y-92031943D01*
X199882339Y-91877691D01*
X199880456Y-91872310D01*
X199880455Y-91872309D01*
X199880454Y-91872305D01*
X199880452Y-91872302D01*
X199790481Y-91729115D01*
X199790476Y-91729109D01*
X199670890Y-91609523D01*
X199670884Y-91609518D01*
X199527697Y-91519547D01*
X199527694Y-91519545D01*
X199368056Y-91463685D01*
X199200003Y-91444751D01*
X199199997Y-91444751D01*
X199031943Y-91463685D01*
X198872305Y-91519545D01*
X198872302Y-91519547D01*
X198729115Y-91609518D01*
X198729109Y-91609523D01*
X198609523Y-91729109D01*
X198609518Y-91729115D01*
X198519547Y-91872302D01*
X198519545Y-91872305D01*
X198463685Y-92031943D01*
X198444751Y-92199997D01*
X197586370Y-92199997D01*
X197665477Y-92120890D01*
X197678605Y-92099997D01*
X197755452Y-91977697D01*
X197755454Y-91977694D01*
X197755454Y-91977692D01*
X197755456Y-91977690D01*
X197811313Y-91818059D01*
X197811313Y-91818058D01*
X197811314Y-91818056D01*
X197830249Y-91650002D01*
X197830249Y-91649997D01*
X197811314Y-91481943D01*
X197763308Y-91344751D01*
X197755456Y-91322310D01*
X197755455Y-91322309D01*
X197755454Y-91322305D01*
X197755452Y-91322302D01*
X197665481Y-91179115D01*
X197665476Y-91179109D01*
X197553994Y-91067627D01*
X197520509Y-91006304D01*
X197525493Y-90936612D01*
X197565801Y-90882767D01*
X197565444Y-90882320D01*
X197567162Y-90880949D01*
X197567365Y-90880679D01*
X197568347Y-90880004D01*
X197570884Y-90877980D01*
X197570890Y-90877977D01*
X197690477Y-90758390D01*
X197691386Y-90756943D01*
X197780452Y-90615197D01*
X197780454Y-90615194D01*
X197780454Y-90615192D01*
X197780456Y-90615190D01*
X197836313Y-90455559D01*
X197836313Y-90455558D01*
X197836314Y-90455556D01*
X197855249Y-90287502D01*
X197855249Y-90287497D01*
X197836314Y-90119443D01*
X197804211Y-90027697D01*
X197780456Y-89959810D01*
X197780455Y-89959809D01*
X197780454Y-89959805D01*
X197780452Y-89959802D01*
X197690481Y-89816615D01*
X197690476Y-89816609D01*
X197626548Y-89752681D01*
X197593063Y-89691358D01*
X197598047Y-89621666D01*
X197626548Y-89577319D01*
X197654048Y-89549819D01*
X197715477Y-89488390D01*
X197750945Y-89431943D01*
X197805452Y-89345197D01*
X197805454Y-89345194D01*
X197805454Y-89345192D01*
X197805456Y-89345190D01*
X197861313Y-89185559D01*
X197861313Y-89185558D01*
X197861314Y-89185556D01*
X197880249Y-89017502D01*
X197880249Y-89017497D01*
X197861314Y-88849443D01*
X197805454Y-88689805D01*
X197805452Y-88689802D01*
X197715481Y-88546615D01*
X197715476Y-88546609D01*
X197627798Y-88458931D01*
X197595617Y-88399997D01*
X208169751Y-88399997D01*
X208169751Y-88400002D01*
X208188685Y-88568056D01*
X208244545Y-88727694D01*
X208244547Y-88727697D01*
X208334518Y-88870884D01*
X208334523Y-88870890D01*
X208388451Y-88924818D01*
X208421936Y-88986141D01*
X208416952Y-89055833D01*
X208388454Y-89100178D01*
X208359521Y-89129112D01*
X208359518Y-89129115D01*
X208269547Y-89272302D01*
X208269545Y-89272305D01*
X208213685Y-89431943D01*
X208194751Y-89599997D01*
X208194751Y-89600002D01*
X208213685Y-89768056D01*
X208269545Y-89927694D01*
X208269547Y-89927697D01*
X208359518Y-90070884D01*
X208359523Y-90070890D01*
X208438452Y-90149819D01*
X208471937Y-90211142D01*
X208466953Y-90280834D01*
X208438452Y-90325181D01*
X208334523Y-90429109D01*
X208334518Y-90429115D01*
X208244547Y-90572302D01*
X208244545Y-90572305D01*
X208188685Y-90731943D01*
X208169751Y-90899997D01*
X208169751Y-90900002D01*
X208188685Y-91068056D01*
X208244545Y-91227694D01*
X208244547Y-91227697D01*
X208334518Y-91370884D01*
X208334523Y-91370890D01*
X208454109Y-91490476D01*
X208454115Y-91490481D01*
X208597302Y-91580452D01*
X208597305Y-91580454D01*
X208597309Y-91580455D01*
X208597310Y-91580456D01*
X208736353Y-91629109D01*
X208756944Y-91636314D01*
X208786890Y-91639688D01*
X208851305Y-91666754D01*
X208890049Y-91721953D01*
X208894826Y-91735603D01*
X208944544Y-91877691D01*
X208944547Y-91877697D01*
X209034518Y-92020884D01*
X209034523Y-92020890D01*
X209154109Y-92140476D01*
X209154115Y-92140481D01*
X209297302Y-92230452D01*
X209297305Y-92230454D01*
X209297309Y-92230455D01*
X209297310Y-92230456D01*
X209325946Y-92240476D01*
X209456943Y-92286314D01*
X209624997Y-92305249D01*
X209625000Y-92305249D01*
X209625003Y-92305249D01*
X209793056Y-92286314D01*
X209809809Y-92280452D01*
X209952690Y-92230456D01*
X209952692Y-92230454D01*
X209952694Y-92230454D01*
X209952697Y-92230452D01*
X210001166Y-92199997D01*
X211444751Y-92199997D01*
X211444751Y-92200002D01*
X211463685Y-92368056D01*
X211519545Y-92527694D01*
X211519547Y-92527697D01*
X211609518Y-92670884D01*
X211609523Y-92670890D01*
X211729109Y-92790476D01*
X211729115Y-92790481D01*
X211872302Y-92880452D01*
X211872305Y-92880454D01*
X211872309Y-92880455D01*
X211872310Y-92880456D01*
X211944913Y-92905860D01*
X212031943Y-92936314D01*
X212199997Y-92955249D01*
X212200000Y-92955249D01*
X212200003Y-92955249D01*
X212368056Y-92936314D01*
X212368059Y-92936313D01*
X212527690Y-92880456D01*
X212527692Y-92880454D01*
X212527694Y-92880454D01*
X212527697Y-92880452D01*
X212670884Y-92790481D01*
X212670885Y-92790480D01*
X212670890Y-92790477D01*
X212790477Y-92670890D01*
X212814949Y-92631943D01*
X212880452Y-92527697D01*
X212880454Y-92527694D01*
X212880454Y-92527692D01*
X212880456Y-92527690D01*
X212936313Y-92368059D01*
X212936313Y-92368058D01*
X212936314Y-92368056D01*
X212955249Y-92200002D01*
X212955249Y-92199997D01*
X219844751Y-92199997D01*
X219844751Y-92200002D01*
X219863685Y-92368056D01*
X219919545Y-92527694D01*
X219919547Y-92527697D01*
X220009518Y-92670884D01*
X220009523Y-92670890D01*
X220129109Y-92790476D01*
X220129115Y-92790481D01*
X220272302Y-92880452D01*
X220272305Y-92880454D01*
X220272309Y-92880455D01*
X220272310Y-92880456D01*
X220344913Y-92905860D01*
X220431943Y-92936314D01*
X220599997Y-92955249D01*
X220600000Y-92955249D01*
X220600003Y-92955249D01*
X220768056Y-92936314D01*
X220768059Y-92936313D01*
X220927690Y-92880456D01*
X220927692Y-92880454D01*
X220927694Y-92880454D01*
X220927697Y-92880452D01*
X221070884Y-92790481D01*
X221070885Y-92790480D01*
X221070890Y-92790477D01*
X221190477Y-92670890D01*
X221214949Y-92631943D01*
X221280452Y-92527697D01*
X221280454Y-92527694D01*
X221280454Y-92527692D01*
X221280456Y-92527690D01*
X221336313Y-92368059D01*
X221336313Y-92368058D01*
X221336314Y-92368056D01*
X221355249Y-92200002D01*
X221355249Y-92199997D01*
X221336314Y-92031943D01*
X221282339Y-91877691D01*
X221280456Y-91872310D01*
X221280455Y-91872309D01*
X221280454Y-91872305D01*
X221280452Y-91872302D01*
X221190481Y-91729115D01*
X221190476Y-91729109D01*
X221070890Y-91609523D01*
X221070884Y-91609518D01*
X220927697Y-91519547D01*
X220927694Y-91519545D01*
X220768056Y-91463685D01*
X220600003Y-91444751D01*
X220599997Y-91444751D01*
X220431943Y-91463685D01*
X220272305Y-91519545D01*
X220272302Y-91519547D01*
X220129115Y-91609518D01*
X220129109Y-91609523D01*
X220009523Y-91729109D01*
X220009518Y-91729115D01*
X219919547Y-91872302D01*
X219919545Y-91872305D01*
X219863685Y-92031943D01*
X219844751Y-92199997D01*
X212955249Y-92199997D01*
X212936314Y-92031943D01*
X212882339Y-91877691D01*
X212880456Y-91872310D01*
X212880455Y-91872309D01*
X212880454Y-91872305D01*
X212880452Y-91872302D01*
X212790481Y-91729115D01*
X212790476Y-91729109D01*
X212670890Y-91609523D01*
X212670884Y-91609518D01*
X212527697Y-91519547D01*
X212527694Y-91519545D01*
X212368056Y-91463685D01*
X212200003Y-91444751D01*
X212199997Y-91444751D01*
X212031943Y-91463685D01*
X211872305Y-91519545D01*
X211872302Y-91519547D01*
X211729115Y-91609518D01*
X211729109Y-91609523D01*
X211609523Y-91729109D01*
X211609518Y-91729115D01*
X211519547Y-91872302D01*
X211519545Y-91872305D01*
X211463685Y-92031943D01*
X211444751Y-92199997D01*
X210001166Y-92199997D01*
X210095884Y-92140481D01*
X210095885Y-92140480D01*
X210095890Y-92140477D01*
X210215477Y-92020890D01*
X210242622Y-91977690D01*
X210305452Y-91877697D01*
X210305454Y-91877694D01*
X210305455Y-91877691D01*
X210305456Y-91877690D01*
X210361313Y-91718059D01*
X210361313Y-91718058D01*
X210361314Y-91718056D01*
X210380249Y-91550002D01*
X210380249Y-91549997D01*
X210361314Y-91381943D01*
X210307340Y-91227694D01*
X210305456Y-91222310D01*
X210305455Y-91222309D01*
X210305454Y-91222305D01*
X210305452Y-91222302D01*
X210215481Y-91079115D01*
X210215476Y-91079109D01*
X210174048Y-91037681D01*
X210140563Y-90976358D01*
X210145547Y-90906666D01*
X210174048Y-90862319D01*
X210216823Y-90819544D01*
X210265477Y-90770890D01*
X210270004Y-90763685D01*
X210355452Y-90627697D01*
X210355454Y-90627694D01*
X210355454Y-90627692D01*
X210355456Y-90627690D01*
X210411313Y-90468059D01*
X210411313Y-90468058D01*
X210411314Y-90468056D01*
X210430249Y-90300002D01*
X210430249Y-90299997D01*
X210411314Y-90131943D01*
X210355454Y-89972305D01*
X210355452Y-89972302D01*
X210265481Y-89829115D01*
X210265476Y-89829109D01*
X210161548Y-89725181D01*
X210128063Y-89663858D01*
X210133047Y-89594166D01*
X210161548Y-89549819D01*
X210186370Y-89524997D01*
X210240477Y-89470890D01*
X210264949Y-89431943D01*
X210330452Y-89327697D01*
X210330454Y-89327694D01*
X210330454Y-89327692D01*
X210330456Y-89327690D01*
X210386313Y-89168059D01*
X210386313Y-89168058D01*
X210386314Y-89168056D01*
X210405249Y-89000002D01*
X210405249Y-88999997D01*
X210386314Y-88831943D01*
X210336578Y-88689805D01*
X210330456Y-88672310D01*
X210330455Y-88672309D01*
X210330454Y-88672305D01*
X210330452Y-88672302D01*
X210240481Y-88529115D01*
X210240476Y-88529109D01*
X210186548Y-88475181D01*
X210153063Y-88413858D01*
X210158047Y-88344166D01*
X210170367Y-88324997D01*
X221244751Y-88324997D01*
X221244751Y-88325002D01*
X221263685Y-88493056D01*
X221319545Y-88652694D01*
X221319547Y-88652697D01*
X221409518Y-88795884D01*
X221409523Y-88795890D01*
X221529110Y-88915477D01*
X221542104Y-88923642D01*
X221562678Y-88936569D01*
X221608970Y-88988903D01*
X221619619Y-89057956D01*
X221591244Y-89121805D01*
X221584389Y-89129244D01*
X221484518Y-89229115D01*
X221394547Y-89372302D01*
X221394545Y-89372305D01*
X221338685Y-89531943D01*
X221319751Y-89699997D01*
X221319751Y-89700002D01*
X221338685Y-89868056D01*
X221394545Y-90027694D01*
X221394547Y-90027697D01*
X221484518Y-90170884D01*
X221484523Y-90170890D01*
X221488452Y-90174819D01*
X221521937Y-90236142D01*
X221516953Y-90305834D01*
X221488452Y-90350181D01*
X221409523Y-90429109D01*
X221409518Y-90429115D01*
X221319547Y-90572302D01*
X221319545Y-90572305D01*
X221263685Y-90731943D01*
X221244751Y-90899997D01*
X221244751Y-90900002D01*
X221263685Y-91068056D01*
X221319545Y-91227694D01*
X221319547Y-91227697D01*
X221409518Y-91370884D01*
X221409523Y-91370890D01*
X221529109Y-91490476D01*
X221529115Y-91490481D01*
X221672302Y-91580452D01*
X221672308Y-91580455D01*
X221672310Y-91580456D01*
X221811353Y-91629109D01*
X221830978Y-91635976D01*
X221887755Y-91676698D01*
X221912083Y-91736283D01*
X221912138Y-91736271D01*
X221912212Y-91736599D01*
X221913243Y-91739122D01*
X221913686Y-91743056D01*
X221969544Y-91902692D01*
X221969547Y-91902697D01*
X222059518Y-92045884D01*
X222059523Y-92045890D01*
X222179109Y-92165476D01*
X222179115Y-92165481D01*
X222322302Y-92255452D01*
X222322305Y-92255454D01*
X222322309Y-92255455D01*
X222322310Y-92255456D01*
X222386889Y-92278053D01*
X222481943Y-92311314D01*
X222649997Y-92330249D01*
X222650000Y-92330249D01*
X222650003Y-92330249D01*
X222818056Y-92311314D01*
X222889502Y-92286314D01*
X222977690Y-92255456D01*
X222977692Y-92255454D01*
X222977694Y-92255454D01*
X222977697Y-92255452D01*
X223120884Y-92165481D01*
X223120885Y-92165480D01*
X223120890Y-92165477D01*
X223186370Y-92099997D01*
X224444751Y-92099997D01*
X224444751Y-92100002D01*
X224463685Y-92268056D01*
X224519545Y-92427694D01*
X224519547Y-92427697D01*
X224609518Y-92570884D01*
X224609523Y-92570890D01*
X224729109Y-92690476D01*
X224729115Y-92690481D01*
X224872302Y-92780452D01*
X224872305Y-92780454D01*
X224872309Y-92780455D01*
X224872310Y-92780456D01*
X224900946Y-92790476D01*
X225031943Y-92836314D01*
X225199997Y-92855249D01*
X225200000Y-92855249D01*
X225200003Y-92855249D01*
X225368056Y-92836314D01*
X225402610Y-92824223D01*
X225527690Y-92780456D01*
X225527692Y-92780454D01*
X225527694Y-92780454D01*
X225527697Y-92780452D01*
X225670884Y-92690481D01*
X225670885Y-92690480D01*
X225670890Y-92690477D01*
X225790477Y-92570890D01*
X225827169Y-92512496D01*
X225880452Y-92427697D01*
X225880454Y-92427694D01*
X225880454Y-92427692D01*
X225880456Y-92427690D01*
X225936313Y-92268059D01*
X225936313Y-92268058D01*
X225936314Y-92268056D01*
X225955249Y-92100002D01*
X225955249Y-92099997D01*
X225936314Y-91931943D01*
X225886594Y-91789851D01*
X225880456Y-91772310D01*
X225880455Y-91772309D01*
X225880454Y-91772305D01*
X225880452Y-91772302D01*
X225790481Y-91629115D01*
X225790476Y-91629109D01*
X225670890Y-91509523D01*
X225670884Y-91509518D01*
X225527697Y-91419547D01*
X225527694Y-91419545D01*
X225368056Y-91363685D01*
X225200003Y-91344751D01*
X225199997Y-91344751D01*
X225031943Y-91363685D01*
X224872305Y-91419545D01*
X224872302Y-91419547D01*
X224729115Y-91509518D01*
X224729109Y-91509523D01*
X224609523Y-91629109D01*
X224609518Y-91629115D01*
X224519547Y-91772302D01*
X224519545Y-91772305D01*
X224463685Y-91931943D01*
X224444751Y-92099997D01*
X223186370Y-92099997D01*
X223240477Y-92045890D01*
X223243163Y-92041615D01*
X223330452Y-91902697D01*
X223330454Y-91902694D01*
X223330454Y-91902692D01*
X223330456Y-91902690D01*
X223386313Y-91743059D01*
X223386313Y-91743058D01*
X223386314Y-91743056D01*
X223405249Y-91575002D01*
X223405249Y-91574997D01*
X223386314Y-91406943D01*
X223332340Y-91252694D01*
X223330456Y-91247310D01*
X223330455Y-91247309D01*
X223330454Y-91247305D01*
X223330452Y-91247302D01*
X223240481Y-91104115D01*
X223240476Y-91104109D01*
X223174048Y-91037681D01*
X223140563Y-90976358D01*
X223145547Y-90906666D01*
X223174048Y-90862319D01*
X223215477Y-90820890D01*
X223224242Y-90806941D01*
X223305452Y-90677697D01*
X223305454Y-90677694D01*
X223305454Y-90677692D01*
X223305456Y-90677690D01*
X223361313Y-90518059D01*
X223361313Y-90518058D01*
X223361314Y-90518056D01*
X223380249Y-90350002D01*
X223380249Y-90349997D01*
X223361314Y-90181943D01*
X223307340Y-90027694D01*
X223305456Y-90022310D01*
X223305455Y-90022309D01*
X223305454Y-90022305D01*
X223305452Y-90022302D01*
X223215481Y-89879115D01*
X223215476Y-89879109D01*
X223111050Y-89774683D01*
X223077565Y-89713360D01*
X223082549Y-89643668D01*
X223116880Y-89596315D01*
X223115966Y-89595401D01*
X223161548Y-89549819D01*
X223240477Y-89470890D01*
X223264949Y-89431943D01*
X223330452Y-89327697D01*
X223330454Y-89327694D01*
X223330454Y-89327692D01*
X223330456Y-89327690D01*
X223386313Y-89168059D01*
X223386313Y-89168058D01*
X223386314Y-89168056D01*
X223405249Y-89000002D01*
X223405249Y-88999997D01*
X223386314Y-88831943D01*
X223336578Y-88689805D01*
X223330456Y-88672310D01*
X223330455Y-88672309D01*
X223330454Y-88672305D01*
X223330452Y-88672302D01*
X223240481Y-88529115D01*
X223240476Y-88529109D01*
X223161548Y-88450181D01*
X223128063Y-88388858D01*
X223133047Y-88319166D01*
X223161548Y-88274819D01*
X223190483Y-88245884D01*
X223240477Y-88195890D01*
X223249242Y-88181941D01*
X223330452Y-88052697D01*
X223330454Y-88052694D01*
X223330454Y-88052692D01*
X223330456Y-88052690D01*
X223386313Y-87893059D01*
X223386313Y-87893058D01*
X223386314Y-87893056D01*
X223405249Y-87725002D01*
X223405249Y-87724997D01*
X223386314Y-87556943D01*
X223331397Y-87400000D01*
X223330456Y-87397310D01*
X223330455Y-87397308D01*
X223330454Y-87397305D01*
X223330452Y-87397302D01*
X223240481Y-87254115D01*
X223240476Y-87254109D01*
X223120890Y-87134523D01*
X223120884Y-87134518D01*
X222977697Y-87044547D01*
X222977694Y-87044545D01*
X222818056Y-86988685D01*
X222650003Y-86969751D01*
X222649997Y-86969751D01*
X222481943Y-86988685D01*
X222322305Y-87044545D01*
X222322302Y-87044547D01*
X222179115Y-87134518D01*
X222179109Y-87134523D01*
X222059523Y-87254109D01*
X222059518Y-87254115D01*
X221969547Y-87397302D01*
X221969544Y-87397308D01*
X221931212Y-87506858D01*
X221890490Y-87563634D01*
X221838234Y-87584970D01*
X221838729Y-87587137D01*
X221831946Y-87588684D01*
X221672305Y-87644545D01*
X221672302Y-87644547D01*
X221529115Y-87734518D01*
X221529109Y-87734523D01*
X221409523Y-87854109D01*
X221409518Y-87854115D01*
X221319547Y-87997302D01*
X221319545Y-87997305D01*
X221263685Y-88156943D01*
X221244751Y-88324997D01*
X210170367Y-88324997D01*
X210186548Y-88299819D01*
X210211548Y-88274819D01*
X210240477Y-88245890D01*
X210249242Y-88231941D01*
X210330452Y-88102697D01*
X210330454Y-88102694D01*
X210330454Y-88102692D01*
X210330456Y-88102690D01*
X210386313Y-87943059D01*
X210386313Y-87943058D01*
X210386314Y-87943056D01*
X210405249Y-87775002D01*
X210405249Y-87774997D01*
X210386314Y-87606943D01*
X210342054Y-87480456D01*
X210330456Y-87447310D01*
X210330455Y-87447308D01*
X210330454Y-87447305D01*
X210330452Y-87447302D01*
X210240481Y-87304115D01*
X210240476Y-87304109D01*
X210120890Y-87184523D01*
X210120884Y-87184518D01*
X209977697Y-87094547D01*
X209977694Y-87094545D01*
X209818056Y-87038685D01*
X209650003Y-87019751D01*
X209649997Y-87019751D01*
X209481943Y-87038685D01*
X209322305Y-87094545D01*
X209322302Y-87094547D01*
X209179115Y-87184518D01*
X209179109Y-87184523D01*
X209059523Y-87304109D01*
X209059518Y-87304115D01*
X208969547Y-87447302D01*
X208969544Y-87447308D01*
X208925183Y-87574087D01*
X208884461Y-87630864D01*
X208822025Y-87656353D01*
X208756946Y-87663685D01*
X208597307Y-87719544D01*
X208597302Y-87719547D01*
X208454115Y-87809518D01*
X208454109Y-87809523D01*
X208334523Y-87929109D01*
X208334518Y-87929115D01*
X208244547Y-88072302D01*
X208244545Y-88072305D01*
X208188685Y-88231943D01*
X208169751Y-88399997D01*
X197595617Y-88399997D01*
X197594313Y-88397608D01*
X197599297Y-88327916D01*
X197627798Y-88283569D01*
X197679426Y-88231941D01*
X197740477Y-88170890D01*
X197756186Y-88145890D01*
X197830452Y-88027697D01*
X197830454Y-88027694D01*
X197830454Y-88027692D01*
X197830456Y-88027690D01*
X197886313Y-87868059D01*
X197886313Y-87868058D01*
X197886314Y-87868056D01*
X197905249Y-87700002D01*
X197905249Y-87699997D01*
X197886314Y-87531943D01*
X197836813Y-87390477D01*
X197830456Y-87372310D01*
X197830455Y-87372309D01*
X197830454Y-87372305D01*
X197830452Y-87372302D01*
X197740481Y-87229115D01*
X197740476Y-87229109D01*
X197620890Y-87109523D01*
X197620884Y-87109518D01*
X197477697Y-87019547D01*
X197477694Y-87019545D01*
X197318056Y-86963685D01*
X197150003Y-86944751D01*
X197149997Y-86944751D01*
X196981943Y-86963685D01*
X196822305Y-87019545D01*
X196822302Y-87019547D01*
X196679115Y-87109518D01*
X196679109Y-87109523D01*
X196559523Y-87229109D01*
X196559518Y-87229115D01*
X196469547Y-87372302D01*
X196469545Y-87372305D01*
X196431704Y-87480452D01*
X196418545Y-87518059D01*
X196414253Y-87530324D01*
X196373531Y-87587100D01*
X196308578Y-87612847D01*
X196283328Y-87612589D01*
X196125004Y-87594751D01*
X196124997Y-87594751D01*
X195956943Y-87613685D01*
X195797305Y-87669545D01*
X195797302Y-87669547D01*
X195654115Y-87759518D01*
X195654109Y-87759523D01*
X195534523Y-87879109D01*
X195534518Y-87879115D01*
X195444547Y-88022302D01*
X195444545Y-88022305D01*
X195388685Y-88181943D01*
X195369751Y-88349997D01*
X195369751Y-88350002D01*
X195388685Y-88518056D01*
X195444545Y-88677694D01*
X195444547Y-88677697D01*
X195534518Y-88820884D01*
X195534520Y-88820886D01*
X195534523Y-88820890D01*
X195559517Y-88845884D01*
X195563453Y-88849820D01*
X195596937Y-88911144D01*
X195591951Y-88980835D01*
X195563452Y-89025181D01*
X195484518Y-89104115D01*
X195394547Y-89247302D01*
X195394545Y-89247305D01*
X195338685Y-89406943D01*
X195319751Y-89574997D01*
X195319751Y-89575002D01*
X195338685Y-89743056D01*
X195394545Y-89902694D01*
X195394547Y-89902697D01*
X195484518Y-90045884D01*
X195484523Y-90045890D01*
X195604109Y-90165476D01*
X195609556Y-90169820D01*
X195607672Y-90172182D01*
X195645077Y-90214417D01*
X195655768Y-90283464D01*
X195627432Y-90347329D01*
X195598821Y-90372137D01*
X195579111Y-90384522D01*
X195579109Y-90384523D01*
X195459523Y-90504109D01*
X195459518Y-90504115D01*
X195369547Y-90647302D01*
X195369545Y-90647305D01*
X195313685Y-90806943D01*
X195294751Y-90974997D01*
X185342448Y-90974997D01*
X185345547Y-90931666D01*
X185374048Y-90887319D01*
X185399048Y-90862319D01*
X185490477Y-90770890D01*
X185495004Y-90763685D01*
X185580452Y-90627697D01*
X185580454Y-90627694D01*
X185580454Y-90627692D01*
X185580456Y-90627690D01*
X185636313Y-90468059D01*
X185636313Y-90468058D01*
X185636314Y-90468056D01*
X185655249Y-90300002D01*
X185655249Y-90299997D01*
X185636314Y-90131943D01*
X185580454Y-89972305D01*
X185580452Y-89972302D01*
X185490481Y-89829115D01*
X185490476Y-89829109D01*
X185432798Y-89771431D01*
X185399313Y-89710108D01*
X185404297Y-89640416D01*
X185432798Y-89596069D01*
X185479048Y-89549819D01*
X185540477Y-89488390D01*
X185575945Y-89431943D01*
X185630452Y-89345197D01*
X185630454Y-89345194D01*
X185630454Y-89345192D01*
X185630456Y-89345190D01*
X185686313Y-89185559D01*
X185686313Y-89185558D01*
X185686314Y-89185556D01*
X185705249Y-89017502D01*
X185705249Y-89017497D01*
X185686314Y-88849443D01*
X185630454Y-88689805D01*
X185630452Y-88689802D01*
X185540481Y-88546615D01*
X185540476Y-88546609D01*
X185464048Y-88470181D01*
X185430563Y-88408858D01*
X185435547Y-88339166D01*
X185464048Y-88294819D01*
X185493391Y-88265476D01*
X185540477Y-88218390D01*
X185554619Y-88195884D01*
X185630452Y-88075197D01*
X185630454Y-88075194D01*
X185630454Y-88075192D01*
X185630456Y-88075190D01*
X185686313Y-87915559D01*
X185686313Y-87915558D01*
X185686314Y-87915556D01*
X185705249Y-87747502D01*
X185705249Y-87747497D01*
X185686314Y-87579443D01*
X185651675Y-87480452D01*
X185630456Y-87419810D01*
X185630455Y-87419809D01*
X185630454Y-87419805D01*
X185630452Y-87419802D01*
X185540481Y-87276615D01*
X185540476Y-87276609D01*
X185476548Y-87212681D01*
X185443063Y-87151358D01*
X185448047Y-87081666D01*
X185476548Y-87037319D01*
X185519325Y-86994542D01*
X185565477Y-86948390D01*
X185567764Y-86944751D01*
X185655452Y-86805197D01*
X185655454Y-86805194D01*
X185655454Y-86805192D01*
X185655456Y-86805190D01*
X185711313Y-86645559D01*
X185711313Y-86645558D01*
X185711314Y-86645556D01*
X185730249Y-86477502D01*
X185730249Y-86477497D01*
X194894751Y-86477497D01*
X194894751Y-86477502D01*
X194913685Y-86645556D01*
X194969545Y-86805194D01*
X194969547Y-86805197D01*
X195059518Y-86948384D01*
X195059523Y-86948390D01*
X195179109Y-87067976D01*
X195179115Y-87067981D01*
X195322302Y-87157952D01*
X195322305Y-87157954D01*
X195322309Y-87157955D01*
X195322310Y-87157956D01*
X195386600Y-87180452D01*
X195481943Y-87213814D01*
X195649997Y-87232749D01*
X195650000Y-87232749D01*
X195650003Y-87232749D01*
X195818056Y-87213814D01*
X195821294Y-87212681D01*
X195977690Y-87157956D01*
X195977692Y-87157954D01*
X195977694Y-87157954D01*
X195977697Y-87157952D01*
X196120884Y-87067981D01*
X196120885Y-87067980D01*
X196120890Y-87067977D01*
X196240477Y-86948390D01*
X196242764Y-86944751D01*
X196330452Y-86805197D01*
X196330454Y-86805194D01*
X196330454Y-86805192D01*
X196330456Y-86805190D01*
X196386313Y-86645559D01*
X196386313Y-86645558D01*
X196386314Y-86645556D01*
X196405249Y-86477502D01*
X196405249Y-86477497D01*
X207594751Y-86477497D01*
X207594751Y-86477502D01*
X207613685Y-86645556D01*
X207669545Y-86805194D01*
X207669547Y-86805197D01*
X207759518Y-86948384D01*
X207759523Y-86948390D01*
X207879109Y-87067976D01*
X207879115Y-87067981D01*
X208022302Y-87157952D01*
X208022305Y-87157954D01*
X208022309Y-87157955D01*
X208022310Y-87157956D01*
X208086600Y-87180452D01*
X208181943Y-87213814D01*
X208349997Y-87232749D01*
X208350000Y-87232749D01*
X208350003Y-87232749D01*
X208518056Y-87213814D01*
X208521294Y-87212681D01*
X208677690Y-87157956D01*
X208677692Y-87157954D01*
X208677694Y-87157954D01*
X208677697Y-87157952D01*
X208820884Y-87067981D01*
X208820885Y-87067980D01*
X208820890Y-87067977D01*
X208940477Y-86948390D01*
X208942764Y-86944751D01*
X209030452Y-86805197D01*
X209030454Y-86805194D01*
X209030454Y-86805192D01*
X209030456Y-86805190D01*
X209086313Y-86645559D01*
X209086313Y-86645558D01*
X209086314Y-86645556D01*
X209105249Y-86477502D01*
X209105249Y-86477497D01*
X220444751Y-86477497D01*
X220444751Y-86477502D01*
X220463685Y-86645556D01*
X220519545Y-86805194D01*
X220519547Y-86805197D01*
X220609518Y-86948384D01*
X220609523Y-86948390D01*
X220729109Y-87067976D01*
X220729115Y-87067981D01*
X220872302Y-87157952D01*
X220872305Y-87157954D01*
X220872309Y-87157955D01*
X220872310Y-87157956D01*
X220936600Y-87180452D01*
X221031943Y-87213814D01*
X221199997Y-87232749D01*
X221200000Y-87232749D01*
X221200003Y-87232749D01*
X221368056Y-87213814D01*
X221371294Y-87212681D01*
X221527690Y-87157956D01*
X221527692Y-87157954D01*
X221527694Y-87157954D01*
X221527697Y-87157952D01*
X221670884Y-87067981D01*
X221670885Y-87067980D01*
X221670890Y-87067977D01*
X221790477Y-86948390D01*
X221792764Y-86944751D01*
X221880452Y-86805197D01*
X221880454Y-86805194D01*
X221880454Y-86805192D01*
X221880456Y-86805190D01*
X221936313Y-86645559D01*
X221936313Y-86645558D01*
X221936314Y-86645556D01*
X221955249Y-86477502D01*
X221955249Y-86477497D01*
X221952151Y-86449997D01*
X226844751Y-86449997D01*
X226844751Y-86450002D01*
X226863685Y-86618056D01*
X226919545Y-86777694D01*
X226919547Y-86777697D01*
X227009518Y-86920884D01*
X227009523Y-86920890D01*
X227129109Y-87040476D01*
X227129115Y-87040481D01*
X227272302Y-87130452D01*
X227272305Y-87130454D01*
X227272309Y-87130455D01*
X227272310Y-87130456D01*
X227332045Y-87151358D01*
X227431943Y-87186314D01*
X227599997Y-87205249D01*
X227600000Y-87205249D01*
X227600003Y-87205249D01*
X227768056Y-87186314D01*
X227768059Y-87186313D01*
X227927690Y-87130456D01*
X227927692Y-87130454D01*
X227927694Y-87130454D01*
X227927697Y-87130452D01*
X228070884Y-87040481D01*
X228070885Y-87040480D01*
X228070890Y-87040477D01*
X228190477Y-86920890D01*
X228190481Y-86920884D01*
X228280452Y-86777697D01*
X228280452Y-86777694D01*
X228280456Y-86777690D01*
X228281104Y-86775839D01*
X228281845Y-86774805D01*
X228283477Y-86771417D01*
X228284070Y-86771702D01*
X228321823Y-86719061D01*
X228386774Y-86693311D01*
X228425749Y-86695899D01*
X228431936Y-86697311D01*
X228431941Y-86697313D01*
X228431946Y-86697313D01*
X228431948Y-86697314D01*
X228599997Y-86716249D01*
X228600000Y-86716249D01*
X228600003Y-86716249D01*
X228768056Y-86697314D01*
X228779496Y-86693311D01*
X228927690Y-86641456D01*
X228927692Y-86641454D01*
X228927694Y-86641454D01*
X228927697Y-86641452D01*
X229070884Y-86551481D01*
X229070885Y-86551480D01*
X229070890Y-86551477D01*
X229190477Y-86431890D01*
X229190481Y-86431884D01*
X229280452Y-86288697D01*
X229280454Y-86288694D01*
X229280454Y-86288692D01*
X229280456Y-86288690D01*
X229336313Y-86129059D01*
X229336313Y-86129058D01*
X229336314Y-86129056D01*
X229355249Y-85961002D01*
X229355249Y-85960997D01*
X229336314Y-85792943D01*
X229301955Y-85694751D01*
X229280456Y-85633310D01*
X229280455Y-85633309D01*
X229280454Y-85633305D01*
X229280452Y-85633302D01*
X229190481Y-85490115D01*
X229190476Y-85490109D01*
X229070890Y-85370523D01*
X229070884Y-85370518D01*
X228927697Y-85280547D01*
X228927694Y-85280545D01*
X228768056Y-85224685D01*
X228600003Y-85205751D01*
X228599997Y-85205751D01*
X228431943Y-85224685D01*
X228272305Y-85280545D01*
X228272302Y-85280547D01*
X228129115Y-85370518D01*
X228129109Y-85370523D01*
X228009523Y-85490109D01*
X228009518Y-85490115D01*
X227919548Y-85633300D01*
X227919543Y-85633310D01*
X227918892Y-85635173D01*
X227918146Y-85636211D01*
X227916526Y-85639578D01*
X227915935Y-85639293D01*
X227878167Y-85691946D01*
X227813213Y-85717690D01*
X227774261Y-85715102D01*
X227768058Y-85713686D01*
X227600003Y-85694751D01*
X227599997Y-85694751D01*
X227431943Y-85713685D01*
X227272305Y-85769545D01*
X227272302Y-85769547D01*
X227129115Y-85859518D01*
X227129109Y-85859523D01*
X227009523Y-85979109D01*
X227009518Y-85979115D01*
X226919547Y-86122302D01*
X226919545Y-86122305D01*
X226863685Y-86281943D01*
X226844751Y-86449997D01*
X221952151Y-86449997D01*
X221936314Y-86309443D01*
X221880454Y-86149805D01*
X221880452Y-86149802D01*
X221790481Y-86006615D01*
X221790476Y-86006609D01*
X221670890Y-85887023D01*
X221670884Y-85887018D01*
X221527697Y-85797047D01*
X221527694Y-85797045D01*
X221368056Y-85741185D01*
X221200003Y-85722251D01*
X221199997Y-85722251D01*
X221031943Y-85741185D01*
X220872305Y-85797045D01*
X220872302Y-85797047D01*
X220729115Y-85887018D01*
X220729109Y-85887023D01*
X220609523Y-86006609D01*
X220609518Y-86006615D01*
X220519547Y-86149802D01*
X220519545Y-86149805D01*
X220463685Y-86309443D01*
X220444751Y-86477497D01*
X209105249Y-86477497D01*
X209086314Y-86309443D01*
X209030454Y-86149805D01*
X209030452Y-86149802D01*
X208940481Y-86006615D01*
X208940476Y-86006609D01*
X208820890Y-85887023D01*
X208820884Y-85887018D01*
X208677697Y-85797047D01*
X208677694Y-85797045D01*
X208518056Y-85741185D01*
X208350003Y-85722251D01*
X208349997Y-85722251D01*
X208181943Y-85741185D01*
X208022305Y-85797045D01*
X208022302Y-85797047D01*
X207879115Y-85887018D01*
X207879109Y-85887023D01*
X207759523Y-86006609D01*
X207759518Y-86006615D01*
X207669547Y-86149802D01*
X207669545Y-86149805D01*
X207613685Y-86309443D01*
X207594751Y-86477497D01*
X196405249Y-86477497D01*
X196386314Y-86309443D01*
X196330454Y-86149805D01*
X196330452Y-86149802D01*
X196240481Y-86006615D01*
X196240476Y-86006609D01*
X196120890Y-85887023D01*
X196120884Y-85887018D01*
X195977697Y-85797047D01*
X195977694Y-85797045D01*
X195818056Y-85741185D01*
X195650003Y-85722251D01*
X195649997Y-85722251D01*
X195481943Y-85741185D01*
X195322305Y-85797045D01*
X195322302Y-85797047D01*
X195179115Y-85887018D01*
X195179109Y-85887023D01*
X195059523Y-86006609D01*
X195059518Y-86006615D01*
X194969547Y-86149802D01*
X194969545Y-86149805D01*
X194913685Y-86309443D01*
X194894751Y-86477497D01*
X185730249Y-86477497D01*
X185711314Y-86309443D01*
X185655454Y-86149805D01*
X185655452Y-86149802D01*
X185565481Y-86006615D01*
X185565476Y-86006609D01*
X185445890Y-85887023D01*
X185445884Y-85887018D01*
X185302697Y-85797047D01*
X185302694Y-85797045D01*
X185143056Y-85741185D01*
X184975003Y-85722251D01*
X184974997Y-85722251D01*
X184806943Y-85741185D01*
X184647305Y-85797045D01*
X184647302Y-85797047D01*
X184504115Y-85887018D01*
X184504109Y-85887023D01*
X184384523Y-86006609D01*
X184384518Y-86006615D01*
X184294547Y-86149802D01*
X184294545Y-86149805D01*
X184238685Y-86309443D01*
X184219751Y-86477497D01*
X184219751Y-86477502D01*
X184238685Y-86645556D01*
X184294545Y-86805194D01*
X184294547Y-86805197D01*
X184384518Y-86948384D01*
X184384523Y-86948390D01*
X184448452Y-87012319D01*
X184481937Y-87073642D01*
X184476953Y-87143334D01*
X184448452Y-87187681D01*
X184359523Y-87276609D01*
X184359518Y-87276615D01*
X184269547Y-87419802D01*
X184269545Y-87419805D01*
X184213685Y-87579443D01*
X184212512Y-87589863D01*
X184185445Y-87654277D01*
X184127850Y-87693832D01*
X184058013Y-87695969D01*
X184048337Y-87693021D01*
X183893056Y-87638685D01*
X183725003Y-87619751D01*
X183724997Y-87619751D01*
X183556943Y-87638685D01*
X183397305Y-87694545D01*
X183397302Y-87694547D01*
X183254115Y-87784518D01*
X183254109Y-87784523D01*
X183134523Y-87904109D01*
X183134518Y-87904115D01*
X183044547Y-88047302D01*
X183044545Y-88047305D01*
X182988685Y-88206943D01*
X182969751Y-88374997D01*
X159896845Y-88374997D01*
X159952690Y-88355456D01*
X159952692Y-88355454D01*
X159952694Y-88355454D01*
X159952697Y-88355452D01*
X160095884Y-88265481D01*
X160095885Y-88265480D01*
X160095890Y-88265477D01*
X160215477Y-88145890D01*
X160242622Y-88102690D01*
X160305452Y-88002697D01*
X160305454Y-88002694D01*
X160305454Y-88002692D01*
X160305456Y-88002690D01*
X160361313Y-87843059D01*
X160361313Y-87843058D01*
X160361314Y-87843056D01*
X160380249Y-87675002D01*
X160380249Y-87674997D01*
X160361313Y-87506940D01*
X160361313Y-87506938D01*
X160336564Y-87436210D01*
X160333002Y-87366431D01*
X160367730Y-87305804D01*
X160412649Y-87278214D01*
X160477690Y-87255456D01*
X160477693Y-87255453D01*
X160477697Y-87255452D01*
X160620884Y-87165481D01*
X160620885Y-87165480D01*
X160620890Y-87165477D01*
X160740477Y-87045890D01*
X160745863Y-87037319D01*
X160830452Y-86902697D01*
X160830454Y-86902694D01*
X160830454Y-86902692D01*
X160830456Y-86902690D01*
X160886313Y-86743059D01*
X160886313Y-86743058D01*
X160886314Y-86743056D01*
X160905249Y-86575002D01*
X160905249Y-86574997D01*
X160896799Y-86499997D01*
X163344751Y-86499997D01*
X163344751Y-86500002D01*
X163363685Y-86668056D01*
X163419545Y-86827694D01*
X163419547Y-86827697D01*
X163509518Y-86970884D01*
X163509523Y-86970890D01*
X163629109Y-87090476D01*
X163629115Y-87090481D01*
X163772302Y-87180452D01*
X163772305Y-87180454D01*
X163772309Y-87180455D01*
X163772310Y-87180456D01*
X163792958Y-87187681D01*
X163931943Y-87236314D01*
X164099997Y-87255249D01*
X164100000Y-87255249D01*
X164100003Y-87255249D01*
X164268056Y-87236314D01*
X164278244Y-87232749D01*
X164427690Y-87180456D01*
X164427692Y-87180454D01*
X164427694Y-87180454D01*
X164427697Y-87180452D01*
X164570884Y-87090481D01*
X164570885Y-87090480D01*
X164570890Y-87090477D01*
X164690477Y-86970890D01*
X164704619Y-86948384D01*
X164780452Y-86827697D01*
X164780454Y-86827694D01*
X164780454Y-86827692D01*
X164780456Y-86827690D01*
X164836313Y-86668059D01*
X164836313Y-86668058D01*
X164836314Y-86668056D01*
X164855249Y-86500002D01*
X164855249Y-86499997D01*
X168144751Y-86499997D01*
X168144751Y-86500002D01*
X168163685Y-86668056D01*
X168219545Y-86827694D01*
X168219547Y-86827697D01*
X168309518Y-86970884D01*
X168309523Y-86970890D01*
X168429109Y-87090476D01*
X168429115Y-87090481D01*
X168572302Y-87180452D01*
X168572305Y-87180454D01*
X168572309Y-87180455D01*
X168572310Y-87180456D01*
X168711353Y-87229109D01*
X168731944Y-87236314D01*
X168837074Y-87248159D01*
X168901488Y-87275225D01*
X168941043Y-87332820D01*
X168946411Y-87385261D01*
X168944751Y-87399995D01*
X168944751Y-87400002D01*
X168963685Y-87568056D01*
X169019545Y-87727694D01*
X169019547Y-87727697D01*
X169109518Y-87870884D01*
X169109523Y-87870890D01*
X169229109Y-87990476D01*
X169229115Y-87990481D01*
X169372302Y-88080452D01*
X169372305Y-88080454D01*
X169372309Y-88080455D01*
X169372310Y-88080456D01*
X169443165Y-88105249D01*
X169531943Y-88136314D01*
X169699997Y-88155249D01*
X169700000Y-88155249D01*
X169700003Y-88155249D01*
X169868056Y-88136314D01*
X169868059Y-88136313D01*
X170027690Y-88080456D01*
X170027692Y-88080454D01*
X170027694Y-88080454D01*
X170027697Y-88080452D01*
X170170884Y-87990481D01*
X170170885Y-87990480D01*
X170170890Y-87990477D01*
X170290477Y-87870890D01*
X170292258Y-87868056D01*
X170380452Y-87727697D01*
X170380456Y-87727689D01*
X170381397Y-87725002D01*
X170392330Y-87693754D01*
X170433051Y-87636979D01*
X170498003Y-87611230D01*
X170566565Y-87624685D01*
X170615716Y-87671870D01*
X170615838Y-87671794D01*
X170616143Y-87672280D01*
X170616968Y-87673072D01*
X170618657Y-87676281D01*
X170709518Y-87820884D01*
X170709523Y-87820890D01*
X170829109Y-87940476D01*
X170829115Y-87940481D01*
X170972302Y-88030452D01*
X170972305Y-88030454D01*
X170972309Y-88030455D01*
X170972310Y-88030456D01*
X171044913Y-88055860D01*
X171131943Y-88086314D01*
X171299997Y-88105249D01*
X171300000Y-88105249D01*
X171300003Y-88105249D01*
X171468056Y-88086314D01*
X171484809Y-88080452D01*
X171627690Y-88030456D01*
X171627692Y-88030454D01*
X171627694Y-88030454D01*
X171627697Y-88030452D01*
X171770884Y-87940481D01*
X171770885Y-87940480D01*
X171770890Y-87940477D01*
X171890477Y-87820890D01*
X171891323Y-87819544D01*
X171980452Y-87677697D01*
X171980454Y-87677694D01*
X171980454Y-87677692D01*
X171980456Y-87677690D01*
X172036313Y-87518059D01*
X172036313Y-87518058D01*
X172036314Y-87518056D01*
X172055249Y-87350002D01*
X172055249Y-87349997D01*
X172036314Y-87181943D01*
X171986813Y-87040477D01*
X171980456Y-87022310D01*
X171980455Y-87022309D01*
X171980454Y-87022305D01*
X171980452Y-87022302D01*
X171890481Y-86879115D01*
X171890476Y-86879109D01*
X171770890Y-86759523D01*
X171770884Y-86759518D01*
X171627697Y-86669547D01*
X171627694Y-86669545D01*
X171468055Y-86613685D01*
X171352339Y-86600647D01*
X171287925Y-86573580D01*
X171248370Y-86515985D01*
X171243003Y-86491310D01*
X171236314Y-86431944D01*
X171193449Y-86309443D01*
X171180456Y-86272310D01*
X171180455Y-86272309D01*
X171180454Y-86272305D01*
X171180452Y-86272302D01*
X171090481Y-86129115D01*
X171090476Y-86129109D01*
X170970890Y-86009523D01*
X170970884Y-86009518D01*
X170827697Y-85919547D01*
X170827694Y-85919545D01*
X170668056Y-85863685D01*
X170500003Y-85844751D01*
X170499997Y-85844751D01*
X170331943Y-85863685D01*
X170172305Y-85919545D01*
X170172302Y-85919547D01*
X170029115Y-86009518D01*
X170029109Y-86009523D01*
X169909523Y-86129109D01*
X169909521Y-86129112D01*
X169825442Y-86262921D01*
X169773107Y-86309212D01*
X169704054Y-86319859D01*
X169640205Y-86291484D01*
X169603408Y-86237903D01*
X169580456Y-86172310D01*
X169580455Y-86172307D01*
X169580452Y-86172302D01*
X169490481Y-86029115D01*
X169490476Y-86029109D01*
X169370890Y-85909523D01*
X169370884Y-85909518D01*
X169227697Y-85819547D01*
X169227694Y-85819545D01*
X169068056Y-85763685D01*
X168900003Y-85744751D01*
X168899997Y-85744751D01*
X168731943Y-85763685D01*
X168572305Y-85819545D01*
X168572302Y-85819547D01*
X168429115Y-85909518D01*
X168429109Y-85909523D01*
X168309523Y-86029109D01*
X168309518Y-86029115D01*
X168219547Y-86172302D01*
X168219545Y-86172305D01*
X168163685Y-86331943D01*
X168144751Y-86499997D01*
X164855249Y-86499997D01*
X164836314Y-86331943D01*
X164805860Y-86244913D01*
X164780456Y-86172310D01*
X164780455Y-86172309D01*
X164780454Y-86172305D01*
X164780452Y-86172302D01*
X164690481Y-86029115D01*
X164690476Y-86029109D01*
X164570890Y-85909523D01*
X164570884Y-85909518D01*
X164427697Y-85819547D01*
X164427694Y-85819545D01*
X164268056Y-85763685D01*
X164100003Y-85744751D01*
X164099997Y-85744751D01*
X163931943Y-85763685D01*
X163772305Y-85819545D01*
X163772302Y-85819547D01*
X163629115Y-85909518D01*
X163629109Y-85909523D01*
X163509523Y-86029109D01*
X163509518Y-86029115D01*
X163419547Y-86172302D01*
X163419545Y-86172305D01*
X163363685Y-86331943D01*
X163344751Y-86499997D01*
X160896799Y-86499997D01*
X160886314Y-86406943D01*
X160844935Y-86288690D01*
X160830456Y-86247310D01*
X160830455Y-86247309D01*
X160830454Y-86247305D01*
X160830452Y-86247302D01*
X160740481Y-86104115D01*
X160740476Y-86104109D01*
X160620890Y-85984523D01*
X160620884Y-85984518D01*
X160477697Y-85894547D01*
X160477694Y-85894545D01*
X160318056Y-85838685D01*
X160150003Y-85819751D01*
X160149997Y-85819751D01*
X159981943Y-85838685D01*
X159822305Y-85894545D01*
X159822302Y-85894547D01*
X159679115Y-85984518D01*
X159679109Y-85984523D01*
X159559523Y-86104109D01*
X159559518Y-86104115D01*
X159469547Y-86247302D01*
X159469545Y-86247305D01*
X159413685Y-86406943D01*
X159394751Y-86574997D01*
X159394751Y-86575002D01*
X159413686Y-86743057D01*
X159438436Y-86813790D01*
X159441997Y-86883569D01*
X159407268Y-86944196D01*
X159362349Y-86971785D01*
X159297313Y-86994542D01*
X159297302Y-86994547D01*
X159154115Y-87084518D01*
X159154109Y-87084523D01*
X159034523Y-87204109D01*
X159034518Y-87204115D01*
X158944547Y-87347302D01*
X158944545Y-87347305D01*
X158888685Y-87506943D01*
X158869751Y-87674997D01*
X139500000Y-87674997D01*
X139500000Y-86799997D01*
X142144751Y-86799997D01*
X142144751Y-86800002D01*
X142163685Y-86968056D01*
X142219545Y-87127694D01*
X142219547Y-87127697D01*
X142309518Y-87270884D01*
X142309523Y-87270890D01*
X142429109Y-87390476D01*
X142429115Y-87390481D01*
X142572302Y-87480452D01*
X142572305Y-87480454D01*
X142572309Y-87480455D01*
X142572310Y-87480456D01*
X142644913Y-87505860D01*
X142731943Y-87536314D01*
X142899997Y-87555249D01*
X142900000Y-87555249D01*
X142900003Y-87555249D01*
X143068056Y-87536314D01*
X143080548Y-87531943D01*
X143227690Y-87480456D01*
X143227692Y-87480454D01*
X143227694Y-87480454D01*
X143227697Y-87480452D01*
X143370884Y-87390481D01*
X143370885Y-87390480D01*
X143370890Y-87390477D01*
X143490477Y-87270890D01*
X143500175Y-87255456D01*
X143580452Y-87127697D01*
X143580454Y-87127694D01*
X143580454Y-87127692D01*
X143580456Y-87127690D01*
X143636313Y-86968059D01*
X143636313Y-86968058D01*
X143636314Y-86968056D01*
X143655249Y-86800002D01*
X143655249Y-86799997D01*
X143636314Y-86631943D01*
X143580454Y-86472305D01*
X143580452Y-86472302D01*
X143490481Y-86329115D01*
X143490476Y-86329109D01*
X143370890Y-86209523D01*
X143370884Y-86209518D01*
X143355732Y-86199997D01*
X148744751Y-86199997D01*
X148744751Y-86200002D01*
X148763685Y-86368056D01*
X148819545Y-86527694D01*
X148819547Y-86527697D01*
X148909518Y-86670884D01*
X148909523Y-86670890D01*
X149029109Y-86790476D01*
X149029115Y-86790481D01*
X149172302Y-86880452D01*
X149172305Y-86880454D01*
X149172309Y-86880455D01*
X149172310Y-86880456D01*
X149244913Y-86905860D01*
X149331943Y-86936314D01*
X149499997Y-86955249D01*
X149500000Y-86955249D01*
X149500003Y-86955249D01*
X149668056Y-86936314D01*
X149668059Y-86936313D01*
X149827690Y-86880456D01*
X149827692Y-86880454D01*
X149827694Y-86880454D01*
X149827697Y-86880452D01*
X149970884Y-86790481D01*
X149970885Y-86790480D01*
X149970890Y-86790477D01*
X150090477Y-86670890D01*
X150106394Y-86645559D01*
X150180452Y-86527697D01*
X150180454Y-86527694D01*
X150180454Y-86527692D01*
X150180456Y-86527690D01*
X150190146Y-86499997D01*
X156144751Y-86499997D01*
X156144751Y-86500002D01*
X156163685Y-86668056D01*
X156219545Y-86827694D01*
X156219547Y-86827697D01*
X156309518Y-86970884D01*
X156309523Y-86970890D01*
X156429109Y-87090476D01*
X156429115Y-87090481D01*
X156572302Y-87180452D01*
X156572305Y-87180454D01*
X156572309Y-87180455D01*
X156572310Y-87180456D01*
X156592958Y-87187681D01*
X156731943Y-87236314D01*
X156899997Y-87255249D01*
X156900000Y-87255249D01*
X156900003Y-87255249D01*
X157068056Y-87236314D01*
X157078244Y-87232749D01*
X157227690Y-87180456D01*
X157227692Y-87180454D01*
X157227694Y-87180454D01*
X157227697Y-87180452D01*
X157370884Y-87090481D01*
X157370885Y-87090480D01*
X157370890Y-87090477D01*
X157490477Y-86970890D01*
X157504619Y-86948384D01*
X157580452Y-86827697D01*
X157580454Y-86827694D01*
X157580454Y-86827692D01*
X157580456Y-86827690D01*
X157636313Y-86668059D01*
X157636313Y-86668058D01*
X157636314Y-86668056D01*
X157655249Y-86500002D01*
X157655249Y-86499997D01*
X157636314Y-86331943D01*
X157605860Y-86244913D01*
X157580456Y-86172310D01*
X157580455Y-86172309D01*
X157580454Y-86172305D01*
X157580452Y-86172302D01*
X157490481Y-86029115D01*
X157490476Y-86029109D01*
X157370890Y-85909523D01*
X157370884Y-85909518D01*
X157227697Y-85819547D01*
X157227694Y-85819545D01*
X157068056Y-85763685D01*
X156900003Y-85744751D01*
X156899997Y-85744751D01*
X156731943Y-85763685D01*
X156572305Y-85819545D01*
X156572302Y-85819547D01*
X156429115Y-85909518D01*
X156429109Y-85909523D01*
X156309523Y-86029109D01*
X156309518Y-86029115D01*
X156219547Y-86172302D01*
X156219545Y-86172305D01*
X156163685Y-86331943D01*
X156144751Y-86499997D01*
X150190146Y-86499997D01*
X150236313Y-86368059D01*
X150236313Y-86368058D01*
X150236314Y-86368056D01*
X150255249Y-86200002D01*
X150255249Y-86199997D01*
X150236314Y-86031943D01*
X150193477Y-85909523D01*
X150180456Y-85872310D01*
X150180455Y-85872309D01*
X150180454Y-85872305D01*
X150180452Y-85872302D01*
X150090481Y-85729115D01*
X150090476Y-85729109D01*
X149970890Y-85609523D01*
X149970884Y-85609518D01*
X149827697Y-85519547D01*
X149827694Y-85519545D01*
X149668056Y-85463685D01*
X149500003Y-85444751D01*
X149499997Y-85444751D01*
X149331943Y-85463685D01*
X149172305Y-85519545D01*
X149172302Y-85519547D01*
X149029115Y-85609518D01*
X149029109Y-85609523D01*
X148909523Y-85729109D01*
X148909518Y-85729115D01*
X148819547Y-85872302D01*
X148819545Y-85872305D01*
X148763685Y-86031943D01*
X148744751Y-86199997D01*
X143355732Y-86199997D01*
X143227697Y-86119547D01*
X143227694Y-86119545D01*
X143068056Y-86063685D01*
X142900003Y-86044751D01*
X142899997Y-86044751D01*
X142731943Y-86063685D01*
X142572305Y-86119545D01*
X142572302Y-86119547D01*
X142429115Y-86209518D01*
X142429109Y-86209523D01*
X142309523Y-86329109D01*
X142309518Y-86329115D01*
X142219547Y-86472302D01*
X142219545Y-86472305D01*
X142163685Y-86631943D01*
X142144751Y-86799997D01*
X139500000Y-86799997D01*
X139500000Y-84199997D01*
X142144751Y-84199997D01*
X142144751Y-84200002D01*
X142163685Y-84368056D01*
X142219545Y-84527694D01*
X142219547Y-84527697D01*
X142309518Y-84670884D01*
X142309523Y-84670890D01*
X142429109Y-84790476D01*
X142429115Y-84790481D01*
X142572302Y-84880452D01*
X142572305Y-84880454D01*
X142572309Y-84880455D01*
X142572310Y-84880456D01*
X142644913Y-84905860D01*
X142731943Y-84936314D01*
X142899997Y-84955249D01*
X142900000Y-84955249D01*
X142900003Y-84955249D01*
X143068056Y-84936314D01*
X143068059Y-84936313D01*
X143227690Y-84880456D01*
X143227692Y-84880454D01*
X143227694Y-84880454D01*
X143227697Y-84880452D01*
X143370884Y-84790481D01*
X143370885Y-84790480D01*
X143370890Y-84790477D01*
X143490477Y-84670890D01*
X143516102Y-84630108D01*
X143580452Y-84527697D01*
X143580454Y-84527694D01*
X143580454Y-84527692D01*
X143580456Y-84527690D01*
X143633885Y-84374997D01*
X144444751Y-84374997D01*
X144444751Y-84375002D01*
X144463685Y-84543056D01*
X144519545Y-84702694D01*
X144519547Y-84702697D01*
X144609518Y-84845884D01*
X144609523Y-84845890D01*
X144729109Y-84965476D01*
X144729115Y-84965481D01*
X144872302Y-85055452D01*
X144872305Y-85055454D01*
X144872309Y-85055455D01*
X144872310Y-85055456D01*
X144944913Y-85080860D01*
X145031943Y-85111314D01*
X145199997Y-85130249D01*
X145200000Y-85130249D01*
X145200003Y-85130249D01*
X145368056Y-85111314D01*
X145368059Y-85111313D01*
X145527690Y-85055456D01*
X145527692Y-85055454D01*
X145527694Y-85055454D01*
X145527697Y-85055452D01*
X145670884Y-84965481D01*
X145670885Y-84965480D01*
X145670890Y-84965477D01*
X145790477Y-84845890D01*
X145825293Y-84790481D01*
X145880452Y-84702697D01*
X145880454Y-84702694D01*
X145880454Y-84702692D01*
X145880456Y-84702690D01*
X145936313Y-84543059D01*
X145936313Y-84543058D01*
X145936314Y-84543056D01*
X145955249Y-84375002D01*
X145955249Y-84374997D01*
X145936314Y-84206943D01*
X145880454Y-84047305D01*
X145880452Y-84047302D01*
X145790481Y-83904115D01*
X145790476Y-83904109D01*
X145670890Y-83784523D01*
X145670884Y-83784518D01*
X145527697Y-83694547D01*
X145527694Y-83694545D01*
X145368056Y-83638685D01*
X145200003Y-83619751D01*
X145199997Y-83619751D01*
X145031943Y-83638685D01*
X144872305Y-83694545D01*
X144872302Y-83694547D01*
X144729115Y-83784518D01*
X144729109Y-83784523D01*
X144609523Y-83904109D01*
X144609518Y-83904115D01*
X144519547Y-84047302D01*
X144519545Y-84047305D01*
X144463685Y-84206943D01*
X144444751Y-84374997D01*
X143633885Y-84374997D01*
X143636313Y-84368059D01*
X143636313Y-84368058D01*
X143636314Y-84368056D01*
X143655249Y-84200002D01*
X143655249Y-84199997D01*
X143636314Y-84031943D01*
X143583306Y-83880456D01*
X143580456Y-83872310D01*
X143580455Y-83872309D01*
X143580454Y-83872305D01*
X143580452Y-83872302D01*
X143490481Y-83729115D01*
X143490476Y-83729109D01*
X143370890Y-83609523D01*
X143370884Y-83609518D01*
X143355732Y-83599997D01*
X159344751Y-83599997D01*
X159344751Y-83600002D01*
X159363685Y-83768056D01*
X159419545Y-83927694D01*
X159419547Y-83927697D01*
X159509518Y-84070884D01*
X159509523Y-84070890D01*
X159629109Y-84190476D01*
X159629115Y-84190481D01*
X159772302Y-84280452D01*
X159772305Y-84280454D01*
X159772309Y-84280455D01*
X159772310Y-84280456D01*
X159844913Y-84305860D01*
X159931943Y-84336314D01*
X160099997Y-84355249D01*
X160100000Y-84355249D01*
X160100003Y-84355249D01*
X160268056Y-84336314D01*
X160268059Y-84336313D01*
X160427690Y-84280456D01*
X160427692Y-84280454D01*
X160427694Y-84280454D01*
X160427697Y-84280452D01*
X160570884Y-84190481D01*
X160570885Y-84190480D01*
X160570890Y-84190477D01*
X160690477Y-84070890D01*
X160690481Y-84070884D01*
X160780452Y-83927697D01*
X160780454Y-83927694D01*
X160780454Y-83927692D01*
X160780456Y-83927690D01*
X160807642Y-83849997D01*
X162144751Y-83849997D01*
X162144751Y-83850002D01*
X162163685Y-84018056D01*
X162219545Y-84177694D01*
X162219547Y-84177697D01*
X162309518Y-84320884D01*
X162309523Y-84320890D01*
X162429109Y-84440476D01*
X162429115Y-84440481D01*
X162572302Y-84530452D01*
X162572305Y-84530454D01*
X162572309Y-84530455D01*
X162572310Y-84530456D01*
X162635003Y-84552393D01*
X162731943Y-84586314D01*
X162899997Y-84605249D01*
X162900000Y-84605249D01*
X162900003Y-84605249D01*
X163068056Y-84586314D01*
X163076398Y-84583395D01*
X163227690Y-84530456D01*
X163227692Y-84530454D01*
X163227694Y-84530454D01*
X163227697Y-84530452D01*
X163370884Y-84440481D01*
X163370885Y-84440480D01*
X163370890Y-84440477D01*
X163490477Y-84320890D01*
X163490481Y-84320884D01*
X163580452Y-84177697D01*
X163580454Y-84177694D01*
X163580454Y-84177692D01*
X163580456Y-84177690D01*
X163636313Y-84018059D01*
X163636313Y-84018058D01*
X163636314Y-84018056D01*
X163655249Y-83850002D01*
X163655249Y-83849997D01*
X163636314Y-83681943D01*
X163582340Y-83527694D01*
X163580456Y-83522310D01*
X163580455Y-83522309D01*
X163580454Y-83522305D01*
X163580452Y-83522302D01*
X163490481Y-83379115D01*
X163490476Y-83379109D01*
X163370890Y-83259523D01*
X163370884Y-83259518D01*
X163227697Y-83169547D01*
X163227694Y-83169545D01*
X163068056Y-83113685D01*
X162900003Y-83094751D01*
X162899997Y-83094751D01*
X162731943Y-83113685D01*
X162572305Y-83169545D01*
X162572302Y-83169547D01*
X162429115Y-83259518D01*
X162429109Y-83259523D01*
X162309523Y-83379109D01*
X162309518Y-83379115D01*
X162219547Y-83522302D01*
X162219545Y-83522305D01*
X162163685Y-83681943D01*
X162144751Y-83849997D01*
X160807642Y-83849997D01*
X160836313Y-83768059D01*
X160836313Y-83768058D01*
X160836314Y-83768056D01*
X160855249Y-83600002D01*
X160855249Y-83599997D01*
X160836314Y-83431943D01*
X160797581Y-83321250D01*
X160780456Y-83272310D01*
X160780455Y-83272309D01*
X160780454Y-83272305D01*
X160780452Y-83272302D01*
X160690481Y-83129115D01*
X160690476Y-83129109D01*
X160570890Y-83009523D01*
X160570884Y-83009518D01*
X160427697Y-82919547D01*
X160427694Y-82919545D01*
X160268056Y-82863685D01*
X160100003Y-82844751D01*
X160099997Y-82844751D01*
X159931943Y-82863685D01*
X159772305Y-82919545D01*
X159772302Y-82919547D01*
X159629115Y-83009518D01*
X159629109Y-83009523D01*
X159509523Y-83129109D01*
X159509518Y-83129115D01*
X159419547Y-83272302D01*
X159419545Y-83272305D01*
X159363685Y-83431943D01*
X159344751Y-83599997D01*
X143355732Y-83599997D01*
X143227697Y-83519547D01*
X143227694Y-83519545D01*
X143068056Y-83463685D01*
X142900003Y-83444751D01*
X142899997Y-83444751D01*
X142731943Y-83463685D01*
X142572305Y-83519545D01*
X142572302Y-83519547D01*
X142429115Y-83609518D01*
X142429109Y-83609523D01*
X142309523Y-83729109D01*
X142309518Y-83729115D01*
X142219547Y-83872302D01*
X142219545Y-83872305D01*
X142163685Y-84031943D01*
X142144751Y-84199997D01*
X139500000Y-84199997D01*
X139500000Y-81599997D01*
X142144751Y-81599997D01*
X142144751Y-81600002D01*
X142163685Y-81768056D01*
X142219545Y-81927694D01*
X142219547Y-81927697D01*
X142309518Y-82070884D01*
X142309523Y-82070890D01*
X142429109Y-82190476D01*
X142429115Y-82190481D01*
X142572302Y-82280452D01*
X142572305Y-82280454D01*
X142572309Y-82280455D01*
X142572310Y-82280456D01*
X142644913Y-82305860D01*
X142731943Y-82336314D01*
X142899997Y-82355249D01*
X142900000Y-82355249D01*
X142900003Y-82355249D01*
X143068056Y-82336314D01*
X143084809Y-82330452D01*
X143227690Y-82280456D01*
X143227692Y-82280454D01*
X143227694Y-82280454D01*
X143227697Y-82280452D01*
X143370884Y-82190481D01*
X143370885Y-82190480D01*
X143370890Y-82190477D01*
X143490477Y-82070890D01*
X143542575Y-81987977D01*
X143580452Y-81927697D01*
X143580454Y-81927694D01*
X143580454Y-81927692D01*
X143580456Y-81927690D01*
X143636313Y-81768059D01*
X143636313Y-81768058D01*
X143636314Y-81768056D01*
X143649616Y-81649997D01*
X144844751Y-81649997D01*
X144844751Y-81650002D01*
X144863685Y-81818056D01*
X144919545Y-81977694D01*
X144919547Y-81977697D01*
X145009518Y-82120884D01*
X145009523Y-82120890D01*
X145129109Y-82240476D01*
X145129115Y-82240481D01*
X145272302Y-82330452D01*
X145272305Y-82330454D01*
X145272309Y-82330455D01*
X145272310Y-82330456D01*
X145343165Y-82355249D01*
X145431943Y-82386314D01*
X145599997Y-82405249D01*
X145600000Y-82405249D01*
X145600003Y-82405249D01*
X145768056Y-82386314D01*
X145768059Y-82386313D01*
X145927690Y-82330456D01*
X145927692Y-82330454D01*
X145927694Y-82330454D01*
X145927697Y-82330452D01*
X146070884Y-82240481D01*
X146070885Y-82240480D01*
X146070890Y-82240477D01*
X146190477Y-82120890D01*
X146218041Y-82077023D01*
X146280452Y-81977697D01*
X146280454Y-81977694D01*
X146280454Y-81977692D01*
X146280456Y-81977690D01*
X146336313Y-81818059D01*
X146336313Y-81818058D01*
X146336314Y-81818056D01*
X146355249Y-81650002D01*
X146355249Y-81649997D01*
X146336314Y-81481943D01*
X146307640Y-81399997D01*
X159369751Y-81399997D01*
X159369751Y-81400002D01*
X159388685Y-81568056D01*
X159444545Y-81727694D01*
X159444547Y-81727697D01*
X159534518Y-81870884D01*
X159534523Y-81870890D01*
X159654109Y-81990476D01*
X159654115Y-81990481D01*
X159797302Y-82080452D01*
X159797305Y-82080454D01*
X159797309Y-82080455D01*
X159797310Y-82080456D01*
X159869913Y-82105860D01*
X159956943Y-82136314D01*
X160124997Y-82155249D01*
X160125000Y-82155249D01*
X160125003Y-82155249D01*
X160293056Y-82136314D01*
X160293059Y-82136313D01*
X160452690Y-82080456D01*
X160452692Y-82080454D01*
X160452694Y-82080454D01*
X160452697Y-82080452D01*
X160595884Y-81990481D01*
X160595885Y-81990480D01*
X160595890Y-81990477D01*
X160715477Y-81870890D01*
X160748675Y-81818056D01*
X160805452Y-81727697D01*
X160805454Y-81727694D01*
X160805454Y-81727692D01*
X160805456Y-81727690D01*
X160861313Y-81568059D01*
X160861313Y-81568058D01*
X160861314Y-81568056D01*
X160880249Y-81400002D01*
X160880249Y-81399997D01*
X160861314Y-81231943D01*
X160805454Y-81072305D01*
X160805452Y-81072302D01*
X160715481Y-80929115D01*
X160715476Y-80929109D01*
X160595890Y-80809523D01*
X160595884Y-80809518D01*
X160452697Y-80719547D01*
X160452694Y-80719545D01*
X160293056Y-80663685D01*
X160125003Y-80644751D01*
X160124997Y-80644751D01*
X159956943Y-80663685D01*
X159797305Y-80719545D01*
X159797302Y-80719547D01*
X159654115Y-80809518D01*
X159654109Y-80809523D01*
X159534523Y-80929109D01*
X159534518Y-80929115D01*
X159444547Y-81072302D01*
X159444545Y-81072305D01*
X159388685Y-81231943D01*
X159369751Y-81399997D01*
X146307640Y-81399997D01*
X146280454Y-81322305D01*
X146280452Y-81322302D01*
X146190481Y-81179115D01*
X146190476Y-81179109D01*
X146070890Y-81059523D01*
X146070884Y-81059518D01*
X145927697Y-80969547D01*
X145927694Y-80969545D01*
X145768056Y-80913685D01*
X145600003Y-80894751D01*
X145599997Y-80894751D01*
X145431943Y-80913685D01*
X145272305Y-80969545D01*
X145272302Y-80969547D01*
X145129115Y-81059518D01*
X145129109Y-81059523D01*
X145009523Y-81179109D01*
X145009518Y-81179115D01*
X144919547Y-81322302D01*
X144919545Y-81322305D01*
X144863685Y-81481943D01*
X144844751Y-81649997D01*
X143649616Y-81649997D01*
X143655249Y-81600002D01*
X143655249Y-81599997D01*
X143636314Y-81431943D01*
X143580454Y-81272305D01*
X143580452Y-81272302D01*
X143490481Y-81129115D01*
X143490476Y-81129109D01*
X143370890Y-81009523D01*
X143370884Y-81009518D01*
X143227697Y-80919547D01*
X143227694Y-80919545D01*
X143068056Y-80863685D01*
X142900003Y-80844751D01*
X142899997Y-80844751D01*
X142731943Y-80863685D01*
X142572305Y-80919545D01*
X142572302Y-80919547D01*
X142429115Y-81009518D01*
X142429109Y-81009523D01*
X142309523Y-81129109D01*
X142309518Y-81129115D01*
X142219547Y-81272302D01*
X142219545Y-81272305D01*
X142163685Y-81431943D01*
X142144751Y-81599997D01*
X139500000Y-81599997D01*
X139500000Y-79199997D01*
X142069751Y-79199997D01*
X142069751Y-79200002D01*
X142088685Y-79368056D01*
X142144545Y-79527694D01*
X142144547Y-79527697D01*
X142234518Y-79670884D01*
X142234523Y-79670890D01*
X142354109Y-79790476D01*
X142354115Y-79790481D01*
X142497302Y-79880452D01*
X142497305Y-79880454D01*
X142497309Y-79880455D01*
X142497310Y-79880456D01*
X142569913Y-79905860D01*
X142656943Y-79936314D01*
X142824997Y-79955249D01*
X142825000Y-79955249D01*
X142825003Y-79955249D01*
X142993056Y-79936314D01*
X142993059Y-79936313D01*
X143152690Y-79880456D01*
X143152692Y-79880454D01*
X143152694Y-79880454D01*
X143152697Y-79880452D01*
X143295884Y-79790481D01*
X143295885Y-79790480D01*
X143295890Y-79790477D01*
X143415477Y-79670890D01*
X143417258Y-79668056D01*
X143505452Y-79527697D01*
X143505454Y-79527694D01*
X143505454Y-79527692D01*
X143505456Y-79527690D01*
X143561313Y-79368059D01*
X143561313Y-79368058D01*
X143561314Y-79368056D01*
X143580249Y-79200002D01*
X143580249Y-79199997D01*
X143565602Y-79069997D01*
X144499751Y-79069997D01*
X144499751Y-79070002D01*
X144518685Y-79238056D01*
X144574545Y-79397694D01*
X144574547Y-79397697D01*
X144664518Y-79540884D01*
X144664523Y-79540890D01*
X144784109Y-79660476D01*
X144784115Y-79660481D01*
X144927302Y-79750452D01*
X144927305Y-79750454D01*
X144927309Y-79750455D01*
X144927310Y-79750456D01*
X144999913Y-79775860D01*
X145086943Y-79806314D01*
X145254997Y-79825249D01*
X145255000Y-79825249D01*
X145255003Y-79825249D01*
X145423056Y-79806314D01*
X145423059Y-79806313D01*
X145582690Y-79750456D01*
X145582692Y-79750454D01*
X145582694Y-79750454D01*
X145582697Y-79750452D01*
X145725884Y-79660481D01*
X145725885Y-79660480D01*
X145725890Y-79660477D01*
X145845477Y-79540890D01*
X145871172Y-79499997D01*
X181219751Y-79499997D01*
X181219751Y-79500002D01*
X181238685Y-79668056D01*
X181294545Y-79827694D01*
X181294547Y-79827697D01*
X181384518Y-79970884D01*
X181384523Y-79970890D01*
X181488452Y-80074819D01*
X181521937Y-80136142D01*
X181516953Y-80205834D01*
X181488452Y-80250181D01*
X181384523Y-80354109D01*
X181384518Y-80354115D01*
X181294547Y-80497302D01*
X181294545Y-80497305D01*
X181238685Y-80656943D01*
X181219751Y-80824997D01*
X181219751Y-80825002D01*
X181238685Y-80993056D01*
X181294545Y-81152694D01*
X181294547Y-81152697D01*
X181384518Y-81295884D01*
X181384523Y-81295890D01*
X181504109Y-81415476D01*
X181504115Y-81415481D01*
X181647302Y-81505452D01*
X181647305Y-81505454D01*
X181647309Y-81505455D01*
X181647310Y-81505456D01*
X181719913Y-81530860D01*
X181806943Y-81561314D01*
X181974997Y-81580249D01*
X181975000Y-81580249D01*
X181975003Y-81580249D01*
X182143056Y-81561314D01*
X182143059Y-81561313D01*
X182302690Y-81505456D01*
X182302692Y-81505454D01*
X182302694Y-81505454D01*
X182302697Y-81505452D01*
X182445884Y-81415481D01*
X182445885Y-81415480D01*
X182445890Y-81415477D01*
X182489300Y-81372066D01*
X182550621Y-81338582D01*
X182620312Y-81343566D01*
X182676246Y-81385437D01*
X182700200Y-81445864D01*
X182713685Y-81565556D01*
X182769545Y-81725194D01*
X182769547Y-81725197D01*
X182859518Y-81868384D01*
X182859523Y-81868390D01*
X182960951Y-81969818D01*
X182994436Y-82031141D01*
X182989452Y-82100833D01*
X182960953Y-82145179D01*
X182909520Y-82196613D01*
X182909518Y-82196615D01*
X182819547Y-82339802D01*
X182819545Y-82339805D01*
X182763685Y-82499443D01*
X182744124Y-82673059D01*
X182717057Y-82737473D01*
X182659462Y-82777028D01*
X182589625Y-82779165D01*
X182533223Y-82746856D01*
X182470890Y-82684523D01*
X182470884Y-82684518D01*
X182327697Y-82594547D01*
X182327694Y-82594545D01*
X182168056Y-82538685D01*
X182000003Y-82519751D01*
X181999997Y-82519751D01*
X181831943Y-82538685D01*
X181672305Y-82594545D01*
X181672302Y-82594547D01*
X181529115Y-82684518D01*
X181529109Y-82684523D01*
X181409523Y-82804109D01*
X181409518Y-82804115D01*
X181319547Y-82947302D01*
X181319545Y-82947305D01*
X181263685Y-83106943D01*
X181244751Y-83274997D01*
X181244751Y-83275002D01*
X181263685Y-83443056D01*
X181319545Y-83602694D01*
X181319547Y-83602697D01*
X181409518Y-83745884D01*
X181409523Y-83745890D01*
X181529109Y-83865476D01*
X181529115Y-83865481D01*
X181672302Y-83955452D01*
X181672305Y-83955454D01*
X181672309Y-83955455D01*
X181672310Y-83955456D01*
X181728147Y-83974994D01*
X181831943Y-84011314D01*
X181999997Y-84030249D01*
X182000000Y-84030249D01*
X182000003Y-84030249D01*
X182168056Y-84011314D01*
X182168059Y-84011313D01*
X182327690Y-83955456D01*
X182327692Y-83955454D01*
X182327694Y-83955454D01*
X182327697Y-83955452D01*
X182470884Y-83865481D01*
X182470884Y-83865480D01*
X182470890Y-83865477D01*
X182542857Y-83793509D01*
X182604176Y-83760027D01*
X182673868Y-83765011D01*
X182729802Y-83806882D01*
X182754219Y-83872346D01*
X182753755Y-83895075D01*
X182744751Y-83974994D01*
X182744751Y-83975002D01*
X182763685Y-84143056D01*
X182819545Y-84302694D01*
X182819547Y-84302697D01*
X182909518Y-84445884D01*
X182909524Y-84445891D01*
X182954702Y-84491070D01*
X182988186Y-84552393D01*
X182983201Y-84622085D01*
X182954702Y-84666431D01*
X182884518Y-84736615D01*
X182794547Y-84879802D01*
X182794545Y-84879805D01*
X182738685Y-85039443D01*
X182719751Y-85207497D01*
X182719751Y-85207502D01*
X182738685Y-85375556D01*
X182794545Y-85535194D01*
X182794547Y-85535197D01*
X182884518Y-85678384D01*
X182884523Y-85678390D01*
X183004109Y-85797976D01*
X183004115Y-85797981D01*
X183147302Y-85887952D01*
X183147305Y-85887954D01*
X183147309Y-85887955D01*
X183147310Y-85887956D01*
X183208931Y-85909518D01*
X183306943Y-85943814D01*
X183474997Y-85962749D01*
X183475000Y-85962749D01*
X183475003Y-85962749D01*
X183643056Y-85943814D01*
X183643059Y-85943813D01*
X183802690Y-85887956D01*
X183802692Y-85887954D01*
X183802694Y-85887954D01*
X183802697Y-85887952D01*
X183945884Y-85797981D01*
X183945885Y-85797980D01*
X183945890Y-85797977D01*
X184065477Y-85678390D01*
X184065481Y-85678384D01*
X184155452Y-85535197D01*
X184155454Y-85535194D01*
X184155454Y-85535192D01*
X184155456Y-85535190D01*
X184211313Y-85375559D01*
X184211313Y-85375558D01*
X184211314Y-85375556D01*
X184230249Y-85207502D01*
X184230249Y-85207497D01*
X184211314Y-85039443D01*
X184155681Y-84880454D01*
X184155456Y-84879810D01*
X184155455Y-84879809D01*
X184155454Y-84879805D01*
X184155452Y-84879802D01*
X184065481Y-84736615D01*
X184065476Y-84736609D01*
X184020298Y-84691431D01*
X183986813Y-84630108D01*
X183991797Y-84560416D01*
X184020298Y-84516069D01*
X184045297Y-84491070D01*
X184090477Y-84445890D01*
X184135019Y-84375002D01*
X184180452Y-84302697D01*
X184180454Y-84302694D01*
X184180454Y-84302692D01*
X184180456Y-84302690D01*
X184236313Y-84143059D01*
X184236313Y-84143058D01*
X184236314Y-84143056D01*
X184255249Y-83975002D01*
X184255249Y-83974997D01*
X184236314Y-83806943D01*
X184196984Y-83694544D01*
X184180456Y-83647310D01*
X184180455Y-83647309D01*
X184180454Y-83647305D01*
X184180452Y-83647302D01*
X184090481Y-83504115D01*
X184090476Y-83504109D01*
X183995298Y-83408931D01*
X183961813Y-83347608D01*
X183966797Y-83277916D01*
X183995298Y-83233569D01*
X184028870Y-83199997D01*
X228244751Y-83199997D01*
X228244751Y-83200002D01*
X228263685Y-83368056D01*
X228319545Y-83527694D01*
X228319547Y-83527697D01*
X228409518Y-83670884D01*
X228409523Y-83670890D01*
X228529109Y-83790476D01*
X228529115Y-83790481D01*
X228672302Y-83880452D01*
X228672305Y-83880454D01*
X228672309Y-83880455D01*
X228672310Y-83880456D01*
X228714089Y-83895075D01*
X228831943Y-83936314D01*
X228999997Y-83955249D01*
X229000000Y-83955249D01*
X229000003Y-83955249D01*
X229168056Y-83936314D01*
X229192682Y-83927697D01*
X229327690Y-83880456D01*
X229327692Y-83880454D01*
X229327694Y-83880454D01*
X229327697Y-83880452D01*
X229470884Y-83790481D01*
X229470885Y-83790480D01*
X229470890Y-83790477D01*
X229590477Y-83670890D01*
X229590481Y-83670884D01*
X229680452Y-83527697D01*
X229680454Y-83527694D01*
X229680454Y-83527692D01*
X229680456Y-83527690D01*
X229736313Y-83368059D01*
X229736313Y-83368058D01*
X229736314Y-83368056D01*
X229755249Y-83200002D01*
X229755249Y-83199997D01*
X229736314Y-83031943D01*
X229680454Y-82872305D01*
X229680452Y-82872302D01*
X229590481Y-82729115D01*
X229590476Y-82729109D01*
X229470890Y-82609523D01*
X229470884Y-82609518D01*
X229327697Y-82519547D01*
X229327694Y-82519545D01*
X229168056Y-82463685D01*
X229000003Y-82444751D01*
X228999997Y-82444751D01*
X228831943Y-82463685D01*
X228672305Y-82519545D01*
X228672302Y-82519547D01*
X228529115Y-82609518D01*
X228529109Y-82609523D01*
X228409523Y-82729109D01*
X228409518Y-82729115D01*
X228319547Y-82872302D01*
X228319545Y-82872305D01*
X228263685Y-83031943D01*
X228244751Y-83199997D01*
X184028870Y-83199997D01*
X184090477Y-83138390D01*
X184105999Y-83113687D01*
X184180452Y-82995197D01*
X184180454Y-82995194D01*
X184180454Y-82995192D01*
X184180456Y-82995190D01*
X184236313Y-82835559D01*
X184236313Y-82835558D01*
X184236314Y-82835556D01*
X184255249Y-82667502D01*
X184255249Y-82667497D01*
X184236314Y-82499443D01*
X184180454Y-82339805D01*
X184180452Y-82339802D01*
X184090481Y-82196615D01*
X184090476Y-82196609D01*
X183989048Y-82095181D01*
X183955563Y-82033858D01*
X183960547Y-81964166D01*
X183989048Y-81919819D01*
X184040477Y-81868390D01*
X184040481Y-81868384D01*
X184130452Y-81725197D01*
X184130454Y-81725194D01*
X184130454Y-81725192D01*
X184130456Y-81725190D01*
X184186313Y-81565559D01*
X184186313Y-81565558D01*
X184186314Y-81565556D01*
X184205249Y-81397502D01*
X184205249Y-81397497D01*
X184186314Y-81229443D01*
X184151206Y-81129110D01*
X184130456Y-81069810D01*
X184130455Y-81069809D01*
X184130454Y-81069805D01*
X184130452Y-81069802D01*
X184040481Y-80926615D01*
X184040476Y-80926609D01*
X183976548Y-80862681D01*
X183943063Y-80801358D01*
X183948047Y-80731666D01*
X183976548Y-80687319D01*
X184019116Y-80644751D01*
X184065477Y-80598390D01*
X184128990Y-80497310D01*
X184155452Y-80455197D01*
X184155454Y-80455194D01*
X184155454Y-80455192D01*
X184155456Y-80455190D01*
X184211313Y-80295559D01*
X184211313Y-80295558D01*
X184211314Y-80295556D01*
X184230249Y-80127502D01*
X184230249Y-80127497D01*
X184211314Y-79959443D01*
X184165213Y-79827694D01*
X184155456Y-79799810D01*
X184155455Y-79799809D01*
X184155454Y-79799805D01*
X184155452Y-79799802D01*
X184065481Y-79656615D01*
X184065476Y-79656609D01*
X183951548Y-79542681D01*
X183918063Y-79481358D01*
X183923047Y-79411666D01*
X183951548Y-79367319D01*
X183990477Y-79328390D01*
X184071149Y-79200002D01*
X184080452Y-79185197D01*
X184080454Y-79185194D01*
X184080454Y-79185192D01*
X184080456Y-79185190D01*
X184136313Y-79025559D01*
X184136313Y-79025558D01*
X184136314Y-79025556D01*
X184155249Y-78857502D01*
X184155249Y-78857497D01*
X184136314Y-78689443D01*
X184080454Y-78529805D01*
X184080452Y-78529802D01*
X183990481Y-78386615D01*
X183990476Y-78386609D01*
X183914048Y-78310181D01*
X183880563Y-78248858D01*
X183885547Y-78179166D01*
X183914048Y-78134819D01*
X183990477Y-78058390D01*
X184080452Y-77915197D01*
X184080454Y-77915194D01*
X184080454Y-77915192D01*
X184080456Y-77915190D01*
X184136313Y-77755559D01*
X184136313Y-77755557D01*
X184136314Y-77755555D01*
X184143660Y-77690356D01*
X184170726Y-77625942D01*
X184228321Y-77586387D01*
X184298158Y-77584249D01*
X184332852Y-77599245D01*
X184352057Y-77611313D01*
X184422307Y-77655454D01*
X184422305Y-77655454D01*
X184422309Y-77655455D01*
X184422310Y-77655456D01*
X184451512Y-77665674D01*
X184581943Y-77711314D01*
X184749997Y-77730249D01*
X184750000Y-77730249D01*
X184750003Y-77730249D01*
X184918056Y-77711314D01*
X184918059Y-77711313D01*
X185077690Y-77655456D01*
X185077692Y-77655454D01*
X185077694Y-77655454D01*
X185077697Y-77655452D01*
X185220884Y-77565481D01*
X185220885Y-77565480D01*
X185220890Y-77565477D01*
X185340477Y-77445890D01*
X185357096Y-77419441D01*
X185430452Y-77302697D01*
X185430454Y-77302694D01*
X185430454Y-77302692D01*
X185430456Y-77302690D01*
X185486313Y-77143059D01*
X185486313Y-77143057D01*
X185486314Y-77143055D01*
X185499673Y-77024486D01*
X185526739Y-76960072D01*
X185584334Y-76920517D01*
X185609003Y-76915150D01*
X185643059Y-76911313D01*
X185802690Y-76855456D01*
X185802693Y-76855453D01*
X185802697Y-76855452D01*
X185945884Y-76765481D01*
X185945885Y-76765480D01*
X185945890Y-76765477D01*
X186065477Y-76645890D01*
X186065481Y-76645884D01*
X186155452Y-76502697D01*
X186155454Y-76502694D01*
X186155454Y-76502692D01*
X186155456Y-76502690D01*
X186211313Y-76343059D01*
X186211313Y-76343058D01*
X186211314Y-76343056D01*
X186214194Y-76317497D01*
X197519751Y-76317497D01*
X197519751Y-76317502D01*
X197538685Y-76485556D01*
X197594545Y-76645194D01*
X197594547Y-76645197D01*
X197684518Y-76788384D01*
X197684523Y-76788390D01*
X197804109Y-76907976D01*
X197804115Y-76907981D01*
X197947302Y-76997952D01*
X197947305Y-76997954D01*
X197947309Y-76997955D01*
X197947310Y-76997956D01*
X198019913Y-77023360D01*
X198106943Y-77053814D01*
X198274997Y-77072749D01*
X198275000Y-77072749D01*
X198275003Y-77072749D01*
X198443056Y-77053814D01*
X198473792Y-77043059D01*
X198602690Y-76997956D01*
X198602692Y-76997954D01*
X198602694Y-76997954D01*
X198602697Y-76997952D01*
X198745884Y-76907981D01*
X198745885Y-76907980D01*
X198745890Y-76907977D01*
X198865477Y-76788390D01*
X198879872Y-76765481D01*
X198955452Y-76645197D01*
X198955454Y-76645194D01*
X198955454Y-76645192D01*
X198955456Y-76645190D01*
X199011313Y-76485559D01*
X199011313Y-76485558D01*
X199011314Y-76485556D01*
X199030249Y-76317502D01*
X199030249Y-76317497D01*
X210869751Y-76317497D01*
X210869751Y-76317502D01*
X210888685Y-76485556D01*
X210944545Y-76645194D01*
X210944547Y-76645197D01*
X211034518Y-76788384D01*
X211034523Y-76788390D01*
X211154109Y-76907976D01*
X211154115Y-76907981D01*
X211297302Y-76997952D01*
X211297305Y-76997954D01*
X211297309Y-76997955D01*
X211297310Y-76997956D01*
X211369913Y-77023360D01*
X211456943Y-77053814D01*
X211624997Y-77072749D01*
X211625000Y-77072749D01*
X211625003Y-77072749D01*
X211793056Y-77053814D01*
X211823792Y-77043059D01*
X211952690Y-76997956D01*
X211952692Y-76997954D01*
X211952694Y-76997954D01*
X211952697Y-76997952D01*
X212095884Y-76907981D01*
X212095885Y-76907980D01*
X212095890Y-76907977D01*
X212215477Y-76788390D01*
X212229872Y-76765481D01*
X212305452Y-76645197D01*
X212305454Y-76645194D01*
X212305454Y-76645192D01*
X212305456Y-76645190D01*
X212361313Y-76485559D01*
X212361313Y-76485558D01*
X212361314Y-76485556D01*
X212380249Y-76317502D01*
X212380249Y-76317497D01*
X223019751Y-76317497D01*
X223019751Y-76317502D01*
X223038685Y-76485556D01*
X223094545Y-76645194D01*
X223094547Y-76645197D01*
X223184518Y-76788384D01*
X223184523Y-76788390D01*
X223304109Y-76907976D01*
X223304115Y-76907981D01*
X223447302Y-76997952D01*
X223447305Y-76997954D01*
X223447309Y-76997955D01*
X223447310Y-76997956D01*
X223519913Y-77023360D01*
X223606943Y-77053814D01*
X223774997Y-77072749D01*
X223775000Y-77072749D01*
X223775003Y-77072749D01*
X223943056Y-77053814D01*
X223973792Y-77043059D01*
X224102690Y-76997956D01*
X224102692Y-76997954D01*
X224102694Y-76997954D01*
X224102697Y-76997952D01*
X224245884Y-76907981D01*
X224245885Y-76907980D01*
X224245890Y-76907977D01*
X224365477Y-76788390D01*
X224379872Y-76765481D01*
X224455452Y-76645197D01*
X224455454Y-76645194D01*
X224455454Y-76645192D01*
X224455456Y-76645190D01*
X224511313Y-76485559D01*
X224511313Y-76485558D01*
X224511314Y-76485556D01*
X224530249Y-76317502D01*
X224530249Y-76317497D01*
X224511314Y-76149443D01*
X224455454Y-75989805D01*
X224455452Y-75989802D01*
X224365481Y-75846615D01*
X224365476Y-75846609D01*
X224245890Y-75727023D01*
X224245884Y-75727018D01*
X224102697Y-75637047D01*
X224102694Y-75637045D01*
X223943056Y-75581185D01*
X223775003Y-75562251D01*
X223774997Y-75562251D01*
X223606943Y-75581185D01*
X223447305Y-75637045D01*
X223447302Y-75637047D01*
X223304115Y-75727018D01*
X223304109Y-75727023D01*
X223184523Y-75846609D01*
X223184518Y-75846615D01*
X223094547Y-75989802D01*
X223094545Y-75989805D01*
X223038685Y-76149443D01*
X223019751Y-76317497D01*
X212380249Y-76317497D01*
X212361314Y-76149443D01*
X212305454Y-75989805D01*
X212305452Y-75989802D01*
X212215481Y-75846615D01*
X212215476Y-75846609D01*
X212095890Y-75727023D01*
X212095884Y-75727018D01*
X211952697Y-75637047D01*
X211952694Y-75637045D01*
X211793056Y-75581185D01*
X211625003Y-75562251D01*
X211624997Y-75562251D01*
X211456943Y-75581185D01*
X211297305Y-75637045D01*
X211297302Y-75637047D01*
X211154115Y-75727018D01*
X211154109Y-75727023D01*
X211034523Y-75846609D01*
X211034518Y-75846615D01*
X210944547Y-75989802D01*
X210944545Y-75989805D01*
X210888685Y-76149443D01*
X210869751Y-76317497D01*
X199030249Y-76317497D01*
X199011314Y-76149443D01*
X198955454Y-75989805D01*
X198955452Y-75989802D01*
X198865481Y-75846615D01*
X198865476Y-75846609D01*
X198745890Y-75727023D01*
X198745884Y-75727018D01*
X198602697Y-75637047D01*
X198602694Y-75637045D01*
X198443056Y-75581185D01*
X198275003Y-75562251D01*
X198274997Y-75562251D01*
X198106943Y-75581185D01*
X197947305Y-75637045D01*
X197947302Y-75637047D01*
X197804115Y-75727018D01*
X197804109Y-75727023D01*
X197684523Y-75846609D01*
X197684518Y-75846615D01*
X197594547Y-75989802D01*
X197594545Y-75989805D01*
X197538685Y-76149443D01*
X197519751Y-76317497D01*
X186214194Y-76317497D01*
X186230249Y-76175002D01*
X186230249Y-76174997D01*
X186211314Y-76006943D01*
X186184079Y-75929110D01*
X186155456Y-75847310D01*
X186155454Y-75847307D01*
X186155454Y-75847306D01*
X186105657Y-75768056D01*
X186066680Y-75706025D01*
X186047680Y-75638790D01*
X186068047Y-75571955D01*
X186083984Y-75552382D01*
X186140477Y-75495890D01*
X186141682Y-75493972D01*
X186230452Y-75352697D01*
X186230454Y-75352694D01*
X186230454Y-75352692D01*
X186230456Y-75352690D01*
X186286313Y-75193059D01*
X186286313Y-75193058D01*
X186286314Y-75193056D01*
X186291166Y-75149997D01*
X195894751Y-75149997D01*
X195894751Y-75150002D01*
X195913685Y-75318056D01*
X195969545Y-75477694D01*
X195969547Y-75477697D01*
X196059518Y-75620884D01*
X196059523Y-75620890D01*
X196179109Y-75740476D01*
X196179115Y-75740481D01*
X196322302Y-75830452D01*
X196322305Y-75830454D01*
X196322309Y-75830455D01*
X196322310Y-75830456D01*
X196370462Y-75847305D01*
X196481943Y-75886314D01*
X196649997Y-75905249D01*
X196650000Y-75905249D01*
X196650003Y-75905249D01*
X196818056Y-75886314D01*
X196818059Y-75886313D01*
X196977690Y-75830456D01*
X196977692Y-75830454D01*
X196977694Y-75830454D01*
X196977697Y-75830452D01*
X197120884Y-75740481D01*
X197120885Y-75740480D01*
X197120890Y-75740477D01*
X197240477Y-75620890D01*
X197265424Y-75581187D01*
X197330452Y-75477697D01*
X197330454Y-75477694D01*
X197330454Y-75477692D01*
X197330456Y-75477690D01*
X197386313Y-75318059D01*
X197386313Y-75318058D01*
X197386314Y-75318056D01*
X197405249Y-75150002D01*
X197405249Y-75149997D01*
X197386314Y-74981943D01*
X197344934Y-74863685D01*
X197330456Y-74822310D01*
X197330455Y-74822309D01*
X197330454Y-74822305D01*
X197330452Y-74822302D01*
X197240481Y-74679115D01*
X197240476Y-74679109D01*
X197120890Y-74559523D01*
X197120884Y-74559518D01*
X196977697Y-74469547D01*
X196977694Y-74469545D01*
X196818056Y-74413685D01*
X196650003Y-74394751D01*
X196649997Y-74394751D01*
X196481943Y-74413685D01*
X196322305Y-74469545D01*
X196322302Y-74469547D01*
X196179115Y-74559518D01*
X196179109Y-74559523D01*
X196059523Y-74679109D01*
X196059518Y-74679115D01*
X195969547Y-74822302D01*
X195969545Y-74822305D01*
X195913685Y-74981943D01*
X195894751Y-75149997D01*
X186291166Y-75149997D01*
X186305249Y-75025002D01*
X186305249Y-75024997D01*
X186286314Y-74856943D01*
X186230454Y-74697305D01*
X186230452Y-74697302D01*
X186140481Y-74554115D01*
X186140476Y-74554109D01*
X186020890Y-74434523D01*
X186020884Y-74434518D01*
X185877697Y-74344547D01*
X185877694Y-74344545D01*
X185718056Y-74288685D01*
X185550003Y-74269751D01*
X185549997Y-74269751D01*
X185381943Y-74288685D01*
X185222305Y-74344545D01*
X185222302Y-74344547D01*
X185079115Y-74434518D01*
X185079109Y-74434523D01*
X184959523Y-74554109D01*
X184959518Y-74554115D01*
X184869547Y-74697302D01*
X184869545Y-74697305D01*
X184813685Y-74856943D01*
X184794751Y-75024997D01*
X184794751Y-75025002D01*
X184813685Y-75193056D01*
X184869545Y-75352693D01*
X184958318Y-75493972D01*
X184977319Y-75561209D01*
X184956952Y-75628044D01*
X184941007Y-75647626D01*
X184884518Y-75704115D01*
X184794547Y-75847302D01*
X184794545Y-75847305D01*
X184738685Y-76006944D01*
X184725326Y-76125513D01*
X184698259Y-76189927D01*
X184640664Y-76229482D01*
X184615992Y-76234849D01*
X184581946Y-76238685D01*
X184422307Y-76294544D01*
X184422302Y-76294547D01*
X184279115Y-76384518D01*
X184279109Y-76384523D01*
X184159523Y-76504109D01*
X184159518Y-76504115D01*
X184069547Y-76647302D01*
X184069545Y-76647305D01*
X184013686Y-76806943D01*
X184006339Y-76872145D01*
X183979272Y-76936558D01*
X183921676Y-76976113D01*
X183851840Y-76978250D01*
X183817146Y-76963253D01*
X183727692Y-76907045D01*
X183727694Y-76907045D01*
X183568056Y-76851185D01*
X183400003Y-76832251D01*
X183399997Y-76832251D01*
X183231940Y-76851186D01*
X183196280Y-76863664D01*
X183126501Y-76867225D01*
X183065874Y-76832495D01*
X183038285Y-76787577D01*
X183010070Y-76706943D01*
X182980456Y-76622310D01*
X182980455Y-76622309D01*
X182980454Y-76622305D01*
X182980452Y-76622302D01*
X182890481Y-76479115D01*
X182890476Y-76479109D01*
X182770890Y-76359523D01*
X182770884Y-76359518D01*
X182627697Y-76269547D01*
X182627694Y-76269545D01*
X182468056Y-76213685D01*
X182300003Y-76194751D01*
X182299997Y-76194751D01*
X182131943Y-76213685D01*
X181972305Y-76269545D01*
X181972302Y-76269547D01*
X181829115Y-76359518D01*
X181829109Y-76359523D01*
X181709523Y-76479109D01*
X181709518Y-76479115D01*
X181619547Y-76622302D01*
X181619545Y-76622305D01*
X181563685Y-76781943D01*
X181544751Y-76949997D01*
X181544751Y-76950002D01*
X181563685Y-77118056D01*
X181619545Y-77277692D01*
X181677459Y-77369861D01*
X181696459Y-77437097D01*
X181676091Y-77503933D01*
X181638438Y-77540826D01*
X181529112Y-77609521D01*
X181529109Y-77609523D01*
X181409523Y-77729109D01*
X181409518Y-77729115D01*
X181319547Y-77872302D01*
X181319545Y-77872305D01*
X181263685Y-78031943D01*
X181244751Y-78199997D01*
X181244751Y-78200002D01*
X181263685Y-78368056D01*
X181319545Y-78527694D01*
X181319547Y-78527697D01*
X181409518Y-78670884D01*
X181409523Y-78670890D01*
X181488452Y-78749819D01*
X181521937Y-78811142D01*
X181516953Y-78880834D01*
X181488452Y-78925181D01*
X181384523Y-79029109D01*
X181384518Y-79029115D01*
X181294547Y-79172302D01*
X181294545Y-79172305D01*
X181238685Y-79331943D01*
X181219751Y-79499997D01*
X145871172Y-79499997D01*
X145882884Y-79481358D01*
X145935452Y-79397697D01*
X145935454Y-79397694D01*
X145935454Y-79397692D01*
X145935456Y-79397690D01*
X145991313Y-79238059D01*
X145991313Y-79238058D01*
X145991314Y-79238056D01*
X146010249Y-79070002D01*
X146010249Y-79069997D01*
X145991314Y-78901943D01*
X145935454Y-78742305D01*
X145935452Y-78742302D01*
X145845481Y-78599115D01*
X145845476Y-78599109D01*
X145725890Y-78479523D01*
X145725884Y-78479518D01*
X145582697Y-78389547D01*
X145582694Y-78389545D01*
X145423056Y-78333685D01*
X145255003Y-78314751D01*
X145254997Y-78314751D01*
X145086943Y-78333685D01*
X144927305Y-78389545D01*
X144927302Y-78389547D01*
X144784115Y-78479518D01*
X144784109Y-78479523D01*
X144664523Y-78599109D01*
X144664518Y-78599115D01*
X144574547Y-78742302D01*
X144574545Y-78742305D01*
X144518685Y-78901943D01*
X144499751Y-79069997D01*
X143565602Y-79069997D01*
X143561314Y-79031943D01*
X143515824Y-78901941D01*
X143505456Y-78872310D01*
X143505455Y-78872309D01*
X143505454Y-78872305D01*
X143505452Y-78872302D01*
X143415481Y-78729115D01*
X143415476Y-78729109D01*
X143295890Y-78609523D01*
X143295884Y-78609518D01*
X143152697Y-78519547D01*
X143152694Y-78519545D01*
X142993056Y-78463685D01*
X142825003Y-78444751D01*
X142824997Y-78444751D01*
X142656943Y-78463685D01*
X142497305Y-78519545D01*
X142497302Y-78519547D01*
X142354115Y-78609518D01*
X142354109Y-78609523D01*
X142234523Y-78729109D01*
X142234518Y-78729115D01*
X142144547Y-78872302D01*
X142144545Y-78872305D01*
X142088685Y-79031943D01*
X142069751Y-79199997D01*
X139500000Y-79199997D01*
X139500000Y-75599997D01*
X142344751Y-75599997D01*
X142344751Y-75600002D01*
X142363685Y-75768056D01*
X142419545Y-75927694D01*
X142419547Y-75927697D01*
X142509518Y-76070884D01*
X142509523Y-76070890D01*
X142629110Y-76190477D01*
X142713852Y-76243724D01*
X142760143Y-76296059D01*
X142770791Y-76365113D01*
X142752874Y-76414690D01*
X142669545Y-76547307D01*
X142613685Y-76706943D01*
X142594751Y-76874997D01*
X142594751Y-76875002D01*
X142613685Y-77043056D01*
X142669545Y-77202694D01*
X142669547Y-77202697D01*
X142759518Y-77345884D01*
X142759523Y-77345890D01*
X142879109Y-77465476D01*
X142879115Y-77465481D01*
X143022302Y-77555452D01*
X143022305Y-77555454D01*
X143022309Y-77555455D01*
X143022310Y-77555456D01*
X143050946Y-77565476D01*
X143181943Y-77611314D01*
X143349997Y-77630249D01*
X143350000Y-77630249D01*
X143350003Y-77630249D01*
X143518056Y-77611314D01*
X143518059Y-77611313D01*
X143677690Y-77555456D01*
X143677692Y-77555454D01*
X143677694Y-77555454D01*
X143677697Y-77555452D01*
X143820884Y-77465481D01*
X143820885Y-77465480D01*
X143820890Y-77465477D01*
X143940477Y-77345890D01*
X144030452Y-77202697D01*
X144030454Y-77202694D01*
X144030454Y-77202692D01*
X144030456Y-77202690D01*
X144086313Y-77043059D01*
X144086313Y-77043058D01*
X144086314Y-77043056D01*
X144105249Y-76875002D01*
X144105249Y-76874997D01*
X144086314Y-76706943D01*
X144042054Y-76580456D01*
X144030456Y-76547310D01*
X144030455Y-76547309D01*
X144030454Y-76547305D01*
X144030452Y-76547302D01*
X143940481Y-76404115D01*
X143940476Y-76404109D01*
X143936364Y-76399997D01*
X151944751Y-76399997D01*
X151944751Y-76400002D01*
X151963685Y-76568056D01*
X152019545Y-76727694D01*
X152019547Y-76727697D01*
X152109518Y-76870884D01*
X152109523Y-76870890D01*
X152229109Y-76990476D01*
X152229115Y-76990481D01*
X152372302Y-77080452D01*
X152372305Y-77080454D01*
X152372309Y-77080455D01*
X152372310Y-77080456D01*
X152444913Y-77105860D01*
X152531943Y-77136314D01*
X152699997Y-77155249D01*
X152700000Y-77155249D01*
X152700003Y-77155249D01*
X152868056Y-77136314D01*
X152920226Y-77118059D01*
X153027690Y-77080456D01*
X153027692Y-77080454D01*
X153027694Y-77080454D01*
X153027697Y-77080452D01*
X153170884Y-76990481D01*
X153170885Y-76990480D01*
X153170890Y-76990477D01*
X153290477Y-76870890D01*
X153292780Y-76867225D01*
X153380452Y-76727697D01*
X153380454Y-76727694D01*
X153380454Y-76727692D01*
X153380456Y-76727690D01*
X153436313Y-76568059D01*
X153436313Y-76568058D01*
X153436314Y-76568056D01*
X153455249Y-76400002D01*
X153455249Y-76399997D01*
X153436314Y-76231943D01*
X153380454Y-76072305D01*
X153380452Y-76072302D01*
X153290481Y-75929115D01*
X153290476Y-75929109D01*
X153261364Y-75899997D01*
X156044751Y-75899997D01*
X156044751Y-75900002D01*
X156063685Y-76068056D01*
X156119545Y-76227694D01*
X156119547Y-76227697D01*
X156209518Y-76370884D01*
X156209523Y-76370890D01*
X156329109Y-76490476D01*
X156329115Y-76490481D01*
X156472302Y-76580452D01*
X156472305Y-76580454D01*
X156472309Y-76580455D01*
X156472310Y-76580456D01*
X156544913Y-76605860D01*
X156631943Y-76636314D01*
X156799997Y-76655249D01*
X156800000Y-76655249D01*
X156800003Y-76655249D01*
X156968056Y-76636314D01*
X157008077Y-76622310D01*
X157127690Y-76580456D01*
X157127692Y-76580454D01*
X157127694Y-76580454D01*
X157127697Y-76580452D01*
X157270884Y-76490481D01*
X157270885Y-76490480D01*
X157270890Y-76490477D01*
X157390477Y-76370890D01*
X157394107Y-76365113D01*
X157480452Y-76227697D01*
X157480454Y-76227694D01*
X157480454Y-76227692D01*
X157480456Y-76227690D01*
X157536313Y-76068059D01*
X157536313Y-76068058D01*
X157536314Y-76068056D01*
X157555249Y-75900002D01*
X157555249Y-75899997D01*
X157536314Y-75731943D01*
X157480454Y-75572305D01*
X157480452Y-75572302D01*
X157390481Y-75429115D01*
X157390476Y-75429109D01*
X157270890Y-75309523D01*
X157270884Y-75309518D01*
X157127697Y-75219547D01*
X157127694Y-75219545D01*
X156968056Y-75163685D01*
X156800003Y-75144751D01*
X156799997Y-75144751D01*
X156631943Y-75163685D01*
X156472305Y-75219545D01*
X156472302Y-75219547D01*
X156329115Y-75309518D01*
X156329109Y-75309523D01*
X156209523Y-75429109D01*
X156209518Y-75429115D01*
X156119547Y-75572302D01*
X156119545Y-75572305D01*
X156063685Y-75731943D01*
X156044751Y-75899997D01*
X153261364Y-75899997D01*
X153170890Y-75809523D01*
X153170884Y-75809518D01*
X153027697Y-75719547D01*
X153027694Y-75719545D01*
X152868056Y-75663685D01*
X152700003Y-75644751D01*
X152699997Y-75644751D01*
X152531943Y-75663685D01*
X152372305Y-75719545D01*
X152372302Y-75719547D01*
X152229115Y-75809518D01*
X152229109Y-75809523D01*
X152109523Y-75929109D01*
X152109518Y-75929115D01*
X152019547Y-76072302D01*
X152019545Y-76072305D01*
X151963685Y-76231943D01*
X151944751Y-76399997D01*
X143936364Y-76399997D01*
X143820888Y-76284521D01*
X143736146Y-76231274D01*
X143689856Y-76178940D01*
X143679208Y-76109886D01*
X143697126Y-76060308D01*
X143779561Y-75929115D01*
X143780456Y-75927690D01*
X143836313Y-75768059D01*
X143836313Y-75768058D01*
X143836314Y-75768056D01*
X143855249Y-75600002D01*
X143855249Y-75599997D01*
X143836314Y-75431943D01*
X143793477Y-75309523D01*
X143780456Y-75272310D01*
X143780455Y-75272309D01*
X143780454Y-75272305D01*
X143780452Y-75272302D01*
X143690481Y-75129115D01*
X143690476Y-75129109D01*
X143570890Y-75009523D01*
X143570884Y-75009518D01*
X143427697Y-74919547D01*
X143427694Y-74919545D01*
X143268056Y-74863685D01*
X143100003Y-74844751D01*
X143099997Y-74844751D01*
X142931943Y-74863685D01*
X142772305Y-74919545D01*
X142772302Y-74919547D01*
X142629115Y-75009518D01*
X142629109Y-75009523D01*
X142509523Y-75129109D01*
X142509518Y-75129115D01*
X142419547Y-75272302D01*
X142419545Y-75272305D01*
X142363685Y-75431943D01*
X142344751Y-75599997D01*
X139500000Y-75599997D01*
X139500000Y-71899997D01*
X142244751Y-71899997D01*
X142244751Y-71900002D01*
X142263685Y-72068056D01*
X142319545Y-72227694D01*
X142319547Y-72227697D01*
X142409518Y-72370884D01*
X142409523Y-72370890D01*
X142529109Y-72490476D01*
X142529115Y-72490481D01*
X142672302Y-72580452D01*
X142672305Y-72580454D01*
X142672309Y-72580455D01*
X142672310Y-72580456D01*
X142700946Y-72590476D01*
X142831943Y-72636314D01*
X142999997Y-72655249D01*
X143000000Y-72655249D01*
X143000003Y-72655249D01*
X143168056Y-72636314D01*
X143239502Y-72611314D01*
X143327690Y-72580456D01*
X143327692Y-72580454D01*
X143327694Y-72580454D01*
X143327697Y-72580452D01*
X143470884Y-72490481D01*
X143470885Y-72490480D01*
X143470890Y-72490477D01*
X143590477Y-72370890D01*
X143606186Y-72345890D01*
X143680452Y-72227697D01*
X143680454Y-72227694D01*
X143680454Y-72227692D01*
X143680456Y-72227690D01*
X143736313Y-72068059D01*
X143736313Y-72068058D01*
X143736314Y-72068056D01*
X143755249Y-71900002D01*
X143755249Y-71899997D01*
X143736314Y-71731943D01*
X143733883Y-71724997D01*
X147344751Y-71724997D01*
X147344751Y-71725002D01*
X147363685Y-71893056D01*
X147419545Y-72052694D01*
X147419547Y-72052697D01*
X147509518Y-72195884D01*
X147509523Y-72195890D01*
X147629109Y-72315476D01*
X147629115Y-72315481D01*
X147772302Y-72405452D01*
X147772305Y-72405454D01*
X147772309Y-72405455D01*
X147772310Y-72405456D01*
X147807636Y-72417817D01*
X147931943Y-72461314D01*
X148099997Y-72480249D01*
X148100000Y-72480249D01*
X148100003Y-72480249D01*
X148268056Y-72461314D01*
X148310912Y-72446318D01*
X148427690Y-72405456D01*
X148427692Y-72405454D01*
X148427694Y-72405454D01*
X148427697Y-72405452D01*
X148570884Y-72315481D01*
X148570885Y-72315480D01*
X148570890Y-72315477D01*
X148690477Y-72195890D01*
X148690481Y-72195884D01*
X148780452Y-72052697D01*
X148780454Y-72052694D01*
X148780454Y-72052692D01*
X148780456Y-72052690D01*
X148833885Y-71899997D01*
X182444751Y-71899997D01*
X182444751Y-71900002D01*
X182463685Y-72068056D01*
X182519545Y-72227694D01*
X182519547Y-72227697D01*
X182609518Y-72370884D01*
X182609523Y-72370890D01*
X182729109Y-72490476D01*
X182729115Y-72490481D01*
X182872302Y-72580452D01*
X182872305Y-72580454D01*
X182872309Y-72580455D01*
X182872310Y-72580456D01*
X182900946Y-72590476D01*
X183031943Y-72636314D01*
X183199997Y-72655249D01*
X183200000Y-72655249D01*
X183200003Y-72655249D01*
X183368056Y-72636314D01*
X183439502Y-72611314D01*
X183527690Y-72580456D01*
X183527692Y-72580454D01*
X183527694Y-72580454D01*
X183527697Y-72580452D01*
X183670884Y-72490481D01*
X183670885Y-72490480D01*
X183670890Y-72490477D01*
X183715049Y-72446318D01*
X183776372Y-72412833D01*
X183846064Y-72417817D01*
X183901997Y-72459689D01*
X183907722Y-72468024D01*
X183909522Y-72470888D01*
X183909523Y-72470890D01*
X184029109Y-72590476D01*
X184029115Y-72590481D01*
X184172302Y-72680452D01*
X184172305Y-72680454D01*
X184172309Y-72680455D01*
X184172310Y-72680456D01*
X184244913Y-72705860D01*
X184331943Y-72736314D01*
X184499997Y-72755249D01*
X184500000Y-72755249D01*
X184500003Y-72755249D01*
X184668056Y-72736314D01*
X184668059Y-72736313D01*
X184827690Y-72680456D01*
X184827692Y-72680454D01*
X184827694Y-72680454D01*
X184827697Y-72680452D01*
X184970884Y-72590481D01*
X184970885Y-72590480D01*
X184970890Y-72590477D01*
X185090477Y-72470890D01*
X185123825Y-72417817D01*
X185180452Y-72327697D01*
X185180454Y-72327694D01*
X185180454Y-72327692D01*
X185180456Y-72327690D01*
X185236313Y-72168059D01*
X185236313Y-72168058D01*
X185236314Y-72168056D01*
X185255249Y-72000002D01*
X185255249Y-71999997D01*
X185241165Y-71874997D01*
X195394751Y-71874997D01*
X195394751Y-71875002D01*
X195413685Y-72043056D01*
X195469545Y-72202694D01*
X195469547Y-72202697D01*
X195559518Y-72345884D01*
X195559523Y-72345890D01*
X195679109Y-72465476D01*
X195679115Y-72465481D01*
X195822302Y-72555452D01*
X195822305Y-72555454D01*
X195822309Y-72555455D01*
X195822310Y-72555456D01*
X195893745Y-72580452D01*
X195981943Y-72611314D01*
X196149997Y-72630249D01*
X196150000Y-72630249D01*
X196150003Y-72630249D01*
X196318056Y-72611314D01*
X196334809Y-72605452D01*
X196477690Y-72555456D01*
X196477692Y-72555454D01*
X196477694Y-72555454D01*
X196477697Y-72555452D01*
X196620884Y-72465481D01*
X196620884Y-72465480D01*
X196620890Y-72465477D01*
X196686111Y-72400255D01*
X196747430Y-72366773D01*
X196817122Y-72371757D01*
X196873056Y-72413628D01*
X196878776Y-72421958D01*
X196898077Y-72452674D01*
X196909523Y-72470890D01*
X197029109Y-72590476D01*
X197029115Y-72590481D01*
X197172302Y-72680452D01*
X197172305Y-72680454D01*
X197172309Y-72680455D01*
X197172310Y-72680456D01*
X197244913Y-72705860D01*
X197331943Y-72736314D01*
X197499997Y-72755249D01*
X197500000Y-72755249D01*
X197500003Y-72755249D01*
X197668056Y-72736314D01*
X197668059Y-72736313D01*
X197827690Y-72680456D01*
X197827692Y-72680454D01*
X197827694Y-72680454D01*
X197827697Y-72680452D01*
X197970884Y-72590481D01*
X197970885Y-72590480D01*
X197970890Y-72590477D01*
X198090477Y-72470890D01*
X198123825Y-72417817D01*
X198180452Y-72327697D01*
X198180454Y-72327694D01*
X198180454Y-72327692D01*
X198180456Y-72327690D01*
X198236313Y-72168059D01*
X198236313Y-72168058D01*
X198236314Y-72168056D01*
X198255249Y-72000002D01*
X198255249Y-71999997D01*
X198241165Y-71874997D01*
X208444751Y-71874997D01*
X208444751Y-71875002D01*
X208463685Y-72043056D01*
X208519545Y-72202694D01*
X208519547Y-72202697D01*
X208609518Y-72345884D01*
X208609523Y-72345890D01*
X208729109Y-72465476D01*
X208729115Y-72465481D01*
X208872302Y-72555452D01*
X208872305Y-72555454D01*
X208872309Y-72555455D01*
X208872310Y-72555456D01*
X208943745Y-72580452D01*
X209031943Y-72611314D01*
X209199997Y-72630249D01*
X209200000Y-72630249D01*
X209200003Y-72630249D01*
X209368056Y-72611314D01*
X209384809Y-72605452D01*
X209527690Y-72555456D01*
X209527692Y-72555454D01*
X209527694Y-72555454D01*
X209527697Y-72555452D01*
X209670884Y-72465481D01*
X209670885Y-72465480D01*
X209670890Y-72465477D01*
X209705403Y-72430963D01*
X209766723Y-72397479D01*
X209836415Y-72402463D01*
X209892349Y-72444333D01*
X209898077Y-72452674D01*
X209909520Y-72470887D01*
X210029109Y-72590476D01*
X210029115Y-72590481D01*
X210172302Y-72680452D01*
X210172305Y-72680454D01*
X210172309Y-72680455D01*
X210172310Y-72680456D01*
X210244913Y-72705860D01*
X210331943Y-72736314D01*
X210499997Y-72755249D01*
X210500000Y-72755249D01*
X210500003Y-72755249D01*
X210668056Y-72736314D01*
X210668059Y-72736313D01*
X210827690Y-72680456D01*
X210827692Y-72680454D01*
X210827694Y-72680454D01*
X210827697Y-72680452D01*
X210970884Y-72590481D01*
X210970885Y-72590480D01*
X210970890Y-72590477D01*
X211090477Y-72470890D01*
X211123825Y-72417817D01*
X211180452Y-72327697D01*
X211180454Y-72327694D01*
X211180454Y-72327692D01*
X211180456Y-72327690D01*
X211236313Y-72168059D01*
X211236313Y-72168058D01*
X211236314Y-72168056D01*
X211255249Y-72000002D01*
X211255249Y-71999997D01*
X211246799Y-71924997D01*
X221469751Y-71924997D01*
X221469751Y-71925002D01*
X221488685Y-72093056D01*
X221544545Y-72252694D01*
X221544547Y-72252697D01*
X221634518Y-72395884D01*
X221634523Y-72395890D01*
X221754109Y-72515476D01*
X221754115Y-72515481D01*
X221897302Y-72605452D01*
X221897305Y-72605454D01*
X221897309Y-72605455D01*
X221897310Y-72605456D01*
X221968165Y-72630249D01*
X222056943Y-72661314D01*
X222224997Y-72680249D01*
X222225000Y-72680249D01*
X222225003Y-72680249D01*
X222393056Y-72661314D01*
X222464502Y-72636314D01*
X222552690Y-72605456D01*
X222552692Y-72605454D01*
X222552694Y-72605454D01*
X222552697Y-72605452D01*
X222695884Y-72515481D01*
X222695885Y-72515480D01*
X222695890Y-72515477D01*
X222737319Y-72474048D01*
X222798642Y-72440563D01*
X222868334Y-72445547D01*
X222912681Y-72474048D01*
X223029109Y-72590476D01*
X223029115Y-72590481D01*
X223172302Y-72680452D01*
X223172305Y-72680454D01*
X223172309Y-72680455D01*
X223172310Y-72680456D01*
X223244913Y-72705860D01*
X223331943Y-72736314D01*
X223499997Y-72755249D01*
X223500000Y-72755249D01*
X223500003Y-72755249D01*
X223668056Y-72736314D01*
X223668059Y-72736313D01*
X223827690Y-72680456D01*
X223827692Y-72680454D01*
X223827694Y-72680454D01*
X223827697Y-72680452D01*
X223970884Y-72590481D01*
X223970885Y-72590480D01*
X223970890Y-72590477D01*
X224090477Y-72470890D01*
X224123825Y-72417817D01*
X224180452Y-72327697D01*
X224180454Y-72327694D01*
X224180454Y-72327692D01*
X224180456Y-72327690D01*
X224236313Y-72168059D01*
X224236313Y-72168058D01*
X224236314Y-72168056D01*
X224255249Y-72000002D01*
X224255249Y-71999997D01*
X224236314Y-71831943D01*
X224198892Y-71724997D01*
X224180456Y-71672310D01*
X224180455Y-71672309D01*
X224180454Y-71672305D01*
X224180452Y-71672302D01*
X224090481Y-71529115D01*
X224090476Y-71529109D01*
X223970890Y-71409523D01*
X223970884Y-71409518D01*
X223827697Y-71319547D01*
X223827694Y-71319545D01*
X223668056Y-71263685D01*
X223500003Y-71244751D01*
X223499997Y-71244751D01*
X223331943Y-71263685D01*
X223172305Y-71319545D01*
X223172302Y-71319547D01*
X223029115Y-71409518D01*
X223029107Y-71409524D01*
X222987678Y-71450953D01*
X222926354Y-71484437D01*
X222856663Y-71479451D01*
X222812318Y-71450951D01*
X222695890Y-71334523D01*
X222695884Y-71334518D01*
X222552697Y-71244547D01*
X222552694Y-71244545D01*
X222393056Y-71188685D01*
X222225003Y-71169751D01*
X222224997Y-71169751D01*
X222056943Y-71188685D01*
X221897305Y-71244545D01*
X221897302Y-71244547D01*
X221754115Y-71334518D01*
X221754109Y-71334523D01*
X221634523Y-71454109D01*
X221634518Y-71454115D01*
X221544547Y-71597302D01*
X221544545Y-71597305D01*
X221488685Y-71756943D01*
X221469751Y-71924997D01*
X211246799Y-71924997D01*
X211236314Y-71831943D01*
X211198892Y-71724997D01*
X211180456Y-71672310D01*
X211180455Y-71672309D01*
X211180454Y-71672305D01*
X211180452Y-71672302D01*
X211090481Y-71529115D01*
X211090476Y-71529109D01*
X210970890Y-71409523D01*
X210970884Y-71409518D01*
X210827697Y-71319547D01*
X210827694Y-71319545D01*
X210668056Y-71263685D01*
X210500003Y-71244751D01*
X210499997Y-71244751D01*
X210331943Y-71263685D01*
X210172305Y-71319545D01*
X210172302Y-71319547D01*
X210029115Y-71409518D01*
X210029107Y-71409524D01*
X209994595Y-71444036D01*
X209933271Y-71477520D01*
X209863579Y-71472534D01*
X209807647Y-71430661D01*
X209801922Y-71422325D01*
X209790476Y-71404109D01*
X209670890Y-71284523D01*
X209670884Y-71284518D01*
X209527697Y-71194547D01*
X209527694Y-71194545D01*
X209368056Y-71138685D01*
X209200003Y-71119751D01*
X209199997Y-71119751D01*
X209031943Y-71138685D01*
X208872305Y-71194545D01*
X208872302Y-71194547D01*
X208729115Y-71284518D01*
X208729109Y-71284523D01*
X208609523Y-71404109D01*
X208609518Y-71404115D01*
X208519547Y-71547302D01*
X208519545Y-71547305D01*
X208463685Y-71706943D01*
X208444751Y-71874997D01*
X198241165Y-71874997D01*
X198236314Y-71831943D01*
X198198892Y-71724997D01*
X198180456Y-71672310D01*
X198180455Y-71672309D01*
X198180454Y-71672305D01*
X198180452Y-71672302D01*
X198090481Y-71529115D01*
X198090476Y-71529109D01*
X197970890Y-71409523D01*
X197970884Y-71409518D01*
X197827697Y-71319547D01*
X197827694Y-71319545D01*
X197668056Y-71263685D01*
X197500003Y-71244751D01*
X197499997Y-71244751D01*
X197331943Y-71263685D01*
X197172305Y-71319545D01*
X197172302Y-71319547D01*
X197029115Y-71409518D01*
X196963891Y-71474742D01*
X196902567Y-71508226D01*
X196832876Y-71503241D01*
X196776942Y-71461370D01*
X196771216Y-71453031D01*
X196769910Y-71450953D01*
X196756185Y-71429109D01*
X196740479Y-71404112D01*
X196620888Y-71284521D01*
X196484481Y-71198810D01*
X196438191Y-71146475D01*
X196427543Y-71077422D01*
X196455918Y-71013574D01*
X196514308Y-70975202D01*
X196564337Y-70970597D01*
X196581998Y-70972586D01*
X196649998Y-70980249D01*
X196650000Y-70980249D01*
X196650003Y-70980249D01*
X196818056Y-70961314D01*
X196818059Y-70961313D01*
X196977690Y-70905456D01*
X196977692Y-70905454D01*
X196977694Y-70905454D01*
X196977697Y-70905452D01*
X197120884Y-70815481D01*
X197120888Y-70815478D01*
X197120890Y-70815477D01*
X197240477Y-70695890D01*
X197330452Y-70552697D01*
X197330454Y-70552694D01*
X197330454Y-70552692D01*
X197330456Y-70552690D01*
X197386313Y-70393059D01*
X197386313Y-70393058D01*
X197386314Y-70393056D01*
X197405249Y-70225002D01*
X197405249Y-70224997D01*
X197386314Y-70056943D01*
X197330454Y-69897305D01*
X197330452Y-69897302D01*
X197240481Y-69754115D01*
X197240476Y-69754109D01*
X197211364Y-69724997D01*
X200894751Y-69724997D01*
X200894751Y-69725002D01*
X200913685Y-69893056D01*
X200969545Y-70052694D01*
X200969547Y-70052697D01*
X201059518Y-70195884D01*
X201059523Y-70195890D01*
X201179109Y-70315476D01*
X201179115Y-70315481D01*
X201322302Y-70405452D01*
X201322305Y-70405454D01*
X201322309Y-70405455D01*
X201322310Y-70405456D01*
X201394913Y-70430860D01*
X201481943Y-70461314D01*
X201649997Y-70480249D01*
X201650000Y-70480249D01*
X201650003Y-70480249D01*
X201818056Y-70461314D01*
X201818059Y-70461313D01*
X201977690Y-70405456D01*
X201977692Y-70405454D01*
X201977694Y-70405454D01*
X201977697Y-70405452D01*
X202120884Y-70315481D01*
X202120885Y-70315480D01*
X202120890Y-70315477D01*
X202240477Y-70195890D01*
X202309329Y-70086314D01*
X202330452Y-70052697D01*
X202330454Y-70052694D01*
X202330454Y-70052692D01*
X202330456Y-70052690D01*
X202386313Y-69893059D01*
X202386313Y-69893058D01*
X202386314Y-69893056D01*
X202405249Y-69725002D01*
X202405249Y-69724997D01*
X202386314Y-69556943D01*
X202330454Y-69397305D01*
X202330452Y-69397302D01*
X202240481Y-69254115D01*
X202240476Y-69254109D01*
X202120890Y-69134523D01*
X202120884Y-69134518D01*
X201977697Y-69044547D01*
X201977694Y-69044545D01*
X201818056Y-68988685D01*
X201650003Y-68969751D01*
X201649997Y-68969751D01*
X201481943Y-68988685D01*
X201322305Y-69044545D01*
X201322302Y-69044547D01*
X201179115Y-69134518D01*
X201179109Y-69134523D01*
X201059523Y-69254109D01*
X201059518Y-69254115D01*
X200969547Y-69397302D01*
X200969545Y-69397305D01*
X200913685Y-69556943D01*
X200894751Y-69724997D01*
X197211364Y-69724997D01*
X197120890Y-69634523D01*
X197120884Y-69634518D01*
X196977697Y-69544547D01*
X196977694Y-69544545D01*
X196818056Y-69488685D01*
X196650003Y-69469751D01*
X196649997Y-69469751D01*
X196481943Y-69488685D01*
X196322305Y-69544545D01*
X196322302Y-69544547D01*
X196179115Y-69634518D01*
X196179109Y-69634523D01*
X196059523Y-69754109D01*
X196059518Y-69754115D01*
X195969547Y-69897302D01*
X195969545Y-69897305D01*
X195913685Y-70056943D01*
X195894751Y-70224997D01*
X195894751Y-70225002D01*
X195913685Y-70393056D01*
X195969545Y-70552694D01*
X195969547Y-70552697D01*
X196059518Y-70695884D01*
X196059523Y-70695890D01*
X196179111Y-70815478D01*
X196315518Y-70901189D01*
X196361808Y-70953523D01*
X196372456Y-71022577D01*
X196344081Y-71086425D01*
X196285691Y-71124797D01*
X196235662Y-71129402D01*
X196150004Y-71119751D01*
X196149997Y-71119751D01*
X195981943Y-71138685D01*
X195822305Y-71194545D01*
X195822302Y-71194547D01*
X195679115Y-71284518D01*
X195679109Y-71284523D01*
X195559523Y-71404109D01*
X195559518Y-71404115D01*
X195469547Y-71547302D01*
X195469545Y-71547305D01*
X195413685Y-71706943D01*
X195394751Y-71874997D01*
X185241165Y-71874997D01*
X185236314Y-71831943D01*
X185198892Y-71724997D01*
X185180456Y-71672310D01*
X185180455Y-71672309D01*
X185180454Y-71672305D01*
X185180452Y-71672302D01*
X185090481Y-71529115D01*
X185090476Y-71529109D01*
X184970890Y-71409523D01*
X184970884Y-71409518D01*
X184827697Y-71319547D01*
X184827694Y-71319545D01*
X184668056Y-71263685D01*
X184500003Y-71244751D01*
X184499997Y-71244751D01*
X184331943Y-71263685D01*
X184172305Y-71319545D01*
X184172302Y-71319547D01*
X184029115Y-71409518D01*
X184029108Y-71409524D01*
X183984949Y-71453683D01*
X183923626Y-71487167D01*
X183853934Y-71482182D01*
X183798001Y-71440310D01*
X183792272Y-71431967D01*
X183790477Y-71429110D01*
X183670890Y-71309523D01*
X183670884Y-71309518D01*
X183527697Y-71219547D01*
X183527694Y-71219545D01*
X183368056Y-71163685D01*
X183200003Y-71144751D01*
X183199997Y-71144751D01*
X183031943Y-71163685D01*
X182872305Y-71219545D01*
X182872302Y-71219547D01*
X182729115Y-71309518D01*
X182729109Y-71309523D01*
X182609523Y-71429109D01*
X182609518Y-71429115D01*
X182519547Y-71572302D01*
X182519545Y-71572305D01*
X182463685Y-71731943D01*
X182444751Y-71899997D01*
X148833885Y-71899997D01*
X148836313Y-71893059D01*
X148836313Y-71893058D01*
X148836314Y-71893056D01*
X148855249Y-71725002D01*
X148855249Y-71724997D01*
X148836314Y-71556943D01*
X148800182Y-71453683D01*
X148780456Y-71397310D01*
X148780455Y-71397309D01*
X148780454Y-71397305D01*
X148780452Y-71397302D01*
X148690481Y-71254115D01*
X148690476Y-71254109D01*
X148570890Y-71134523D01*
X148570884Y-71134518D01*
X148427697Y-71044547D01*
X148427694Y-71044545D01*
X148268056Y-70988685D01*
X148100003Y-70969751D01*
X148099997Y-70969751D01*
X147931943Y-70988685D01*
X147772305Y-71044545D01*
X147772302Y-71044547D01*
X147629115Y-71134518D01*
X147629109Y-71134523D01*
X147509523Y-71254109D01*
X147509518Y-71254115D01*
X147419547Y-71397302D01*
X147419545Y-71397305D01*
X147363685Y-71556943D01*
X147344751Y-71724997D01*
X143733883Y-71724997D01*
X143689201Y-71597302D01*
X143680456Y-71572310D01*
X143680455Y-71572309D01*
X143680454Y-71572305D01*
X143680452Y-71572302D01*
X143590481Y-71429115D01*
X143590476Y-71429109D01*
X143470890Y-71309523D01*
X143470884Y-71309518D01*
X143327697Y-71219547D01*
X143327694Y-71219545D01*
X143168056Y-71163685D01*
X143000003Y-71144751D01*
X142999997Y-71144751D01*
X142831943Y-71163685D01*
X142672305Y-71219545D01*
X142672302Y-71219547D01*
X142529115Y-71309518D01*
X142529109Y-71309523D01*
X142409523Y-71429109D01*
X142409518Y-71429115D01*
X142319547Y-71572302D01*
X142319545Y-71572305D01*
X142263685Y-71731943D01*
X142244751Y-71899997D01*
X139500000Y-71899997D01*
X139500000Y-69349997D01*
X142294751Y-69349997D01*
X142294751Y-69350002D01*
X142313685Y-69518056D01*
X142369545Y-69677694D01*
X142369547Y-69677697D01*
X142459518Y-69820884D01*
X142459523Y-69820890D01*
X142579109Y-69940476D01*
X142579115Y-69940481D01*
X142722302Y-70030452D01*
X142722305Y-70030454D01*
X142722309Y-70030455D01*
X142722310Y-70030456D01*
X142794913Y-70055860D01*
X142881943Y-70086314D01*
X143049997Y-70105249D01*
X143050000Y-70105249D01*
X143050003Y-70105249D01*
X143218056Y-70086314D01*
X143218059Y-70086313D01*
X143377690Y-70030456D01*
X143377692Y-70030454D01*
X143377694Y-70030454D01*
X143377697Y-70030452D01*
X143520884Y-69940481D01*
X143520885Y-69940480D01*
X143520890Y-69940477D01*
X143640477Y-69820890D01*
X143730452Y-69677697D01*
X143730454Y-69677694D01*
X143730454Y-69677692D01*
X143730456Y-69677690D01*
X143786313Y-69518059D01*
X143786313Y-69518058D01*
X143786314Y-69518056D01*
X143805249Y-69350002D01*
X143805249Y-69349997D01*
X143796799Y-69274997D01*
X148569751Y-69274997D01*
X148569751Y-69275002D01*
X148588685Y-69443056D01*
X148644545Y-69602694D01*
X148644547Y-69602697D01*
X148734518Y-69745884D01*
X148734523Y-69745890D01*
X148854109Y-69865476D01*
X148854115Y-69865481D01*
X148997302Y-69955452D01*
X148997305Y-69955454D01*
X148997309Y-69955455D01*
X148997310Y-69955456D01*
X149069913Y-69980860D01*
X149156943Y-70011314D01*
X149324997Y-70030249D01*
X149325000Y-70030249D01*
X149325003Y-70030249D01*
X149493056Y-70011314D01*
X149493059Y-70011313D01*
X149652690Y-69955456D01*
X149652692Y-69955454D01*
X149652694Y-69955454D01*
X149652697Y-69955452D01*
X149795884Y-69865481D01*
X149795885Y-69865480D01*
X149795890Y-69865477D01*
X149915477Y-69745890D01*
X150005452Y-69602697D01*
X150005454Y-69602694D01*
X150005454Y-69602692D01*
X150005456Y-69602690D01*
X150061313Y-69443059D01*
X150061313Y-69443058D01*
X150061314Y-69443056D01*
X150080249Y-69275002D01*
X150080249Y-69274997D01*
X150061314Y-69106943D01*
X150005454Y-68947305D01*
X150005452Y-68947302D01*
X149915481Y-68804115D01*
X149915476Y-68804109D01*
X149795890Y-68684523D01*
X149795884Y-68684518D01*
X149652697Y-68594547D01*
X149652694Y-68594545D01*
X149493056Y-68538685D01*
X149325003Y-68519751D01*
X149324997Y-68519751D01*
X149156943Y-68538685D01*
X148997305Y-68594545D01*
X148997302Y-68594547D01*
X148854115Y-68684518D01*
X148854109Y-68684523D01*
X148734523Y-68804109D01*
X148734518Y-68804115D01*
X148644547Y-68947302D01*
X148644545Y-68947305D01*
X148588685Y-69106943D01*
X148569751Y-69274997D01*
X143796799Y-69274997D01*
X143786314Y-69181943D01*
X143730454Y-69022305D01*
X143730452Y-69022302D01*
X143640481Y-68879115D01*
X143640476Y-68879109D01*
X143520890Y-68759523D01*
X143520884Y-68759518D01*
X143377697Y-68669547D01*
X143377694Y-68669545D01*
X143218056Y-68613685D01*
X143050003Y-68594751D01*
X143049997Y-68594751D01*
X142881943Y-68613685D01*
X142722305Y-68669545D01*
X142722302Y-68669547D01*
X142579115Y-68759518D01*
X142579109Y-68759523D01*
X142459523Y-68879109D01*
X142459518Y-68879115D01*
X142369547Y-69022302D01*
X142369545Y-69022305D01*
X142313685Y-69181943D01*
X142294751Y-69349997D01*
X139500000Y-69349997D01*
X139500000Y-66824997D01*
X146544751Y-66824997D01*
X146544751Y-66825002D01*
X146563685Y-66993056D01*
X146619545Y-67152694D01*
X146619547Y-67152697D01*
X146709518Y-67295884D01*
X146709523Y-67295890D01*
X146829109Y-67415476D01*
X146829115Y-67415481D01*
X146972302Y-67505452D01*
X146972305Y-67505454D01*
X146972309Y-67505455D01*
X146972310Y-67505456D01*
X147044913Y-67530860D01*
X147131943Y-67561314D01*
X147299997Y-67580249D01*
X147300000Y-67580249D01*
X147300003Y-67580249D01*
X147468056Y-67561314D01*
X147468059Y-67561313D01*
X147627690Y-67505456D01*
X147627692Y-67505454D01*
X147627694Y-67505454D01*
X147627697Y-67505452D01*
X147770884Y-67415481D01*
X147770885Y-67415480D01*
X147770890Y-67415477D01*
X147890477Y-67295890D01*
X147959805Y-67185554D01*
X148012138Y-67139264D01*
X148081192Y-67128615D01*
X148145040Y-67156990D01*
X148152479Y-67163846D01*
X148254109Y-67265476D01*
X148254115Y-67265481D01*
X148397302Y-67355452D01*
X148397305Y-67355454D01*
X148397309Y-67355455D01*
X148397310Y-67355456D01*
X148469913Y-67380860D01*
X148556943Y-67411314D01*
X148724997Y-67430249D01*
X148725000Y-67430249D01*
X148725003Y-67430249D01*
X148893056Y-67411314D01*
X148893059Y-67411313D01*
X149052690Y-67355456D01*
X149052692Y-67355454D01*
X149052694Y-67355454D01*
X149052697Y-67355452D01*
X149195884Y-67265481D01*
X149195885Y-67265480D01*
X149195890Y-67265477D01*
X149315477Y-67145890D01*
X149315481Y-67145884D01*
X149405452Y-67002697D01*
X149405454Y-67002694D01*
X149405454Y-67002692D01*
X149405456Y-67002690D01*
X149461313Y-66843059D01*
X149461313Y-66843058D01*
X149461314Y-66843056D01*
X149480249Y-66675002D01*
X149480249Y-66674997D01*
X149461314Y-66506943D01*
X149413879Y-66371383D01*
X149405456Y-66347310D01*
X149405455Y-66347309D01*
X149405454Y-66347305D01*
X149405452Y-66347302D01*
X149315481Y-66204115D01*
X149315476Y-66204109D01*
X149195890Y-66084523D01*
X149195884Y-66084518D01*
X149052697Y-65994547D01*
X149052694Y-65994545D01*
X148893056Y-65938685D01*
X148725003Y-65919751D01*
X148724997Y-65919751D01*
X148556943Y-65938685D01*
X148397305Y-65994545D01*
X148397302Y-65994547D01*
X148254115Y-66084518D01*
X148254109Y-66084523D01*
X148134521Y-66204111D01*
X148065194Y-66314445D01*
X148012860Y-66360735D01*
X147943806Y-66371383D01*
X147879958Y-66343008D01*
X147872520Y-66336153D01*
X147770890Y-66234523D01*
X147770884Y-66234518D01*
X147627697Y-66144547D01*
X147627694Y-66144545D01*
X147468056Y-66088685D01*
X147300003Y-66069751D01*
X147299997Y-66069751D01*
X147131943Y-66088685D01*
X146972305Y-66144545D01*
X146972302Y-66144547D01*
X146829115Y-66234518D01*
X146829109Y-66234523D01*
X146709523Y-66354109D01*
X146709518Y-66354115D01*
X146619547Y-66497302D01*
X146619545Y-66497305D01*
X146563685Y-66656943D01*
X146544751Y-66824997D01*
X139500000Y-66824997D01*
X139500000Y-65824997D01*
X187444751Y-65824997D01*
X187444751Y-65825002D01*
X187463685Y-65993056D01*
X187506135Y-66114370D01*
X187517661Y-66147310D01*
X187519545Y-66152692D01*
X187586361Y-66259028D01*
X187605361Y-66326264D01*
X187586361Y-66390972D01*
X187519545Y-66497307D01*
X187463685Y-66656943D01*
X187444751Y-66824997D01*
X187444751Y-66825002D01*
X187463685Y-66993056D01*
X187506135Y-67114370D01*
X187517661Y-67147310D01*
X187519545Y-67152692D01*
X187586361Y-67259028D01*
X187605361Y-67326264D01*
X187586361Y-67390972D01*
X187519545Y-67497307D01*
X187463685Y-67656943D01*
X187444751Y-67824997D01*
X187444751Y-67825002D01*
X187463685Y-67993056D01*
X187519545Y-68152694D01*
X187519547Y-68152697D01*
X187609518Y-68295884D01*
X187609523Y-68295890D01*
X187729109Y-68415476D01*
X187729115Y-68415481D01*
X187872302Y-68505452D01*
X187872305Y-68505454D01*
X187872309Y-68505455D01*
X187872310Y-68505456D01*
X187913163Y-68519751D01*
X188031943Y-68561314D01*
X188199997Y-68580249D01*
X188200000Y-68580249D01*
X188200003Y-68580249D01*
X188368056Y-68561314D01*
X188368059Y-68561313D01*
X188527690Y-68505456D01*
X188527692Y-68505454D01*
X188527694Y-68505454D01*
X188527697Y-68505452D01*
X188670884Y-68415481D01*
X188670885Y-68415480D01*
X188670890Y-68415477D01*
X188790477Y-68295890D01*
X188878718Y-68155456D01*
X188880452Y-68152697D01*
X188880454Y-68152694D01*
X188880454Y-68152692D01*
X188880456Y-68152690D01*
X188936313Y-67993059D01*
X188936313Y-67993058D01*
X188936314Y-67993056D01*
X188955249Y-67825002D01*
X188955249Y-67824997D01*
X188936314Y-67656943D01*
X188883306Y-67505456D01*
X188880456Y-67497310D01*
X188880454Y-67497307D01*
X188880454Y-67497306D01*
X188851727Y-67451589D01*
X188813638Y-67390971D01*
X188794638Y-67323737D01*
X188813639Y-67259028D01*
X188880456Y-67152690D01*
X188936313Y-66993059D01*
X188936313Y-66993058D01*
X188936314Y-66993056D01*
X188955249Y-66825002D01*
X188955249Y-66824997D01*
X188936314Y-66656943D01*
X188917694Y-66603730D01*
X188880456Y-66497310D01*
X188880454Y-66497307D01*
X188880454Y-66497306D01*
X188851727Y-66451589D01*
X188813638Y-66390971D01*
X188794638Y-66323737D01*
X188813639Y-66259028D01*
X188880456Y-66152690D01*
X188936313Y-65993059D01*
X188936313Y-65993058D01*
X188936314Y-65993056D01*
X188955249Y-65825002D01*
X188955249Y-65824997D01*
X188936314Y-65656943D01*
X188881145Y-65499279D01*
X188880456Y-65497310D01*
X188880455Y-65497309D01*
X188880454Y-65497305D01*
X188880452Y-65497302D01*
X188790481Y-65354115D01*
X188790476Y-65354109D01*
X188670890Y-65234523D01*
X188670884Y-65234518D01*
X188527697Y-65144547D01*
X188527694Y-65144545D01*
X188368056Y-65088685D01*
X188200003Y-65069751D01*
X188199997Y-65069751D01*
X188031943Y-65088685D01*
X187872305Y-65144545D01*
X187872302Y-65144547D01*
X187729115Y-65234518D01*
X187729109Y-65234523D01*
X187609523Y-65354109D01*
X187609518Y-65354115D01*
X187519547Y-65497302D01*
X187519545Y-65497305D01*
X187463685Y-65656943D01*
X187444751Y-65824997D01*
X139500000Y-65824997D01*
X139500000Y-64199997D01*
X142169751Y-64199997D01*
X142169751Y-64200002D01*
X142188685Y-64368056D01*
X142244545Y-64527694D01*
X142244547Y-64527697D01*
X142334518Y-64670884D01*
X142334523Y-64670890D01*
X142454109Y-64790476D01*
X142454115Y-64790481D01*
X142597302Y-64880452D01*
X142597305Y-64880454D01*
X142597309Y-64880455D01*
X142597310Y-64880456D01*
X142608919Y-64884518D01*
X142756943Y-64936314D01*
X142924997Y-64955249D01*
X142925000Y-64955249D01*
X142925003Y-64955249D01*
X143093056Y-64936314D01*
X143093059Y-64936313D01*
X143252690Y-64880456D01*
X143252692Y-64880454D01*
X143252694Y-64880454D01*
X143252697Y-64880452D01*
X143395884Y-64790481D01*
X143395885Y-64790480D01*
X143395890Y-64790477D01*
X143515477Y-64670890D01*
X143530010Y-64647761D01*
X143605452Y-64527697D01*
X143605454Y-64527694D01*
X143605454Y-64527692D01*
X143605456Y-64527690D01*
X143661313Y-64368059D01*
X143661313Y-64368058D01*
X143661314Y-64368056D01*
X143680249Y-64200002D01*
X143680249Y-64199997D01*
X143668982Y-64099997D01*
X151744751Y-64099997D01*
X151744751Y-64100002D01*
X151763685Y-64268056D01*
X151819545Y-64427694D01*
X151819547Y-64427697D01*
X151909518Y-64570884D01*
X151909523Y-64570890D01*
X152029109Y-64690476D01*
X152029115Y-64690481D01*
X152172302Y-64780452D01*
X152172305Y-64780454D01*
X152172309Y-64780455D01*
X152172310Y-64780456D01*
X152212580Y-64794547D01*
X152331943Y-64836314D01*
X152499997Y-64855249D01*
X152500000Y-64855249D01*
X152500003Y-64855249D01*
X152668056Y-64836314D01*
X152668059Y-64836313D01*
X152827690Y-64780456D01*
X152827692Y-64780454D01*
X152827694Y-64780454D01*
X152827697Y-64780452D01*
X152970884Y-64690481D01*
X152970885Y-64690480D01*
X152970890Y-64690477D01*
X153090477Y-64570890D01*
X153180452Y-64427697D01*
X153180454Y-64427694D01*
X153180454Y-64427692D01*
X153180456Y-64427690D01*
X153206863Y-64352224D01*
X201245500Y-64352224D01*
X201245500Y-64647775D01*
X201262969Y-64780456D01*
X201284076Y-64940775D01*
X201301047Y-65004110D01*
X201360566Y-65226242D01*
X201473660Y-65499275D01*
X201473665Y-65499286D01*
X201621425Y-65755212D01*
X201621436Y-65755228D01*
X201801339Y-65989682D01*
X201801345Y-65989689D01*
X202010310Y-66198654D01*
X202010317Y-66198660D01*
X202151434Y-66306943D01*
X202244780Y-66378570D01*
X202244787Y-66378574D01*
X202500713Y-66526334D01*
X202500718Y-66526336D01*
X202500721Y-66526338D01*
X202637240Y-66582886D01*
X202773757Y-66639433D01*
X202773758Y-66639433D01*
X202773760Y-66639434D01*
X203059225Y-66715924D01*
X203352232Y-66754500D01*
X203352239Y-66754500D01*
X203647761Y-66754500D01*
X203647768Y-66754500D01*
X203940775Y-66715924D01*
X204226240Y-66639434D01*
X204499279Y-66526338D01*
X204755220Y-66378570D01*
X204989684Y-66198659D01*
X205198659Y-65989684D01*
X205378570Y-65755220D01*
X205526338Y-65499279D01*
X205536396Y-65474997D01*
X212519751Y-65474997D01*
X212519751Y-65475002D01*
X212538685Y-65643056D01*
X212594545Y-65802692D01*
X212661361Y-65909028D01*
X212680361Y-65976264D01*
X212661361Y-66040972D01*
X212594545Y-66147307D01*
X212538685Y-66306943D01*
X212519751Y-66474997D01*
X212519751Y-66475002D01*
X212538685Y-66643056D01*
X212594545Y-66802692D01*
X212661361Y-66909028D01*
X212680361Y-66976264D01*
X212661361Y-67040972D01*
X212594545Y-67147307D01*
X212538685Y-67306943D01*
X212519751Y-67474997D01*
X212519751Y-67475002D01*
X212538685Y-67643056D01*
X212594545Y-67802694D01*
X212594547Y-67802697D01*
X212684518Y-67945884D01*
X212684523Y-67945890D01*
X212804109Y-68065476D01*
X212804115Y-68065481D01*
X212947302Y-68155452D01*
X212947305Y-68155454D01*
X212947309Y-68155455D01*
X212947310Y-68155456D01*
X213019913Y-68180860D01*
X213106943Y-68211314D01*
X213274997Y-68230249D01*
X213275000Y-68230249D01*
X213275003Y-68230249D01*
X213443056Y-68211314D01*
X213443059Y-68211313D01*
X213602690Y-68155456D01*
X213602692Y-68155454D01*
X213602694Y-68155454D01*
X213602697Y-68155452D01*
X213745884Y-68065481D01*
X213745885Y-68065480D01*
X213745890Y-68065477D01*
X213865477Y-67945890D01*
X213865481Y-67945884D01*
X213955452Y-67802697D01*
X213955454Y-67802694D01*
X213955454Y-67802692D01*
X213955456Y-67802690D01*
X214011313Y-67643059D01*
X214011313Y-67643058D01*
X214011314Y-67643056D01*
X214030249Y-67475002D01*
X214030249Y-67474997D01*
X214011314Y-67306943D01*
X213992694Y-67253730D01*
X213955456Y-67147310D01*
X213955454Y-67147307D01*
X213955454Y-67147306D01*
X213926727Y-67101589D01*
X213888638Y-67040971D01*
X213869638Y-66973737D01*
X213888639Y-66909028D01*
X213955456Y-66802690D01*
X214011313Y-66643059D01*
X214011313Y-66643058D01*
X214011314Y-66643056D01*
X214030249Y-66475002D01*
X214030249Y-66474997D01*
X214011314Y-66306943D01*
X213975331Y-66204110D01*
X213955456Y-66147310D01*
X213955454Y-66147307D01*
X213955454Y-66147306D01*
X213926727Y-66101589D01*
X213888638Y-66040971D01*
X213869638Y-65973737D01*
X213888639Y-65909028D01*
X213955456Y-65802690D01*
X214011313Y-65643059D01*
X214011313Y-65643058D01*
X214011314Y-65643056D01*
X214030249Y-65475002D01*
X214030249Y-65474997D01*
X214011314Y-65306943D01*
X213955454Y-65147305D01*
X213955452Y-65147302D01*
X213865481Y-65004115D01*
X213865476Y-65004109D01*
X213745890Y-64884523D01*
X213745884Y-64884518D01*
X213602697Y-64794547D01*
X213602694Y-64794545D01*
X213443056Y-64738685D01*
X213275003Y-64719751D01*
X213274997Y-64719751D01*
X213106943Y-64738685D01*
X212947305Y-64794545D01*
X212947302Y-64794547D01*
X212804115Y-64884518D01*
X212804109Y-64884523D01*
X212684523Y-65004109D01*
X212684518Y-65004115D01*
X212594547Y-65147302D01*
X212594545Y-65147305D01*
X212538685Y-65306943D01*
X212519751Y-65474997D01*
X205536396Y-65474997D01*
X205639434Y-65226240D01*
X205715924Y-64940775D01*
X205754500Y-64647768D01*
X205754500Y-64352232D01*
X205715924Y-64059225D01*
X205639434Y-63773760D01*
X205638833Y-63772310D01*
X205526339Y-63500724D01*
X205526334Y-63500713D01*
X205378574Y-63244787D01*
X205378570Y-63244780D01*
X205198659Y-63010316D01*
X205198654Y-63010310D01*
X204989689Y-62801345D01*
X204989682Y-62801339D01*
X204755228Y-62621436D01*
X204755226Y-62621434D01*
X204755220Y-62621430D01*
X204755215Y-62621427D01*
X204755212Y-62621425D01*
X204499286Y-62473665D01*
X204499275Y-62473660D01*
X204226242Y-62360566D01*
X204083507Y-62322321D01*
X203940775Y-62284076D01*
X203875662Y-62275503D01*
X203647775Y-62245500D01*
X203647768Y-62245500D01*
X203352232Y-62245500D01*
X203352224Y-62245500D01*
X203091781Y-62279789D01*
X203059225Y-62284076D01*
X202987858Y-62303198D01*
X202773757Y-62360566D01*
X202500724Y-62473660D01*
X202500713Y-62473665D01*
X202244787Y-62621425D01*
X202244771Y-62621436D01*
X202010317Y-62801339D01*
X202010310Y-62801345D01*
X201801345Y-63010310D01*
X201801339Y-63010317D01*
X201621436Y-63244771D01*
X201621425Y-63244787D01*
X201473665Y-63500713D01*
X201473660Y-63500724D01*
X201360566Y-63773757D01*
X201284076Y-64059226D01*
X201245500Y-64352224D01*
X153206863Y-64352224D01*
X153236313Y-64268059D01*
X153236313Y-64268058D01*
X153236314Y-64268056D01*
X153255249Y-64100002D01*
X153255249Y-64099997D01*
X153236314Y-63931943D01*
X153180454Y-63772305D01*
X153180452Y-63772302D01*
X153090481Y-63629115D01*
X153090476Y-63629109D01*
X152970890Y-63509523D01*
X152970884Y-63509518D01*
X152827697Y-63419547D01*
X152827694Y-63419545D01*
X152668056Y-63363685D01*
X152500003Y-63344751D01*
X152499997Y-63344751D01*
X152331943Y-63363685D01*
X152172305Y-63419545D01*
X152172302Y-63419547D01*
X152029115Y-63509518D01*
X152029109Y-63509523D01*
X151909523Y-63629109D01*
X151909518Y-63629115D01*
X151819547Y-63772302D01*
X151819545Y-63772305D01*
X151763685Y-63931943D01*
X151744751Y-64099997D01*
X143668982Y-64099997D01*
X143661314Y-64031943D01*
X143605454Y-63872305D01*
X143605452Y-63872302D01*
X143515481Y-63729115D01*
X143515476Y-63729109D01*
X143395890Y-63609523D01*
X143395884Y-63609518D01*
X143252697Y-63519547D01*
X143252694Y-63519545D01*
X143093056Y-63463685D01*
X142925003Y-63444751D01*
X142924997Y-63444751D01*
X142756943Y-63463685D01*
X142597305Y-63519545D01*
X142597302Y-63519547D01*
X142454115Y-63609518D01*
X142454109Y-63609523D01*
X142334523Y-63729109D01*
X142334518Y-63729115D01*
X142244547Y-63872302D01*
X142244545Y-63872305D01*
X142188685Y-64031943D01*
X142169751Y-64199997D01*
X139500000Y-64199997D01*
X139500000Y-60424997D01*
X142294751Y-60424997D01*
X142294751Y-60425002D01*
X142313685Y-60593056D01*
X142369545Y-60752694D01*
X142369547Y-60752697D01*
X142459518Y-60895884D01*
X142459523Y-60895890D01*
X142550951Y-60987318D01*
X142584436Y-61048641D01*
X142579452Y-61118333D01*
X142550953Y-61162678D01*
X142534526Y-61179105D01*
X142534520Y-61179112D01*
X142444547Y-61322302D01*
X142444545Y-61322305D01*
X142388685Y-61481943D01*
X142369751Y-61649997D01*
X142369751Y-61650002D01*
X142388685Y-61818056D01*
X142444545Y-61977694D01*
X142444547Y-61977697D01*
X142534518Y-62120884D01*
X142534523Y-62120890D01*
X142654109Y-62240476D01*
X142654115Y-62240481D01*
X142797302Y-62330452D01*
X142797305Y-62330454D01*
X142797309Y-62330455D01*
X142797310Y-62330456D01*
X142868745Y-62355452D01*
X142956943Y-62386314D01*
X143124997Y-62405249D01*
X143125000Y-62405249D01*
X143125003Y-62405249D01*
X143293056Y-62386314D01*
X143293059Y-62386313D01*
X143452690Y-62330456D01*
X143452692Y-62330454D01*
X143452694Y-62330454D01*
X143452697Y-62330452D01*
X143595884Y-62240481D01*
X143595885Y-62240480D01*
X143595890Y-62240477D01*
X143715477Y-62120890D01*
X143789745Y-62002694D01*
X143805452Y-61977697D01*
X143805454Y-61977694D01*
X143805454Y-61977692D01*
X143805456Y-61977690D01*
X143861313Y-61818059D01*
X143861313Y-61818058D01*
X143861314Y-61818056D01*
X143877433Y-61674997D01*
X148669751Y-61674997D01*
X148669751Y-61675002D01*
X148688685Y-61843056D01*
X148744545Y-62002694D01*
X148744547Y-62002697D01*
X148834518Y-62145884D01*
X148834523Y-62145890D01*
X148954109Y-62265476D01*
X148954115Y-62265481D01*
X149097302Y-62355452D01*
X149097305Y-62355454D01*
X149097309Y-62355455D01*
X149097310Y-62355456D01*
X149111914Y-62360566D01*
X149256943Y-62411314D01*
X149424997Y-62430249D01*
X149425000Y-62430249D01*
X149425003Y-62430249D01*
X149593056Y-62411314D01*
X149664502Y-62386314D01*
X149752690Y-62355456D01*
X149752692Y-62355454D01*
X149752694Y-62355454D01*
X149752697Y-62355452D01*
X149895884Y-62265481D01*
X149895885Y-62265480D01*
X149895890Y-62265477D01*
X150015477Y-62145890D01*
X150031186Y-62120890D01*
X150105452Y-62002697D01*
X150105454Y-62002694D01*
X150105454Y-62002692D01*
X150105456Y-62002690D01*
X150161313Y-61843059D01*
X150161313Y-61843058D01*
X150161314Y-61843056D01*
X150180249Y-61675002D01*
X150180249Y-61674997D01*
X150161314Y-61506943D01*
X150105454Y-61347305D01*
X150105452Y-61347302D01*
X150015481Y-61204115D01*
X150015476Y-61204109D01*
X149895890Y-61084523D01*
X149895884Y-61084518D01*
X149752697Y-60994547D01*
X149752694Y-60994545D01*
X149593056Y-60938685D01*
X149425003Y-60919751D01*
X149424997Y-60919751D01*
X149256943Y-60938685D01*
X149097305Y-60994545D01*
X149097302Y-60994547D01*
X148954115Y-61084518D01*
X148954109Y-61084523D01*
X148834523Y-61204109D01*
X148834518Y-61204115D01*
X148744547Y-61347302D01*
X148744545Y-61347305D01*
X148688685Y-61506943D01*
X148669751Y-61674997D01*
X143877433Y-61674997D01*
X143880249Y-61650002D01*
X143880249Y-61649997D01*
X143861314Y-61481943D01*
X143805454Y-61322305D01*
X143805452Y-61322302D01*
X143715481Y-61179115D01*
X143715476Y-61179109D01*
X143624048Y-61087681D01*
X143590563Y-61026358D01*
X143595547Y-60956666D01*
X143624050Y-60912317D01*
X143640476Y-60895891D01*
X143640477Y-60895890D01*
X143669314Y-60849997D01*
X155844751Y-60849997D01*
X155844751Y-60850002D01*
X155863685Y-61018056D01*
X155919545Y-61177694D01*
X155919547Y-61177697D01*
X156009518Y-61320884D01*
X156009523Y-61320890D01*
X156129109Y-61440476D01*
X156129115Y-61440481D01*
X156272302Y-61530452D01*
X156272305Y-61530454D01*
X156272309Y-61530455D01*
X156272310Y-61530456D01*
X156344913Y-61555860D01*
X156431943Y-61586314D01*
X156599997Y-61605249D01*
X156600000Y-61605249D01*
X156600003Y-61605249D01*
X156768056Y-61586314D01*
X156768059Y-61586313D01*
X156927690Y-61530456D01*
X156927692Y-61530454D01*
X156927694Y-61530454D01*
X156927697Y-61530452D01*
X157070884Y-61440481D01*
X157070885Y-61440480D01*
X157070890Y-61440477D01*
X157190477Y-61320890D01*
X157279561Y-61179115D01*
X157280452Y-61177697D01*
X157280454Y-61177694D01*
X157280454Y-61177692D01*
X157280456Y-61177690D01*
X157336313Y-61018059D01*
X157336313Y-61018058D01*
X157336314Y-61018056D01*
X157355249Y-60850002D01*
X157355249Y-60849997D01*
X157336314Y-60681943D01*
X157280454Y-60522305D01*
X157280452Y-60522302D01*
X157190481Y-60379115D01*
X157190476Y-60379109D01*
X157070890Y-60259523D01*
X157070884Y-60259518D01*
X156927697Y-60169547D01*
X156927694Y-60169545D01*
X156768056Y-60113685D01*
X156600003Y-60094751D01*
X156599997Y-60094751D01*
X156431943Y-60113685D01*
X156272305Y-60169545D01*
X156272302Y-60169547D01*
X156129115Y-60259518D01*
X156129109Y-60259523D01*
X156009523Y-60379109D01*
X156009518Y-60379115D01*
X155919547Y-60522302D01*
X155919545Y-60522305D01*
X155863685Y-60681943D01*
X155844751Y-60849997D01*
X143669314Y-60849997D01*
X143730456Y-60752690D01*
X143786313Y-60593059D01*
X143786313Y-60593058D01*
X143786314Y-60593056D01*
X143805249Y-60425002D01*
X143805249Y-60424997D01*
X143786314Y-60256943D01*
X143755732Y-60169544D01*
X143730456Y-60097310D01*
X143730455Y-60097309D01*
X143730454Y-60097305D01*
X143730452Y-60097302D01*
X143640481Y-59954115D01*
X143640476Y-59954109D01*
X143520890Y-59834523D01*
X143520884Y-59834518D01*
X143377697Y-59744547D01*
X143377694Y-59744545D01*
X143218056Y-59688685D01*
X143050003Y-59669751D01*
X143049997Y-59669751D01*
X142881943Y-59688685D01*
X142722305Y-59744545D01*
X142722302Y-59744547D01*
X142579115Y-59834518D01*
X142579109Y-59834523D01*
X142459523Y-59954109D01*
X142459518Y-59954115D01*
X142369547Y-60097302D01*
X142369545Y-60097305D01*
X142313685Y-60256943D01*
X142294751Y-60424997D01*
X139500000Y-60424997D01*
X139500000Y-58124000D01*
X139519685Y-58056961D01*
X139572489Y-58011206D01*
X139624000Y-58000000D01*
X230411000Y-58000000D01*
X230478039Y-58019685D01*
G37*
%TD.AperFunction*%
%TD*%
M02*
