#VRML V2.0 utf8
# 3D model generated by easyeda2kicad.py (https://github.com/uPesy/easyeda2kicad.py)

Shape{
    appearance Appearance {
        material  Material 	{
            diffuseColor 0.10980392156862745 0.10980392156862745 0.10980392156862745
            specularColor 0.0784313725490196 0.0784313725490196 0.0784313725490196
            ambientIntensity 0.2
            transparency 0
            shininess 0.5
        }
    }
    geometry IndexedFaceSet {
        ccw TRUE
        solid FALSE
        coord DEF co Coordinate {
            point [
                -1.1969 1.2205 0.689, -0.8031 1.2205 0.689, -1.1969 1.2205 0.6299, -0.8031 1.2205 0.6299, -0.1969 1.2205 0.689, 0.1969 1.2205 0.689, -0.1969 1.2205 0.6299, 0.1969 1.2205 0.6299, -1.8031 -1.2205 0.689, -2.0 -1.2205 0.689, -1.8031 -1.2205 0.6299, -2.0 -1.2205 0.6299, -1.1969 -1.2205 0.6299, -0.8031 -1.2205 0.6299, -1.1969 -1.2205 0.689, -0.8031 -1.2205 0.689, -0.8031 -1.2205 0.689
            ]
        }
        coordIndex [
            0,1,2,-1,2,1,3,-1,4,5,6,-1,6,5,7,-1,8,9,10,-1,10,9,11,-1,12,13,14,-1,14,13,15,-1,
        ]
    }
}
Shape{
    appearance Appearance {
        material  Material 	{
            diffuseColor 1.0 1.0 1.0
            specularColor 0.8784313725490196 0.8784313725490196 0.8784313725490196
            ambientIntensity 0.2
            transparency 0
            shininess 0.5
        }
    }
    geometry IndexedFaceSet {
        ccw TRUE
        solid FALSE
        coord DEF co Coordinate {
            point [
                -1.3031 -0.3937 1.2402, -1.3031 -0.3937 1.2008, -1.3228 -0.3937 1.2402, -1.3228 -0.3937 1.2008, -1.6969 -0.3937 1.2008, -1.6969 -0.3937 1.2402, -1.6772 -0.3937 1.2008, -1.6772 -0.3937 1.2402, -1.6772 -0.3937 1.2402
            ]
        }
        coordIndex [
            0,1,2,-1,2,1,3,-1,4,5,6,-1,6,5,7,-1,
        ]
    }
}
Shape{
    appearance Appearance {
        material  Material 	{
            diffuseColor 1.0 1.0 1.0
            specularColor 0.30196078431372547 0.30196078431372547 0.30196078431372547
            ambientIntensity 0.2
            transparency 0
            shininess 0.5
        }
    }
    geometry IndexedFaceSet {
        ccw TRUE
        solid FALSE
        coord DEF co Coordinate {
            point [
                -1.6969 -0.3937 1.2008, -1.6772 -0.3937 1.2008, -1.6772 -0.0787 1.2008, -1.3228 -0.3937 1.2008, -1.3031 -0.3937 1.2008, -1.3228 -0.0787 1.2008, -1.3031 0.3937 1.2008, -1.6969 0.3937 1.2008, -1.6969 0.3937 1.2008
            ]
        }
        coordIndex [
            0,1,2,-1,3,4,5,-1,5,4,6,-1,5,6,2,-1,2,6,7,-1,2,7,0,-1,
        ]
    }
}
Shape{
    appearance Appearance {
        material  Material 	{
            diffuseColor 1.0 1.0 1.0
            specularColor 0.8784313725490196 0.8784313725490196 0.8784313725490196
            ambientIntensity 0.2
            transparency 0
            shininess 0.5
        }
    }
    geometry IndexedFaceSet {
        ccw TRUE
        solid FALSE
        coord DEF co Coordinate {
            point [
                -0.3031 -0.3937 1.2402, -0.3031 -0.3937 1.2008, -0.3228 -0.3937 1.2402, -0.3228 -0.3937 1.2008, -0.6969 -0.3937 1.2008, -0.6969 -0.3937 1.2402, -0.6772 -0.3937 1.2008, -0.6772 -0.3937 1.2402, -0.6772 -0.3937 1.2402
            ]
        }
        coordIndex [
            0,1,2,-1,2,1,3,-1,4,5,6,-1,6,5,7,-1,
        ]
    }
}
Shape{
    appearance Appearance {
        material  Material 	{
            diffuseColor 1.0 1.0 1.0
            specularColor 0.30196078431372547 0.30196078431372547 0.30196078431372547
            ambientIntensity 0.2
            transparency 0
            shininess 0.5
        }
    }
    geometry IndexedFaceSet {
        ccw TRUE
        solid FALSE
        coord DEF co Coordinate {
            point [
                -0.6969 -0.3937 1.2008, -0.6772 -0.3937 1.2008, -0.6772 -0.0787 1.2008, -0.3228 -0.3937 1.2008, -0.3031 -0.3937 1.2008, -0.3228 -0.0787 1.2008, -0.3031 0.3937 1.2008, -0.6969 0.3937 1.2008, -0.6969 0.3937 1.2008
            ]
        }
        coordIndex [
            0,1,2,-1,3,4,5,-1,5,4,6,-1,5,6,2,-1,2,6,7,-1,2,7,0,-1,
        ]
    }
}
Shape{
    appearance Appearance {
        material  Material 	{
            diffuseColor 0.10980392156862745 0.10980392156862745 0.10980392156862745
            specularColor 0.0784313725490196 0.0784313725490196 0.0784313725490196
            ambientIntensity 0.2
            transparency 0
            shininess 0.5
        }
    }
    geometry IndexedFaceSet {
        ccw TRUE
        solid FALSE
        coord DEF co Coordinate {
            point [
                1.9606 0.786 1.3976, 1.9606 1.1811 1.3976, 1.0 1.1811 1.3976, -1.4911 -0.7854 1.3976, -1.4911 -0.7283 1.3976, -1.6357 -0.7283 1.3976, -1.7362 0.7283 1.3976, -1.6357 0.7283 1.3976, -1.6357 0.7562 1.3976, -1.2638 -0.7283 1.3976, -1.0 -0.7854 1.3976, -1.0 0.7562 1.3976, -1.2638 0.7283 1.3976, -1.4911 0.7562 1.3976, -1.4911 0.7283 1.3976, -1.4911 -0.8607 1.3976, -1.4629 -0.8425 1.3976, -1.4517 -0.8425 1.3976, -1.4805 -0.881 1.3976, -1.4911 -0.8881 1.3976, -1.4805 -1.0816 1.3976, -1.4911 -1.1314 1.3976, -1.4517 -1.0816 1.3976, -1.0 -1.1314 1.3976, -1.8545 0.7562 1.3976, -1.7362 -0.7283 1.3976, -1.8545 -0.7854 1.3976, -1.6357 -0.7854 1.3976, -1.4973 -0.8647 1.3976, -1.5023 -0.8956 1.3976, -1.5308 -0.9076 1.3976, -1.6357 -1.1314 1.3976, -1.5352 -0.9088 1.3976, -1.5352 -0.88 1.3976, -1.7319 1.034 1.3976, -1.7132 1.0658 1.3976, -1.8545 1.1811 1.3976, -1.695 1.0844 1.3976, -1.6758 1.0966 1.3976, -1.6357 1.1811 1.3976, -1.6531 1.1042 1.3976, -1.6357 1.106 1.3976, -1.6827 0.7966 1.3976, -1.7011 0.8101 1.3976, -1.8545 0.786 1.3976, -1.7203 0.8329 1.3976, -1.7292 0.8483 1.3976, -1.743 0.8883 1.3976, -1.7484 0.9417 1.3976, -1.7438 0.9943 1.3976, -1.6324 0.7841 1.3976, -1.6357 0.7845 1.3976, -1.6466 0.786 1.3976, -1.6625 0.7882 1.3976, -1.6116 0.786 1.3976, -1.4911 0.786 1.3976, -1.6103 0.7861 1.3976, -1.5306 0.8566 1.3976, -1.5493 0.8247 1.3976, -1.6284 1.1067 1.3976, -1.6016 1.1034 1.3976, -1.4911 1.1811 1.3976, -1.5812 1.0954 1.3976, -1.5674 0.8061 1.3976, -1.587 0.7937 1.3976, -1.5623 1.082 1.3976, -1.5432 1.0598 1.3976, -1.5294 1.0342 1.3976, -1.5174 0.9916 1.3976, -1.5141 0.9491 1.3976, -1.5188 0.8961 1.3976, -1.8545 -1.0904 1.3976, -1.8135 -1.1314 1.3976, -1.7638 -1.1811 1.3976, 1.0 0.786 1.3976, -0.0 1.1811 1.3976, -0.0 0.786 1.3976, -1.0 1.1811 1.3976, -1.0 0.786 1.3976, -1.4373 0.7879 1.3976, -1.3052 0.7879 1.3976, -1.4374 1.0309 1.3976, -1.4373 1.0089 1.3976, -1.4373 1.053 1.3976, -1.4383 1.053 1.3976, -1.4335 1.0425 1.3976, -1.4289 1.0324 1.3976, -1.2683 1.1029 1.3976, -1.2683 0.7879 1.3976, -1.468 0.7879 1.3976, -1.468 1.1029 1.3976, -1.4296 1.1029 1.3976, -1.299 1.1029 1.3976, -1.299 0.8874 1.3976, -1.2981 0.8417 1.3976, -1.2974 0.8417 1.3976, -1.3029 0.8527 1.3976, -1.2988 0.8645 1.3976, -1.3083 0.8634 1.3976, -0.0 0.7562 1.3976, 1.0 0.7562 1.3976, 1.9606 0.7562 1.3976, 1.9606 -0.7854 1.3976, 1.7362 -0.7283 1.3976, 1.2638 -0.7283 1.3976, 1.7362 0.7283 1.3976, 1.2638 0.7283 1.3976, 1.0 -0.7854 1.3976, 0.2638 0.7283 1.3976, 0.2638 -0.7283 1.3976, -0.0 -0.7854 1.3976, 0.7362 -0.7283 1.3976, 0.7362 0.7283 1.3976, -0.7362 0.7283 1.3976, -0.7362 -0.7283 1.3976, -0.2638 -0.7283 1.3976, -0.2638 0.7283 1.3976, -1.9606 1.1811 1.3976, -1.9606 0.786 1.3976, -1.9606 0.7562 1.3976, -1.9606 -0.7854 1.3976, -1.9606 -0.9843 1.3976, -0.0 -1.1314 1.3976, 1.0 -1.1314 1.3976, 1.9606 -1.1314 1.3976, -1.6357 -1.1811 1.3976, -1.4911 -1.1811 1.3976, -1.0 -1.1811 1.3976, -0.0 -1.1811 1.3976, 1.0 -1.1811 1.3976, 1.9606 -1.1811 1.3976, 1.8031 1.2205 0.689, 2.0 1.2205 0.689, 1.8031 1.2205 0.6299, 2.0 1.2205 0.6299, 1.1969 -1.2205 0.689, 0.8031 -1.2205 0.689, 1.1969 -1.2205 0.6299, 0.8031 -1.2205 0.6299, 0.8031 -1.2205 0.6299
            ]
        }
        coordIndex [
            0,1,2,-1,3,4,5,-1,6,7,8,-1,4,3,9,-1,10,11,12,-1,12,11,13,-1,12,13,14,-1,3,15,16,-1,12,9,10,-1,10,9,3,-1,10,3,17,-1,17,3,16,-1,18,19,20,-1,20,19,21,-1,20,21,22,-1,22,21,23,-1,22,23,17,-1,6,24,25,-1,25,24,26,-1,25,26,5,-1,5,26,27,-1,5,27,3,-1,3,27,28,-1,3,28,15,-1,19,29,21,-1,21,29,30,-1,21,30,31,-1,31,30,32,-1,31,32,27,-1,27,32,33,-1,27,33,28,-1,34,35,36,-1,35,37,36,-1,36,37,38,-1,36,38,39,-1,39,38,40,-1,39,40,41,-1,42,43,44,-1,44,43,45,-1,44,45,46,-1,46,47,44,-1,44,47,48,-1,44,48,36,-1,36,48,49,-1,36,49,34,-1,50,51,8,-1,8,51,52,-1,6,8,24,-1,24,8,52,-1,24,52,44,-1,44,52,53,-1,44,53,42,-1,50,8,54,-1,54,8,55,-1,54,55,56,-1,57,58,55,-1,41,59,39,-1,39,59,60,-1,39,60,61,-1,61,60,62,-1,58,63,55,-1,55,63,64,-1,55,64,56,-1,62,65,61,-1,61,65,66,-1,61,66,67,-1,67,68,61,-1,61,68,69,-1,61,69,55,-1,55,69,70,-1,55,70,57,-1,26,71,27,-1,27,71,72,-1,27,72,31,-1,31,72,73,-1,0,2,74,-1,74,2,75,-1,74,75,76,-1,76,75,77,-1,76,77,78,-1,55,78,79,-1,80,81,82,-1,83,84,85,-1,85,84,81,-1,85,81,86,-1,86,81,80,-1,87,88,78,-1,78,88,80,-1,78,80,79,-1,79,80,82,-1,79,89,55,-1,55,89,90,-1,55,90,61,-1,61,90,91,-1,78,77,87,-1,87,77,61,-1,87,61,92,-1,92,61,91,-1,92,91,93,-1,94,95,96,-1,96,95,97,-1,93,91,97,-1,97,91,98,-1,97,98,96,-1,7,14,8,-1,8,14,13,-1,8,13,55,-1,55,13,11,-1,55,11,78,-1,78,11,99,-1,78,99,76,-1,76,99,100,-1,76,100,74,-1,74,100,101,-1,74,101,0,-1,102,103,104,-1,103,102,105,-1,105,102,101,-1,105,101,106,-1,106,101,100,-1,106,100,104,-1,104,100,107,-1,104,107,102,-1,108,99,109,-1,109,99,110,-1,109,110,111,-1,111,110,107,-1,111,107,112,-1,112,107,100,-1,112,100,108,-1,108,100,99,-1,113,11,114,-1,114,11,10,-1,114,10,115,-1,115,10,110,-1,115,110,116,-1,116,110,99,-1,116,99,113,-1,113,99,11,-1,36,117,44,-1,44,117,118,-1,44,118,24,-1,24,118,119,-1,24,119,26,-1,26,119,120,-1,26,120,71,-1,71,120,121,-1,17,23,10,-1,10,23,122,-1,10,122,110,-1,110,122,123,-1,110,123,107,-1,107,123,124,-1,107,124,102,-1,73,125,31,-1,31,125,126,-1,31,126,21,-1,21,126,127,-1,21,127,23,-1,23,127,128,-1,23,128,122,-1,122,128,129,-1,122,129,123,-1,123,129,130,-1,123,130,124,-1,131,132,133,-1,133,132,134,-1,135,136,137,-1,137,136,138,-1,
        ]
    }
}
Shape{
    appearance Appearance {
        material  Material 	{
            diffuseColor 1.0 1.0 1.0
            specularColor 0.8784313725490196 0.8784313725490196 0.8784313725490196
            ambientIntensity 0.2
            transparency 0
            shininess 0.5
        }
    }
    geometry IndexedFaceSet {
        ccw TRUE
        solid FALSE
        coord DEF co Coordinate {
            point [
                1.6969 -0.3937 1.2402, 1.6969 -0.3937 1.2008, 1.6772 -0.3937 1.2402, 1.6772 -0.3937 1.2008, 1.3031 -0.3937 1.2008, 1.3031 -0.3937 1.2402, 1.3228 -0.3937 1.2008, 1.3228 -0.3937 1.2402, 1.3228 -0.3937 1.2402
            ]
        }
        coordIndex [
            0,1,2,-1,2,1,3,-1,4,5,6,-1,6,5,7,-1,
        ]
    }
}
Shape{
    appearance Appearance {
        material  Material 	{
            diffuseColor 1.0 1.0 1.0
            specularColor 0.30196078431372547 0.30196078431372547 0.30196078431372547
            ambientIntensity 0.2
            transparency 0
            shininess 0.5
        }
    }
    geometry IndexedFaceSet {
        ccw TRUE
        solid FALSE
        coord DEF co Coordinate {
            point [
                1.3031 -0.3937 1.2008, 1.3228 -0.3937 1.2008, 1.3228 -0.0787 1.2008, 1.6772 -0.3937 1.2008, 1.6969 -0.3937 1.2008, 1.6772 -0.0787 1.2008, 1.6969 0.3937 1.2008, 1.3031 0.3937 1.2008, 1.3031 0.3937 1.2008
            ]
        }
        coordIndex [
            0,1,2,-1,3,4,5,-1,5,4,6,-1,5,6,2,-1,2,6,7,-1,2,7,0,-1,
        ]
    }
}
Shape{
    appearance Appearance {
        material  Material 	{
            diffuseColor 0.10980392156862745 0.10980392156862745 0.10980392156862745
            specularColor 0.0784313725490196 0.0784313725490196 0.0784313725490196
            ambientIntensity 0.2
            transparency 0
            shininess 0.5
        }
    }
    geometry IndexedFaceSet {
        ccw TRUE
        solid FALSE
        coord DEF co Coordinate {
            point [
                -0.0384 -0.0429 0.1575, -0.0471 -0.0429 0.1575, -0.0516 -0.0352 0.1575, 0.0187 -0.0518 0.1575, 0.0199 -0.0614 0.1575, 0.0149 -0.0429 0.1575, 0.019 -0.0691 0.1575, -0.0425 -0.138 0.1575, -0.0425 -0.1082 0.1575, 0.0276 -0.138 0.1575, 1.9606 -0.0352 0.1575, 0.0276 -0.1485 0.1575, 1.9606 -1.1811 0.1575, -0.0512 -0.1485 0.1575, -0.0516 -1.1811 0.1575, 0.0169 -0.075 0.1575, 0.0132 -0.0806 0.1575, 0.0079 -0.0853 0.1575, 0.0018 -0.0885 0.1575, -0.0067 -0.0906 0.1575, -0.0126 -0.0909 0.1575, -0.0485 -0.082 0.1575, -0.0512 -0.1082 0.1575, -0.0511 -0.0743 0.1575, -0.0516 -0.0692 0.1575, 0.0252 -0.0785 0.1575, 0.0209 -0.0859 0.1575, 0.0142 -0.0927 0.1575, -0.0443 -0.0884 0.1575, -0.0381 -0.0943 0.1575, -0.0306 -0.0984 0.1575, -0.0222 -0.1008 0.1575, 0.0278 -0.0699 0.1575, 0.0285 -0.0614 0.1575, 0.0279 -0.052 0.1575, -0.0211 -0.0901 0.1575, -0.0279 -0.088 0.1575, -0.0334 -0.0847 0.1575, -0.0133 -0.1015 0.1575, -0.0021 -0.1004 0.1575, 0.0069 -0.0973 0.1575, -0.0372 -0.0811 0.1575, -0.0405 -0.0762 0.1575, -0.0427 -0.0704 0.1575, -0.0435 -0.0631 0.1575, -0.0423 -0.0527 0.1575, -0.0392 -0.0443 0.1575, 0.0254 -0.0429 0.1575, -0.0505 -0.0513 0.1575, -0.0516 -0.0593 0.1575, -1.9606 -0.0352 0.1575, -0.0521 -0.0624 0.1575, -1.9606 -1.1811 0.1575, -0.0521 -0.0646 0.1575, -0.0512 0.0147 0.1575, -0.0512 -0.0276 0.1575, 0.0276 -0.0276 0.1575, -0.0213 0.0923 0.1575, -0.0296 0.0895 0.1575, -0.0512 0.0992 0.1575, -0.0366 0.085 0.1575, 0.0189 0.0128 0.1575, 0.0189 -0.017 0.1575, -0.007 -0.017 0.1575, 0.0276 0.129 0.1575, 0.0276 0.1395 0.1575, 1.9606 1.1811 0.1575, 0.0276 0.0128 0.1575, -0.0516 1.1811 0.1575, -0.0156 0.0109 0.1575, -0.0156 -0.017 0.1575, -0.0425 -0.017 0.1575, -0.0428 0.0785 0.1575, -0.0476 0.0703 0.1575, -0.0503 0.0612 0.1575, 0.0089 0.0885 0.1575, 0.0013 0.0918 0.1575, -0.0069 0.0933 0.1575, -0.0108 0.0934 0.1575, -0.0425 0.0147 0.1575, -0.0512 0.0301 0.1575, -0.007 0.0109 0.1575, 0.0276 0.0301 0.1575, -0.0512 0.0515 0.1575, 0.0231 0.0729 0.1575, 0.0181 0.0807 0.1575, 0.0152 0.0837 0.1575, 0.0276 0.0523 0.1575, 0.0264 0.0637 0.1575, -0.0512 0.1703 0.1575, -0.0512 0.1587 0.1575, -0.0291 0.1508 0.1575, -0.0291 0.1182 0.1575, -0.0512 0.1107 0.1575, -1.9606 1.1811 0.1575, -1.9606 1.1811 0.1575
            ]
        }
        coordIndex [
            0,1,2,-1,3,4,5,-1,5,4,6,-1,7,8,9,-1,9,8,10,-1,9,10,11,-1,11,10,12,-1,11,12,13,-1,13,12,14,-1,6,15,5,-1,5,15,16,-1,5,16,17,-1,17,18,5,-1,5,18,19,-1,5,19,20,-1,21,22,23,-1,23,22,24,-1,25,10,26,-1,26,10,27,-1,21,28,22,-1,22,28,29,-1,22,29,8,-1,8,29,30,-1,8,30,31,-1,25,32,10,-1,10,32,33,-1,10,33,34,-1,20,35,5,-1,5,35,36,-1,5,36,37,-1,31,38,8,-1,8,38,39,-1,8,39,10,-1,10,39,40,-1,10,40,27,-1,37,41,5,-1,5,41,42,-1,5,42,43,-1,43,44,5,-1,5,44,45,-1,5,45,46,-1,46,0,5,-1,5,0,10,-1,5,10,47,-1,47,10,34,-1,1,48,2,-1,2,48,49,-1,2,49,50,-1,50,49,51,-1,50,51,52,-1,52,51,53,-1,52,53,14,-1,14,53,24,-1,14,24,13,-1,13,24,22,-1,54,55,2,-1,2,55,56,-1,57,58,59,-1,59,58,60,-1,61,62,63,-1,64,65,66,-1,0,2,10,-1,10,2,56,-1,10,56,66,-1,66,56,67,-1,66,67,61,-1,66,65,68,-1,69,70,71,-1,60,72,59,-1,59,72,73,-1,59,73,74,-1,75,76,64,-1,64,76,77,-1,64,77,59,-1,59,77,78,-1,59,78,57,-1,71,79,69,-1,69,79,80,-1,69,80,81,-1,81,80,82,-1,79,54,80,-1,80,54,2,-1,80,2,83,-1,84,85,64,-1,64,85,86,-1,64,86,75,-1,63,81,61,-1,61,81,82,-1,61,82,66,-1,66,82,87,-1,66,87,64,-1,64,87,88,-1,64,88,84,-1,89,90,2,-1,91,92,90,-1,90,92,93,-1,90,93,2,-1,2,93,59,-1,2,59,83,-1,83,59,74,-1,50,94,2,-1,2,94,68,-1,2,68,89,-1,89,68,65,-1,
        ]
    }
}
Shape{
    appearance Appearance {
        material  Material 	{
            diffuseColor 0.9686274509803922 0.8784313725490196 0.6
            specularColor 0.6784313725490196 0.615686274509804 0.4196078431372549
            ambientIntensity 0.2
            transparency 0
            shininess 0.5
        }
    }
    geometry IndexedFaceSet {
        ccw TRUE
        solid FALSE
        coord DEF co Coordinate {
            point [
                0.622 1.8307 0.0, 0.378 1.8307 0.0, 0.622 1.8307 0.0984, 0.378 1.8307 0.0984, 0.8031 1.5078 0.3025, 0.8031 1.4414 0.5898, 0.8031 1.4068 0.3025, 0.8031 1.3455 0.5677, 0.378 1.4486 0.1213, 0.378 1.4537 0.0992, 0.622 1.4537 0.0992, 0.622 1.4486 0.1213, 0.1969 1.4068 0.3025, 0.1969 1.3455 0.5677, 0.1969 1.5078 0.3025, 0.1969 1.4414 0.5898, 0.622 1.5496 0.1213, 0.378 1.5496 0.1213, 0.378 1.5784 -0.0, 0.622 1.5784 -0.0, 0.622 1.55 0.0032, 0.378 1.55 0.0032, 0.622 1.523 0.0126, 0.378 1.523 0.0126, 0.622 1.4987 0.0278, 0.378 1.4987 0.0278, 0.622 1.4785 0.048, 0.378 1.4785 0.048, 0.622 1.4632 0.0722, 0.378 1.4632 0.0722, 0.378 1.5518 0.1151, 0.622 1.5518 0.1151, 0.378 1.5553 0.1095, 0.622 1.5553 0.1095, 0.378 1.56 0.1048, 0.622 1.56 0.1048, 0.378 1.5656 0.1013, 0.622 1.5656 0.1013, 0.378 1.5718 0.0992, 0.622 1.5718 0.0992, 0.378 1.5784 0.0984, 0.622 1.5784 0.0984, 0.622 1.5784 0.0984
            ]
        }
        coordIndex [
            0,1,2,-1,2,1,3,-1,4,5,6,-1,6,5,7,-1,8,9,10,-1,10,11,8,-1,8,11,6,-1,8,6,12,-1,12,6,7,-1,12,7,13,-1,12,13,14,-1,14,13,15,-1,16,17,4,-1,4,17,14,-1,4,14,5,-1,5,14,15,-1,18,19,20,-1,18,20,21,-1,21,20,22,-1,21,22,23,-1,23,22,24,-1,23,24,25,-1,25,24,26,-1,25,26,27,-1,27,26,28,-1,27,28,29,-1,29,28,10,-1,29,10,9,-1,17,16,30,-1,30,16,31,-1,30,31,32,-1,32,31,33,-1,32,33,34,-1,34,33,35,-1,34,35,36,-1,36,35,37,-1,36,37,38,-1,38,37,39,-1,38,39,40,-1,40,39,41,-1,19,18,0,-1,0,18,1,-1,2,3,41,-1,41,3,40,-1,
        ]
    }
}
Shape{
    appearance Appearance {
        material  Material 	{
            diffuseColor 0.10980392156862745 0.10980392156862745 0.10980392156862745
            specularColor 0.0784313725490196 0.0784313725490196 0.0784313725490196
            ambientIntensity 0.2
            transparency 0
            shininess 0.5
        }
    }
    geometry IndexedFaceSet {
        ccw TRUE
        solid FALSE
        coord DEF co Coordinate {
            point [
                1.1969 1.2205 0.6299, 0.8031 1.2205 0.6299, 1.1969 1.2205 0.689, 0.8031 1.2205 0.689, -0.1969 -1.2205 0.6299, 0.1969 -1.2205 0.6299, -0.1969 -1.2205 0.689, 0.1969 -1.2205 0.689, 2.0 1.2205 0.6299, 2.0 1.2205 0.689, 2.0 -1.2205 0.6299, 2.0 -1.2205 0.689, -1.8031 1.2205 0.6299, -2.0 1.2205 0.6299, -1.8031 1.2205 0.689, -2.0 1.2205 0.689, -2.0 -1.2205 0.6299, -2.0 -1.2205 0.689, 1.8031 -1.2205 0.6299, 1.8031 -1.2205 0.689, 1.8031 -1.2205 0.689
            ]
        }
        coordIndex [
            0,1,2,-1,2,1,3,-1,4,5,6,-1,6,5,7,-1,8,9,10,-1,10,9,11,-1,12,13,14,-1,14,13,15,-1,16,17,13,-1,13,17,15,-1,18,10,19,-1,19,10,11,-1,
        ]
    }
}
Shape{
    appearance Appearance {
        material  Material 	{
            diffuseColor 0.25098039215686274 0.25098039215686274 0.25098039215686274
            specularColor 0.17647058823529413 0.17647058823529413 0.17647058823529413
            ambientIntensity 0.2
            transparency 0
            shininess 0.5
        }
    }
    geometry IndexedFaceSet {
        ccw TRUE
        solid FALSE
        coord DEF co Coordinate {
            point [
                -1.9606 -1.1811 1.2795, -1.7638 -1.1811 1.2795, -1.9606 -0.9843 1.2795, -1.7638 -1.1811 1.3976, -0.5023 -1.1811 1.3976, 1.9606 -1.1811 1.2795, 1.9606 -1.1811 1.3976, -1.9606 1.1811 1.3976, -1.9606 1.1811 1.2795, -1.9606 0.7562 1.3976, -1.9606 -0.9843 1.3976, 1.9606 1.1811 1.3976, 1.9606 1.1811 1.2795, -0.5023 1.1811 1.3976, 1.9606 0.7562 1.3976, -2.0 -1.2205 0.689, -1.8031 -1.2205 0.689, -1.1969 -1.2205 0.689, -0.8031 -1.2205 0.689, -0.1969 -1.2205 0.689, 0.1969 -1.2205 0.689, 0.8031 -1.2205 0.689, 1.1969 -1.2205 0.689, 1.8031 -1.2205 0.689, 2.0 -1.2205 0.689, 2.0 1.2205 0.689, -2.0 1.2205 0.689, 1.1969 1.2205 0.689, 1.8031 1.2205 0.689, 0.8031 1.2205 0.689, 0.1969 1.2205 0.689, -0.1969 1.2205 0.689, -0.8031 1.2205 0.689, -1.1969 1.2205 0.689, -1.8031 1.2205 0.689, 1.9606 -1.1811 0.1575, 2.0 -1.2205 0.6299, 1.8031 -1.2205 0.6299, 0.1969 -1.2172 0.5906, 0.1969 -1.2205 0.6299, -0.1969 -1.2205 0.6299, -0.1969 -1.2172 0.5906, -0.8031 -1.2172 0.5906, -1.9606 -1.1811 0.1575, 1.8031 -1.2172 0.5906, 1.1969 -1.2172 0.5906, 0.8031 -1.2172 0.5906, 0.8031 -1.2205 0.6299, 1.1969 -1.2205 0.6299, -1.8031 -1.2205 0.6299, -2.0 -1.2205 0.6299, -1.8031 -1.2172 0.5906, -1.1969 -1.2172 0.5906, -1.1969 -1.2205 0.6299, -0.8031 -1.2205 0.6299, 1.9606 1.1811 0.1575, 2.0 1.2205 0.6299, 1.9606 -0.0352 0.1575, -2.0 1.2205 0.6299, -1.9606 1.1811 0.1575, -1.9606 -0.0352 0.1575, -1.1969 1.2172 0.5906, -1.1969 1.2205 0.6299, -0.8031 1.2205 0.6299, 0.8031 1.2172 0.5906, 0.8031 1.2205 0.6299, 1.1969 1.2205 0.6299, -1.8031 1.2205 0.6299, -0.1969 1.2205 0.6299, 0.1969 1.2205 0.6299, -0.1969 1.2172 0.5906, 0.1969 1.2172 0.5906, 1.8031 1.2205 0.6299, 1.8031 1.2172 0.5906, 1.1969 1.2172 0.5906, -0.8031 1.2172 0.5906, -1.8031 1.2172 0.5906, 0.7362 0.4921 1.2402, 0.7362 -0.4921 1.2402, 0.7362 0.7283 1.3976, 0.7362 -0.7283 1.3976, 0.2638 -0.4921 1.2402, 0.2638 0.4921 1.2402, 0.2638 -0.7283 1.3976, 0.2638 0.7283 1.3976, 0.6969 0.3937 1.2402, 0.3031 0.3937 1.2402, 0.3031 -0.3937 1.2402, 0.6969 -0.3937 1.2402, 0.6969 -0.3937 1.2402
            ]
        }
        coordIndex [
            0,1,2,-1,3,1,4,-1,4,1,5,-1,4,5,6,-1,7,8,9,-1,9,8,2,-1,9,2,10,-1,11,12,13,-1,13,12,8,-1,13,8,7,-1,6,5,14,-1,14,5,12,-1,14,12,11,-1,2,1,10,-1,10,1,3,-1,0,15,1,-1,1,15,16,-1,1,16,17,-1,17,18,1,-1,1,18,19,-1,1,19,5,-1,5,19,20,-1,5,20,21,-1,21,22,5,-1,5,22,23,-1,5,23,24,-1,25,12,24,-1,24,12,5,-1,8,26,2,-1,2,26,15,-1,2,15,0,-1,27,12,28,-1,28,12,25,-1,27,29,12,-1,12,29,30,-1,12,30,8,-1,8,30,31,-1,8,31,32,-1,32,33,8,-1,8,33,34,-1,8,34,26,-1,35,36,37,-1,38,39,40,-1,41,42,43,-1,37,44,35,-1,35,44,45,-1,35,45,43,-1,40,41,38,-1,38,41,43,-1,38,43,46,-1,46,43,45,-1,46,45,47,-1,47,45,48,-1,49,50,51,-1,51,50,43,-1,51,43,52,-1,52,43,42,-1,52,42,53,-1,53,42,54,-1,55,56,57,-1,57,56,36,-1,57,36,35,-1,58,59,50,-1,50,59,60,-1,50,60,43,-1,61,62,63,-1,64,65,66,-1,59,58,67,-1,68,69,70,-1,70,69,71,-1,72,56,73,-1,73,56,55,-1,73,55,74,-1,63,75,61,-1,61,75,59,-1,61,59,76,-1,76,59,67,-1,66,74,64,-1,64,74,55,-1,64,55,71,-1,71,55,59,-1,71,59,70,-1,70,59,75,-1,77,78,79,-1,79,78,80,-1,81,82,83,-1,83,82,84,-1,85,77,86,-1,86,77,82,-1,86,82,87,-1,87,82,81,-1,87,81,88,-1,88,81,78,-1,88,78,85,-1,85,78,77,-1,80,78,83,-1,83,78,81,-1,84,82,79,-1,79,82,77,-1,
        ]
    }
}
Shape{
    appearance Appearance {
        material  Material 	{
            diffuseColor 1.0 1.0 1.0
            specularColor 0.8784313725490196 0.8784313725490196 0.8784313725490196
            ambientIntensity 0.2
            transparency 0
            shininess 0.5
        }
    }
    geometry IndexedFaceSet {
        ccw TRUE
        solid FALSE
        coord DEF co Coordinate {
            point [
                0.6969 0.3937 1.2008, 0.6969 -0.3937 1.2008, 0.6969 0.3937 1.2402, 0.6969 -0.3937 1.2402, 0.3031 -0.3937 1.2008, 0.3031 -0.3937 1.2402, 0.3031 0.3937 1.2008, 0.3031 0.3937 1.2402, 0.3031 0.3937 1.2402
            ]
        }
        coordIndex [
            0,1,2,-1,2,1,3,-1,1,4,3,-1,3,4,5,-1,4,6,5,-1,5,6,7,-1,6,0,7,-1,7,0,2,-1,
        ]
    }
}
Shape{
    appearance Appearance {
        material  Material 	{
            diffuseColor 1.0 1.0 1.0
            specularColor 0.30196078431372547 0.30196078431372547 0.30196078431372547
            ambientIntensity 0.2
            transparency 0
            shininess 0.5
        }
    }
    geometry IndexedFaceSet {
        ccw TRUE
        solid FALSE
        coord DEF co Coordinate {
            point [
                0.3031 0.3937 1.2008, 0.3031 -0.3937 1.2008, 0.6969 0.3937 1.2008, 0.6969 -0.3937 1.2008, 0.6969 -0.3937 1.2008
            ]
        }
        coordIndex [
            0,1,2,-1,2,1,3,-1,
        ]
    }
}
Shape{
    appearance Appearance {
        material  Material 	{
            diffuseColor 0.9686274509803922 0.8784313725490196 0.6
            specularColor 0.6784313725490196 0.615686274509804 0.4196078431372549
            ambientIntensity 0.2
            transparency 0
            shininess 0.5
        }
    }
    geometry IndexedFaceSet {
        ccw TRUE
        solid FALSE
        coord DEF co Coordinate {
            point [
                0.1969 -1.3168 0.689, 0.1969 -1.2205 0.689, 0.1969 -1.3168 0.5906, 0.1969 -1.2205 0.6299, 0.1969 -1.2172 0.5906, 0.8031 -1.2205 0.689, 0.8031 -1.3168 0.689, 0.8031 -1.2205 0.6299, 0.8031 -1.3168 0.5906, 0.8031 -1.2172 0.5906, 0.378 -1.8307 0.0984, 0.378 -1.8307 0.0, 0.622 -1.8307 0.0984, 0.622 -1.8307 0.0, 0.1969 -1.3455 0.5677, 0.1969 -1.4414 0.5898, 0.1969 -1.3434 0.5739, 0.1969 -1.4319 0.6168, 0.1969 -1.3398 0.5795, 0.1969 -1.4167 0.641, 0.1969 -1.3352 0.5841, 0.1969 -1.3964 0.6612, 0.1969 -1.3296 0.5876, 0.1969 -1.3722 0.6764, 0.1969 -1.3233 0.5898, 0.1969 -1.3452 0.6858, 0.8031 -1.3233 0.5898, 0.8031 -1.3296 0.5876, 0.8031 -1.3352 0.5841, 0.8031 -1.3398 0.5795, 0.8031 -1.3434 0.5739, 0.8031 -1.3455 0.5677, 0.8031 -1.3452 0.6858, 0.8031 -1.3722 0.6764, 0.8031 -1.3964 0.6612, 0.8031 -1.4167 0.641, 0.8031 -1.4319 0.6168, 0.8031 -1.4414 0.5898, 0.1969 -1.5078 0.3025, 0.1969 -1.4068 0.3025, 0.622 -1.4537 0.0992, 0.378 -1.4537 0.0992, 0.622 -1.4486 0.1213, 0.378 -1.4486 0.1213, 0.8031 -1.4068 0.3025, 0.8031 -1.5078 0.3025, 0.378 -1.5496 0.1213, 0.622 -1.5496 0.1213, 0.622 -1.5784 -0.0, 0.378 -1.5784 -0.0, 0.378 -1.55 0.0032, 0.622 -1.55 0.0032, 0.378 -1.523 0.0126, 0.622 -1.523 0.0126, 0.378 -1.4987 0.0278, 0.622 -1.4987 0.0278, 0.378 -1.4785 0.048, 0.622 -1.4785 0.048, 0.378 -1.4632 0.0722, 0.622 -1.4632 0.0722, 0.622 -1.5518 0.1151, 0.378 -1.5518 0.1151, 0.622 -1.5553 0.1095, 0.378 -1.5553 0.1095, 0.622 -1.56 0.1048, 0.378 -1.56 0.1048, 0.622 -1.5656 0.1013, 0.378 -1.5656 0.1013, 0.622 -1.5718 0.0992, 0.378 -1.5718 0.0992, 0.622 -1.5784 0.0984, 0.378 -1.5784 0.0984, 0.8031 1.3168 0.689, 0.8031 1.2205 0.689, 0.8031 1.3168 0.5906, 0.8031 1.2205 0.6299, 0.8031 1.2172 0.5906, 0.1969 1.2205 0.689, 0.1969 1.3168 0.689, 0.1969 1.2205 0.6299, 0.1969 1.3168 0.5906, 0.1969 1.2172 0.5906, 0.8031 1.3455 0.5677, 0.8031 1.4414 0.5898, 0.8031 1.3434 0.5739, 0.8031 1.4319 0.6168, 0.8031 1.3398 0.5795, 0.8031 1.4167 0.641, 0.8031 1.3352 0.5841, 0.8031 1.3964 0.6612, 0.8031 1.3296 0.5876, 0.8031 1.3722 0.6764, 0.8031 1.3233 0.5898, 0.8031 1.3452 0.6858, 0.1969 1.3233 0.5898, 0.1969 1.3296 0.5876, 0.1969 1.3352 0.5841, 0.1969 1.3398 0.5795, 0.1969 1.3434 0.5739, 0.1969 1.3455 0.5677, 0.1969 1.3452 0.6858, 0.1969 1.3722 0.6764, 0.1969 1.3964 0.6612, 0.1969 1.4167 0.641, 0.1969 1.4319 0.6168, 0.1969 1.4414 0.5898, 0.378 1.4486 0.1213, 0.378 1.5496 0.1213, 0.378 1.4537 0.0992, 0.378 1.5518 0.1151, 0.378 1.8307 0.0984, 0.378 1.8307 0.0, 0.378 1.5784 0.0984, 0.378 1.5784 -0.0, 0.378 1.5718 0.0992, 0.378 1.55 0.0032, 0.378 1.5656 0.1013, 0.378 1.523 0.0126, 0.378 1.56 0.1048, 0.378 1.4987 0.0278, 0.378 1.5553 0.1095, 0.378 1.4785 0.048, 0.378 1.4632 0.0722, 0.1969 1.4068 0.3025, 0.1969 1.5078 0.3025, 0.622 1.5496 0.1213, 0.8031 1.5078 0.3025, 0.622 1.4486 0.1213, 0.8031 1.4068 0.3025, 0.622 1.8307 0.0, 0.622 1.8307 0.0984, 0.622 1.5784 -0.0, 0.622 1.5784 0.0984, 0.622 1.55 0.0032, 0.622 1.5718 0.0992, 0.622 1.523 0.0126, 0.622 1.5656 0.1013, 0.622 1.4987 0.0278, 0.622 1.56 0.1048, 0.622 1.4785 0.048, 0.622 1.5553 0.1095, 0.622 1.4632 0.0722, 0.622 1.5518 0.1151, 0.622 1.4537 0.0992, 0.622 1.4537 0.0992
            ]
        }
        coordIndex [
            0,1,2,-1,2,1,3,-1,2,3,4,-1,5,6,7,-1,7,6,8,-1,7,8,9,-1,10,11,12,-1,12,11,13,-1,9,8,4,-1,4,8,2,-1,1,0,5,-1,5,0,6,-1,14,15,16,-1,16,15,17,-1,16,17,18,-1,18,17,19,-1,18,19,20,-1,20,19,21,-1,20,21,22,-1,22,21,23,-1,22,23,24,-1,24,23,25,-1,24,25,2,-1,2,25,0,-1,2,8,24,-1,24,8,26,-1,24,26,22,-1,22,26,27,-1,22,27,20,-1,20,27,28,-1,20,28,18,-1,18,28,29,-1,18,29,16,-1,16,29,30,-1,16,30,14,-1,14,30,31,-1,8,6,26,-1,26,6,32,-1,26,32,27,-1,27,32,33,-1,27,33,28,-1,28,33,34,-1,28,34,29,-1,29,34,35,-1,29,35,30,-1,30,35,36,-1,30,36,31,-1,31,36,37,-1,15,37,36,-1,15,36,17,-1,17,36,35,-1,17,35,19,-1,19,35,34,-1,19,34,21,-1,21,34,33,-1,21,33,23,-1,23,33,32,-1,23,32,25,-1,25,32,6,-1,25,6,0,-1,15,14,38,-1,38,14,39,-1,40,41,42,-1,42,41,43,-1,42,43,44,-1,44,43,39,-1,44,39,31,-1,31,39,14,-1,31,37,44,-1,44,37,45,-1,46,47,38,-1,38,47,45,-1,38,45,15,-1,15,45,37,-1,48,49,50,-1,48,50,51,-1,51,50,52,-1,51,52,53,-1,53,52,54,-1,53,54,55,-1,55,54,56,-1,55,56,57,-1,57,56,58,-1,57,58,59,-1,59,58,41,-1,59,41,40,-1,47,46,60,-1,60,46,61,-1,60,61,62,-1,62,61,63,-1,62,63,64,-1,64,63,65,-1,64,65,66,-1,66,65,67,-1,66,67,68,-1,68,67,69,-1,68,69,70,-1,70,69,71,-1,11,49,13,-1,13,49,48,-1,71,10,70,-1,70,10,12,-1,11,10,49,-1,49,10,71,-1,49,71,50,-1,50,71,69,-1,50,69,52,-1,52,69,67,-1,52,67,54,-1,54,67,65,-1,54,65,56,-1,56,65,63,-1,56,63,58,-1,58,63,61,-1,58,61,41,-1,41,61,46,-1,41,46,43,-1,43,46,39,-1,39,46,38,-1,42,47,40,-1,40,47,60,-1,12,13,70,-1,70,13,48,-1,70,48,68,-1,68,48,51,-1,68,51,66,-1,66,51,53,-1,66,53,64,-1,64,53,55,-1,64,55,62,-1,62,55,57,-1,62,57,60,-1,60,57,59,-1,60,59,40,-1,47,42,45,-1,45,42,44,-1,72,73,74,-1,74,73,75,-1,74,75,76,-1,77,78,79,-1,79,78,80,-1,79,80,81,-1,81,80,76,-1,76,80,74,-1,73,72,77,-1,77,72,78,-1,82,83,84,-1,84,83,85,-1,84,85,86,-1,86,85,87,-1,86,87,88,-1,88,87,89,-1,88,89,90,-1,90,89,91,-1,90,91,92,-1,92,91,93,-1,92,93,74,-1,74,93,72,-1,74,80,92,-1,92,80,94,-1,92,94,90,-1,90,94,95,-1,90,95,88,-1,88,95,96,-1,88,96,86,-1,86,96,97,-1,86,97,84,-1,84,97,98,-1,84,98,82,-1,82,98,99,-1,80,78,94,-1,94,78,100,-1,94,100,95,-1,95,100,101,-1,95,101,96,-1,96,101,102,-1,96,102,97,-1,97,102,103,-1,97,103,98,-1,98,103,104,-1,98,104,99,-1,99,104,105,-1,83,105,104,-1,83,104,85,-1,85,104,103,-1,85,103,87,-1,87,103,102,-1,87,102,89,-1,89,102,101,-1,89,101,91,-1,91,101,100,-1,91,100,93,-1,93,100,78,-1,93,78,72,-1,106,107,108,-1,108,107,109,-1,110,111,112,-1,112,111,113,-1,112,113,114,-1,114,113,115,-1,114,115,116,-1,116,115,117,-1,116,117,118,-1,118,117,119,-1,118,119,120,-1,120,119,121,-1,120,121,109,-1,109,121,122,-1,109,122,108,-1,106,123,107,-1,107,123,124,-1,125,126,127,-1,127,126,128,-1,129,130,131,-1,131,130,132,-1,131,132,133,-1,133,132,134,-1,133,134,135,-1,135,134,136,-1,135,136,137,-1,137,136,138,-1,137,138,139,-1,139,138,140,-1,139,140,141,-1,141,140,142,-1,141,142,143,-1,143,142,125,-1,143,125,127,-1,
        ]
    }
}
Shape{
    appearance Appearance {
        material  Material 	{
            diffuseColor 1.0 1.0 1.0
            specularColor 0.8784313725490196 0.8784313725490196 0.8784313725490196
            ambientIntensity 0.2
            transparency 0
            shininess 0.5
        }
    }
    geometry IndexedFaceSet {
        ccw TRUE
        solid FALSE
        coord DEF co Coordinate {
            point [
                -1.5141 0.9491 1.3937, -1.5141 0.9491 1.3976, -1.5174 0.9916 1.3976, -1.5174 0.9916 1.3937, -1.5294 1.0342 1.3976, -1.5294 1.0342 1.3937, -1.5432 1.0598 1.3976, -1.5432 1.0598 1.3937, -1.5623 1.082 1.3976, -1.5623 1.082 1.3937, -1.5812 1.0954 1.3976, -1.5812 1.0954 1.3937, -1.6016 1.1034 1.3976, -1.6016 1.1034 1.3937, -1.6284 1.1067 1.3976, -1.6284 1.1067 1.3937, -1.6324 0.7841 1.3937, -1.6324 0.7841 1.3976, -1.6103 0.7861 1.3976, -1.6103 0.7861 1.3937, -1.587 0.7937 1.3976, -1.587 0.7937 1.3937, -1.5674 0.8061 1.3976, -1.5674 0.8061 1.3937, -1.5493 0.8247 1.3976, -1.5493 0.8247 1.3937, -1.5306 0.8566 1.3976, -1.5306 0.8566 1.3937, -1.5188 0.8961 1.3976, -1.5188 0.8961 1.3937, -1.7484 0.9417 1.3937, -1.7484 0.9417 1.3976, -1.743 0.8883 1.3976, -1.743 0.8883 1.3937, -1.7292 0.8483 1.3976, -1.7292 0.8483 1.3937, -1.7203 0.8329 1.3976, -1.7203 0.8329 1.3937, -1.7011 0.8101 1.3976, -1.7011 0.8101 1.3937, -1.6827 0.7966 1.3976, -1.6827 0.7966 1.3937, -1.6625 0.7882 1.3976, -1.6625 0.7882 1.3937, -1.6531 1.1042 1.3976, -1.6531 1.1042 1.3937, -1.6758 1.0966 1.3976, -1.6758 1.0966 1.3937, -1.695 1.0844 1.3976, -1.695 1.0844 1.3937, -1.7132 1.0658 1.3976, -1.7132 1.0658 1.3937, -1.7319 1.034 1.3976, -1.7319 1.034 1.3937, -1.7438 0.9943 1.3976, -1.7438 0.9943 1.3937, -1.7138 0.9451 1.3937, -1.7098 0.9009 1.3937, -1.6996 0.8684 1.3937, -1.6896 0.8507 1.3937, -1.6766 0.8357 1.3937, -1.6629 0.826 1.3937, -1.649 0.8207 1.3937, -1.6323 0.8187 1.3937, -1.6139 0.8207 1.3937, -1.5991 0.8261 1.3937, -1.5861 0.8347 1.3937, -1.5746 0.8467 1.3937, -1.5624 0.8672 1.3937, -1.5525 0.8997 1.3937, -1.5487 0.9445 1.3937, -1.5525 0.991 1.3937, -1.5622 1.0234 1.3937, -1.5703 1.0385 1.3937, -1.5823 1.0533 1.3937, -1.5961 1.0637 1.3937, -1.6114 1.0698 1.3937, -1.6302 1.0722 1.3937, -1.6474 1.0701 1.3937, -1.6615 1.0648 1.3937, -1.6747 1.0557 1.3937, -1.6885 1.0403 1.3937, -1.7017 1.016 1.3937, -1.7113 0.9804 1.3937, -1.5487 0.9445 1.3976, -1.5525 0.8997 1.3976, -1.5624 0.8672 1.3976, -1.5746 0.8467 1.3976, -1.5861 0.8347 1.3976, -1.5991 0.8261 1.3976, -1.6139 0.8207 1.3976, -1.6323 0.8187 1.3976, -1.6302 1.0722 1.3976, -1.6114 1.0698 1.3976, -1.5961 1.0637 1.3976, -1.5823 1.0533 1.3976, -1.5703 1.0385 1.3976, -1.5622 1.0234 1.3976, -1.5525 0.991 1.3976, -1.7138 0.9451 1.3976, -1.7113 0.9804 1.3976, -1.7017 1.016 1.3976, -1.6885 1.0403 1.3976, -1.6747 1.0557 1.3976, -1.6615 1.0648 1.3976, -1.6474 1.0701 1.3976, -1.649 0.8207 1.3976, -1.6629 0.826 1.3976, -1.6766 0.8357 1.3976, -1.6896 0.8507 1.3976, -1.6996 0.8684 1.3976, -1.7098 0.9009 1.3976, -1.4289 1.0324 1.3937, -1.4289 1.0324 1.3976, -1.3052 0.7879 1.3937, -1.3052 0.7879 1.3976, -1.4373 1.053 1.3937, -1.4373 1.053 1.3976, -1.4335 1.0425 1.3976, -1.4335 1.0425 1.3937, -1.4383 1.053 1.3937, -1.4383 1.053 1.3976, -1.4373 1.0089 1.3937, -1.4373 1.0089 1.3976, -1.4374 1.0309 1.3976, -1.4374 1.0309 1.3937, -1.4373 0.7879 1.3937, -1.4373 0.7879 1.3976, -1.468 0.7879 1.3937, -1.468 0.7879 1.3976, -1.468 1.1029 1.3937, -1.468 1.1029 1.3976, -1.4296 1.1029 1.3937, -1.4296 1.1029 1.3976, -1.3083 0.8634 1.3937, -1.3083 0.8634 1.3976, -1.2981 0.8417 1.3937, -1.2981 0.8417 1.3976, -1.3029 0.8527 1.3976, -1.3029 0.8527 1.3937, -1.2974 0.8417 1.3937, -1.2974 0.8417 1.3976, -1.299 0.8874 1.3937, -1.299 0.8874 1.3976, -1.2988 0.8645 1.3976, -1.2988 0.8645 1.3937, -1.299 1.1029 1.3937, -1.299 1.1029 1.3976, -1.2683 1.1029 1.3937, -1.2683 1.1029 1.3976, -1.2683 0.7879 1.3937, -1.2683 0.7879 1.3976, -1.5352 -0.9088 1.3937, -1.5352 -0.9088 1.3976, -1.5308 -0.9076 1.3976, -1.5308 -0.9076 1.3937, -1.5023 -0.8956 1.3976, -1.5023 -0.8956 1.3937, -1.4805 -0.881 1.3976, -1.4805 -0.881 1.3937, -1.5352 -0.88 1.3937, -1.5352 -0.88 1.3976, -1.4629 -0.8425 1.3937, -1.4629 -0.8425 1.3976, -1.4973 -0.8647 1.3976, -1.4973 -0.8647 1.3937, -1.4517 -0.8425 1.3937, -1.4517 -0.8425 1.3976, -1.4517 -1.0816 1.3937, -1.4517 -1.0816 1.3976, -1.4805 -1.0816 1.3937, -1.4805 -1.0816 1.3976, -1.4805 -1.0816 1.3976
            ]
        }
        coordIndex [
            0,1,2,-1,0,2,3,-1,3,2,4,-1,3,4,5,-1,5,4,6,-1,5,6,7,-1,7,6,8,-1,7,8,9,-1,9,8,10,-1,9,10,11,-1,11,10,12,-1,11,12,13,-1,13,12,14,-1,13,14,15,-1,16,17,18,-1,16,18,19,-1,19,18,20,-1,19,20,21,-1,21,20,22,-1,21,22,23,-1,23,22,24,-1,23,24,25,-1,25,24,26,-1,25,26,27,-1,27,26,28,-1,27,28,29,-1,29,28,1,-1,29,1,0,-1,30,31,32,-1,30,32,33,-1,33,32,34,-1,33,34,35,-1,35,34,36,-1,35,36,37,-1,37,36,38,-1,37,38,39,-1,39,38,40,-1,39,40,41,-1,41,40,42,-1,41,42,43,-1,43,42,17,-1,43,17,16,-1,15,14,44,-1,15,44,45,-1,45,44,46,-1,45,46,47,-1,47,46,48,-1,47,48,49,-1,49,48,50,-1,49,50,51,-1,51,50,52,-1,51,52,53,-1,53,52,54,-1,53,54,55,-1,55,54,31,-1,55,31,30,-1,56,30,57,-1,57,30,33,-1,57,33,58,-1,58,33,35,-1,58,35,59,-1,59,35,37,-1,59,37,60,-1,60,37,39,-1,60,39,61,-1,61,39,41,-1,61,41,62,-1,62,41,43,-1,62,43,63,-1,63,43,16,-1,63,16,64,-1,64,16,19,-1,64,19,65,-1,65,19,21,-1,65,21,66,-1,66,21,23,-1,66,23,67,-1,67,23,25,-1,67,25,68,-1,68,25,27,-1,68,27,69,-1,69,27,29,-1,69,29,70,-1,70,29,0,-1,70,0,71,-1,71,0,3,-1,71,3,72,-1,72,3,5,-1,72,5,73,-1,73,5,7,-1,73,7,74,-1,74,7,9,-1,74,9,75,-1,75,9,11,-1,75,11,76,-1,76,11,13,-1,76,13,77,-1,77,13,15,-1,77,15,78,-1,78,15,45,-1,78,45,79,-1,79,45,47,-1,79,47,80,-1,80,47,49,-1,80,49,81,-1,81,49,51,-1,81,51,82,-1,82,51,53,-1,82,53,83,-1,83,53,55,-1,83,55,56,-1,56,55,30,-1,70,84,85,-1,70,85,69,-1,69,85,86,-1,69,86,68,-1,68,86,87,-1,68,87,67,-1,67,87,88,-1,67,88,66,-1,66,88,89,-1,66,89,65,-1,65,89,90,-1,65,90,64,-1,64,90,91,-1,64,91,63,-1,77,92,93,-1,77,93,76,-1,76,93,94,-1,76,94,75,-1,75,94,95,-1,75,95,74,-1,74,95,96,-1,74,96,73,-1,73,96,97,-1,73,97,72,-1,72,97,98,-1,72,98,71,-1,71,98,84,-1,71,84,70,-1,56,99,100,-1,56,100,83,-1,83,100,101,-1,83,101,82,-1,82,101,102,-1,82,102,81,-1,81,102,103,-1,81,103,80,-1,80,103,104,-1,80,104,79,-1,79,104,105,-1,79,105,78,-1,78,105,92,-1,78,92,77,-1,63,91,106,-1,63,106,62,-1,62,106,107,-1,62,107,61,-1,61,107,108,-1,61,108,60,-1,60,108,109,-1,60,109,59,-1,59,109,110,-1,59,110,58,-1,58,110,111,-1,58,111,57,-1,57,111,99,-1,57,99,56,-1,112,113,114,-1,114,113,115,-1,116,117,118,-1,116,118,119,-1,119,118,113,-1,119,113,112,-1,120,121,116,-1,116,121,117,-1,122,123,124,-1,122,124,125,-1,125,124,121,-1,125,121,120,-1,126,127,122,-1,122,127,123,-1,128,129,126,-1,126,129,127,-1,130,131,128,-1,128,131,129,-1,132,133,130,-1,130,133,131,-1,134,135,132,-1,132,135,133,-1,136,137,138,-1,136,138,139,-1,139,138,135,-1,139,135,134,-1,140,141,136,-1,136,141,137,-1,142,143,144,-1,142,144,145,-1,145,144,141,-1,145,141,140,-1,146,147,142,-1,142,147,143,-1,148,149,146,-1,146,149,147,-1,150,151,148,-1,148,151,149,-1,150,114,151,-1,151,114,115,-1,150,148,142,-1,142,148,146,-1,128,126,130,-1,130,126,122,-1,122,125,130,-1,130,125,120,-1,130,120,132,-1,132,120,116,-1,142,145,150,-1,150,145,140,-1,150,140,114,-1,114,140,136,-1,136,139,114,-1,114,139,134,-1,114,134,112,-1,112,134,132,-1,112,132,119,-1,119,132,116,-1,152,153,154,-1,152,154,155,-1,155,154,156,-1,155,156,157,-1,157,156,158,-1,157,158,159,-1,160,161,152,-1,152,161,153,-1,162,163,164,-1,162,164,165,-1,165,164,161,-1,165,161,160,-1,166,167,162,-1,162,167,163,-1,168,169,166,-1,166,169,167,-1,170,171,168,-1,168,171,169,-1,170,159,171,-1,171,159,158,-1,170,168,159,-1,159,168,166,-1,166,162,159,-1,159,162,165,-1,159,165,157,-1,157,165,160,-1,157,160,155,-1,155,160,152,-1,
        ]
    }
}
Shape{
    appearance Appearance {
        material  Material 	{
            diffuseColor 0.10980392156862745 0.10980392156862745 0.10980392156862745
            specularColor 0.0784313725490196 0.0784313725490196 0.0784313725490196
            ambientIntensity 0.2
            transparency 0
            shininess 0.5
        }
    }
    geometry IndexedFaceSet {
        ccw TRUE
        solid FALSE
        coord DEF co Coordinate {
            point [
                -1.6996 0.8684 1.3976, -1.6896 0.8507 1.3976, -1.5487 0.9445 1.3976, -1.7098 0.9009 1.3976, -1.5525 0.991 1.3976, -1.7113 0.9804 1.3976, -1.7138 0.9451 1.3976, -1.5622 1.0234 1.3976, -1.5703 1.0385 1.3976, -1.7017 1.016 1.3976, -1.6885 1.0403 1.3976, -1.5991 0.8261 1.3976, -1.5861 0.8347 1.3976, -1.5746 0.8467 1.3976, -1.5624 0.8672 1.3976, -1.5525 0.8997 1.3976, -1.6474 1.0701 1.3976, -1.5823 1.0533 1.3976, -1.6615 1.0648 1.3976, -1.6747 1.0557 1.3976, -1.6629 0.826 1.3976, -1.649 0.8207 1.3976, -1.6766 0.8357 1.3976, -1.6323 0.8187 1.3976, -1.6139 0.8207 1.3976, -1.5961 1.0637 1.3976, -1.6114 1.0698 1.3976, -1.6302 1.0722 1.3976, -1.6302 1.0722 1.3976
            ]
        }
        coordIndex [
            0,1,2,-1,0,2,3,-1,4,5,2,-1,2,5,6,-1,2,6,3,-1,4,7,5,-1,5,7,8,-1,5,8,9,-1,9,8,10,-1,11,12,1,-1,1,12,13,-1,13,14,1,-1,1,14,15,-1,1,15,2,-1,16,8,17,-1,16,18,8,-1,8,18,19,-1,8,19,10,-1,20,21,22,-1,22,21,23,-1,22,23,1,-1,1,23,24,-1,1,24,11,-1,25,26,17,-1,17,26,27,-1,17,27,16,-1,
        ]
    }
}
Shape{
    appearance Appearance {
        material  Material 	{
            diffuseColor 1.0 1.0 1.0
            specularColor 0.8784313725490196 0.8784313725490196 0.8784313725490196
            ambientIntensity 0.2
            transparency 0
            shininess 0.5
        }
    }
    geometry IndexedFaceSet {
        ccw TRUE
        solid FALSE
        coord DEF co Coordinate {
            point [
                -0.0204 0.1209 0.1614, -0.0291 0.1182 0.1614, -0.0204 0.1472 0.1614, -0.0291 0.1508 0.1614, 0.0125 0.1326 0.1614, 0.0276 0.129 0.1614, -0.0512 0.0992 0.1614, -0.0512 0.1107 0.1614, 0.0152 0.1334 0.1614, 0.018 0.1339 0.1614, 0.0276 0.1395 0.1614, 0.018 0.1342 0.1614, 0.0152 0.1347 0.1614, 0.0125 0.1354 0.1614, -0.0512 0.1703 0.1614, -0.0512 0.1587 0.1614, -0.0291 0.1508 0.1575, -0.0512 0.1587 0.1575, -0.0291 0.1182 0.1575, -0.0512 0.1107 0.1575, -0.0512 0.0992 0.1575, 0.0276 0.129 0.1575, 0.0276 0.1395 0.1575, -0.0512 0.1703 0.1575, 0.0125 0.1354 0.1575, 0.0152 0.1347 0.1575, 0.018 0.1342 0.1575, 0.018 0.1339 0.1575, 0.0152 0.1334 0.1575, 0.0125 0.1326 0.1575, -0.0204 0.1209 0.1575, -0.0204 0.1472 0.1575, 0.0276 0.0523 0.1614, 0.0276 0.0523 0.1575, 0.0276 0.0301 0.1614, 0.0276 0.0301 0.1575, 0.0264 0.0637 0.1614, 0.0264 0.0637 0.1575, 0.0231 0.0729 0.1614, 0.0231 0.0729 0.1575, 0.0181 0.0807 0.1614, 0.0181 0.0807 0.1575, 0.0152 0.0837 0.1614, 0.0152 0.0837 0.1575, 0.0089 0.0885 0.1614, 0.0089 0.0885 0.1575, 0.0013 0.0918 0.1614, 0.0013 0.0918 0.1575, -0.0069 0.0933 0.1614, -0.0069 0.0933 0.1575, -0.0108 0.0934 0.1614, -0.0108 0.0934 0.1575, -0.0213 0.0923 0.1614, -0.0213 0.0923 0.1575, -0.0296 0.0895 0.1614, -0.0296 0.0895 0.1575, -0.0366 0.085 0.1614, -0.0366 0.085 0.1575, -0.0428 0.0785 0.1614, -0.0428 0.0785 0.1575, -0.0476 0.0703 0.1614, -0.0476 0.0703 0.1575, -0.0503 0.0612 0.1614, -0.0503 0.0612 0.1575, -0.0512 0.0515 0.1614, -0.0512 0.0515 0.1575, -0.0512 0.0301 0.1614, -0.0512 0.0301 0.1575, -0.011 0.0829 0.1614, -0.0032 0.0822 0.1614, 0.003 0.0804 0.1614, 0.0079 0.0777 0.1614, 0.0119 0.0738 0.1614, 0.0157 0.0681 0.1614, 0.0179 0.0616 0.1614, 0.0189 0.0522 0.1614, 0.0189 0.0406 0.1614, -0.0425 0.0406 0.1614, -0.0425 0.0518 0.1614, -0.0417 0.0601 0.1614, -0.0397 0.0667 0.1614, -0.0365 0.072 0.1614, -0.0322 0.0764 0.1614, -0.0268 0.0798 0.1614, -0.0206 0.0819 0.1614, -0.0425 0.0518 0.1575, -0.0425 0.0406 0.1575, -0.0417 0.0601 0.1575, -0.0397 0.0667 0.1575, -0.0365 0.072 0.1575, -0.0322 0.0764 0.1575, -0.0268 0.0798 0.1575, -0.0206 0.0819 0.1575, -0.011 0.0829 0.1575, -0.0032 0.0822 0.1575, 0.003 0.0804 0.1575, 0.0079 0.0777 0.1575, 0.0119 0.0738 0.1575, 0.0157 0.0681 0.1575, 0.0179 0.0616 0.1575, 0.0189 0.0522 0.1575, 0.0189 0.0406 0.1575, 0.0276 -0.0276 0.1614, 0.0276 -0.0276 0.1575, -0.0512 -0.0276 0.1614, -0.0512 -0.0276 0.1575, 0.0276 0.0128 0.1614, 0.0276 0.0128 0.1575, 0.0189 0.0128 0.1614, 0.0189 0.0128 0.1575, 0.0189 -0.017 0.1614, 0.0189 -0.017 0.1575, -0.007 -0.017 0.1614, -0.007 -0.017 0.1575, -0.007 0.0109 0.1614, -0.007 0.0109 0.1575, -0.0156 0.0109 0.1614, -0.0156 0.0109 0.1575, -0.0156 -0.017 0.1614, -0.0156 -0.017 0.1575, -0.0425 -0.017 0.1614, -0.0425 -0.017 0.1575, -0.0425 0.0147 0.1614, -0.0425 0.0147 0.1575, -0.0512 0.0147 0.1614, -0.0512 0.0147 0.1575, -0.0516 -0.0692 0.1575, -0.0521 -0.0646 0.1575, -0.0521 -0.0646 0.1614, -0.0511 -0.0743 0.1575, -0.0511 -0.0743 0.1614, -0.0485 -0.082 0.1614, -0.0485 -0.082 0.1575, -0.0443 -0.0884 0.1614, -0.0443 -0.0884 0.1575, -0.0381 -0.0943 0.1614, -0.0381 -0.0943 0.1575, -0.0306 -0.0984 0.1614, -0.0306 -0.0984 0.1575, -0.0222 -0.1008 0.1614, -0.0222 -0.1008 0.1575, -0.0133 -0.1015 0.1614, -0.0133 -0.1015 0.1575, -0.0021 -0.1004 0.1614, -0.0021 -0.1004 0.1575, 0.0069 -0.0973 0.1614, 0.0069 -0.0973 0.1575, 0.0142 -0.0927 0.1614, 0.0142 -0.0927 0.1575, 0.0209 -0.0859 0.1614, 0.0209 -0.0859 0.1575, 0.0252 -0.0785 0.1614, 0.0252 -0.0785 0.1575, 0.0278 -0.0699 0.1614, 0.0278 -0.0699 0.1575, 0.0285 -0.0614 0.1614, 0.0285 -0.0614 0.1575, 0.0279 -0.052 0.1614, 0.0279 -0.052 0.1575, 0.0254 -0.0429 0.1614, 0.0254 -0.0429 0.1575, 0.0149 -0.0429 0.1614, 0.0149 -0.0429 0.1575, 0.0187 -0.0518 0.1614, 0.0187 -0.0518 0.1575, 0.0199 -0.0614 0.1614, 0.0199 -0.0614 0.1575, 0.019 -0.0691 0.1614, 0.019 -0.0691 0.1575, 0.0169 -0.075 0.1614, 0.0169 -0.075 0.1575, 0.0132 -0.0806 0.1614, 0.0132 -0.0806 0.1575, 0.0079 -0.0853 0.1614, 0.0079 -0.0853 0.1575, 0.0018 -0.0885 0.1614, 0.0018 -0.0885 0.1575, -0.0067 -0.0906 0.1614, -0.0067 -0.0906 0.1575, -0.0126 -0.0909 0.1614, -0.0126 -0.0909 0.1575, -0.0211 -0.0901 0.1614, -0.0211 -0.0901 0.1575, -0.0279 -0.088 0.1614, -0.0279 -0.088 0.1575, -0.0334 -0.0847 0.1614, -0.0334 -0.0847 0.1575, -0.0372 -0.0811 0.1614, -0.0372 -0.0811 0.1575, -0.0405 -0.0762 0.1614, -0.0405 -0.0762 0.1575, -0.0427 -0.0704 0.1614, -0.0427 -0.0704 0.1575, -0.0435 -0.0631 0.1614, -0.0435 -0.0631 0.1575, -0.0423 -0.0527 0.1614, -0.0423 -0.0527 0.1575, -0.0392 -0.0443 0.1614, -0.0392 -0.0443 0.1575, -0.0384 -0.0429 0.1614, -0.0384 -0.0429 0.1575, -0.0471 -0.0429 0.1614, -0.0471 -0.0429 0.1575, -0.0505 -0.0513 0.1575, -0.0505 -0.0513 0.1614, -0.0516 -0.0593 0.1575, -0.0521 -0.0624 0.1614, -0.0521 -0.0624 0.1575, 0.0276 -0.1485 0.1614, 0.0276 -0.1485 0.1575, -0.0512 -0.1485 0.1614, -0.0512 -0.1485 0.1575, 0.0276 -0.138 0.1614, 0.0276 -0.138 0.1575, -0.0425 -0.138 0.1614, -0.0425 -0.138 0.1575, -0.0425 -0.1082 0.1614, -0.0425 -0.1082 0.1575, -0.0512 -0.1082 0.1614, -0.0512 -0.1082 0.1575, -0.0512 -0.1082 0.1575
            ]
        }
        coordIndex [
            0,1,2,-1,2,1,3,-1,4,5,0,-1,0,5,6,-1,0,6,1,-1,1,6,7,-1,4,8,5,-1,5,8,9,-1,5,9,10,-1,10,9,11,-1,10,11,12,-1,12,13,10,-1,10,13,2,-1,10,2,14,-1,14,2,3,-1,14,3,15,-1,3,16,15,-1,15,16,17,-1,1,18,3,-1,3,18,16,-1,7,19,1,-1,1,19,18,-1,6,20,7,-1,7,20,19,-1,5,21,6,-1,6,21,20,-1,10,22,5,-1,5,22,21,-1,14,23,10,-1,10,23,22,-1,14,15,23,-1,23,15,17,-1,24,13,12,-1,24,12,25,-1,25,12,11,-1,25,11,26,-1,9,27,11,-1,11,27,26,-1,27,9,8,-1,27,8,28,-1,28,8,4,-1,28,4,29,-1,0,30,4,-1,4,30,29,-1,2,31,0,-1,0,31,30,-1,24,31,13,-1,13,31,2,-1,32,33,34,-1,34,33,35,-1,33,32,36,-1,33,36,37,-1,37,36,38,-1,37,38,39,-1,39,38,40,-1,39,40,41,-1,41,40,42,-1,41,42,43,-1,43,42,44,-1,43,44,45,-1,45,44,46,-1,45,46,47,-1,47,46,48,-1,47,48,49,-1,49,48,50,-1,49,50,51,-1,51,50,52,-1,51,52,53,-1,53,52,54,-1,53,54,55,-1,55,54,56,-1,55,56,57,-1,57,56,58,-1,57,58,59,-1,59,58,60,-1,59,60,61,-1,61,60,62,-1,61,62,63,-1,63,62,64,-1,63,64,65,-1,66,67,64,-1,64,67,65,-1,66,34,67,-1,67,34,35,-1,52,50,68,-1,68,50,48,-1,68,48,69,-1,69,48,46,-1,69,46,70,-1,70,46,44,-1,70,44,71,-1,71,44,42,-1,71,42,72,-1,72,42,40,-1,72,40,73,-1,73,40,38,-1,73,38,74,-1,74,38,36,-1,74,36,75,-1,75,36,32,-1,75,32,76,-1,76,32,34,-1,76,34,77,-1,77,34,66,-1,77,66,78,-1,78,66,64,-1,78,64,79,-1,79,64,62,-1,79,62,80,-1,80,62,60,-1,80,60,81,-1,81,60,58,-1,81,58,82,-1,82,58,56,-1,82,56,83,-1,83,56,54,-1,83,54,84,-1,84,54,52,-1,84,52,68,-1,78,85,77,-1,77,85,86,-1,85,78,79,-1,85,79,87,-1,87,79,80,-1,87,80,88,-1,88,80,81,-1,88,81,89,-1,89,81,82,-1,89,82,90,-1,90,82,83,-1,90,83,91,-1,91,83,84,-1,91,84,92,-1,92,84,68,-1,92,68,93,-1,93,68,69,-1,93,69,94,-1,94,69,70,-1,94,70,95,-1,95,70,71,-1,95,71,96,-1,96,71,72,-1,96,72,97,-1,97,72,73,-1,97,73,98,-1,98,73,74,-1,98,74,99,-1,99,74,75,-1,99,75,100,-1,76,101,75,-1,75,101,100,-1,86,101,77,-1,77,101,76,-1,102,103,104,-1,104,103,105,-1,106,107,102,-1,102,107,103,-1,108,109,106,-1,106,109,107,-1,110,111,108,-1,108,111,109,-1,112,113,110,-1,110,113,111,-1,114,115,112,-1,112,115,113,-1,116,117,114,-1,114,117,115,-1,118,119,116,-1,116,119,117,-1,120,121,118,-1,118,121,119,-1,122,123,120,-1,120,123,121,-1,124,125,122,-1,122,125,123,-1,124,104,125,-1,125,104,105,-1,104,124,122,-1,122,120,104,-1,104,120,118,-1,104,118,102,-1,108,106,110,-1,110,106,102,-1,110,102,112,-1,112,102,118,-1,112,118,114,-1,114,118,116,-1,126,127,128,-1,126,128,129,-1,128,130,129,-1,129,130,131,-1,129,131,132,-1,132,131,133,-1,132,133,134,-1,134,133,135,-1,134,135,136,-1,136,135,137,-1,136,137,138,-1,138,137,139,-1,138,139,140,-1,140,139,141,-1,140,141,142,-1,142,141,143,-1,142,143,144,-1,144,143,145,-1,144,145,146,-1,146,145,147,-1,146,147,148,-1,148,147,149,-1,148,149,150,-1,150,149,151,-1,150,151,152,-1,152,151,153,-1,152,153,154,-1,154,153,155,-1,154,155,156,-1,156,155,157,-1,156,157,158,-1,158,157,159,-1,158,159,160,-1,161,162,159,-1,159,162,160,-1,162,161,163,-1,162,163,164,-1,164,163,165,-1,164,165,166,-1,166,165,167,-1,166,167,168,-1,168,167,169,-1,168,169,170,-1,170,169,171,-1,170,171,172,-1,172,171,173,-1,172,173,174,-1,174,173,175,-1,174,175,176,-1,176,175,177,-1,176,177,178,-1,178,177,179,-1,178,179,180,-1,180,179,181,-1,180,181,182,-1,182,181,183,-1,182,183,184,-1,184,183,185,-1,184,185,186,-1,186,185,187,-1,186,187,188,-1,188,187,189,-1,188,189,190,-1,190,189,191,-1,190,191,192,-1,192,191,193,-1,192,193,194,-1,194,193,195,-1,194,195,196,-1,196,195,197,-1,196,197,198,-1,198,197,199,-1,198,199,200,-1,201,202,199,-1,199,202,200,-1,203,202,204,-1,204,202,201,-1,203,204,205,-1,205,204,206,-1,205,206,207,-1,207,206,128,-1,207,128,127,-1,191,128,193,-1,193,128,206,-1,193,206,195,-1,195,206,204,-1,195,204,197,-1,197,204,201,-1,197,201,199,-1,161,159,163,-1,163,159,157,-1,163,157,165,-1,165,157,155,-1,165,155,167,-1,167,155,153,-1,167,153,169,-1,169,153,151,-1,169,151,171,-1,171,151,149,-1,171,149,173,-1,173,149,147,-1,173,147,175,-1,175,147,145,-1,175,145,177,-1,177,145,143,-1,177,143,179,-1,179,143,141,-1,179,141,181,-1,181,141,139,-1,181,139,183,-1,183,139,137,-1,183,137,185,-1,185,137,135,-1,185,135,187,-1,187,135,133,-1,187,133,189,-1,189,133,131,-1,189,131,191,-1,191,131,130,-1,191,130,128,-1,208,209,210,-1,210,209,211,-1,212,213,208,-1,208,213,209,-1,214,215,212,-1,212,215,213,-1,216,217,214,-1,214,217,215,-1,218,219,216,-1,216,219,217,-1,218,210,219,-1,219,210,211,-1,212,208,214,-1,214,208,210,-1,214,210,216,-1,216,210,218,-1,
        ]
    }
}
Shape{
    appearance Appearance {
        material  Material 	{
            diffuseColor 0.10980392156862745 0.10980392156862745 0.10980392156862745
            specularColor 0.0784313725490196 0.0784313725490196 0.0784313725490196
            ambientIntensity 0.2
            transparency 0
            shininess 0.5
        }
    }
    geometry IndexedFaceSet {
        ccw TRUE
        solid FALSE
        coord DEF co Coordinate {
            point [
                -0.0204 0.1209 0.1575, -0.0204 0.1472 0.1575, 0.0125 0.1326 0.1575, 0.0125 0.1354 0.1575, 0.0152 0.1334 0.1575, 0.0152 0.1347 0.1575, 0.018 0.1339 0.1575, 0.018 0.1342 0.1575, 0.0189 0.0522 0.1575, 0.0189 0.0406 0.1575, -0.0425 0.0406 0.1575, -0.0206 0.0819 0.1575, -0.011 0.0829 0.1575, -0.0268 0.0798 0.1575, -0.0032 0.0822 0.1575, 0.003 0.0804 0.1575, 0.0179 0.0616 0.1575, -0.0425 0.0518 0.1575, -0.0417 0.0601 0.1575, -0.0397 0.0667 0.1575, 0.0079 0.0777 0.1575, 0.0119 0.0738 0.1575, 0.0157 0.0681 0.1575, -0.0365 0.072 0.1575, -0.0322 0.0764 0.1575, -0.0322 0.0764 0.1575
            ]
        }
        coordIndex [
            0,1,2,-1,2,1,3,-1,2,3,4,-1,4,3,5,-1,4,5,6,-1,6,5,7,-1,8,9,10,-1,11,12,8,-1,11,8,13,-1,12,14,8,-1,8,14,15,-1,8,15,16,-1,10,17,8,-1,8,17,18,-1,8,18,19,-1,20,21,15,-1,15,21,22,-1,15,22,16,-1,19,23,8,-1,8,23,24,-1,8,24,13,-1,
        ]
    }
}
Shape{
    appearance Appearance {
        material  Material 	{
            diffuseColor 1.0 1.0 1.0
            specularColor 0.8784313725490196 0.8784313725490196 0.8784313725490196
            ambientIntensity 0.2
            transparency 0
            shininess 0.5
        }
    }
    geometry IndexedFaceSet {
        ccw TRUE
        solid FALSE
        coord DEF co Coordinate {
            point [
                1.6969 0.3937 1.2008, 1.6969 -0.3937 1.2008, 1.6969 0.3937 1.2402, 1.6969 -0.3937 1.2402, 1.3031 -0.3937 1.2008, 1.3031 0.3937 1.2008, 1.3031 -0.3937 1.2402, 1.3031 0.3937 1.2402, 1.3031 0.3937 1.2402
            ]
        }
        coordIndex [
            0,1,2,-1,2,1,3,-1,4,5,6,-1,6,5,7,-1,5,0,7,-1,7,0,2,-1,
        ]
    }
}
Shape{
    appearance Appearance {
        material  Material 	{
            diffuseColor 0.25098039215686274 0.25098039215686274 0.25098039215686274
            specularColor 0.17647058823529413 0.17647058823529413 0.17647058823529413
            ambientIntensity 0.2
            transparency 0
            shininess 0.5
        }
    }
    geometry IndexedFaceSet {
        ccw TRUE
        solid FALSE
        coord DEF co Coordinate {
            point [
                1.7362 0.4921 1.2402, 1.7362 -0.4921 1.2402, 1.7362 0.7283 1.3976, 1.7362 -0.7283 1.3976, 1.2638 -0.4921 1.2402, 1.2638 0.4921 1.2402, 1.2638 -0.7283 1.3976, 1.2638 0.7283 1.3976, 1.6772 -0.3937 1.2402, 1.3228 -0.3937 1.2402, 1.3031 -0.3937 1.2402, 1.3031 0.3937 1.2402, 1.6969 0.3937 1.2402, 1.6969 -0.3937 1.2402, 1.6969 -0.3937 1.2402
            ]
        }
        coordIndex [
            0,1,2,-1,2,1,3,-1,4,5,6,-1,6,5,7,-1,3,1,6,-1,6,1,4,-1,4,1,8,-1,8,9,4,-1,4,9,10,-1,4,10,5,-1,5,10,11,-1,5,11,0,-1,0,11,12,-1,0,12,1,-1,1,12,13,-1,1,13,8,-1,7,5,2,-1,2,5,0,-1,
        ]
    }
}
Shape{
    appearance Appearance {
        material  Material 	{
            diffuseColor 1.0 1.0 1.0
            specularColor 0.30196078431372547 0.30196078431372547 0.30196078431372547
            ambientIntensity 0.2
            transparency 0
            shininess 0.5
        }
    }
    geometry IndexedFaceSet {
        ccw TRUE
        solid FALSE
        coord DEF co Coordinate {
            point [
                1.6772 -0.3937 1.2008, 1.6772 -0.0787 1.2008, 1.6772 -0.3937 1.2402, 1.6772 -0.0787 1.3976, 1.6772 -0.3937 1.3976, 1.3228 -0.0787 1.3976, 1.3228 -0.0787 1.2008, 1.3228 -0.3937 1.3976, 1.3228 -0.3937 1.2402, 1.3228 -0.3937 1.2008, 1.3228 -0.3937 1.2008
            ]
        }
        coordIndex [
            0,1,2,-1,2,1,3,-1,2,3,4,-1,5,3,6,-1,6,3,1,-1,7,5,8,-1,8,5,6,-1,8,6,9,-1,4,7,2,-1,2,7,8,-1,5,7,3,-1,3,7,4,-1,
        ]
    }
}
Shape{
    appearance Appearance {
        material  Material 	{
            diffuseColor 0.9686274509803922 0.8784313725490196 0.6
            specularColor 0.6784313725490196 0.615686274509804 0.4196078431372549
            ambientIntensity 0.2
            transparency 0
            shininess 0.5
        }
    }
    geometry IndexedFaceSet {
        ccw TRUE
        solid FALSE
        coord DEF co Coordinate {
            point [
                1.1969 -1.3168 0.689, 1.1969 -1.2205 0.689, 1.1969 -1.3168 0.5906, 1.1969 -1.2205 0.6299, 1.1969 -1.2172 0.5906, 1.8031 -1.2172 0.5906, 1.8031 -1.3168 0.5906, 1.8031 -1.2205 0.689, 1.8031 -1.3168 0.689, 1.8031 -1.2205 0.6299, 1.1969 -1.3455 0.5677, 1.1969 -1.4414 0.5898, 1.1969 -1.3434 0.5739, 1.1969 -1.4319 0.6168, 1.1969 -1.3398 0.5795, 1.1969 -1.4167 0.641, 1.1969 -1.3352 0.5841, 1.1969 -1.3964 0.6612, 1.1969 -1.3296 0.5876, 1.1969 -1.3722 0.6764, 1.1969 -1.3233 0.5898, 1.1969 -1.3452 0.6858, 1.8031 -1.3233 0.5898, 1.8031 -1.3296 0.5876, 1.8031 -1.3352 0.5841, 1.8031 -1.3398 0.5795, 1.8031 -1.3434 0.5739, 1.8031 -1.3455 0.5677, 1.8031 -1.3452 0.6858, 1.8031 -1.3722 0.6764, 1.8031 -1.3964 0.6612, 1.8031 -1.4167 0.641, 1.8031 -1.4319 0.6168, 1.8031 -1.4414 0.5898, 1.1969 -1.5078 0.3025, 1.1969 -1.4068 0.3025, 1.378 -1.8307 0.0984, 1.378 -1.8307 0.0, 1.622 -1.8307 0.0984, 1.622 -1.8307 0.0, 1.378 -1.5784 0.0, 1.622 -1.5784 0.0, 1.378 -1.55 0.0032, 1.622 -1.55 0.0032, 1.378 -1.523 0.0126, 1.622 -1.523 0.0126, 1.378 -1.4987 0.0278, 1.622 -1.4987 0.0278, 1.378 -1.4785 0.048, 1.622 -1.4785 0.048, 1.378 -1.4632 0.0722, 1.622 -1.4632 0.0722, 1.378 -1.4537 0.0992, 1.622 -1.4537 0.0992, 1.622 -1.4486 0.1213, 1.378 -1.4486 0.1213, 1.8031 -1.4068 0.3025, 1.8031 -1.5078 0.3025, 1.378 -1.5496 0.1213, 1.622 -1.5496 0.1213, 1.622 -1.5518 0.1151, 1.378 -1.5518 0.1151, 1.622 -1.5553 0.1095, 1.378 -1.5553 0.1095, 1.622 -1.56 0.1048, 1.378 -1.56 0.1048, 1.622 -1.5656 0.1013, 1.378 -1.5656 0.1013, 1.622 -1.5718 0.0992, 1.378 -1.5718 0.0992, 1.622 -1.5784 0.0984, 1.378 -1.5784 0.0984, 1.8031 1.3168 0.689, 1.8031 1.2205 0.689, 1.8031 1.3168 0.5906, 1.8031 1.2205 0.6299, 1.8031 1.2172 0.5906, 1.1969 1.2172 0.5906, 1.1969 1.3168 0.5906, 1.1969 1.2205 0.689, 1.1969 1.3168 0.689, 1.1969 1.2205 0.6299, 1.8031 1.3455 0.5677, 1.8031 1.4414 0.5898, 1.8031 1.3434 0.5739, 1.8031 1.4319 0.6168, 1.8031 1.3398 0.5795, 1.8031 1.4167 0.641, 1.8031 1.3352 0.5841, 1.8031 1.3964 0.6612, 1.8031 1.3296 0.5876, 1.8031 1.3722 0.6764, 1.8031 1.3233 0.5898, 1.8031 1.3452 0.6858, 1.1969 1.3233 0.5898, 1.1969 1.3296 0.5876, 1.1969 1.3352 0.5841, 1.1969 1.3398 0.5795, 1.1969 1.3434 0.5739, 1.1969 1.3455 0.5677, 1.1969 1.3452 0.6858, 1.1969 1.3722 0.6764, 1.1969 1.3964 0.6612, 1.1969 1.4167 0.641, 1.1969 1.4319 0.6168, 1.1969 1.4414 0.5898, 1.1969 1.4068 0.3025, 1.1969 1.5078 0.3025, 1.8031 1.5078 0.3025, 1.622 1.5496 0.1213, 1.378 1.5496 0.1213, 1.378 1.5518 0.1151, 1.622 1.5518 0.1151, 1.378 1.5553 0.1095, 1.622 1.5553 0.1095, 1.378 1.56 0.1048, 1.622 1.56 0.1048, 1.378 1.5656 0.1013, 1.622 1.5656 0.1013, 1.378 1.5718 0.0992, 1.622 1.5718 0.0992, 1.378 1.5784 0.0984, 1.622 1.5784 0.0984, 1.622 1.8307 0.0984, 1.378 1.8307 0.0984, 1.378 1.5784 -0.0, 1.622 1.5784 -0.0, 1.622 1.55 0.0032, 1.378 1.55 0.0032, 1.622 1.523 0.0126, 1.378 1.523 0.0126, 1.622 1.4987 0.0278, 1.378 1.4987 0.0278, 1.622 1.4785 0.048, 1.378 1.4785 0.048, 1.622 1.4632 0.0722, 1.378 1.4632 0.0722, 1.622 1.4537 0.0992, 1.378 1.4537 0.0992, 1.622 1.8307 -0.0, 1.378 1.8307 -0.0, 1.378 1.4486 0.1213, 1.622 1.4486 0.1213, 1.8031 1.4068 0.3025, 1.8031 1.4068 0.3025
            ]
        }
        coordIndex [
            0,1,2,-1,2,1,3,-1,2,3,4,-1,5,6,4,-1,4,6,2,-1,7,8,9,-1,9,8,6,-1,9,6,5,-1,1,0,7,-1,7,0,8,-1,10,11,12,-1,12,11,13,-1,12,13,14,-1,14,13,15,-1,14,15,16,-1,16,15,17,-1,16,17,18,-1,18,17,19,-1,18,19,20,-1,20,19,21,-1,20,21,2,-1,2,21,0,-1,2,6,20,-1,20,6,22,-1,20,22,18,-1,18,22,23,-1,18,23,16,-1,16,23,24,-1,16,24,14,-1,14,24,25,-1,14,25,12,-1,12,25,26,-1,12,26,10,-1,10,26,27,-1,6,8,22,-1,22,8,28,-1,22,28,23,-1,23,28,29,-1,23,29,24,-1,24,29,30,-1,24,30,25,-1,25,30,31,-1,25,31,26,-1,26,31,32,-1,26,32,27,-1,27,32,33,-1,11,33,32,-1,11,32,13,-1,13,32,31,-1,13,31,15,-1,15,31,30,-1,15,30,17,-1,17,30,29,-1,17,29,19,-1,19,29,28,-1,19,28,21,-1,21,28,8,-1,21,8,0,-1,11,10,34,-1,34,10,35,-1,36,37,38,-1,38,37,39,-1,37,40,39,-1,39,40,41,-1,41,40,42,-1,41,42,43,-1,43,42,44,-1,43,44,45,-1,45,44,46,-1,45,46,47,-1,47,46,48,-1,47,48,49,-1,49,48,50,-1,49,50,51,-1,51,50,52,-1,51,52,53,-1,53,52,54,-1,54,52,55,-1,54,55,56,-1,56,55,35,-1,56,35,27,-1,27,35,10,-1,27,33,56,-1,56,33,57,-1,58,59,34,-1,34,59,57,-1,34,57,11,-1,11,57,33,-1,59,58,60,-1,60,58,61,-1,60,61,62,-1,62,61,63,-1,62,63,64,-1,64,63,65,-1,64,65,66,-1,66,65,67,-1,66,67,68,-1,68,67,69,-1,68,69,70,-1,70,69,71,-1,55,58,35,-1,35,58,34,-1,37,36,40,-1,40,36,71,-1,40,71,42,-1,42,71,69,-1,42,69,44,-1,44,69,67,-1,44,67,46,-1,46,67,65,-1,46,65,48,-1,48,65,63,-1,48,63,50,-1,50,63,61,-1,50,61,52,-1,52,61,58,-1,52,58,55,-1,71,36,70,-1,70,36,38,-1,54,59,53,-1,53,59,60,-1,38,39,70,-1,70,39,41,-1,70,41,68,-1,68,41,43,-1,68,43,66,-1,66,43,45,-1,66,45,64,-1,64,45,47,-1,64,47,62,-1,62,47,49,-1,62,49,60,-1,60,49,51,-1,60,51,53,-1,59,54,57,-1,57,54,56,-1,72,73,74,-1,74,73,75,-1,74,75,76,-1,77,78,76,-1,76,78,74,-1,79,80,81,-1,81,80,78,-1,81,78,77,-1,73,72,79,-1,79,72,80,-1,82,83,84,-1,84,83,85,-1,84,85,86,-1,86,85,87,-1,86,87,88,-1,88,87,89,-1,88,89,90,-1,90,89,91,-1,90,91,92,-1,92,91,93,-1,92,93,74,-1,74,93,72,-1,74,78,92,-1,92,78,94,-1,92,94,90,-1,90,94,95,-1,90,95,88,-1,88,95,96,-1,88,96,86,-1,86,96,97,-1,86,97,84,-1,84,97,98,-1,84,98,82,-1,82,98,99,-1,78,80,94,-1,94,80,100,-1,94,100,95,-1,95,100,101,-1,95,101,96,-1,96,101,102,-1,96,102,97,-1,97,102,103,-1,97,103,98,-1,98,103,104,-1,98,104,99,-1,99,104,105,-1,83,105,104,-1,83,104,85,-1,85,104,103,-1,85,103,87,-1,87,103,102,-1,87,102,89,-1,89,102,101,-1,89,101,91,-1,91,101,100,-1,91,100,93,-1,93,100,80,-1,93,80,72,-1,106,99,107,-1,107,99,105,-1,105,83,108,-1,109,110,108,-1,108,110,107,-1,108,107,105,-1,110,109,111,-1,111,109,112,-1,111,112,113,-1,113,112,114,-1,113,114,115,-1,115,114,116,-1,115,116,117,-1,117,116,118,-1,117,118,119,-1,119,118,120,-1,119,120,121,-1,121,120,122,-1,123,124,122,-1,122,124,121,-1,125,126,127,-1,125,127,128,-1,128,127,129,-1,128,129,130,-1,130,129,131,-1,130,131,132,-1,132,131,133,-1,132,133,134,-1,134,133,135,-1,134,135,136,-1,136,135,137,-1,136,137,138,-1,126,125,139,-1,139,125,140,-1,139,140,123,-1,123,140,124,-1,141,110,138,-1,138,110,111,-1,124,140,121,-1,121,140,125,-1,121,125,119,-1,119,125,128,-1,119,128,117,-1,117,128,130,-1,117,130,115,-1,115,130,132,-1,115,132,113,-1,113,132,134,-1,113,134,111,-1,111,134,136,-1,111,136,138,-1,141,106,110,-1,110,106,107,-1,138,137,141,-1,141,137,142,-1,141,142,106,-1,106,142,143,-1,106,143,99,-1,99,143,82,-1,108,83,143,-1,143,83,82,-1,109,108,142,-1,142,108,143,-1,139,123,126,-1,126,123,122,-1,126,122,127,-1,127,122,120,-1,127,120,129,-1,129,120,118,-1,129,118,131,-1,131,118,116,-1,131,116,133,-1,133,116,114,-1,133,114,135,-1,135,114,112,-1,135,112,137,-1,137,112,109,-1,137,109,142,-1,
        ]
    }
}
Shape{
    appearance Appearance {
        material  Material 	{
            diffuseColor 1.0 1.0 1.0
            specularColor 0.8784313725490196 0.8784313725490196 0.8784313725490196
            ambientIntensity 0.2
            transparency 0
            shininess 0.5
        }
    }
    geometry IndexedFaceSet {
        ccw TRUE
        solid FALSE
        coord DEF co Coordinate {
            point [
                -1.3031 0.3937 1.2008, -1.3031 -0.3937 1.2008, -1.3031 0.3937 1.2402, -1.3031 -0.3937 1.2402, -1.6969 -0.3937 1.2008, -1.6969 0.3937 1.2008, -1.6969 -0.3937 1.2402, -1.6969 0.3937 1.2402, -1.6969 0.3937 1.2402
            ]
        }
        coordIndex [
            0,1,2,-1,2,1,3,-1,4,5,6,-1,6,5,7,-1,5,0,7,-1,7,0,2,-1,
        ]
    }
}
Shape{
    appearance Appearance {
        material  Material 	{
            diffuseColor 0.25098039215686274 0.25098039215686274 0.25098039215686274
            specularColor 0.17647058823529413 0.17647058823529413 0.17647058823529413
            ambientIntensity 0.2
            transparency 0
            shininess 0.5
        }
    }
    geometry IndexedFaceSet {
        ccw TRUE
        solid FALSE
        coord DEF co Coordinate {
            point [
                -1.2638 0.4921 1.2402, -1.2638 -0.4921 1.2402, -1.2638 0.7283 1.3976, -1.2638 -0.7283 1.3976, -1.7362 -0.4921 1.2402, -1.7362 0.4921 1.2402, -1.7362 -0.7283 1.3976, -1.7362 0.7283 1.3976, -1.6357 -0.7283 1.3976, -1.4911 -0.7283 1.3976, -1.3228 -0.3937 1.2402, -1.6772 -0.3937 1.2402, -1.6969 -0.3937 1.2402, -1.6969 0.3937 1.2402, -1.3031 0.3937 1.2402, -1.3031 -0.3937 1.2402, -1.4911 0.7283 1.3976, -1.6357 0.7283 1.3976, -1.6357 0.7283 1.3976
            ]
        }
        coordIndex [
            0,1,2,-1,2,1,3,-1,4,5,6,-1,6,5,7,-1,4,6,8,-1,4,8,1,-1,1,8,9,-1,1,9,3,-1,4,1,10,-1,10,11,4,-1,4,11,12,-1,4,12,5,-1,5,12,13,-1,5,13,0,-1,0,13,14,-1,0,14,1,-1,1,14,15,-1,1,15,10,-1,0,2,16,-1,0,16,5,-1,5,16,17,-1,5,17,7,-1,
        ]
    }
}
Shape{
    appearance Appearance {
        material  Material 	{
            diffuseColor 1.0 1.0 1.0
            specularColor 0.8784313725490196 0.8784313725490196 0.8784313725490196
            ambientIntensity 0.2
            transparency 0
            shininess 0.5
        }
    }
    geometry IndexedFaceSet {
        ccw TRUE
        solid FALSE
        coord DEF co Coordinate {
            point [
                -0.3031 0.3937 1.2008, -0.3031 -0.3937 1.2008, -0.3031 0.3937 1.2402, -0.3031 -0.3937 1.2402, -0.6969 -0.3937 1.2008, -0.6969 0.3937 1.2008, -0.6969 -0.3937 1.2402, -0.6969 0.3937 1.2402, -0.6969 0.3937 1.2402
            ]
        }
        coordIndex [
            0,1,2,-1,2,1,3,-1,4,5,6,-1,6,5,7,-1,5,0,7,-1,7,0,2,-1,
        ]
    }
}
Shape{
    appearance Appearance {
        material  Material 	{
            diffuseColor 0.25098039215686274 0.25098039215686274 0.25098039215686274
            specularColor 0.17647058823529413 0.17647058823529413 0.17647058823529413
            ambientIntensity 0.2
            transparency 0
            shininess 0.5
        }
    }
    geometry IndexedFaceSet {
        ccw TRUE
        solid FALSE
        coord DEF co Coordinate {
            point [
                -0.2638 0.4921 1.2402, -0.2638 -0.4921 1.2402, -0.2638 0.7283 1.3976, -0.2638 -0.7283 1.3976, -0.7362 -0.4921 1.2402, -0.7362 0.4921 1.2402, -0.7362 -0.7283 1.3976, -0.7362 0.7283 1.3976, -0.3228 -0.3937 1.2402, -0.6772 -0.3937 1.2402, -0.6969 -0.3937 1.2402, -0.6969 0.3937 1.2402, -0.3031 0.3937 1.2402, -0.3031 -0.3937 1.2402, -0.3031 -0.3937 1.2402
            ]
        }
        coordIndex [
            0,1,2,-1,2,1,3,-1,4,5,6,-1,6,5,7,-1,3,1,6,-1,6,1,4,-1,4,1,8,-1,8,9,4,-1,4,9,10,-1,4,10,5,-1,5,10,11,-1,5,11,0,-1,0,11,12,-1,0,12,1,-1,1,12,13,-1,1,13,8,-1,7,5,2,-1,2,5,0,-1,
        ]
    }
}
Shape{
    appearance Appearance {
        material  Material 	{
            diffuseColor 1.0 1.0 1.0
            specularColor 0.30196078431372547 0.30196078431372547 0.30196078431372547
            ambientIntensity 0.2
            transparency 0
            shininess 0.5
        }
    }
    geometry IndexedFaceSet {
        ccw TRUE
        solid FALSE
        coord DEF co Coordinate {
            point [
                -0.3228 -0.3937 1.2008, -0.3228 -0.0787 1.2008, -0.3228 -0.3937 1.2402, -0.3228 -0.0787 1.3976, -0.3228 -0.3937 1.3976, -0.6772 -0.0787 1.3976, -0.6772 -0.0787 1.2008, -0.6772 -0.3937 1.3976, -0.6772 -0.3937 1.2402, -0.6772 -0.3937 1.2008, -1.3228 -0.3937 1.2008, -1.3228 -0.0787 1.2008, -1.3228 -0.3937 1.2402, -1.3228 -0.0787 1.3976, -1.3228 -0.3937 1.3976, -1.6772 -0.0787 1.3976, -1.6772 -0.0787 1.2008, -1.6772 -0.3937 1.3976, -1.6772 -0.3937 1.2402, -1.6772 -0.3937 1.2008, -1.6772 -0.3937 1.2008
            ]
        }
        coordIndex [
            0,1,2,-1,2,1,3,-1,2,3,4,-1,5,3,6,-1,6,3,1,-1,7,5,8,-1,8,5,6,-1,8,6,9,-1,4,7,2,-1,2,7,8,-1,5,7,3,-1,3,7,4,-1,10,11,12,-1,12,11,13,-1,12,13,14,-1,15,13,16,-1,16,13,11,-1,17,15,18,-1,18,15,16,-1,18,16,19,-1,14,17,12,-1,12,17,18,-1,15,17,13,-1,13,17,14,-1,
        ]
    }
}
Shape{
    appearance Appearance {
        material  Material 	{
            diffuseColor 0.9686274509803922 0.8784313725490196 0.6
            specularColor 0.6784313725490196 0.615686274509804 0.4196078431372549
            ambientIntensity 0.2
            transparency 0
            shininess 0.5
        }
    }
    geometry IndexedFaceSet {
        ccw TRUE
        solid FALSE
        coord DEF co Coordinate {
            point [
                -0.8031 -1.3168 0.689, -0.8031 -1.2205 0.689, -0.8031 -1.3168 0.5906, -0.8031 -1.2205 0.6299, -0.8031 -1.2172 0.5906, -0.1969 -1.2172 0.5906, -0.1969 -1.3168 0.5906, -0.1969 -1.2205 0.689, -0.1969 -1.3168 0.689, -0.1969 -1.2205 0.6299, -0.8031 -1.3455 0.5677, -0.8031 -1.4414 0.5898, -0.8031 -1.3434 0.5739, -0.8031 -1.4319 0.6168, -0.8031 -1.3398 0.5795, -0.8031 -1.4167 0.641, -0.8031 -1.3352 0.5841, -0.8031 -1.3964 0.6612, -0.8031 -1.3296 0.5876, -0.8031 -1.3722 0.6764, -0.8031 -1.3233 0.5898, -0.8031 -1.3452 0.6858, -0.1969 -1.3233 0.5898, -0.1969 -1.3296 0.5876, -0.1969 -1.3352 0.5841, -0.1969 -1.3398 0.5795, -0.1969 -1.3434 0.5739, -0.1969 -1.3455 0.5677, -0.1969 -1.3452 0.6858, -0.1969 -1.3722 0.6764, -0.1969 -1.3964 0.6612, -0.1969 -1.4167 0.641, -0.1969 -1.4319 0.6168, -0.1969 -1.4414 0.5898, -0.8031 -1.5078 0.3025, -0.8031 -1.4068 0.3025, -0.622 -1.8307 0.0984, -0.622 -1.8307 0.0, -0.378 -1.8307 0.0984, -0.378 -1.8307 0.0, -0.622 -1.5784 0.0, -0.378 -1.5784 0.0, -0.622 -1.55 0.0032, -0.378 -1.55 0.0032, -0.622 -1.523 0.0126, -0.378 -1.523 0.0126, -0.622 -1.4987 0.0278, -0.378 -1.4987 0.0278, -0.622 -1.4785 0.048, -0.378 -1.4785 0.048, -0.622 -1.4632 0.0722, -0.378 -1.4632 0.0722, -0.622 -1.4537 0.0992, -0.378 -1.4537 0.0992, -0.378 -1.4486 0.1213, -0.622 -1.4486 0.1213, -0.1969 -1.4068 0.3025, -0.1969 -1.5078 0.3025, -0.622 -1.5496 0.1213, -0.378 -1.5496 0.1213, -0.378 -1.5518 0.1151, -0.622 -1.5518 0.1151, -0.378 -1.5553 0.1095, -0.622 -1.5553 0.1095, -0.378 -1.56 0.1048, -0.622 -1.56 0.1048, -0.378 -1.5656 0.1013, -0.622 -1.5656 0.1013, -0.378 -1.5718 0.0992, -0.622 -1.5718 0.0992, -0.378 -1.5784 0.0984, -0.622 -1.5784 0.0984, -1.8031 -1.3168 0.689, -1.8031 -1.2205 0.689, -1.8031 -1.3168 0.5906, -1.8031 -1.2205 0.6299, -1.8031 -1.2172 0.5906, -1.1969 -1.2172 0.5906, -1.1969 -1.3168 0.5906, -1.1969 -1.2205 0.689, -1.1969 -1.3168 0.689, -1.1969 -1.2205 0.6299, -1.8031 -1.3455 0.5677, -1.8031 -1.4414 0.5898, -1.8031 -1.3434 0.5739, -1.8031 -1.4319 0.6168, -1.8031 -1.3398 0.5795, -1.8031 -1.4167 0.641, -1.8031 -1.3352 0.5841, -1.8031 -1.3964 0.6612, -1.8031 -1.3296 0.5876, -1.8031 -1.3722 0.6764, -1.8031 -1.3233 0.5898, -1.8031 -1.3452 0.6858, -1.1969 -1.3233 0.5898, -1.1969 -1.3296 0.5876, -1.1969 -1.3352 0.5841, -1.1969 -1.3398 0.5795, -1.1969 -1.3434 0.5739, -1.1969 -1.3455 0.5677, -1.1969 -1.3452 0.6858, -1.1969 -1.3722 0.6764, -1.1969 -1.3964 0.6612, -1.1969 -1.4167 0.641, -1.1969 -1.4319 0.6168, -1.1969 -1.4414 0.5898, -1.8031 -1.5078 0.3025, -1.8031 -1.4068 0.3025, -1.622 -1.8307 0.0984, -1.622 -1.8307 0.0, -1.378 -1.8307 0.0984, -1.378 -1.8307 0.0, -1.622 -1.5784 0.0, -1.378 -1.5784 0.0, -1.622 -1.55 0.0032, -1.378 -1.55 0.0032, -1.622 -1.523 0.0126, -1.378 -1.523 0.0126, -1.622 -1.4987 0.0278, -1.378 -1.4987 0.0278, -1.622 -1.4785 0.048, -1.378 -1.4785 0.048, -1.622 -1.4632 0.0722, -1.378 -1.4632 0.0722, -1.622 -1.4537 0.0992, -1.378 -1.4537 0.0992, -1.378 -1.4486 0.1213, -1.622 -1.4486 0.1213, -1.1969 -1.4068 0.3025, -1.1969 -1.5078 0.3025, -1.622 -1.5496 0.1213, -1.378 -1.5496 0.1213, -1.378 -1.5518 0.1151, -1.622 -1.5518 0.1151, -1.378 -1.5553 0.1095, -1.622 -1.5553 0.1095, -1.378 -1.56 0.1048, -1.622 -1.56 0.1048, -1.378 -1.5656 0.1013, -1.622 -1.5656 0.1013, -1.378 -1.5718 0.0992, -1.622 -1.5718 0.0992, -1.378 -1.5784 0.0984, -1.622 -1.5784 0.0984, -0.1969 1.3168 0.689, -0.1969 1.2205 0.689, -0.1969 1.3168 0.5906, -0.1969 1.2205 0.6299, -0.1969 1.2172 0.5906, -0.8031 1.2172 0.5906, -0.8031 1.3168 0.5906, -0.8031 1.2205 0.689, -0.8031 1.3168 0.689, -0.8031 1.2205 0.6299, -0.1969 1.3455 0.5677, -0.1969 1.4414 0.5898, -0.1969 1.3434 0.5739, -0.1969 1.4319 0.6168, -0.1969 1.3398 0.5795, -0.1969 1.4167 0.641, -0.1969 1.3352 0.5841, -0.1969 1.3964 0.6612, -0.1969 1.3296 0.5876, -0.1969 1.3722 0.6764, -0.1969 1.3233 0.5898, -0.1969 1.3452 0.6858, -0.8031 1.3233 0.5898, -0.8031 1.3296 0.5876, -0.8031 1.3352 0.5841, -0.8031 1.3398 0.5795, -0.8031 1.3434 0.5739, -0.8031 1.3455 0.5677, -0.8031 1.3452 0.6858, -0.8031 1.3722 0.6764, -0.8031 1.3964 0.6612, -0.8031 1.4167 0.641, -0.8031 1.4319 0.6168, -0.8031 1.4414 0.5898, -0.8031 1.4068 0.3025, -0.8031 1.5078 0.3025, -0.378 1.5496 0.1213, -0.622 1.5496 0.1213, -0.1969 1.5078 0.3025, -0.622 1.5518 0.1151, -0.378 1.5518 0.1151, -0.622 1.5553 0.1095, -0.378 1.5553 0.1095, -0.622 1.56 0.1048, -0.378 1.56 0.1048, -0.622 1.5656 0.1013, -0.378 1.5656 0.1013, -0.622 1.5718 0.0992, -0.378 1.5718 0.0992, -0.622 1.5784 0.0984, -0.378 1.5784 0.0984, -0.378 1.8307 0.0984, -0.622 1.8307 0.0984, -0.622 1.5784 -0.0, -0.378 1.5784 -0.0, -0.378 1.55 0.0032, -0.622 1.55 0.0032, -0.378 1.523 0.0126, -0.622 1.523 0.0126, -0.378 1.4987 0.0278, -0.622 1.4987 0.0278, -0.378 1.4785 0.048, -0.622 1.4785 0.048, -0.378 1.4632 0.0722, -0.622 1.4632 0.0722, -0.378 1.4537 0.0992, -0.622 1.4537 0.0992, -0.378 1.8307 -0.0, -0.622 1.8307 -0.0, -0.622 1.4486 0.1213, -0.378 1.4486 0.1213, -0.1969 1.4068 0.3025, -1.1969 1.3168 0.689, -1.1969 1.2205 0.689, -1.1969 1.3168 0.5906, -1.1969 1.2205 0.6299, -1.1969 1.2172 0.5906, -1.8031 1.2172 0.5906, -1.8031 1.3168 0.5906, -1.8031 1.2205 0.689, -1.8031 1.3168 0.689, -1.8031 1.2205 0.6299, -1.1969 1.3455 0.5677, -1.1969 1.4414 0.5898, -1.1969 1.3434 0.5739, -1.1969 1.4319 0.6168, -1.1969 1.3398 0.5795, -1.1969 1.4167 0.641, -1.1969 1.3352 0.5841, -1.1969 1.3964 0.6612, -1.1969 1.3296 0.5876, -1.1969 1.3722 0.6764, -1.1969 1.3233 0.5898, -1.1969 1.3452 0.6858, -1.8031 1.3233 0.5898, -1.8031 1.3296 0.5876, -1.8031 1.3352 0.5841, -1.8031 1.3398 0.5795, -1.8031 1.3434 0.5739, -1.8031 1.3455 0.5677, -1.8031 1.3452 0.6858, -1.8031 1.3722 0.6764, -1.8031 1.3964 0.6612, -1.8031 1.4167 0.641, -1.8031 1.4319 0.6168, -1.8031 1.4414 0.5898, -1.8031 1.4068 0.3025, -1.8031 1.5078 0.3025, -1.378 1.5496 0.1213, -1.622 1.5496 0.1213, -1.1969 1.5078 0.3025, -1.622 1.5518 0.1151, -1.378 1.5518 0.1151, -1.622 1.5553 0.1095, -1.378 1.5553 0.1095, -1.622 1.56 0.1048, -1.378 1.56 0.1048, -1.622 1.5656 0.1013, -1.378 1.5656 0.1013, -1.622 1.5718 0.0992, -1.378 1.5718 0.0992, -1.622 1.5784 0.0984, -1.378 1.5784 0.0984, -1.378 1.8307 0.0984, -1.622 1.8307 0.0984, -1.622 1.5784 -0.0, -1.378 1.5784 -0.0, -1.378 1.55 0.0032, -1.622 1.55 0.0032, -1.378 1.523 0.0126, -1.622 1.523 0.0126, -1.378 1.4987 0.0278, -1.622 1.4987 0.0278, -1.378 1.4785 0.048, -1.622 1.4785 0.048, -1.378 1.4632 0.0722, -1.622 1.4632 0.0722, -1.378 1.4537 0.0992, -1.622 1.4537 0.0992, -1.378 1.8307 -0.0, -1.622 1.8307 -0.0, -1.622 1.4486 0.1213, -1.378 1.4486 0.1213, -1.1969 1.4068 0.3025, -1.1969 1.4068 0.3025
            ]
        }
        coordIndex [
            0,1,2,-1,2,1,3,-1,2,3,4,-1,5,6,4,-1,4,6,2,-1,7,8,9,-1,9,8,6,-1,9,6,5,-1,1,0,7,-1,7,0,8,-1,10,11,12,-1,12,11,13,-1,12,13,14,-1,14,13,15,-1,14,15,16,-1,16,15,17,-1,16,17,18,-1,18,17,19,-1,18,19,20,-1,20,19,21,-1,20,21,2,-1,2,21,0,-1,2,6,20,-1,20,6,22,-1,20,22,18,-1,18,22,23,-1,18,23,16,-1,16,23,24,-1,16,24,14,-1,14,24,25,-1,14,25,12,-1,12,25,26,-1,12,26,10,-1,10,26,27,-1,6,8,22,-1,22,8,28,-1,22,28,23,-1,23,28,29,-1,23,29,24,-1,24,29,30,-1,24,30,25,-1,25,30,31,-1,25,31,26,-1,26,31,32,-1,26,32,27,-1,27,32,33,-1,11,33,32,-1,11,32,13,-1,13,32,31,-1,13,31,15,-1,15,31,30,-1,15,30,17,-1,17,30,29,-1,17,29,19,-1,19,29,28,-1,19,28,21,-1,21,28,8,-1,21,8,0,-1,11,10,34,-1,34,10,35,-1,36,37,38,-1,38,37,39,-1,37,40,39,-1,39,40,41,-1,41,40,42,-1,41,42,43,-1,43,42,44,-1,43,44,45,-1,45,44,46,-1,45,46,47,-1,47,46,48,-1,47,48,49,-1,49,48,50,-1,49,50,51,-1,51,50,52,-1,51,52,53,-1,53,52,54,-1,54,52,55,-1,54,55,56,-1,56,55,35,-1,56,35,27,-1,27,35,10,-1,27,33,56,-1,56,33,57,-1,58,59,34,-1,34,59,57,-1,34,57,11,-1,11,57,33,-1,59,58,60,-1,60,58,61,-1,60,61,62,-1,62,61,63,-1,62,63,64,-1,64,63,65,-1,64,65,66,-1,66,65,67,-1,66,67,68,-1,68,67,69,-1,68,69,70,-1,70,69,71,-1,55,58,35,-1,35,58,34,-1,37,36,40,-1,40,36,71,-1,40,71,42,-1,42,71,69,-1,42,69,44,-1,44,69,67,-1,44,67,46,-1,46,67,65,-1,46,65,48,-1,48,65,63,-1,48,63,50,-1,50,63,61,-1,50,61,52,-1,52,61,58,-1,52,58,55,-1,71,36,70,-1,70,36,38,-1,54,59,53,-1,53,59,60,-1,38,39,70,-1,70,39,41,-1,70,41,68,-1,68,41,43,-1,68,43,66,-1,66,43,45,-1,66,45,64,-1,64,45,47,-1,64,47,62,-1,62,47,49,-1,62,49,60,-1,60,49,51,-1,60,51,53,-1,59,54,57,-1,57,54,56,-1,72,73,74,-1,74,73,75,-1,74,75,76,-1,77,78,76,-1,76,78,74,-1,79,80,81,-1,81,80,78,-1,81,78,77,-1,73,72,79,-1,79,72,80,-1,82,83,84,-1,84,83,85,-1,84,85,86,-1,86,85,87,-1,86,87,88,-1,88,87,89,-1,88,89,90,-1,90,89,91,-1,90,91,92,-1,92,91,93,-1,92,93,74,-1,74,93,72,-1,74,78,92,-1,92,78,94,-1,92,94,90,-1,90,94,95,-1,90,95,88,-1,88,95,96,-1,88,96,86,-1,86,96,97,-1,86,97,84,-1,84,97,98,-1,84,98,82,-1,82,98,99,-1,78,80,94,-1,94,80,100,-1,94,100,95,-1,95,100,101,-1,95,101,96,-1,96,101,102,-1,96,102,97,-1,97,102,103,-1,97,103,98,-1,98,103,104,-1,98,104,99,-1,99,104,105,-1,83,105,104,-1,83,104,85,-1,85,104,103,-1,85,103,87,-1,87,103,102,-1,87,102,89,-1,89,102,101,-1,89,101,91,-1,91,101,100,-1,91,100,93,-1,93,100,80,-1,93,80,72,-1,83,82,106,-1,106,82,107,-1,108,109,110,-1,110,109,111,-1,109,112,111,-1,111,112,113,-1,113,112,114,-1,113,114,115,-1,115,114,116,-1,115,116,117,-1,117,116,118,-1,117,118,119,-1,119,118,120,-1,119,120,121,-1,121,120,122,-1,121,122,123,-1,123,122,124,-1,123,124,125,-1,125,124,126,-1,126,124,127,-1,126,127,128,-1,128,127,107,-1,128,107,99,-1,99,107,82,-1,99,105,128,-1,128,105,129,-1,130,131,106,-1,106,131,129,-1,106,129,83,-1,83,129,105,-1,131,130,132,-1,132,130,133,-1,132,133,134,-1,134,133,135,-1,134,135,136,-1,136,135,137,-1,136,137,138,-1,138,137,139,-1,138,139,140,-1,140,139,141,-1,140,141,142,-1,142,141,143,-1,127,130,107,-1,107,130,106,-1,109,108,112,-1,112,108,143,-1,112,143,114,-1,114,143,141,-1,114,141,116,-1,116,141,139,-1,116,139,118,-1,118,139,137,-1,118,137,120,-1,120,137,135,-1,120,135,122,-1,122,135,133,-1,122,133,124,-1,124,133,130,-1,124,130,127,-1,143,108,142,-1,142,108,110,-1,126,131,125,-1,125,131,132,-1,110,111,142,-1,142,111,113,-1,142,113,140,-1,140,113,115,-1,140,115,138,-1,138,115,117,-1,138,117,136,-1,136,117,119,-1,136,119,134,-1,134,119,121,-1,134,121,132,-1,132,121,123,-1,132,123,125,-1,131,126,129,-1,129,126,128,-1,144,145,146,-1,146,145,147,-1,146,147,148,-1,149,150,148,-1,148,150,146,-1,151,152,153,-1,153,152,150,-1,153,150,149,-1,145,144,151,-1,151,144,152,-1,154,155,156,-1,156,155,157,-1,156,157,158,-1,158,157,159,-1,158,159,160,-1,160,159,161,-1,160,161,162,-1,162,161,163,-1,162,163,164,-1,164,163,165,-1,164,165,146,-1,146,165,144,-1,146,150,164,-1,164,150,166,-1,164,166,162,-1,162,166,167,-1,162,167,160,-1,160,167,168,-1,160,168,158,-1,158,168,169,-1,158,169,156,-1,156,169,170,-1,156,170,154,-1,154,170,171,-1,150,152,166,-1,166,152,172,-1,166,172,167,-1,167,172,173,-1,167,173,168,-1,168,173,174,-1,168,174,169,-1,169,174,175,-1,169,175,170,-1,170,175,176,-1,170,176,171,-1,171,176,177,-1,155,177,176,-1,155,176,157,-1,157,176,175,-1,157,175,159,-1,159,175,174,-1,159,174,161,-1,161,174,173,-1,161,173,163,-1,163,173,172,-1,163,172,165,-1,165,172,152,-1,165,152,144,-1,178,171,179,-1,179,171,177,-1,180,181,182,-1,182,181,179,-1,182,179,155,-1,155,179,177,-1,181,180,183,-1,183,180,184,-1,183,184,185,-1,185,184,186,-1,185,186,187,-1,187,186,188,-1,187,188,189,-1,189,188,190,-1,189,190,191,-1,191,190,192,-1,191,192,193,-1,193,192,194,-1,195,196,194,-1,194,196,193,-1,197,198,199,-1,197,199,200,-1,200,199,201,-1,200,201,202,-1,202,201,203,-1,202,203,204,-1,204,203,205,-1,204,205,206,-1,206,205,207,-1,206,207,208,-1,208,207,209,-1,208,209,210,-1,198,197,211,-1,211,197,212,-1,211,212,195,-1,195,212,196,-1,213,181,210,-1,210,181,183,-1,196,212,193,-1,193,212,197,-1,193,197,191,-1,191,197,200,-1,191,200,189,-1,189,200,202,-1,189,202,187,-1,187,202,204,-1,187,204,185,-1,185,204,206,-1,185,206,183,-1,183,206,208,-1,183,208,210,-1,213,178,181,-1,181,178,179,-1,213,210,209,-1,209,214,213,-1,213,214,215,-1,213,215,178,-1,178,215,154,-1,178,154,171,-1,182,155,215,-1,215,155,154,-1,180,182,214,-1,214,182,215,-1,211,195,198,-1,198,195,194,-1,198,194,199,-1,199,194,192,-1,199,192,201,-1,201,192,190,-1,201,190,203,-1,203,190,188,-1,203,188,205,-1,205,188,186,-1,205,186,207,-1,207,186,184,-1,207,184,209,-1,209,184,180,-1,209,180,214,-1,216,217,218,-1,218,217,219,-1,218,219,220,-1,221,222,220,-1,220,222,218,-1,223,224,225,-1,225,224,222,-1,225,222,221,-1,217,216,223,-1,223,216,224,-1,226,227,228,-1,228,227,229,-1,228,229,230,-1,230,229,231,-1,230,231,232,-1,232,231,233,-1,232,233,234,-1,234,233,235,-1,234,235,236,-1,236,235,237,-1,236,237,218,-1,218,237,216,-1,218,222,236,-1,236,222,238,-1,236,238,234,-1,234,238,239,-1,234,239,232,-1,232,239,240,-1,232,240,230,-1,230,240,241,-1,230,241,228,-1,228,241,242,-1,228,242,226,-1,226,242,243,-1,222,224,238,-1,238,224,244,-1,238,244,239,-1,239,244,245,-1,239,245,240,-1,240,245,246,-1,240,246,241,-1,241,246,247,-1,241,247,242,-1,242,247,248,-1,242,248,243,-1,243,248,249,-1,227,249,248,-1,227,248,229,-1,229,248,247,-1,229,247,231,-1,231,247,246,-1,231,246,233,-1,233,246,245,-1,233,245,235,-1,235,245,244,-1,235,244,237,-1,237,244,224,-1,237,224,216,-1,250,243,251,-1,251,243,249,-1,252,253,254,-1,254,253,251,-1,254,251,227,-1,227,251,249,-1,253,252,255,-1,255,252,256,-1,255,256,257,-1,257,256,258,-1,257,258,259,-1,259,258,260,-1,259,260,261,-1,261,260,262,-1,261,262,263,-1,263,262,264,-1,263,264,265,-1,265,264,266,-1,267,268,266,-1,266,268,265,-1,269,270,271,-1,269,271,272,-1,272,271,273,-1,272,273,274,-1,274,273,275,-1,274,275,276,-1,276,275,277,-1,276,277,278,-1,278,277,279,-1,278,279,280,-1,280,279,281,-1,280,281,282,-1,270,269,283,-1,283,269,284,-1,283,284,267,-1,267,284,268,-1,285,253,282,-1,282,253,255,-1,268,284,265,-1,265,284,269,-1,265,269,263,-1,263,269,272,-1,263,272,261,-1,261,272,274,-1,261,274,259,-1,259,274,276,-1,259,276,257,-1,257,276,278,-1,257,278,255,-1,255,278,280,-1,255,280,282,-1,285,250,253,-1,253,250,251,-1,282,281,285,-1,285,281,286,-1,285,286,250,-1,250,286,287,-1,250,287,243,-1,243,287,226,-1,254,227,287,-1,287,227,226,-1,252,254,286,-1,286,254,287,-1,283,267,270,-1,270,267,266,-1,270,266,271,-1,271,266,264,-1,271,264,273,-1,273,264,262,-1,273,262,275,-1,275,262,260,-1,275,260,277,-1,277,260,258,-1,277,258,279,-1,279,258,256,-1,279,256,281,-1,281,256,252,-1,281,252,286,-1,
        ]
    }
}
Shape{
    appearance Appearance {
        material  Material 	{
            diffuseColor 1.0 1.0 1.0
            specularColor 0.30196078431372547 0.30196078431372547 0.30196078431372547
            ambientIntensity 0.2
            transparency 0
            shininess 0.5
        }
    }
    geometry IndexedFaceSet {
        ccw TRUE
        solid FALSE
        coord DEF co Coordinate {
            point [
                0.6772 -0.0787 1.3976, 0.6772 -0.3937 1.3976, 0.6772 -0.0787 1.2008, 0.6772 -0.3937 1.2008, 0.3228 -0.0787 1.3976, 0.3228 -0.0787 1.2008, 0.3228 -0.3937 1.3976, 0.3228 -0.3937 1.2008, 0.3228 -0.3937 1.2008
            ]
        }
        coordIndex [
            0,1,2,-1,2,1,3,-1,4,0,5,-1,5,0,2,-1,6,4,7,-1,7,4,5,-1,1,6,3,-1,3,6,7,-1,4,6,0,-1,0,6,1,-1,7,5,3,-1,3,5,2,-1,
        ]
    }
}